<?xml version="1.0" standalone="no"?>
<!DOCTYPE svg PUBLIC "-//W3C//DTD SVG 20010904//EN"
 "http://www.w3.org/TR/2001/REC-SVG-20010904/DTD/svg10.dtd">
<svg version="1.0" xmlns="http://www.w3.org/2000/svg"
 width="427.000000pt" height="427.000000pt" viewBox="0 0 427.000000 427.000000"
 preserveAspectRatio="xMidYMid meet">
<metadata>
Created by potrace 1.11, written by Peter Selinger 2001-2013
</metadata>
<g transform="translate(0.000000,427.000000) scale(0.100000,-0.100000)"
fill="#000000" stroke="none">
<path d="M3174 3583 c-12 -2 -24 -13 -27 -23 -3 -10 -19 -27 -36 -38 -28 -17
-29 -20 -17 -38 13 -16 12 -21 0 -36 -11 -12 -12 -18 -4 -23 7 -4 16 -1 21 6
6 10 9 8 9 -8 0 -13 6 -23 14 -23 8 0 21 -2 29 -6 10 -4 22 19 45 88 17 51 30
93 29 94 -8 6 -46 10 -63 7z"/>
<path d="M3048 3390 c-12 -17 -31 -30 -44 -30 -27 0 -74 -36 -74 -57 0 -8 -6
-27 -14 -41 -8 -15 -17 -39 -20 -54 -5 -21 -21 -35 -69 -61 -53 -29 -71 -34
-120 -32 -72 3 -78 -7 -42 -70 28 -52 27 -74 -9 -114 -20 -23 -20 -24 -1 -16
11 5 37 10 58 13 28 3 37 1 37 -11 0 -8 6 -20 14 -26 12 -10 13 -8 9 9 -4 15
-2 19 10 14 9 -3 13 -12 10 -22 -4 -8 29 22 73 68 53 56 79 91 79 106 -1 22 0
22 17 7 15 -13 18 -13 18 -2 1 21 83 69 119 69 17 0 31 5 31 10 0 6 7 10 15
10 8 0 15 5 15 10 0 6 -3 10 -7 10 -5 0 -9 11 -9 24 -1 19 2 23 15 19 15 -6
15 -5 -1 13 -9 10 -20 31 -23 47 -7 25 -16 32 -39 28 -5 -1 -16 1 -24 4 -11 4
-9 10 11 25 23 18 24 23 14 50 -14 37 -21 37 -49 0z"/>
<path d="M2856 3201 c-3 -5 1 -11 9 -14 9 -4 12 -1 8 9 -6 16 -10 17 -17 5z"/>
<path d="M2755 2800 c-3 -5 -12 -7 -19 -4 -17 6 -31 -55 -16 -70 5 -5 10 -25
10 -43 0 -21 6 -36 15 -39 8 -4 15 -12 15 -20 0 -8 6 -14 14 -14 8 0 16 -6 19
-12 3 -9 11 -4 25 12 16 20 18 26 7 33 -20 11 -8 34 21 41 13 4 24 12 24 18 0
6 8 20 17 30 14 15 14 19 3 16 -8 -2 -14 2 -13 9 2 7 -3 10 -11 7 -8 -3 -32 6
-55 20 -46 29 -48 30 -56 16z"/>
<path d="M907 2449 c-43 -10 -99 -37 -154 -75 -69 -47 -164 -85 -245 -97 -73
-10 -78 -13 -78 -35 0 -24 1 -25 60 -19 33 4 80 17 104 29 273 140 272 140
346 148 105 12 190 -3 288 -50 46 -22 97 -49 112 -60 16 -11 59 -32 97 -46
122 -46 257 -32 378 41 230 139 379 154 582 60 71 -34 92 -38 79 -17 -8 14
-135 88 -187 109 -32 13 -69 18 -139 18 -102 -1 -120 -7 -235 -79 -137 -87
-270 -118 -418 -97 -85 12 -152 39 -262 106 -39 23 -93 50 -118 59 -51 17
-148 20 -210 5z"/>
<path d="M3177 2436 c-64 -27 -156 -88 -139 -94 7 -2 41 7 75 21 181 72 346
49 547 -79 55 -34 120 -57 193 -67 35 -5 37 -4 37 22 0 27 -3 29 -52 35 -88
10 -174 42 -276 100 -53 30 -117 62 -142 71 -63 22 -175 18 -243 -9z"/>
<path d="M2587 2038 c5 -47 2 -56 -21 -81 -22 -24 -24 -31 -13 -47 6 -11 16
-20 20 -20 5 0 15 -7 23 -15 19 -19 45 -20 38 -1 -3 7 6 26 20 40 19 22 23 34
19 62 -3 20 -1 40 7 48 20 26 -17 65 -62 66 l-37 0 6 -52z"/>
<path d="M1185 2033 c-36 -8 -130 -44 -150 -57 -52 -32 -206 -75 -284 -78 -75
-4 -83 -28 -9 -28 49 0 230 42 253 59 6 4 44 19 85 32 63 20 94 24 195 23 112
0 217 -19 250 -44 6 -4 46 -20 90 -35 156 -52 375 -44 519 20 31 14 63 25 72
25 15 0 31 27 21 36 -3 3 -30 -6 -60 -20 -124 -59 -333 -85 -457 -57 -25 5
-56 12 -70 14 -14 3 -70 25 -125 50 -55 24 -116 49 -135 54 -38 11 -162 14
-195 6z"/>
<path d="M3480 2033 c-14 -2 -63 -23 -110 -45 -164 -76 -216 -88 -378 -89 -77
0 -102 -3 -99 -12 2 -8 38 -13 111 -15 113 -3 170 10 376 84 139 49 302 44
449 -16 37 -15 103 -37 145 -49 85 -23 190 -29 184 -9 -2 6 -15 13 -29 14 -13
2 -44 5 -69 7 -79 8 -112 19 -241 74 -117 49 -134 54 -220 58 -52 2 -105 1
-119 -2z"/>
<path d="M960 1689 c-30 -4 -73 -15 -95 -24 -55 -23 -185 -105 -185 -116 0
-15 14 -11 86 26 189 96 349 81 576 -52 85 -50 161 -73 238 -73 88 0 152 20
268 86 144 80 199 97 312 98 63 0 110 -6 140 -16 73 -27 142 -59 185 -87 84
-55 158 -81 234 -81 80 0 211 45 211 72 0 7 -11 8 -32 3 -187 -40 -328 -16
-488 83 -172 107 -304 113 -461 20 -137 -81 -194 -105 -287 -118 -131 -18
-269 15 -399 96 -111 70 -202 95 -303 83z"/>
<path d="M3165 1662 c-110 -52 -111 -86 -1 -46 119 43 260 27 403 -45 45 -23
85 -46 88 -51 10 -16 163 -70 200 -70 30 0 35 3 35 24 0 27 -16 36 -63 36 -65
0 -198 52 -284 111 -38 27 -75 45 -113 57 -8 2 -58 6 -110 8 -88 4 -100 2
-155 -24z"/>
<path d="M555 1515 c-5 -2 -36 -6 -67 -10 -54 -6 -58 -8 -58 -32 0 -25 1 -25
51 -19 102 14 199 67 117 65 -18 0 -37 -2 -43 -4z"/>
<path d="M620 1261 c-30 -5 -89 -24 -131 -44 -90 -42 -229 -86 -279 -88 -53
-2 -91 -10 -86 -18 13 -20 282 38 321 69 20 16 138 41 219 46 87 6 190 -10
265 -42 191 -82 411 -100 561 -46 30 11 96 35 145 53 85 31 97 33 215 33 111
-1 133 -4 200 -29 224 -83 234 -85 383 -85 115 0 149 7 298 60 160 57 254 69
380 47 54 -9 107 -21 116 -26 97 -49 213 -81 297 -81 33 0 57 2 55 4 -2 3 -44
10 -93 16 -87 12 -228 56 -272 84 -11 8 -54 24 -94 37 -101 31 -193 22 -304
-27 -108 -48 -199 -80 -264 -92 -124 -22 -347 7 -442 58 -104 56 -185 77 -285
75 -72 -2 -92 -8 -196 -53 -170 -74 -213 -84 -353 -85 -140 -1 -220 16 -334
70 -140 66 -207 79 -322 64z"/>
</g>
</svg>
