<svg xmlns="http://www.w3.org/2000/svg" viewBox="0 0 179.58 11.2"><defs><style>.cls-1{fill:#231815;}</style></defs><title>アセット 14</title><g id="レイヤー_2" data-name="レイヤー 2"><g id="レイヤー_1-2" data-name="レイヤー 1"><path class="cls-1" d="M3.18,0l.23.25a6.65,6.65,0,0,0,0,10.7l-.23.25A6.4,6.4,0,0,1,0,5.6,6.4,6.4,0,0,1,3.18,0Z"/><path class="cls-1" d="M12.59,7.82l-.05,1.87a4.87,4.87,0,0,1-2.57.65A4.22,4.22,0,0,1,5.64,5.8,4.3,4.3,0,0,1,10,1.25a4.75,4.75,0,0,1,2.47.64l0,1.88H11.9l-.27-1.64a3.06,3.06,0,0,0-1.55-.4c-2,0-3.43,1.5-3.43,4.07S8,9.87,10,9.87a3.67,3.67,0,0,0,1.72-.4L12,7.82Z"/><path class="cls-1" d="M15,0a6.42,6.42,0,0,1,3.18,5.6A6.42,6.42,0,0,1,15,11.2L14.75,11a6.65,6.65,0,0,0,0-10.7Z"/><path class="cls-1" d="M22.5,4c.22.51.41.75.69.75.48,0,2.09-1,3.39-1s2,1,2,2.52c0,2.62-2.05,4.09-5.16,4.62l-.11-.29c2.92-.68,4.53-2.09,4.53-4.46,0-1.31-.59-2-1.34-2a5.91,5.91,0,0,0-2.48,1c-.26.15-.45.37-.74.37a1.3,1.3,0,0,1-.92-.72A1.28,1.28,0,0,1,22.29,4Zm1-3.27L23.62.5a3.79,3.79,0,0,0,2.3.72c.29,0,.72-.08.92-.08.4,0,.86.14.86.43,0,.14-.15.22-.38.23a3.27,3.27,0,0,0-.81.12c-.58.18-1.55.6-2.13.84l-.11-.23c.5-.29,1-.56,1.37-.79A3.41,3.41,0,0,1,23.47.71Z"/><path class="cls-1" d="M33.7,1.37c.14.32.27.69.59.69a17,17,0,0,0,2.58-.55c.21-.07.26-.18.4-.18.31,0,.9.46.9.73s-.24.19-.66.59-2.18,2.11-2.76,2.73c-.07.08,0,.17.08.12a5.85,5.85,0,0,1,2.07-.43,2.64,2.64,0,0,1,2.83,2.67c0,1.47-1.35,2.69-3.58,2.69-1.32,0-2.21-.52-2.21-1.34A1.17,1.17,0,0,1,35.22,8a1.89,1.89,0,0,1,1.92,1.74A2.3,2.3,0,0,0,39.06,7.6a2.12,2.12,0,0,0-2.27-2.14,5,5,0,0,0-4,2.34c-.15.19-.24.25-.39.25s-.29-.16-.28-.43.11-.33.35-.59a57.5,57.5,0,0,0,4.6-4.94c.09-.15,0-.2-.09-.16-.37.07-1.49.43-2,.62-.23.1-.38.28-.56.28a1.23,1.23,0,0,1-.94-.78,1.62,1.62,0,0,1,0-.66Zm2.83,8.46a1.49,1.49,0,0,0-1.45-1.41.68.68,0,0,0-.76.63c0,.42.52.81,1.73.81A3.75,3.75,0,0,0,36.53,9.83Z"/><path class="cls-1" d="M47.63,5.33a11.69,11.69,0,0,0,1.82-.39,5.22,5.22,0,0,1,.74-.26c.21,0,.5.12.5.35s-.12.25-.33.33a14.82,14.82,0,0,1-2.71.54c0,.82.11,1.51.16,2.1a6.48,6.48,0,0,1,2.91,1.29.87.87,0,0,1,.35.6.27.27,0,0,1-.28.29c-.2,0-.33-.12-.54-.31a5.58,5.58,0,0,0-2.39-1.31c0,.18,0,.35,0,.49,0,1-.84,1.61-2.16,1.61-1.13,0-2-.55-2-1.35S45,7.87,46.46,7.87a5.21,5.21,0,0,1,.8,0c0-.48-.08-1.17-.1-2A14.72,14.72,0,0,1,45.67,6C44,6,43.19,5.28,44.41,4l.28.15c-.83,1-.28,1.33,1,1.33a12.79,12.79,0,0,0,1.49-.09V4.93c0-.43,0-.9,0-1.34a15.67,15.67,0,0,1-1.89.13,2.56,2.56,0,0,1-2.4-1.18l.23-.18a2.6,2.6,0,0,0,2.12.82,13.36,13.36,0,0,0,2-.16c0-.65,0-1.15,0-1.23,0-.24,0-.3-.24-.36a3.36,3.36,0,0,0-.87-.11l0-.28a2.25,2.25,0,0,1,.78-.15c.47,0,1.2.33,1.2.61s-.16.35-.22.65-.07.48-.11.79a12.43,12.43,0,0,0,2-.45,3.18,3.18,0,0,1,.67-.22c.28,0,.54.13.54.32s-.16.26-.36.34a18.81,18.81,0,0,1-2.85.6c0,.38,0,.85,0,1.41Zm-.36,3.1a6.36,6.36,0,0,0-1.07-.1c-1.22,0-2,.45-2,.95s.43.79,1.26.79C47,10.07,47.26,9.57,47.27,8.43Z"/><path class="cls-1" d="M54.32,4.22,54.45,4A8.47,8.47,0,0,1,56,4.51c.71.31,1.08.73,1.08,1.13a.3.3,0,0,1-.3.31c-.32,0-.5-.42-1.13-.88A9.32,9.32,0,0,0,54.32,4.22ZM63,3.59l.29.18a17,17,0,0,1-6.55,5.85c-.22.13-.33.42-.63.42a2.54,2.54,0,0,1-1.33-.84,1.94,1.94,0,0,1-.25-.72l.19-.12c.35.42.71.8,1.09.8C56.51,9.16,60.82,6.69,63,3.59ZM56,2l.14-.29a8.87,8.87,0,0,1,1.46.58c.82.45,1.09.84,1.09,1.19a.31.31,0,0,1-.3.34c-.27,0-.51-.48-1.15-1A8.63,8.63,0,0,0,56,2Z"/><path class="cls-1" d="M65.43,3.07c.19.28.42.73.82.73.76,0,6.22-.6,7.07-.69.19,0,.29-.21.47-.21s1.12.64,1.12.94-.43.2-.74.48a32.48,32.48,0,0,1-3.51,3.06A3.06,3.06,0,0,1,71.8,9.29a.33.33,0,0,1-.34.35c-.36,0-.31-.79-1.71-2.26A11.34,11.34,0,0,0,68,5.88l.16-.23a9.82,9.82,0,0,1,2.14,1.4,18,18,0,0,0,3.24-3.24c.08-.13,0-.2-.1-.2-1.2.05-5.34.59-6.4.77-.28,0-.5.26-.72.26a1.48,1.48,0,0,1-1-.74,1.78,1.78,0,0,1-.18-.72Z"/><path class="cls-1" d="M80.64,1.12a2.45,2.45,0,0,1,.69.07c.4.12.93.44.93.63s-.18.33-.35.63-.23.38-.36.57h.18a23.62,23.62,0,0,0,2.5-.26c.33,0,.38-.26.57-.26s.93.48.93.75-.4.28-.54.58a16.55,16.55,0,0,1-1.85,2.8c.76.58,1.4,1.2,1.41,1.64a.31.31,0,0,1-.34.35c-.3,0-.53-.56-1.5-1.48a14.66,14.66,0,0,1-5.29,3.76l-.18-.28a16.81,16.81,0,0,0,5-3.91,11.75,11.75,0,0,0-2.58-1.64,11,11,0,0,1-2.28,1.78l-.19-.25c1.85-1.28,3.92-4,3.92-4.72,0-.2-.32-.37-.75-.53Zm3.78,2.07c-.44,0-1.6.22-2,.3a5,5,0,0,1-.66.14.88.88,0,0,1-.44-.2,14.77,14.77,0,0,1-1.2,1.44,14.46,14.46,0,0,1,2.73,1.39,10.36,10.36,0,0,0,1.73-2.9C84.61,3.21,84.54,3.18,84.42,3.19Zm.55-2A4.31,4.31,0,0,1,86.29,2a1,1,0,0,1,.43.73c0,.18-.09.28-.25.28s-.3-.28-.56-.59a5.77,5.77,0,0,0-1.09-1Zm1-.73a5,5,0,0,1,1.32.71c.33.26.47.48.47.73a.24.24,0,0,1-.25.27c-.21,0-.3-.28-.59-.58a6,6,0,0,0-1.1-.93Z"/><path class="cls-1" d="M96,3.57c.34,0,.4-.27.59-.27s.85.51.85.73-.26.2-.31.51a14.29,14.29,0,0,1-1.33,4.73,1.43,1.43,0,0,1-1.14.82c-.17,0-.28-.1-.32-.33-.12-.44-.54-.62-1.22-1.1l.16-.24c.47.21,1.08.53,1.31.62s.44.11.62-.11C96,8,96.44,5,96.44,4.2c0-.09,0-.13-.14-.13a22,22,0,0,0-2.5.25A9.43,9.43,0,0,1,89,10.66l-.21-.25a10.09,10.09,0,0,0,4.33-6c-.8.15-2,.36-2.32.43s-.41.24-.64.24-.75-.55-.84-.8a2,2,0,0,1-.07-.73l.25-.06c.14.32.31.76.62.76s1.79-.16,3.12-.33a18.54,18.54,0,0,0,.29-2c0-.23,0-.3-.23-.37a2.86,2.86,0,0,0-.75-.12V1.14A4.12,4.12,0,0,1,93.38,1c.41,0,1.14.41,1.14.67s-.25.26-.32.7-.17.93-.28,1.44Z"/><path class="cls-1" d="M100.59,4l.24-.11c.23.38.42.66.75.66.7,0,4.3-.46,5.11-.57.33,0,.41-.22.6-.22s1,.58,1,.83-.44.34-.57.59a10.82,10.82,0,0,1-6,5.51l-.18-.28a11.46,11.46,0,0,0,5.54-5.78c.06-.15,0-.22-.14-.2-1,.11-3.71.48-4.54.64-.37.08-.53.29-.79.29a1.52,1.52,0,0,1-.87-.71A2.06,2.06,0,0,1,100.59,4ZM106.51,2a19.78,19.78,0,0,1-3.39.44c-.57,0-.9-.3-1.3-.89l.19-.16a1.91,1.91,0,0,0,1.13.5,8.82,8.82,0,0,0,1.91-.25c.74-.16.89-.36,1.16-.36.45,0,.84.14.84.39S106.9,2,106.51,2Z"/><path class="cls-1" d="M113.93,2h-3.35l-.07-.34h3.42V.14L115,.25c0,.16-.13.28-.42.31v1.1h2.71V.14l1.07.11c0,.16-.12.28-.41.31v1.1h1.93l.55-.69s.63.5,1,.84c0,.13-.16.19-.33.19H118V3.17c0,.08-.23.21-.54.22h-.12V2h-2.71V3.21c0,.11-.31.22-.55.22h-.1Zm6.48,3.47s.62.49,1,.84c0,.13-.15.19-.32.19h-5.55a22.9,22.9,0,0,1-1.88,3.25c1.56-.06,3.5-.17,5.53-.29a13,13,0,0,0-2-1.8l.12-.13c4,1.79,3.69,4,2.78,3.43a4.21,4.21,0,0,0-.73-1.25c-1.87.24-4.37.52-7.77.83a.42.42,0,0,1-.3.25l-.42-.94c.55,0,1.35,0,2.34-.08a21.94,21.94,0,0,0,1.41-3.27h-3.94l-.11-.34h9.23ZM118.63,4l.53-.64s.6.46,1,.8a.29.29,0,0,1-.31.2H112L111.93,4Z"/><path class="cls-1" d="M126.61,3.26c-.07.13-.18.18-.46.13a14.19,14.19,0,0,1-.88,1.41l.46.18a.4.4,0,0,1-.36.21v5.64a.74.74,0,0,1-.52.22h-.11V5.5A12.25,12.25,0,0,1,123.3,7l-.14-.15a15.52,15.52,0,0,0,2.42-4.1ZM126.48.68c-.07.14-.18.18-.45.12a11.87,11.87,0,0,1-2.63,2.85l-.13-.16A12.89,12.89,0,0,0,125.49.2ZM126,9a14.2,14.2,0,0,0,1.08-4.72l1,.18a.41.41,0,0,1-.41.29,11.16,11.16,0,0,1-1.51,4.35Zm3-6v7.69c0,.11-.27.27-.51.27h-.13V3h-1.87l-.1-.34h2V.32l1.06.11c0,.17-.12.29-.42.34V2.69H130l.48-.56s.55.4.91.72c0,.12-.14.18-.31.18Zm.65,1.13c2,2.56,1.19,4.58.66,3.85a9.56,9.56,0,0,0-.85-3.75Zm0-3.54c1.69.7,1.15,1.8.57,1.38a3.11,3.11,0,0,0-.72-1.29Zm3.71,2.75s.58.46.94.82c0,.13-.13.19-.3.19H133V10c0,.52-.13.94-1.07,1.05a.66.66,0,0,0-.22-.49,2.05,2.05,0,0,0-.93-.24v-.19s1.09.08,1.32.08.27-.06.27-.24V4.38h-1.52l-.1-.36h2.13Zm-2.16-1.68-.1-.36h1.58l.53-.63s.58.46.95.8a.29.29,0,0,1-.31.19Z"/><path class="cls-1" d="M141.85,1.45c-.09.1-.22.13-.5.14a8.09,8.09,0,0,1-5.19,5l-.11-.2a8,8,0,0,0,4.57-4.85h-2c-.11.16-.23.31-.35.47,1.73.26,1.49,1.41.87,1.14a3,3,0,0,0-1-.94,8.73,8.73,0,0,1-.73.76c1.78.5,1.39,1.69.79,1.33a2.82,2.82,0,0,0-1-1.19,6.39,6.39,0,0,1-1,.7l-.17-.16A8.75,8.75,0,0,0,138.62.07l1,.42c-.05.13-.2.23-.45.19a4.76,4.76,0,0,1-.28.49h1.73l.48-.44Zm-1.77,6.79c-.09.12-.18.18-.45.12a8.23,8.23,0,0,1-3.09,2.23l-.13-.16a8.45,8.45,0,0,0,2.65-2.69Zm5.14-2s.57.44.93.77c0,.13-.15.18-.3.18h-4V10c0,.54-.14,1-1.15,1.05a.64.64,0,0,0-.25-.49,3.23,3.23,0,0,0-1-.26v-.18s1.26.09,1.52.09.26-.06.26-.22V7.17H137l-.09-.35h7.82Zm-6.14-1.15h3.66l.46-.57s.55.41.91.73a.29.29,0,0,1-.31.19h-4.62Zm7.57-3.6c-.1.1-.24.11-.48.12a10.87,10.87,0,0,1-2,2.3,8.67,8.67,0,0,0,2.9,1.74l0,.12a.72.72,0,0,0-.64.49A8.25,8.25,0,0,1,141.78.48L142,.37a7.77,7.77,0,0,0,2,3.35,14.46,14.46,0,0,0,1.37-2.22H143l-.11-.35h2.49l.47-.47ZM143.14,8c3.52,1,3.33,2.92,2.44,2.5A7.46,7.46,0,0,0,143,8.07Z"/><path class="cls-1" d="M158.07,9.38v.78h-5.23V9.55c.79-.85,1.57-1.73,2.13-2.37,1.33-1.45,1.84-2.36,1.84-3.35A1.67,1.67,0,0,0,155.09,2a2.66,2.66,0,0,0-.89.16l-.33.9c-.13.43-.3.63-.58.63a.52.52,0,0,1-.49-.32,2.37,2.37,0,0,1,2.49-1.8,2.09,2.09,0,0,1,2.37,2.22c0,1-.57,1.91-2.4,3.78l-1.75,1.81Z"/><path class="cls-1" d="M165.24,6c0,3.17-1.26,4.36-2.6,4.36S160,9.14,160,6s1.27-4.4,2.63-4.4S165.24,2.79,165.24,6Zm-2.6,3.92c.87,0,1.73-.91,1.73-3.92s-.86-4-1.73-4-1.75.93-1.75,4S161.75,9.89,162.64,9.89Z"/><path class="cls-1" d="M172.29,9.81v.35h-4.66V9.81l1.93-.19c0-.74,0-1.49,0-2.21v-5l-1.85.25V2.29l2.51-.66.18.13-.06,1.87V7.41c0,.72,0,1.47,0,2.21Z"/><path class="cls-1" d="M174.84,10c2.34-.82,3.51-2.17,3.79-4a2.52,2.52,0,0,1-4.31-1.85,2.53,2.53,0,0,1,2.62-2.62c1.6,0,2.64,1.3,2.64,3.39,0,2.45-1.45,4.57-4.63,5.41Zm3.85-4.5a3.39,3.39,0,0,0,0-.46c0-2-.76-3.08-1.8-3.08s-1.74.76-1.74,2.11a1.88,1.88,0,0,0,1.9,2.14A2.17,2.17,0,0,0,178.69,5.54Z"/></g></g></svg>