<svg xmlns="http://www.w3.org/2000/svg" viewBox="0 0 233.33 22.2"><defs><style>.cls-1{fill:#231815;}</style></defs><title>アセット 2</title><g id="レイヤー_2" data-name="レイヤー 2"><g id="レイヤー_1-2" data-name="レイヤー 1"><path class="cls-1" d="M51.08.28V21.92h-4V.28Z"/><path class="cls-1" d="M67.82.28V21.92h-4V.28Z"/><path class="cls-1" d="M78.13,17.44a2.29,2.29,0,0,1,1.66.7,2.37,2.37,0,0,1-1.66,4.06,2.3,2.3,0,0,1-1.68-.71,2.33,2.33,0,0,1,0-3.35A2.32,2.32,0,0,1,78.13,17.44Z"/><path class="cls-1" d="M92.38.28V21.92h-4V.28Z"/><path class="cls-1" d="M2.92,4.83a3.24,3.24,0,0,1,2.38.86A3,3,0,0,1,6.19,8a5.16,5.16,0,0,1-.66,2.35,22.79,22.79,0,0,1-2.32,3.35H6.82V15.5H0v-.22c.79-1,1.48-1.86,2.05-2.64s1-1.43,1.32-2A7.62,7.62,0,0,0,4,9.38a3.36,3.36,0,0,0,.2-1.13A1.72,1.72,0,0,0,3.77,7a1.53,1.53,0,0,0-1.13-.49A3.52,3.52,0,0,0,.17,7.9V5.83A4.55,4.55,0,0,1,2.92,4.83Z"/><path class="cls-1" d="M12.61,4.83a2.89,2.89,0,0,1,2.54,1.44,7.1,7.1,0,0,1,.94,3.93,7.35,7.35,0,0,1-.93,4,2.86,2.86,0,0,1-2.53,1.45,3,3,0,0,1-2.58-1.44,7.16,7.16,0,0,1-.94-4,7.19,7.19,0,0,1,.94-3.95A2.91,2.91,0,0,1,12.61,4.83Zm-1.54,5.46c0,2.41.51,3.62,1.54,3.62s1.51-1.27,1.51-3.8c0-2.37-.51-3.55-1.52-3.55S11.07,7.8,11.07,10.29Z"/><path class="cls-1" d="M22.71,5V15.5H20.78V5Z"/><path class="cls-1" d="M30.86,4.83a3.49,3.49,0,0,1,1.79.47,3.22,3.22,0,0,1,1.22,1.31,4.37,4.37,0,0,1,.43,2,7.78,7.78,0,0,1-1,3.58,12.92,12.92,0,0,1-2.68,3.49h-2.3a13.68,13.68,0,0,0,1.9-2.11,11.12,11.12,0,0,0,1.42-2.36,3.07,3.07,0,0,1-1.21.24,2.68,2.68,0,0,1-2.07-.89,3.29,3.29,0,0,1-.81-2.29A3.54,3.54,0,0,1,28,6.52a3.3,3.3,0,0,1,2.9-1.69ZM29.45,8.19a1.69,1.69,0,0,0,.4,1.16,1.35,1.35,0,0,0,1,.45,1.3,1.3,0,0,0,1-.46,1.59,1.59,0,0,0,.41-1.09A1.8,1.8,0,0,0,31.93,7a1.34,1.34,0,0,0-1.07-.47,1.29,1.29,0,0,0-1,.45A1.73,1.73,0,0,0,29.45,8.19Z"/><path class="cls-1" d="M105.05,4.53a11.3,11.3,0,0,0-2,3.38,12,12,0,0,0-.66,4.1,12.1,12.1,0,0,0,.66,4.09,10.9,10.9,0,0,0,2,3.4h-1.3A10.08,10.08,0,0,1,101.2,16a9.53,9.53,0,0,1-.92-4,9.56,9.56,0,0,1,.93-4,10,10,0,0,1,2.54-3.43Z"/><path class="cls-1" d="M113.76,6.7V8.37h-4.62v2.87h4.62v1.69h-4.62v4.85H107V6.7Z"/><path class="cls-1" d="M120.28,10.23a1.9,1.9,0,0,1,.76.17,5,5,0,0,1,.88.59l-.7,1.71a2.54,2.54,0,0,0-1.37-.64,1.48,1.48,0,0,0-.89.34,2.4,2.4,0,0,0-.7.89A2.52,2.52,0,0,0,118,14.4v3.38H116V10.37H118v1.89h0a5.29,5.29,0,0,1,1.07-1.55A1.76,1.76,0,0,1,120.28,10.23Z"/><path class="cls-1" d="M124.44,7a1.06,1.06,0,0,1,.78.32,1.1,1.1,0,0,1,.32.78,1.05,1.05,0,0,1-.32.77,1.05,1.05,0,0,1-1.55,0,1.06,1.06,0,0,1-.33-.77,1,1,0,0,1,.33-.78A1.05,1.05,0,0,1,124.44,7Zm1,3.42v7.41h-2V10.37Z"/><path class="cls-1" d="M128.48,4.53A9.85,9.85,0,0,1,131,7.91a9.6,9.6,0,0,1,1,4.1,9.56,9.56,0,0,1-.93,4,10.3,10.3,0,0,1-2.56,3.45h-1.3a10.86,10.86,0,0,0,2-3.45,12.1,12.1,0,0,0,.65-4,11.79,11.79,0,0,0-.67-4.1,11,11,0,0,0-2-3.38Z"/><path class="cls-1" d="M199.71,4.53a10.89,10.89,0,0,0-2,3.38,11.79,11.79,0,0,0-.67,4.1,12.1,12.1,0,0,0,.66,4.09,10.93,10.93,0,0,0,2,3.4H198.4A10.08,10.08,0,0,1,195.85,16a9.53,9.53,0,0,1-.92-4,9.56,9.56,0,0,1,.93-4,10,10,0,0,1,2.54-3.43Z"/><path class="cls-1" d="M204.87,6.56a6.48,6.48,0,0,1,3.12.81v1.9a6.15,6.15,0,0,0-3.06-1,2.25,2.25,0,0,0-1.26.31,1,1,0,0,0-.46.84c0,.42.28.81.85,1.16.16.11.77.4,1.83.89a5.2,5.2,0,0,1,2,1.43,3,3,0,0,1,.6,1.89,2.86,2.86,0,0,1-1,2.3,3.92,3.92,0,0,1-2.66.88,6.15,6.15,0,0,1-1.83-.24,7.52,7.52,0,0,1-1.71-.8V14.78a5.38,5.38,0,0,0,3.34,1.47,2.12,2.12,0,0,0,1.27-.34,1,1,0,0,0,.49-.9,1.44,1.44,0,0,0-.84-1.26c-.47-.25-1.07-.55-1.8-.91a5.28,5.28,0,0,1-2-1.39,2.83,2.83,0,0,1-.65-1.84,2.7,2.7,0,0,1,1-2.22A4.23,4.23,0,0,1,204.87,6.56Z"/><path class="cls-1" d="M212.54,10.37V15a1.53,1.53,0,0,0,.36,1.1,1.27,1.27,0,0,0,.95.38,1.63,1.63,0,0,0,1-.31,2.23,2.23,0,0,0,.73-.84V10.37h1.95v7.41h-1.95v-1a3.11,3.11,0,0,1-2.29,1.15,2.52,2.52,0,0,1-1.92-.78,2.89,2.89,0,0,1-.73-2V10.37Z"/><path class="cls-1" d="M224.29,10.23a2.47,2.47,0,0,1,1.91.78,3,3,0,0,1,.71,2.06v4.71H225V13.27a1.74,1.74,0,0,0-.34-1.14,1.16,1.16,0,0,0-.94-.42,1.47,1.47,0,0,0-.85.26,3.89,3.89,0,0,0-.88.89v4.92H220V10.37H222v1a3.62,3.62,0,0,1,1.11-.91A2.84,2.84,0,0,1,224.29,10.23Z"/><path class="cls-1" d="M229.85,4.53a10,10,0,0,1,2.52,3.38,9.6,9.6,0,0,1,1,4.1,9.56,9.56,0,0,1-.93,4,10.41,10.41,0,0,1-2.55,3.45h-1.3a11.25,11.25,0,0,0,2-3.45,12.1,12.1,0,0,0,.64-4,12,12,0,0,0-.66-4.1,11,11,0,0,0-2-3.38Z"/><path class="cls-1" d="M164.11.28V21.92h-4V.28Z"/><path class="cls-1" d="M178.92,0a6,6,0,0,1,5.21,3A14.64,14.64,0,0,1,186.06,11a15.1,15.1,0,0,1-1.91,8.17,5.89,5.89,0,0,1-5.2,3,6,6,0,0,1-5.29-3c-1.3-2-1.95-4.68-1.95-8.12A14.82,14.82,0,0,1,173.65,3,6,6,0,0,1,178.92,0Zm-3.18,11.23q0,7.43,3.18,7.42c2.06,0,3.1-2.6,3.1-7.81C182,6,181,3.55,178.89,3.55S175.74,6.11,175.74,11.23Z"/><rect class="cls-1" x="138.37" y="10.51" width="13.8" height="1.09"/></g></g></svg>