<svg xmlns="http://www.w3.org/2000/svg" viewBox="0 0 98.47 26.47"><defs><style>.cls-1{fill:#231815;}</style></defs><title>アセット 3</title><g id="レイヤー_2" data-name="レイヤー 2"><g id="レイヤー_1-2" data-name="レイヤー 1"><path class="cls-1" d="M2.22.14V11h-2V.14Z"/><path class="cls-1" d="M10.11,0a3,3,0,0,1,2.61,1.48,7.4,7.4,0,0,1,1,4.05,7.58,7.58,0,0,1-.95,4.08,3,3,0,0,1-2.61,1.5A3,3,0,0,1,7.48,9.62a7.32,7.32,0,0,1-1-4.06,7.47,7.47,0,0,1,1-4.07A3,3,0,0,1,10.11,0ZM8.52,5.62c0,2.48.53,3.71,1.59,3.71s1.55-1.3,1.55-3.9c0-2.44-.52-3.65-1.57-3.65S8.52,3.06,8.52,5.62Z"/><path class="cls-1" d="M17.74,2.15a1.18,1.18,0,0,1,.84.34,1.15,1.15,0,0,1,.35.87,1.1,1.1,0,0,1-.36.83,1.15,1.15,0,0,1-.83.34,1.11,1.11,0,0,1-.84-.35,1.1,1.1,0,0,1-.35-.83,1.14,1.14,0,0,1,.34-.84A1.11,1.11,0,0,1,17.74,2.15Zm0,5a1.21,1.21,0,0,1,1.19,1.18,1.15,1.15,0,0,1-.35.85,1.14,1.14,0,0,1-.84.35,1.2,1.2,0,0,1-1.19-1.18,1.14,1.14,0,0,1,.34-.84A1.11,1.11,0,0,1,17.74,7.15Z"/><path class="cls-1" d="M25.17,0a3,3,0,0,1,2.61,1.48,7.31,7.31,0,0,1,1,4.05,7.49,7.49,0,0,1-1,4.08,2.93,2.93,0,0,1-2.6,1.5,3,3,0,0,1-2.65-1.49,7.32,7.32,0,0,1-1-4.06,7.38,7.38,0,0,1,1-4.07A3,3,0,0,1,25.17,0ZM23.58,5.62c0,2.48.53,3.71,1.59,3.71s1.55-1.3,1.55-3.9c0-2.44-.52-3.65-1.56-3.65S23.58,3.06,23.58,5.62Z"/><path class="cls-1" d="M34,0a3,3,0,0,1,2.61,1.48,7.4,7.4,0,0,1,1,4.05,7.49,7.49,0,0,1-1,4.08,2.94,2.94,0,0,1-2.6,1.5A3,3,0,0,1,31.4,9.62a7.32,7.32,0,0,1-1-4.06,7.47,7.47,0,0,1,1-4.07A3,3,0,0,1,34,0ZM32.44,5.62c0,2.48.53,3.71,1.59,3.71s1.55-1.3,1.55-3.9c0-2.44-.52-3.65-1.57-3.65S32.44,3.06,32.44,5.62Z"/><path class="cls-1" d="M61.62.14V11h-2V.14Z"/><path class="cls-1" d="M73.3.14V.2L68.94,11.11l-1.83-.68L70.52,2H66.21V.14Z"/><path class="cls-1" d="M76.11,2.15a1.21,1.21,0,0,1,.84.34,1.18,1.18,0,0,1,.35.87,1.1,1.1,0,0,1-.36.83,1.16,1.16,0,0,1-.83.34,1.11,1.11,0,0,1-.84-.35,1.11,1.11,0,0,1-.36-.83,1.15,1.15,0,0,1,.35-.84A1.11,1.11,0,0,1,76.11,2.15Zm0,5a1.19,1.19,0,0,1,.84,2,1.14,1.14,0,0,1-.84.35,1.21,1.21,0,0,1-1.2-1.18,1.15,1.15,0,0,1,.35-.84A1.11,1.11,0,0,1,76.11,7.15Z"/><path class="cls-1" d="M83.54,0a3,3,0,0,1,2.61,1.48,7.4,7.4,0,0,1,1,4.05,7.49,7.49,0,0,1-1,4.08,2.93,2.93,0,0,1-2.6,1.5,3,3,0,0,1-2.65-1.49,7.32,7.32,0,0,1-1-4.06,7.38,7.38,0,0,1,1-4.07A3,3,0,0,1,83.54,0ZM82,5.62c0,2.48.53,3.71,1.59,3.71s1.55-1.3,1.55-3.9c0-2.44-.52-3.65-1.56-3.65S82,3.06,82,5.62Z"/><path class="cls-1" d="M92.4,0A3,3,0,0,1,95,1.48a7.4,7.4,0,0,1,1,4.05,7.58,7.58,0,0,1-1,4.08,3,3,0,0,1-2.61,1.5,3,3,0,0,1-2.64-1.49,7.32,7.32,0,0,1-1-4.06,7.47,7.47,0,0,1,1-4.07A3,3,0,0,1,92.4,0ZM90.81,5.62c0,2.48.53,3.71,1.59,3.71S94,8,94,5.43c0-2.44-.52-3.65-1.57-3.65S90.81,3.06,90.81,5.62Z"/><path class="cls-1" d="M0,23.05a.67.67,0,0,1,.68-.67.66.66,0,0,1,.67.67.68.68,0,0,1-.67.7A.69.69,0,0,1,0,23.05Zm3.28,0c.85.85,1.74,1.73,2.5,2.47a0,0,0,0,1,0,0c0,.11-.35.33-.38.33h0L2.93,23.4.48,25.87h0c-.12,0-.38-.29-.38-.33v0c.77-.74,1.65-1.62,2.51-2.47L.08,20.59h0c0-.09.31-.35.38-.35l0,0c.64.66,1.51,1.55,2.44,2.48.94-.93,1.82-1.82,2.46-2.48l0,0c.08,0,.38.26.38.35h0Zm-1-2.29a.66.66,0,0,1,.67-.67.67.67,0,0,1,.68.67.69.69,0,0,1-.68.7A.68.68,0,0,1,2.26,20.77Zm0,4.56a.66.66,0,0,1,.67-.67.67.67,0,0,1,.68.67.69.69,0,0,1-.68.7A.68.68,0,0,1,2.26,25.33Zm2.25-2.28a.68.68,0,0,1,1.36,0,.68.68,0,1,1-1.36,0Z"/><path class="cls-1" d="M9.86,24.68c0,.07,0,.11-.33.11s-.38,0-.38-.11,0-.27,0-.44H8.48c0,.25,0,.5,0,.74s0,.13-.37.13-.36-.05-.36-.12v0c0-.81.06-1.58.06-2.16,0-1.62,0-1.83,0-2.36v-.06s0-.05,0-.05H7.9c.23,0,.57,0,.95,0s.44,0,.91,0h0c.05,0,.07,0,.07.07v0c0,.35,0,.75,0,1.15,0,.8,0,2.51,0,3Zm-.69-2.14h-.7v1.11h.7Zm-.7-.6h.7V21h-.7Zm3.82.16c.45,0,1.09,0,1.77-.09.06,0,.08.07.08.35,0,.12,0,.23,0,.31s-.05,0-.07,0c-.81-.08-1.6-.09-2.06-.09s-.89,0-1.84.07c-.07,0-.08,0-.08-.34s0-.34.08-.34c.69.05,1.09.08,1.47.08v-.65c-.33,0-.67,0-1.18,0-.07,0-.08,0-.08-.31s0-.33.09-.33c.5,0,.86,0,1.17,0v-.08a5.23,5.23,0,0,0-.1-1.06.06.06,0,0,1,0,0s0,0,.05,0,.93.1.93.23-.06.13-.11.22-.09.14-.1.61v.15c.35,0,.71,0,1.31-.06.07,0,.09.09.09.31s0,.34-.09.34c-.57,0-.92,0-1.31,0Zm.77,3.45c0,.43-.24.92-1.09.92-.05,0-.08,0-.11-.1-.13-.34-.39-.45-.57-.65l0,0s0,0,0,0h0a3.66,3.66,0,0,0,.58.06c.28,0,.43-.07.44-.29,0,0,0-.14,0-1.26v-.33H12c-.47,0-.89,0-1.84.08-.07,0-.08,0-.08-.35s0-.35.08-.35c.91.07,1.32.07,1.84.07h.33a2.2,2.2,0,0,0-.05-.5s0,0,0,0,0,0,.06,0,.85.07.85.21a.24.24,0,0,1-.06.11c-.07.1-.09.09-.09.2v0l1-.07c.06,0,.08.1.08.37s0,.23,0,.31-.05.05-.07.05c-.36,0-.72-.05-1-.07v.63c0,.39,0,.63,0,1.05Zm-1.74-.28a3.94,3.94,0,0,0-.91-.78s0,0,0,0,.41-.38.45-.38a2.64,2.64,0,0,1,.95.69.08.08,0,0,1,0,0,1.9,1.9,0,0,1-.44.49Z"/><path class="cls-1" d="M15.59,26.28c.09-1.34.12-2.34.12-3.42,0-1.42,0-2-.06-2.78,0,0,0,0,0-.06s0,0,.07,0h0c.3,0,.83,0,1.21,0s.72,0,1.19,0h0a.06.06,0,0,1,.06.06v0c0,.52,0,1,0,1.24s0,.63.05,1.17v.06c0,.06,0,.1-.35.1s-.35,0-.35-.11v-.12H16.38v.4c0,1.18,0,2.16,0,3.47,0,.14,0,.15-.4.15s-.41,0-.41-.13Zm2-4.79-.61,0-.57,0v.43h1.18ZM16.38,21h1.17v-.44H16.38Zm3.47,4.51s-.09.07-.38.07-.31,0-.31-.09v-.11H17.91v.22c0,.09,0,.11-.35.11s-.33,0-.33-.1v0c0-.58.05-1.14.05-1.31s0-.93,0-1.21a.35.35,0,0,0,0-.06s0,0,.06,0h.05c.31,0,.85,0,1.25,0s.66,0,1.14,0h0c.06,0,.07,0,.07.06v0c0,.29,0,1,0,1.17s0,.71.05,1.21Zm-.65-2H17.9v.41h1.3Zm-.61.89H17.9v.44h1.29c0-.17,0-.32,0-.44Zm3,1.11c0,.61-.38.83-1.19.86a.12.12,0,0,1-.12-.11,2.38,2.38,0,0,0-.45-.62l0,0s0,0,.06,0h.05a5.57,5.57,0,0,0,.6.08c.21,0,.35-.07.35-.32V22.42H19.61v.11h0c0,.11-.1.11-.35.11s-.35,0-.35-.11v-.05c0-.36,0-.68,0-.91,0-.08,0-1,0-1.5v0A.05.05,0,0,1,19,20h0c.47,0,.87,0,1.23,0s.95,0,1.26,0h0c.06,0,.07,0,.07,0v.06c-.07.75-.07,1.36-.07,2.78,0,1.21,0,1.46.06,2.57Zm-.73-5H19.59s0,.23,0,.44h1.25Zm0,.95-.6,0-.65,0c0,.11,0,.26,0,.43h1.25Z"/><path class="cls-1" d="M27.86,22.42c0,.1,0,.23,0,.38a5.56,5.56,0,0,0,2.17.87c.06,0,.09,0,.09,0s0,.05-.1.08a3.2,3.2,0,0,0-.74.47.2.2,0,0,1-.08,0,5.76,5.76,0,0,1-1.34-.67c0,.93,0,2.07.08,2.71,0,0,0,.06-.07.07l-.36,0c-.39,0-.41,0-.41-.1.05-1,.06-2.29.06-3.17a5.07,5.07,0,0,1-.78-1c-.68,3.27-2.54,4.11-2.6,4.11a.07.07,0,0,1-.06,0,3,3,0,0,0-.65-.3c-.06,0-.09,0-.09-.06s0,0,.09,0a4.24,4.24,0,0,0,2.14-2.24,4.33,4.33,0,0,0-.82-.39s-.07,0-.07-.05.25-.53.34-.53a5,5,0,0,1,.81.32,6.53,6.53,0,0,0,.33-1.38h-1a6.77,6.77,0,0,1-1.13,2h0a1.62,1.62,0,0,0-.61-.17l-.08,0s0,0,0-.05A6.29,6.29,0,0,0,24.59,20v0s0-.06.05-.06h0c.16,0,.89.19.89.32s0,.1-.13.16-.14.06-.17.18a3.33,3.33,0,0,1-.14.41h.85c.13,0,.14-.07.19-.07s.53.19.53.32a.3.3,0,0,1-.06.13,3.59,3.59,0,0,0,.57.9,17.46,17.46,0,0,0-.11-2.35.13.13,0,0,1,0-.05s0,0,0,0,1,.08,1,.24a1.72,1.72,0,0,1-.14.33,7.35,7.35,0,0,0-.07,1.51Z"/><path class="cls-1" d="M32.82,24.06a.21.21,0,0,1,0,.06,3.23,3.23,0,0,0-.38,1.27.62.62,0,0,0,.07.31v0c0,.14-.58.22-.58.22s-.53-.42-.53-1.89a11.68,11.68,0,0,1,.29-2.31,6.71,6.71,0,0,0,.16-.83c0-.06,0-.08.06-.08s.89.21.89.34-.18.16-.23.31a6.77,6.77,0,0,0-.48,2.31s0,.55.07.55,0,0,.08-.1.16-.38.24-.52a0,0,0,0,1,0,0l0,0a.91.91,0,0,0,.27.3S32.82,24,32.82,24.06Zm4,.69a4.77,4.77,0,0,1-.06.67.08.08,0,0,1-.09.07,10.17,10.17,0,0,1-1.18.08,3.13,3.13,0,0,1-2.27-.73.1.1,0,0,1,0-.1,1.71,1.71,0,0,1,.32-.58s.06,0,.09.06a2,2,0,0,0,1.62.57,9.43,9.43,0,0,0,1.51-.15h0c.05,0,.06,0,.06.09Zm-.58-2.36c-.33,0-.61,0-.85,0-.9,0-1.35.13-1.89.13q-.09,0-.09-.06v-.09c0-.51,0-.55.12-.55h.06c.49,0,1.08-.15,2.37-.15h.26c.1,0,.12,0,.12.48,0,.24,0,.28-.08.28Z"/><path class="cls-1" d="M41.67,25.59c.19,0,.39.05.56.05s.42-.05.43-.24,0-.29,0-.42,0-.5,0-.82,0-1.25-.06-1.62c-.46,0-.81,0-1.75.07-.08,0-.08-.12-.08-.4v-.15H40.7c-.11,0-.14,0-.22.09s-.2.22-.39.39c.13,0,.13.12.13.12a.21.21,0,0,1-.07.14.4.4,0,0,0-.1.34c0,.72,0,1.31,0,1.87s0,.86,0,1.31c0,.05,0,.08-.4.08a1.57,1.57,0,0,1-.34,0s-.07,0-.07-.05v0c.1-1.05.11-2.1.13-3.13-.65.53-.79.61-.84.61a.1.1,0,0,1-.08,0A2,2,0,0,0,38,23.4s-.06,0-.06-.06,0,0,0,0a5.33,5.33,0,0,0,2.2-1.86s0,0,0,0a3,3,0,0,1,.73.5c.72.05,1.08.06,1.46.06.92,0,1.53,0,2.22-.08.06,0,.09.1.09.37a2.54,2.54,0,0,1,0,.31s0,.05-.07.05l-1-.06a0,0,0,0,1,0,0s0,.06-.09.1-.11.11-.11,1.49c0,.66,0,.95,0,1.39s-.26.88-1.15.88c0,0-.08,0-.11-.11a4.76,4.76,0,0,0-.51-.67l0,0s0,0,0,0Zm-1.17-5c-.11,0-.15,0-.22.08A8.77,8.77,0,0,1,38.61,22a.1.1,0,0,1-.07,0,2,2,0,0,0-.51-.39s-.05,0-.05,0,0,0,.05,0A4.68,4.68,0,0,0,39.94,20s0,0,0,0,.71.47.71.58S40.63,20.6,40.5,20.61Zm3.75,0a2.41,2.41,0,0,1,0,.31s0,.05-.06.05A15.22,15.22,0,0,0,42.62,21c-.46,0-.87,0-1.43.05-.07,0-.09,0-.09-.34s0-.35.09-.35c.53,0,.92.06,1.43.06s.93,0,1.55-.08C44.23,20.29,44.25,20.39,44.25,20.65Z"/><path class="cls-1" d="M47.39,26.39a2.83,2.83,0,0,0-.47-.43s0,0,0-.05,0,0,0,0c1.2-.29,2.24-1,2.24-2.19a2.23,2.23,0,0,0-.12-.69.66.66,0,0,0-.7-.48,3.43,3.43,0,0,0-1.49.57H46.8c-.13,0-.59-.64-.59-.67a.06.06,0,0,1,0-.07,2.27,2.27,0,0,0,.59-.13,4.22,4.22,0,0,1,1.56-.4,1.29,1.29,0,0,1,1.36.91,3.06,3.06,0,0,1,.16,1c0,2.16-2.38,2.71-2.43,2.71A.14.14,0,0,1,47.39,26.39Zm1.69-5.05a5.64,5.64,0,0,0-1.84-.53s-.07,0-.07,0,.23-.61.32-.61a7.33,7.33,0,0,1,2,.48c0,.09-.28.72-.37.72Z"/><path class="cls-1" d="M52.24,23.5a.09.09,0,0,1-.06,0,2.22,2.22,0,0,0-.71-.43c-.06,0-.09,0-.09-.05s0,0,.08,0a6.68,6.68,0,0,0,3.28-3.12s0-.07,0-.07.81.33.81.47-.11.12-.2.15a7.13,7.13,0,0,0,3.15,2.23s.08,0,.08,0a.23.23,0,0,1-.07.06,2.87,2.87,0,0,0-.68.5.11.11,0,0,1-.09,0A9.32,9.32,0,0,1,55,20.84,10.17,10.17,0,0,1,52.24,23.5ZM54.73,25V23.16A8.15,8.15,0,0,0,54.65,22V22s0,0,.05,0c.26,0,.95.12.95.28s-.07.13-.12.22-.09.22-.1.72v.46L57,23.55c.06,0,.09,0,.09.36s0,.36-.09.36c-.67-.05-1.11-.06-1.53-.06v1.35c.67,0,1.18,0,2.44-.07a.08.08,0,0,1,.08.07,3.23,3.23,0,0,1,0,.35c0,.27,0,.31-.08.31-1.43-.07-2-.07-2.84-.07s-1.47,0-2.83.07c-.08,0-.09,0-.09-.35s0-.38.09-.38l1.09.06c0-.5,0-1,0-1.21a10.27,10.27,0,0,0-.07-1.13v-.05s0,0,0,0c.28,0,.93.13.93.28s-.06.13-.12.22-.09.22-.1.73v1.21h.76Z"/><path class="cls-1" d="M61.18,24.9a19.05,19.05,0,0,0,.08-2,12,12,0,0,0-.06-1.32s0,0,.08,0l1.26,0c0-.29,0-.53,0-.7-.74,0-1.22,0-2.54.06-.09,0-.1,0-.1-.34s0-.34.06-.34h0c1.28.06,1.89.07,2.51.07,1.42,0,2,0,3.25-.08.08,0,.08.05.08.36a2.18,2.18,0,0,1,0,.28s0,.05-.06.05c-1.2-.06-1.81-.06-2.46-.06,0,0,0,.06-.07.09a.17.17,0,0,0-.07.13c0,.15,0,.3,0,.48l1.29-.06h0c.06,0,.06,0,.06.06,0,.4,0,1,0,1.32s0,1.48.07,1.94a.09.09,0,0,1-.09.09h-.26c-.3,0-.34,0-.34-.08a1.27,1.27,0,0,0,0-.2l-1,0-1,0c0,.08,0,.15,0,.22s0,.09-.38.09-.32,0-.32-.06ZM65,21.53s0,0,.08,0,.87.13.87.25-.09.16-.14.31a7.18,7.18,0,0,0-.08,1.67c0,.63,0,1.66.08,2.55,0,0,0,.06-.38.06s-.38,0-.38-.08,0-.22,0-.32c-.85,0-1.26,0-1.67,0-1.49,0-2.27,0-2.75,0,0,.12,0,.23,0,.34s0,.06-.38.06-.38,0-.38-.08c.07-1.2.09-1.91.09-2.53a14.2,14.2,0,0,0-.08-2.17v0s0,0,0,0,.9.14.9.26-.09.16-.14.31a7.18,7.18,0,0,0-.08,1.67V25.3c.76,0,1.18,0,1.53,0,1.27,0,2,0,2.9,0,0-.67,0-1.14,0-1.57A14.2,14.2,0,0,0,65,21.56Zm-3.16.57s0,.38,0,.71h.7c0-.24,0-.5,0-.73Zm.69,1.2h-.69v.85h.68C62.54,24,62.54,23.65,62.54,23.3Zm1.34-.49c0-.33,0-.71,0-.71h-.72v.73Zm0,.51-.73,0c0,.34,0,.64,0,.87h.72Z"/><path class="cls-1" d="M69.44,24.73a.71.71,0,0,0,.76.79,1.09,1.09,0,0,0,1.1-1.08A2,2,0,0,0,70.47,23s0,0,0-.05,0,0,0,0A2.25,2.25,0,0,0,71,22.7s0,0,.07,0a2.37,2.37,0,0,1,1,1.83,1.78,1.78,0,0,1-1.85,1.71,1.34,1.34,0,0,1-1.47-1.42s0-.05.06-.65a1.37,1.37,0,0,1-1.15-.71,1.52,1.52,0,0,1,.38-.52s0,0,.06.05a1,1,0,0,0,.82.5c.06-.33.13-.66.23-1l0-.13c-.08.1-.35.43-.42.43l0,0a2.19,2.19,0,0,0-1.12-.91s0,0,0-.05.37-.51.45-.51a3.82,3.82,0,0,1,1.22.87,15.63,15.63,0,0,0,.32-1.63c0-.06,0-.08.06-.08s.87.13.87.3-.19.23-.25.45c-.35,1.12-.56,2-.62,2.3.22,0,.47-.06.76-.11h0s0,.09,0,.3,0,.31,0,.41a.1.1,0,0,1-.08.07c-.33,0-.62.06-.88.07,0,.15,0,.31,0,.46Z"/><path class="cls-1" d="M77.81,21.24a.15.15,0,0,1-.11.14,10.54,10.54,0,0,1-1.55.41c0,.25-.08.5-.11.78a3.15,3.15,0,0,1,.85-.14A2.32,2.32,0,0,0,77,22s0-.08.05-.08.79.27.79.39-.13.14-.17.18c1.25.3,1.59,1.09,1.59,1.69,0,1.58-2,2.15-2.65,2.15-.06,0-.11,0-.13-.06a2.17,2.17,0,0,0-.38-.43.05.05,0,0,1,0-.05s0,0,.07,0c1.69-.19,2.33-.95,2.33-1.61,0-.06,0-.88-1.07-1.09a7.35,7.35,0,0,1-1.27,1.72,1.92,1.92,0,0,0,.19.54v0a.09.09,0,0,1-.06.07,5.36,5.36,0,0,1-.52.28h0s-.07,0-.16-.43a2,2,0,0,1-1.14.46c-.45,0-.66-.35-.66-.77a2.53,2.53,0,0,1,1.69-2.15c0-.32,0-.64.08-.93-.22,0-.46.05-.68.05a3.33,3.33,0,0,1-.46,0c-.06,0-.18-.06-.18-.61,0-.05,0-.08.07-.08h0a3.85,3.85,0,0,0,.69.06,5.83,5.83,0,0,0,.59,0c0-.37.08-.67.08-.86v-.13s0-.05,0-.05.88.11.88.28-.18.19-.22.36l-.06.27a8.71,8.71,0,0,0,1.36-.44h0a.07.07,0,0,1,.07.06,3,3,0,0,1,.06.48Zm-2.43,2.29c-.38.25-.94.63-.94,1.27,0,.14,0,.24.18.24a1.82,1.82,0,0,0,.79-.46c0-.26,0-.52,0-.8Zm.59-.3c0,.16,0,.33,0,.49s0,.26,0,.39a5.64,5.64,0,0,0,.69-1.06A2.93,2.93,0,0,0,76,23.23Z"/><path class="cls-1" d="M82.11,24c0,.15-.55.2-.56.2s-.41-.5-.41-1.48a10.19,10.19,0,0,1,.08-1.07c0-.36.11-.73.12-1.1,0-.06,0-.08.08-.08s.83.2.83.34-.16.15-.19.27a6.11,6.11,0,0,0-.23,1.41c0,.19,0,.31,0,.31s0,0,.24-.41l0,0,0,0a2.13,2.13,0,0,0,.13.46.13.13,0,0,1,0,.08.17.17,0,0,1,0,.07,2.08,2.08,0,0,0-.21.81,1,1,0,0,0,0,.18Zm1.37-3.43v0c0-.05,0-.08.1-.08a4.68,4.68,0,0,1,.76.1c.1,0,.13.05.13.1s-.1.2-.12.32a2.83,2.83,0,0,0,0,.29c0,.45,0,.93,0,1s0,.4,0,.59a3.24,3.24,0,0,1-2.32,3.44l-.07,0a.14.14,0,0,1-.11-.06,2.35,2.35,0,0,0-.46-.38s-.06-.05-.06-.07,0,0,.08,0a2.7,2.7,0,0,0,2.16-3c0-.19,0-.25-.08-1.41Z"/><path class="cls-1" d="M90.85,21.78l-.86,0h-.66c0,.3,0,.6,0,.9.35-.06.76-.16,1.23-.25h.05s.07,0,.07.13a4.56,4.56,0,0,1,0,.54c0,.07-.06.08-1.28.24,0,.27,0,.54.06.78s0,.24,0,.34a5.32,5.32,0,0,1,1.81.88,2.05,2.05,0,0,1-.44.67.07.07,0,0,1-.06,0,6.42,6.42,0,0,0-1.28-.78,1.51,1.51,0,0,1-2.88,0c0-.6.75-.92,1.55-.92a4.48,4.48,0,0,1,.62.06,1,1,0,0,0,0-.17c0-.21,0-.46,0-.71l-.58,0c-1,0-1.28-.47-1.28-.52a1.72,1.72,0,0,1,.41-.5s0,0,.08.06a.94.94,0,0,0,.85.32l.49,0c0-.31,0-.64,0-1a17.85,17.85,0,0,0-1.93.22h-.06c-.21,0-.34-.64-.34-.67s0-.05.07-.05h.27c.3,0,1.86-.12,2-.13s0-.26,0-.38a5.27,5.27,0,0,0,0-.56v0c0-.06,0-.08.19-.08s.73.05.73.18-.13.2-.14.31,0,.33,0,.51c.71,0,1.28-.06,1.54-.06s.16,0,.16.18c0,.51-.08.54-.17.54Zm-2.73,3.08c-.27,0-.79.05-.79.31s.26.38.71.38c.63,0,.72-.36.75-.6A2.69,2.69,0,0,0,88.12,24.86Z"/><path class="cls-1" d="M98.4,21.91c-.65-.06-1.3-.1-2-.1h-.17a6.75,6.75,0,0,0,0,1.05,2.52,2.52,0,0,1,.26,1.07c0,1.74-2.14,2.32-2.18,2.32a.11.11,0,0,1-.11-.06,1.7,1.7,0,0,0-.41-.36s-.06,0-.06-.06,0,0,.06,0a2.9,2.9,0,0,0,1.87-1.26.69.69,0,0,1-.5.17,1,1,0,0,1-1.13-1.08,1.11,1.11,0,0,1,1.1-1.15,1.36,1.36,0,0,1,.37.06v-.65a24.87,24.87,0,0,0-2.84.3h0a.07.07,0,0,1-.07-.06c0-.19-.13-.66-.13-.69s0-.05.06-.05h.35l.56,0,2.08-.11v-.3c0-.26,0-.5,0-.67a.2.2,0,0,1,0-.07s0,0,.08,0,.9,0,.9.16-.17.21-.18.34,0,.34,0,.53c.7,0,1.4,0,2.1,0,.07,0,.08,0,.08.4s0,.36-.06.36Zm-2.66,1.62a.46.46,0,0,0-.47-.5.51.51,0,0,0-.48.54.48.48,0,1,0,.95,0Z"/><rect class="cls-1" x="41.14" y="4.68" width="13.8" height="1.09"/></g></g></svg>