<svg xmlns="http://www.w3.org/2000/svg" viewBox="0 0 404.33 158.02"><defs><style>.cls-1,.cls-8{fill:#231815;}.cls-1{fill-rule:evenodd;}.cls-2{fill:#1a96d5;}.cls-3{fill:#4774b9;}.cls-4{fill:#84ccc9;}.cls-5{fill:#7ecef4;}.cls-6{fill:#0fadca;}.cls-7{fill:#0068b7;}</style></defs><title>アセット 13</title><g id="レイヤー_2" data-name="レイヤー 2"><g id="レイヤー_1-2" data-name="レイヤー 1"><path class="cls-1" d="M377.77,44.12h0v0h0Z"/><polygon class="cls-2" points="308.86 54.83 309.09 54.87 309.39 54.91 309.65 54.86 309.95 54.91 310.46 54.74 310.9 54.78 311.32 54.61 311.69 54.48 312.03 54.44 312.25 54.34 312.49 54.28 312.7 54.13 313.05 54.03 313.28 53.93 313.6 53.72 313.83 53.53 313.83 53.31 313.75 53.1 313.56 53.03 313.25 53.07 313.03 53.15 312.77 53.15 312.54 53.21 312.23 53.34 311.89 53.35 311.54 53.42 311.27 53.37 310.86 53.51 310.43 53.52 310 53.58 309.66 53.56 309.38 53.7 309.09 53.56 308.82 53.71 308.75 53.91 308.81 54.19 308.72 54.39 308.75 54.67 308.86 54.83"/><polygon class="cls-2" points="362.27 52.47 362.05 52.24 361.75 52.2 361.54 51.96 361.27 51.85 360.96 51.82 360.69 51.68 360.48 51.46 360.22 51.32 359.91 51.27 359.72 51.02 359.46 50.88 359.17 50.78 358.94 50.59 358.74 50.37 358.5 50.21 358.19 50.14 357.96 49.96 357.73 49.78 357.43 49.73 357.18 49.56 356.88 49.52 356.66 49.29 356.34 49.31 356.08 49.19 355.8 49.09 355.55 48.9 355.26 48.84 354.96 48.81 354.66 48.83 354.37 48.82 354.08 48.75 353.79 48.73 353.5 48.66 353.2 48.75 352.9 48.66 352.61 48.7 352.31 48.68 352.03 48.83 351.74 48.84 351.43 48.78 351.16 48.95 350.86 48.94 350.59 49.07 350.29 49.09 350.01 49.21 349.73 49.28 349.45 49.39 349.21 49.58 348.97 49.74 348.72 49.9 348.44 50 348.17 50.11 347.94 50.3 347.65 50.39 347.46 50.63 347.19 50.76 346.93 50.88 346.69 51.06 346.42 51.17 346.21 51.39 345.98 51.57 345.68 51.63 345.44 51.83 345.17 51.93 344.86 51.97 344.63 52.16 344.35 52.26 344.07 52.36 343.84 52.57 343.55 52.64 343.28 52.74 342.99 52.8 342.74 52.97 342.45 53.03 342.16 53.08 341.86 53.09 341.6 53.26 341.3 53.29 341.03 53.43 340.74 53.43 340.45 53.51 340.15 53.49 339.87 53.57 339.57 53.51 339.28 53.57 338.99 53.66 338.69 53.55 338.44 53.6 338.1 53.58 337.81 53.51 337.52 53.51 337.22 53.52 336.93 53.5 336.65 53.41 336.34 53.51 336.07 53.32 335.76 53.39 335.5 53.22 335.2 53.2 334.93 53.1 334.65 53.02 334.33 53.06 334.08 52.86 333.78 52.84 333.52 52.71 333.25 52.6 332.96 52.54 332.72 52.36 332.47 52.2 332.17 52.16 331.93 51.98 331.62 51.95 331.38 51.77 331.1 51.67 330.88 51.45 330.59 51.38 330.37 51.17 330.1 51.05 329.84 50.91 329.63 50.68 329.38 50.53 329.11 50.42 328.89 50.22 328.64 50.06 328.39 49.91 328.14 49.76 327.81 49.76 327.58 49.56 327.3 49.47 327.02 49.39 326.76 49.25 326.5 49.11 326.22 49.03 325.94 48.94 325.64 48.92 325.34 48.94 325.07 48.8 324.78 48.7 324.48 48.75 324.19 48.78 323.89 48.65 323.6 48.75 323.3 48.77 323.01 48.81 322.71 48.67 322.42 48.72 322.14 48.86 321.84 48.85 321.55 48.9 321.28 49.02 320.99 49.07 320.71 49.19 320.45 49.31 320.15 49.35 319.91 49.52 319.61 49.58 319.37 49.75 319.08 49.83 318.85 50.02 318.56 50.09 318.31 50.26 318.1 50.47 317.86 50.64 317.59 50.75 317.3 50.83 317.13 51.12 316.87 51.25 316.63 51.41 316.3 51.44 316.07 51.63 315.86 51.83 315.57 51.9 315.33 52.09 315.27 52.31 315.3 52.56 315.41 52.62 315.54 52.6 315.85 52.52 316.13 52.39 316.34 52.14 316.69 52.14 316.94 51.98 317.21 51.86 317.45 51.69 317.67 51.48 317.94 51.36 318.2 51.23 318.5 51.19 318.75 51.01 319.06 51.02 319.29 50.79 319.59 50.76 319.86 50.65 320.13 50.55 320.43 50.52 320.71 50.46 320.99 50.35 321.26 50.24 321.57 50.3 321.84 50.15 322.14 50.23 322.43 50.18 322.72 50.18 323.01 50.17 323.3 50.17 323.6 50.07 323.89 50.18 324.19 50.1 324.47 50.22 324.77 50.16 325.06 50.23 325.35 50.19 325.63 50.36 325.91 50.39 326.2 50.41 326.51 50.36 326.77 50.55 327.08 50.53 327.33 50.7 327.63 50.71 327.92 50.79 328.16 50.98 328.43 51.09 328.7 51.18 328.94 51.37 329.23 51.42 329.47 51.6 329.75 51.69 330.04 51.76 330.24 52 330.58 52 330.77 52.25 331.08 52.31 331.29 52.53 331.54 52.69 331.84 52.76 332.08 52.93 332.35 53.04 332.6 53.2 332.87 53.32 333.04 53.6 333.3 53.74 333.58 53.84 333.88 53.89 334.09 54.13 334.38 54.2 334.68 54.25 334.92 54.45 335.23 54.43 335.49 54.6 335.77 54.69 336.05 54.76 336.34 54.84 336.64 54.83 336.93 54.87 337.22 54.9 337.51 54.96 337.81 54.89 338.1 54.96 338.32 54.95 338.69 54.96 338.99 54.98 339.28 54.97 339.57 54.93 339.86 54.89 340.15 54.85 340.43 54.72 340.74 54.78 341.01 54.61 341.3 54.56 341.57 54.45 341.87 54.43 342.14 54.31 342.38 54.13 342.7 54.12 342.92 53.9 343.23 53.85 343.44 53.63 343.71 53.51 343.97 53.38 344.23 53.24 344.49 53.1 344.7 52.88 345 52.82 345.23 52.63 345.47 52.46 345.78 52.41 345.99 52.19 346.28 52.11 346.5 51.91 346.78 51.81 347.03 51.66 347.31 51.55 347.56 51.4 347.81 51.25 348.1 51.17 348.37 51.06 348.66 51 348.93 50.9 349.19 50.77 349.44 50.6 349.74 50.56 350.04 50.54 350.29 50.37 350.58 50.32 350.87 50.28 351.17 50.34 351.45 50.26 351.74 50.16 352.03 50.19 352.32 50.16 352.61 50.13 352.91 50.17 353.2 50.15 353.49 50.18 353.79 50.13 354.07 50.22 354.38 50.1 354.67 50.13 354.95 50.26 355.23 50.32 355.52 50.37 355.8 50.42 356.12 50.37 356.39 50.47 356.64 50.66 356.92 50.74 357.24 50.71 357.52 50.79 357.76 50.98 358.03 51.09 358.32 51.15 358.57 51.3 358.81 51.47 359.08 51.58 359.35 51.68 359.6 51.84 359.87 51.94 360.18 52 360.41 52.19 360.67 52.33 360.89 52.54 361.21 52.57 361.4 52.83 361.66 52.96 361.94 53.07 362.2 53.2 362.42 53.4 362.64 53.61 362.95 53.64 363.23 53.76 363.44 53.98 363.69 54.14 364 54.15 364.26 54.3 364.56 54.34 364.83 54.44 365.09 54.59 365.36 54.73 365.67 54.69 365.93 54.87 366.23 54.89 366.53 54.88 366.82 54.89 367.11 55.01 367.41 54.96 367.7 54.97 367.94 54.96 368.3 55.06 368.58 54.93 369.02 54.91 369.24 54.8 369.53 54.76 369.8 54.56 370.27 54.46 370.59 54.33 371.02 54.27 371.56 54.07 371.98 53.93 372.4 53.55 372.67 53.5 372.99 53.18 372.99 52.99 372.88 52.79 372.6 52.82 372.1 52.97 371.62 53.19 371.01 53.26 370.61 53.38 370.31 53.39 370.02 53.37 369.74 53.43 369.46 53.55 369.16 53.51 368.87 53.5 368.58 53.6 368.29 53.62 368.05 53.58 367.93 53.59 367.7 53.62 367.41 53.59 367.12 53.55 366.83 53.47 366.54 53.44 366.24 53.47 365.94 53.52 365.66 53.41 365.38 53.31 365.09 53.25 364.8 53.22 364.53 53.1 364.21 53.14 363.94 53.03 363.66 52.95 363.41 52.78 363.1 52.78 362.84 52.62 362.57 52.51 362.27 52.47"/><polygon class="cls-2" points="377.03 51.23 377.3 51.27 377.47 51.26 377.75 51.05 378.02 50.94 378.31 50.88 378.61 50.85 378.85 50.65 379.15 50.66 379.52 50.47 379.87 50.31 380.47 50.16 380.75 50.1 381.06 50.17 381.34 50.1 381.62 50.01 381.92 49.98 382.21 50.09 382.51 50.16 382.8 50.08 383.09 50.08 383.38 50.17 383.68 50.19 383.98 50.11 384.25 50.28 384.56 50.15 384.83 50.32 385.11 50.4 385.42 50.36 385.71 50.38 385.99 50.47 386.26 50.61 386.54 50.69 386.84 50.7 387.12 50.78 387.38 50.93 387.64 51.07 387.9 51.19 388.2 51.23 388.46 51.37 388.69 51.57 388.96 51.67 389.19 51.86 389.44 52.01 389.74 52.07 390.03 52.16 390.25 52.36 390.55 52.42 390.78 52.62 391.04 52.77 391.27 52.94 391.49 53.16 391.74 53.3 392.01 53.42 392.27 53.56 392.56 53.63 392.8 53.82 393.05 53.96 393.35 54.02 393.59 54.18 393.88 54.26 394.14 54.38 394.42 54.48 394.71 54.51 394.98 54.66 395.28 54.65 395.55 54.81 395.82 54.93 396.13 54.89 396.43 54.87 396.71 54.96 397 55.04 397.3 55.03 397.4 54.93 397.52 54.71 397.61 54.43 397.52 54.15 397.6 53.87 397.5 53.72 397.3 53.66 397.01 53.56 396.72 53.52 396.43 53.48 396.13 53.54 395.85 53.45 395.56 53.36 395.26 53.41 394.97 53.38 394.69 53.29 394.4 53.23 394.13 53.11 393.83 53.1 393.57 52.92 393.25 52.99 393 52.81 392.74 52.67 392.44 52.63 392.19 52.48 391.89 52.43 391.61 52.34 391.34 52.22 391.09 52.07 390.83 51.94 390.62 51.7 390.29 51.69 390.05 51.52 389.79 51.39 389.54 51.22 389.31 51.03 389.01 50.96 388.8 50.75 388.57 50.56 388.31 50.43 388.1 50.21 387.81 50.11 387.58 49.92 387.28 49.87 387.06 49.67 386.79 49.55 386.51 49.46 386.27 49.26 385.99 49.17 385.67 49.21 385.39 49.13 385.13 48.99 384.84 48.95 384.57 48.79 384.26 48.85 383.98 48.74 383.69 48.67 383.39 48.82 383.09 48.77 382.8 48.68 382.51 48.8 382.23 48.82 381.94 48.77 381.65 48.78 381.37 48.81 381.1 48.91 380.8 48.84 380.52 48.9 380.24 48.97 380 49.19 379.46 49.25 379.05 49.46 378.72 49.69 378.46 49.79 378.2 49.91 377.9 49.95 377.69 50.16 377.45 50.3 377.2 50.43 377.02 50.62 376.79 51.01 376.86 51.14 377.03 51.23"/><polygon class="cls-3" points="344.84 43.48 344.55 43.63 344.27 43.51 343.98 43.49 343.69 43.56 343.41 43.49 343.12 43.5 342.83 43.49 342.55 43.45 342.27 43.38 341.99 43.32 341.7 43.33 341.41 43.3 341.14 43.18 340.87 43.1 340.6 42.99 340.32 42.95 340.04 42.87 339.77 42.79 339.45 42.84 339.18 42.75 338.91 42.64 338.67 42.45 338.37 42.45 338.13 42.25 337.87 42.13 337.57 42.12 337.31 42 337.08 41.84 336.85 41.65 336.53 41.66 336.34 41.42 336.08 41.3 335.77 41.28 335.57 41.05 335.28 40.99 335.06 40.79 334.76 40.78 334.48 40.7 334.21 40.61 333.99 40.38 333.71 40.35 333.43 40.28 333.17 40.13 332.89 40.08 332.58 40.15 332.32 40 332.03 40.02 331.75 39.93 331.47 39.97 331.19 39.86 330.9 39.96 330.62 39.92 330.33 39.95 330.04 39.89 329.76 39.95 329.47 39.84 329.19 39.98 328.9 39.94 328.62 39.97 328.34 40.01 328.05 40.03 327.77 40.06 327.51 40.21 327.23 40.28 326.97 40.38 326.71 40.51 326.43 40.55 326.14 40.59 325.93 40.81 325.67 40.92 325.36 40.92 325.12 41.08 324.86 41.2 324.65 41.42 324.38 41.5 324.1 41.58 323.88 41.79 323.61 41.87 323.32 41.92 323.09 42.12 322.82 42.21 322.54 42.28 322.29 42.44 322.02 42.52 321.74 42.61 321.45 42.64 321.18 42.71 320.92 42.85 320.64 42.92 320.35 42.94 320.09 43.09 319.79 43.05 319.54 43.25 319.26 43.32 318.97 43.33 318.69 43.39 318.41 43.47 318.12 43.43 317.83 43.48 317.55 43.54 317.26 43.55 316.97 43.56 316.68 43.54 316.4 43.63 316.11 43.54 315.82 43.52 315.56 43.64 315.47 43.86 315.57 44.12 315.82 44.23 316.11 44.06 316.4 44.06 316.69 44.15 316.99 44.17 317.28 44.18 317.56 44.06 317.84 44.01 318.14 44.06 318.43 44.01 318.71 43.94 318.99 43.88 319.27 43.81 319.55 43.73 319.84 43.72 320.13 43.69 320.39 43.57 320.67 43.48 320.95 43.43 321.24 43.39 321.47 43.17 321.79 43.21 322.02 43.01 322.33 43.01 322.56 42.8 322.85 42.73 323.15 42.7 323.36 42.45 323.64 42.37 323.91 42.26 324.21 42.26 324.49 42.18 324.72 41.98 324.99 41.91 325.28 41.86 325.56 41.81 325.79 41.6 326.06 41.51 326.36 41.53 326.65 41.5 326.91 41.37 327.18 41.23 327.48 41.27 327.75 41.15 328.04 41.2 328.31 41.05 328.61 41.16 328.89 41.04 329.18 41.09 329.47 41.05 329.75 41.02 330.04 41.11 330.33 40.94 330.62 41.08 330.91 40.97 331.2 41.01 331.48 40.99 331.76 41.12 332.05 41.08 332.33 41.17 332.61 41.23 332.89 41.23 333.17 41.3 333.46 41.29 333.72 41.42 334.02 41.4 334.3 41.47 334.56 41.58 334.86 41.59 335.12 41.72 335.37 41.89 335.67 41.89 335.95 41.96 336.19 42.14 336.49 42.16 336.76 42.24 337.02 42.38 337.25 42.59 337.55 42.62 337.81 42.75 338.05 42.91 338.36 42.9 338.59 43.11 338.87 43.19 339.15 43.24 339.44 43.28 339.7 43.42 339.98 43.48 340.26 43.57 340.56 43.57 340.81 43.74 341.09 43.83 341.39 43.79 341.67 43.87 341.96 43.89 342.25 43.94 342.53 43.98 342.82 44 343.11 44.01 343.4 44.04 343.69 44.11 343.98 44.06 344.26 44.21 344.55 44.16 344.84 44.21 345.09 44.14 345.11 44.1 345.12 44.16 345.42 44.22 345.71 44.13 346 44.17 346.29 44.18 346.58 44.16 346.87 44.13 347.16 44.1 347.44 44.02 347.74 44.06 348.01 43.91 348.3 43.87 348.6 43.93 348.87 43.78 349.16 43.77 349.44 43.7 349.74 43.7 349.99 43.51 350.29 43.52 350.56 43.42 350.83 43.3 351.13 43.3 351.4 43.19 351.66 43.07 351.94 42.99 352.2 42.87 352.43 42.66 352.71 42.59 353 42.53 353.27 42.4 353.55 42.27 353.84 42.18 354.12 42.04 354.43 42 354.7 41.86 354.92 41.73 354.99 41.52 355.01 41.24 354.94 41.08 354.71 41.04 354.49 41.23 354.23 41.35 353.94 41.43 353.71 41.6 353.45 41.72 353.21 41.88 352.97 42.03 352.68 42.07 352.44 42.25 352.15 42.3 351.88 42.4 351.61 42.5 351.33 42.59 351.05 42.65 350.79 42.76 350.54 42.93 350.23 42.88 349.94 42.93 349.68 43.04 349.4 43.13 349.13 43.23 348.83 43.17 348.55 43.24 348.28 43.35 347.98 43.31 347.72 43.48 347.43 43.48 347.14 43.46 346.86 43.57 346.57 43.59 346.29 43.55 346 43.53 345.71 43.6 345.42 43.5 345.06 43.55 345.07 43.6 345.06 43.59 344.84 43.48"/><path class="cls-3" d="M404.3,43.67l-.26-.15-.29.11-.28-.09-.29.07-.28-.13-.29,0H402l-.28-.1-.3.08-.26-.21-.31.11-.27-.12-.27-.09h-.29L399.8,43l-.28,0h-.3l-.29,0-.25-.18h-.3l-.24-.17-.27-.11-.26-.13-.27-.09H397l-.22-.23-.29,0-.24-.15-.24-.15-.27-.09-.24-.16-.27-.1-.23-.16-.31,0-.25-.14-.25-.13L394,40.8l-.22-.21-.27-.09-.27-.09-.28-.08-.26-.11-.31,0-.25-.17-.28-.06-.29,0h-.29L391,40l-.28-.06-.28,0h-.57l-.29,0-.28,0-.29.11-.29-.11-.27.14h-.29l-.29,0-.28,0-.27.12-.27.09-.3,0-.27.09-.29,0-.23.2h-.3l-.26.12-.25.14-.28,0-.26.13-.26.1-.23.18-.23.17-.27.11-.28.07-.2.23-.33,0-.24.14-.22.21H382l-.21.24-.3,0-.27.12-.29,0-.27.11-.24.19h-.3l-.28.06-.25.15-.28.09-.3,0-.27.11-.26.12-.29,0h-.29l-.3,0-.27.16-.29,0h-.29l-.28,0-.29-.05-.29.08-.28,0-.29.05-.29,0-.27-.06v0l-.33,0-.3,0-.31-.06-.3,0h-.6l-.31,0-.3,0-.3-.09-.17.1-.07.13,0,.2L372,44l.3.06.31,0,.29.13h.3l.3.06.31-.09.3,0,.3.09h.6l.29,0,.29-.1.29.07.28-.11.3,0,.28-.09.3.07.28,0,.29,0,.28-.08.28-.09.28-.06.28-.06.29,0,.27-.11.28-.06.28-.07.27-.07.28-.07.27-.12h.3l.23-.23.27-.08.3,0,.28-.1.28-.07.26-.14.28-.08.26-.12.26-.11.28-.08.27-.08.24-.16.26-.13.29,0,.24-.18.29-.05.28,0,.28-.07.28,0,.26-.13.31.05.28,0,.26-.18.3.07.28-.07.28-.05.29,0,.29,0H389l.29.06h.28l.29,0,.29-.08.29,0,.28,0L391,41l.28.08.28.07h.29l.26.15.28,0,.31-.08.28.05.26.13.27.12.3,0,.28.08.27.09.28.08.25.16.29,0,.27.09.23.22h.3l.24.19.28.06.26.15.29,0,.26.12.25.16.29,0,.29,0,.24.19.27.08.29,0,.29,0,.27.12.25.19.31,0,.29,0,.26.13h.3l.27.15.29,0,.29,0,.29.11h.29l.29.06.29,0,.28,0,.29,0,.29-.07.29.09.18-.14.11-.22Zm-29.64.19v0Z"/><polygon class="cls-4" points="389.51 63.53 389.47 63.34 389.24 63.27 388.95 63.27 388.67 63.2 388.38 63.21 388.1 63.14 387.81 63.19 387.52 63.18 387.23 63.18 386.96 63.06 386.67 63.07 386.39 63.02 386.12 62.89 385.83 62.87 385.54 62.9 385.27 62.79 384.96 62.82 384.73 62.59 384.42 62.63 384.16 62.47 383.89 62.37 383.6 62.37 383.36 62.18 383.06 62.16 382.78 62.09 382.52 61.97 382.27 61.8 381.97 61.8 381.74 61.62 381.49 61.48 381.2 61.43 380.95 61.3 380.71 61.14 380.49 60.96 380.19 60.92 379.95 60.76 379.72 60.58 379.42 60.56 379.14 60.49 378.91 60.3 378.63 60.25 378.37 60.13 378.11 60.01 377.81 60.02 377.57 59.83 377.29 59.77 377 59.75 376.72 59.67 376.45 59.59 376.16 59.58 375.87 59.59 375.59 59.5 375.3 59.62 375.02 59.59 374.73 59.51 374.44 59.5 374.16 59.51 373.87 59.51 373.59 59.54 373.31 59.63 373.02 59.63 372.75 59.75 372.46 59.71 372.19 59.84 371.9 59.85 371.65 59.99 371.37 60.05 371.09 60.11 370.85 60.26 370.57 60.33 370.33 60.49 370.08 60.6 369.77 60.62 369.49 60.69 369.29 60.92 369.01 61 368.77 61.15 368.5 61.25 368.26 61.41 367.97 61.45 367.76 61.68 367.47 61.73 367.2 61.81 366.96 62 366.66 62.01 366.39 62.11 366.13 62.24 365.85 62.28 365.6 62.44 365.31 62.48 365.06 62.62 364.76 62.61 364.5 62.75 364.2 62.75 363.94 62.91 363.65 62.93 363.38 63.02 363.07 62.93 362.8 63.02 362.52 63.1 362.24 63.19 361.95 63.22 361.66 63.16 361.37 63.21 361.09 63.26 360.8 63.25 360.51 63.23 360.22 63.18 359.97 63.25 359.87 63.26 359.64 63.17 359.35 63.2 359.06 63.29 358.78 63.2 358.5 63.12 358.2 63.22 357.93 63.09 357.64 63.06 357.36 63.07 357.07 63.07 356.79 63 356.5 62.98 356.22 62.93 355.94 62.89 355.65 62.86 355.4 62.66 355.11 62.66 354.81 62.67 354.54 62.56 354.28 62.43 354.01 62.33 353.74 62.23 353.44 62.2 353.21 62 352.92 61.96 352.62 61.93 352.39 61.73 352.12 61.66 351.89 61.48 351.64 61.35 351.39 61.21 351.14 61.08 350.83 61.07 350.63 60.83 350.31 60.84 350.07 60.69 349.83 60.54 349.56 60.43 349.3 60.34 349.05 60.19 348.77 60.13 348.51 59.99 348.22 59.99 347.95 59.91 347.69 59.76 347.39 59.77 347.12 59.68 346.84 59.64 346.56 59.56 346.26 59.67 345.98 59.64 345.7 59.56 345.42 59.54 345.13 59.61 344.85 59.63 344.56 59.56 344.28 59.62 343.99 59.53 343.7 59.55 343.42 59.63 343.14 59.68 342.86 59.74 342.58 59.77 342.29 59.79 342.02 59.9 341.75 60 341.51 60.16 341.24 60.24 340.96 60.32 340.71 60.43 340.41 60.46 340.18 60.63 339.94 60.79 339.69 60.92 339.39 60.96 339.19 61.19 338.91 61.26 338.62 61.33 338.4 61.51 338.13 61.62 337.85 61.69 337.6 61.82 337.32 61.9 337.05 61.98 336.8 62.15 336.55 62.27 336.24 62.27 335.98 62.4 335.72 62.51 335.47 62.67 335.17 62.68 334.9 62.79 334.6 62.74 334.32 62.82 334.06 62.95 333.78 63.01 333.5 63.08 333.2 63.08 332.91 63.06 332.64 63.19 332.34 63.14 332.06 63.15 331.77 63.21 331.48 63.13 331.2 63.22 330.91 63.29 330.62 63.27 330.4 63.26 330.04 63.2 329.75 63.27 329.46 63.21 329.18 63.21 328.89 63.27 328.6 63.21 328.32 63.16 328.04 63.07 327.76 63.05 327.48 63.01 327.19 62.98 326.91 62.95 326.63 62.84 326.34 62.85 326.06 62.79 325.79 62.7 325.5 62.7 325.21 62.66 324.93 62.59 324.69 62.39 324.4 62.34 324.13 62.24 323.84 62.21 323.58 62.09 323.3 62.02 323.05 61.85 322.77 61.78 322.5 61.69 322.24 61.58 322.01 61.4 321.78 61.23 321.47 61.21 321.24 61.05 321 60.89 320.75 60.75 320.52 60.58 320.22 60.56 319.98 60.4 319.71 60.3 319.42 60.26 319.16 60.14 318.88 60.08 318.63 59.96 318.34 59.94 318.09 59.73 317.8 59.75 317.51 59.73 317.24 59.62 316.95 59.59 316.67 59.64 316.38 59.6 316.1 59.6 315.81 59.6 315.53 59.6 315.24 59.55 314.96 59.63 314.67 59.59 314.39 59.65 314.11 59.7 313.82 59.6 313.54 59.7 313.26 59.76 312.98 59.78 312.69 59.8 312.42 59.9 312.17 60.05 311.9 60.14 311.59 60.13 311.35 60.29 311.12 60.46 310.86 60.58 310.55 60.57 310.32 60.75 310.06 60.85 309.85 61.08 309.59 61.2 309.32 61.29 309.07 61.43 308.77 61.45 308.54 61.65 308.25 61.69 308.03 61.89 307.71 61.89 307.49 62.09 307.19 62.12 306.92 62.19 306.68 62.38 306.37 62.37 306.13 62.55 305.85 62.6 305.56 62.65 305.28 62.69 305 62.74 304.73 62.84 304.43 62.83 304.18 63.04 303.88 63 303.6 63.02 303.32 63.13 303.03 63.15 302.75 63.22 302.46 63.19 302.17 63.21 301.88 63.17 301.59 63.2 301.31 63.24 301.02 63.27 300.78 63.3 300.7 63.53 300.75 63.82 301.02 63.83 301.32 63.9 301.6 63.77 301.89 63.83 302.18 63.79 302.48 63.84 302.76 63.82 303.04 63.67 303.34 63.72 303.62 63.63 303.9 63.56 304.19 63.52 304.47 63.48 304.77 63.49 305.06 63.46 305.32 63.34 305.6 63.28 305.86 63.13 306.13 63.05 306.44 63.06 306.69 62.91 306.97 62.82 307.23 62.7 307.5 62.59 307.79 62.54 308.04 62.37 308.33 62.33 308.59 62.18 308.88 62.12 309.14 62 309.37 61.8 309.65 61.74 309.95 61.74 310.17 61.51 310.46 61.49 310.73 61.38 311.02 61.37 311.26 61.19 311.54 61.13 311.85 61.16 312.11 61.02 312.4 61.02 312.66 60.85 312.97 60.95 313.25 60.9 313.53 60.84 313.81 60.74 314.1 60.76 314.38 60.81 314.67 60.8 314.95 60.69 315.24 60.65 315.53 60.63 315.82 60.61 316.11 60.73 316.39 60.77 316.68 60.77 316.97 60.67 317.24 60.85 317.54 60.73 317.81 60.88 318.08 60.95 318.38 60.88 318.67 60.91 318.92 61.1 319.21 61.13 319.5 61.11 319.78 61.18 320.06 61.26 320.3 61.46 320.59 61.49 320.86 61.59 321.15 61.62 321.41 61.76 321.68 61.85 321.93 62 322.21 62.06 322.47 62.18 322.72 62.36 323.02 62.38 323.28 62.5 323.52 62.68 323.8 62.75 324.09 62.79 324.38 62.83 324.64 62.95 324.89 63.11 325.19 63.11 325.45 63.26 325.73 63.35 326.01 63.42 326.3 63.49 326.59 63.49 326.88 63.5 327.16 63.58 327.44 63.62 327.73 63.7 328.02 63.68 328.3 63.8 328.6 63.72 328.88 63.82 329.17 63.87 329.46 63.77 329.75 63.78 330.04 63.75 330.38 63.81 330.62 63.75 330.92 63.89 331.21 63.86 331.49 63.77 331.79 63.83 332.07 63.73 332.37 63.8 332.64 63.69 332.94 63.73 333.22 63.6 333.51 63.62 333.81 63.63 334.08 63.52 334.38 63.53 334.64 63.39 334.94 63.38 335.2 63.26 335.49 63.22 335.73 63.03 336.01 62.97 336.27 62.83 336.59 62.88 336.85 62.76 337.13 62.66 337.38 62.51 337.63 62.34 337.92 62.3 338.17 62.14 338.43 62 338.74 62.01 339.02 61.94 339.29 61.85 339.55 61.73 339.82 61.65 340.07 61.52 340.32 61.35 340.62 61.36 340.88 61.23 341.14 61.1 341.44 61.12 341.7 60.99 342.01 61.05 342.28 60.93 342.57 60.94 342.84 60.85 343.12 60.76 343.41 60.74 343.7 60.81 343.98 60.71 344.26 60.63 344.56 60.78 344.84 60.72 345.13 60.68 345.42 60.7 345.71 60.66 346 60.65 346.28 60.65 346.57 60.73 346.84 60.84 347.14 60.75 347.41 60.89 347.7 60.85 347.97 60.95 348.26 60.97 348.55 60.98 348.8 61.16 349.11 61.12 349.37 61.23 349.66 61.25 349.89 61.47 350.21 61.42 350.44 61.66 350.75 61.61 350.99 61.82 351.29 61.83 351.56 61.93 351.83 62.01 352.07 62.2 352.31 62.37 352.63 62.35 352.86 62.56 353.15 62.59 353.43 62.66 353.68 62.83 353.95 62.92 354.24 62.97 354.5 63.09 354.8 63.12 355.04 63.31 355.33 63.33 355.6 63.46 355.89 63.52 356.2 63.45 356.46 63.64 356.75 63.66 357.05 63.57 357.33 63.68 357.62 63.68 357.92 63.66 358.2 63.7 358.48 63.84 358.78 63.73 359.06 63.88 359.35 63.86 359.64 63.79 359.87 63.8 359.99 63.8 360.23 63.84 360.51 63.75 360.81 63.89 361.1 63.8 361.39 63.8 361.68 63.84 361.96 63.75 362.25 63.75 362.54 63.66 362.83 63.71 363.12 63.69 363.38 63.49 363.68 63.5 363.97 63.49 364.24 63.36 364.52 63.31 364.79 63.22 365.05 63.1 365.35 63.09 365.61 62.95 365.89 62.9 366.15 62.75 366.44 62.72 366.73 62.67 366.98 62.49 367.25 62.4 367.54 62.33 367.76 62.12 368.07 62.1 368.34 62.02 368.62 61.95 368.85 61.73 369.15 61.75 369.42 61.66 369.69 61.57 369.91 61.33 370.21 61.33 370.47 61.19 370.74 61.11 371.03 61.08 371.33 61.09 371.6 61.03 371.87 60.89 372.17 60.94 372.43 60.76 372.74 60.88 373.02 60.84 373.3 60.75 373.58 60.74 373.87 60.78 374.16 60.73 374.44 60.7 374.73 60.63 375.02 60.61 375.31 60.77 375.6 60.68 375.88 60.71 376.17 60.69 376.44 60.85 376.74 60.77 377.02 60.78 377.28 60.96 377.58 60.93 377.87 60.92 378.12 61.1 378.4 61.16 378.7 61.12 378.98 61.21 379.24 61.33 379.52 61.39 379.81 61.43 380.09 61.51 380.34 61.66 380.6 61.79 380.86 61.91 381.13 62 381.42 62.04 381.66 62.23 381.95 62.29 382.21 62.4 382.47 62.53 382.75 62.6 382.99 62.77 383.26 62.88 383.57 62.87 383.86 62.92 384.11 63.05 384.38 63.17 384.66 63.24 384.94 63.33 385.22 63.4 385.51 63.42 385.77 63.59 386.08 63.52 386.34 63.69 386.64 63.67 386.94 63.61 387.21 63.78 387.5 63.81 387.79 63.83 388.09 63.8 388.38 63.73 388.67 63.77 388.95 63.81 389.24 63.78 389.45 63.75 389.51 63.53"/><polygon class="cls-5" points="397.41 73.31 397.21 73.25 396.91 73.33 396.62 73.24 396.33 73.26 396.04 73.2 395.74 73.2 395.46 73.13 395.18 73.03 394.89 72.96 394.6 72.95 394.32 72.84 394.01 72.89 393.75 72.73 393.49 72.59 393.16 72.65 392.88 72.56 392.6 72.46 392.36 72.27 392.06 72.23 391.81 72.06 391.51 72.03 391.31 71.75 391.02 71.68 390.71 71.64 390.47 71.46 390.19 71.36 389.96 71.18 389.71 71.03 389.45 70.89 389.22 70.7 389 70.5 388.69 70.45 388.44 70.31 388.25 70.06 387.98 69.94 387.73 69.79 387.44 69.7 387.22 69.5 386.98 69.31 386.66 69.29 386.45 69.04 386.14 69.03 385.9 68.83 385.61 68.77 385.32 68.72 385.02 68.72 384.75 68.56 384.46 68.53 384.17 68.5 383.87 68.47 383.58 68.4 383.29 68.45 383 68.32 382.7 68.44 382.41 68.36 382.11 68.4 381.82 68.46 381.52 68.39 381.24 68.54 380.96 68.61 380.66 68.59 380.39 68.72 380.08 68.69 379.8 68.78 379.53 68.89 379.27 69.03 379 69.15 378.72 69.24 378.43 69.3 378.22 69.54 377.92 69.61 377.67 69.75 377.49 70.01 377.19 70.09 376.95 70.25 376.65 70.34 376.48 70.61 376.2 70.72 375.99 70.93 375.73 71.08 375.44 71.17 375.15 71.25 374.92 71.44 374.66 71.58 374.41 71.74 374.16 71.9 373.84 71.89 373.61 72.1 373.33 72.18 373.06 72.29 372.75 72.31 372.5 72.46 372.22 72.54 371.93 72.59 371.69 72.82 371.38 72.78 371.09 72.83 370.82 72.97 370.55 73.1 370.23 73.01 369.96 73.17 369.66 73.14 369.37 73.15 369.08 73.22 368.78 73.18 368.49 73.22 368.2 73.31 367.94 73.27 367.94 73.25 367.6 73.34 367.31 73.19 367.02 73.18 366.73 73.21 366.43 73.25 366.15 73.11 365.85 73.19 365.57 73.03 365.29 72.95 364.98 73.02 364.7 72.92 364.43 72.79 364.12 72.82 363.88 72.6 363.6 72.52 363.32 72.43 363.05 72.33 362.75 72.29 362.48 72.18 362.21 72.06 361.96 71.92 361.64 71.9 361.42 71.67 361.11 71.65 360.85 71.51 360.62 71.31 360.36 71.17 360.12 71 359.87 70.85 359.61 70.72 359.36 70.57 359.11 70.42 358.83 70.32 358.66 70.04 358.38 69.94 358.08 69.86 357.87 69.64 357.59 69.55 357.35 69.37 357.05 69.31 356.84 69.08 356.54 69.02 356.26 68.96 356 68.82 355.72 68.72 355.42 68.69 355.15 68.56 354.86 68.5 354.57 68.47 354.28 68.37 353.98 68.44 353.69 68.49 353.39 68.41 353.1 68.42 352.81 68.39 352.51 68.44 352.22 68.39 351.92 68.37 351.63 68.42 351.34 68.47 351.06 68.58 350.79 68.7 350.51 68.8 350.21 68.83 349.91 68.86 349.69 69.08 349.42 69.19 349.13 69.26 348.87 69.38 348.63 69.55 348.32 69.6 348.13 69.86 347.81 69.89 347.63 70.16 347.37 70.29 347.08 70.39 346.83 70.54 346.58 70.69 346.33 70.83 346.13 71.07 345.81 71.1 345.57 71.29 345.31 71.43 345.08 71.62 344.77 71.65 344.54 71.85 344.23 71.88 344.01 72.1 343.71 72.14 343.48 72.35 343.2 72.45 342.9 72.48 342.62 72.55 342.36 72.69 342.07 72.76 341.79 72.86 341.5 72.87 341.22 72.97 340.92 72.99 340.65 73.11 340.36 73.15 340.07 73.23 339.77 73.23 339.48 73.21 339.18 73.19 338.89 73.28 338.59 73.19 338.23 73.23 338 73.22 337.71 73.25 337.42 73.31 337.12 73.3 336.83 73.21 336.55 73.08 336.26 73.08 335.98 72.99 335.67 73.08 335.4 72.94 335.09 72.95 334.81 72.86 334.55 72.72 334.27 72.63 333.98 72.57 333.7 72.49 333.43 72.38 333.13 72.34 332.91 72.1 332.62 72.05 332.31 72.02 332.11 71.76 331.77 71.77 331.53 71.6 331.27 71.47 331 71.35 330.77 71.15 330.48 71.08 330.29 70.82 330.02 70.7 329.73 70.61 329.47 70.48 329.28 70.24 328.99 70.16 328.75 69.99 328.52 69.8 328.25 69.68 328 69.52 327.71 69.44 327.46 69.3 327.19 69.19 326.95 69 326.65 68.96 326.41 68.77 326.13 68.66 325.83 68.64 325.53 68.66 325.24 68.59 324.97 68.41 324.67 68.48 324.38 68.49 324.09 68.38 323.8 68.37 323.5 68.47 323.2 68.4 322.9 68.33 322.62 68.41 322.32 68.39 322.04 68.51 321.76 68.61 321.44 68.51 321.16 68.59 320.9 68.76 320.62 68.85 320.31 68.84 320.07 69.05 319.8 69.15 319.53 69.27 319.3 69.44 319.01 69.53 318.75 69.65 318.45 69.72 318.26 69.98 317.96 70.05 317.72 70.21 317.47 70.37 317.21 70.51 316.98 70.69 316.76 70.9 316.53 71.09 316.28 71.24 315.96 71.28 315.76 71.52 315.44 71.54 315.21 71.74 314.92 71.81 314.63 71.88 314.36 71.99 314.13 72.19 313.85 72.27 313.6 72.44 313.28 72.41 313.02 72.56 312.73 72.59 312.45 72.68 312.16 72.74 311.91 72.94 311.63 73.01 311.33 73.02 311.02 72.99 310.75 73.14 310.45 73.13 310.16 73.13 309.87 73.15 309.58 73.15 309.29 73.22 309 73.33 308.81 73.41 308.72 73.54 308.64 73.82 308.7 74.1 308.71 74.38 308.85 74.51 308.99 74.59 309.29 74.61 309.58 74.55 309.87 74.51 310.18 74.59 310.46 74.53 310.74 74.4 311.06 74.48 311.33 74.34 311.59 74.18 311.89 74.17 312.15 74.04 312.42 73.91 312.73 73.91 312.97 73.72 313.24 73.61 313.49 73.45 313.8 73.42 314.02 73.21 314.31 73.12 314.53 72.91 314.77 72.75 315 72.56 315.29 72.48 315.5 72.26 315.75 72.11 316.03 72 316.31 71.9 316.58 71.78 316.79 71.53 317.08 71.46 317.36 71.37 317.59 71.18 317.89 71.13 318.13 70.97 318.42 70.92 318.68 70.78 318.95 70.67 319.2 70.51 319.5 70.47 319.77 70.39 320.06 70.34 320.31 70.13 320.59 70.06 320.9 70.12 321.16 69.94 321.46 69.97 321.75 69.96 322.04 69.88 322.33 69.88 322.62 69.82 322.92 69.85 323.21 69.77 323.5 69.81 323.79 69.72 324.09 69.8 324.38 69.74 324.67 69.87 324.96 69.87 325.24 69.93 325.53 69.98 325.81 70.02 326.11 70.02 326.39 70.1 326.67 70.18 326.94 70.3 327.24 70.33 327.51 70.41 327.8 70.49 328.07 70.58 328.33 70.73 328.61 70.82 328.83 71.04 329.11 71.14 329.38 71.25 329.69 71.28 329.94 71.43 330.18 71.62 330.48 71.67 330.7 71.88 330.93 72.07 331.18 72.21 331.5 72.25 331.67 72.53 332 72.54 332.19 72.8 332.5 72.86 332.73 73.04 333.01 73.15 333.21 73.38 333.49 73.5 333.78 73.56 334.05 73.68 334.27 73.91 334.57 73.95 334.85 74.02 335.14 74.09 335.39 74.28 335.67 74.35 335.96 74.42 336.26 74.4 336.55 74.49 336.84 74.54 337.13 74.56 337.42 74.64 337.71 74.6 338.01 74.65 338.23 74.65 338.23 74.68 338.6 74.61 338.9 74.69 339.18 74.56 339.49 74.67 339.76 74.48 340.06 74.48 340.36 74.49 340.64 74.41 340.91 74.29 341.19 74.2 341.51 74.23 341.78 74.12 342.03 73.95 342.32 73.88 342.61 73.81 342.81 73.55 343.13 73.53 343.38 73.37 343.65 73.27 343.85 73.02 344.12 72.9 344.36 72.73 344.67 72.68 344.89 72.48 345.17 72.38 345.43 72.23 345.61 71.95 345.94 71.94 346.18 71.77 346.38 71.53 346.71 71.54 346.95 71.35 347.2 71.22 347.47 71.09 347.7 70.91 348.03 70.92 348.27 70.74 348.52 70.58 348.83 70.58 349.07 70.41 349.36 70.34 349.66 70.33 349.91 70.17 350.21 70.16 350.49 70.08 350.78 70.04 351.07 70 351.35 69.92 351.64 69.86 351.93 69.87 352.22 69.85 352.51 69.84 352.81 69.84 353.1 69.78 353.39 69.82 353.69 69.84 353.98 69.77 354.28 69.75 354.56 69.81 354.86 69.82 355.15 69.87 355.42 69.98 355.72 70 355.99 70.13 356.28 70.16 356.54 70.31 356.82 70.38 357.11 70.43 357.37 70.58 357.68 70.58 357.9 70.81 358.2 70.84 358.47 70.95 358.72 71.12 358.97 71.27 359.29 71.29 359.5 71.52 359.8 71.58 360.06 71.71 360.3 71.88 360.57 71.99 360.83 72.13 361.07 72.3 361.29 72.49 361.53 72.67 361.81 72.77 362.04 72.96 362.34 73.03 362.61 73.14 362.85 73.32 363.07 73.53 363.33 73.67 363.63 73.72 363.86 73.93 364.19 73.9 364.41 74.14 364.71 74.17 364.99 74.26 365.26 74.39 365.56 74.45 365.87 74.4 366.16 74.45 366.44 74.49 366.72 74.65 367.03 74.54 367.31 74.66 367.61 74.62 367.92 74.66 367.92 74.65 368.2 74.59 368.49 74.62 368.79 74.61 369.08 74.57 369.38 74.58 369.67 74.57 369.95 74.45 370.24 74.41 370.51 74.26 370.79 74.2 371.11 74.22 371.35 74.03 371.64 73.96 371.94 73.91 372.15 73.67 372.46 73.65 372.69 73.44 372.98 73.38 373.21 73.18 373.46 73.04 373.73 72.92 373.98 72.76 374.26 72.66 374.51 72.52 374.73 72.31 374.96 72.12 375.25 72.03 375.54 71.95 375.73 71.67 376 71.55 376.27 71.44 376.56 71.36 376.8 71.21 377.07 71.09 377.33 70.96 377.63 70.92 377.89 70.8 378.12 70.59 378.42 70.56 378.7 70.5 378.94 70.29 379.25 70.29 379.51 70.14 379.8 70.09 380.09 70.06 380.38 70.04 380.66 69.95 380.95 69.92 381.23 69.81 381.53 69.86 381.82 69.86 382.11 69.75 382.41 69.84 382.7 69.79 383 69.83 383.29 69.77 383.58 69.75 383.88 69.76 384.17 69.83 384.45 69.91 384.75 69.88 385.03 69.94 385.3 70.09 385.59 70.12 385.88 70.14 386.16 70.23 386.42 70.38 386.71 70.44 386.99 70.52 387.25 70.66 387.53 70.73 387.8 70.85 388.06 70.97 388.31 71.13 388.58 71.24 388.86 71.35 389.09 71.54 389.38 71.61 389.63 71.78 389.9 71.88 390.12 72.08 390.4 72.18 390.63 72.38 390.91 72.47 391.2 72.55 391.42 72.76 391.64 72.95 391.88 73.13 392.14 73.27 392.42 73.38 392.72 73.43 392.93 73.68 393.24 73.71 393.52 73.8 393.76 73.97 394.03 74.09 394.32 74.17 394.58 74.3 394.87 74.38 395.17 74.37 395.45 74.51 395.75 74.53 396.04 74.55 396.32 74.67 396.63 74.55 396.91 74.72 397.21 74.69 397.36 74.55 397.46 74.37 397.53 74.09 397.46 73.81 397.47 73.54 397.41 73.31"/><path class="cls-6" d="M308.77,34.48l-.1.28.08.28.11.17.14.09.29,0,.3,0,.28-.1.31.09.27-.16h.3L311,35h.3l.29,0,.29-.06.28-.11.26-.13.25-.16.27-.11.31,0,.26-.13.25-.15.24-.17.27-.12.19-.25.27-.13.25-.15.28-.11.29-.08.24-.16.26-.14.23-.19.28-.11.26-.13.26-.14.27-.1.27-.12.22-.22.26-.12.3,0,.26-.13.23-.2h.31l.26-.13.26-.13.27-.12.33.08.25-.21.29,0,.28-.11.31.07.28,0,.29,0,.29-.05.29,0,.29,0,.29-.15.3.07.29,0,.3,0,.28.07h.3l.28,0,.29.08.3-.09.29.07.29,0,.28.07.28.12.28.06.28.1.29,0,.26.15.29.06.24.19.3,0,.25.16.27.1.24.18.26.13.28.1.29.08.2.24.29.08.24.17.29.09.26.12.21.23.28.1.22.19.24.18.25.16.31,0,.23.19.24.17.32,0,.23.21.28.09.26.14h.3l.27.13.26.13h.31L336,35l.27.14.29.07.31-.08.29,0,.29.06.29.07.3,0,.31,0,.27,0,.3,0,.29.05.29-.12.3.09.28-.15h.3l.28-.1.31,0,.28-.12.28-.07.25-.19.28-.08.29-.07.29-.07.21-.25h.32l.22-.23.24-.16.32,0,.23-.19.28-.1.19-.26.28-.09.24-.18.22-.21.28-.09.26-.13.26-.14.29-.07.27-.12.22-.21.27-.13.27-.1.27-.11.24-.18.26-.14.3,0,.27-.11.27-.12.27-.13.29,0,.29-.07.28-.05.27-.14h.3l.28-.09.28-.05.29-.06.29-.07.3.07.28-.11.3.05.29.09.3-.08h.29l.29.08.29,0h.29l.29.07.3,0,.27.15.29,0,.28.09.28.05.31,0,.25.2.27.09h.32l.23.2H358l.25.16.24.17h.32l.23.18.27.11.24.17.24.18.31,0,.22.15.21.17.27.07.22.13.13,0,.16-.08v-.27l-.11-.25-.23-.19-.28-.16-.29-.08-.23-.2-.26-.14-.24-.16-.24-.17-.27-.12-.28-.11-.27-.11-.23-.18-.2-.25-.25-.14-.29-.08-.23-.2-.28-.1-.28-.08-.28-.09-.26-.13-.26-.16-.29-.05h-.3l-.29-.05-.29,0-.28-.06-.28-.13L354,29l-.3.07-.29,0h-.59l-.3-.08-.29.08h-.59l-.27.19-.3,0-.27.16-.29.06-.32-.05-.28.1-.25.17-.3,0-.26.14-.24.16-.29.1-.22.21-.26.13-.22.19-.23.19-.32.05-.17.26-.31.06-.19.25-.26.13-.3.07-.25.16-.21.22-.3.07-.24.17-.29.09-.26.14-.24.17-.27.11-.31,0-.25.15-.28.1-.27.12-.27.12-.29.06h-.3l-.27.14h-.3l-.26.15-.29,0-.31,0-.27.11-.29.08-.3-.08-.29.06h-.58l-.29.12-.28,0h0l-.32,0-.29,0h-.29l-.29-.06-.29-.07-.29,0-.3,0-.28-.09h-.59l-.28-.1-.26-.16-.3,0-.28-.07-.3,0-.25-.16h-.31l-.27-.11-.25-.18-.26-.12-.26-.14-.31,0-.22-.23-.32,0-.26-.13L331,32l-.27-.13-.19-.26-.29-.09-.21-.21-.26-.13-.23-.18-.26-.13-.23-.19-.31-.06-.21-.22-.3-.06-.23-.19-.28-.1-.2-.26-.31,0-.28-.09-.28-.09-.24-.19-.29-.07-.3,0-.28-.07-.28-.11-.29-.09-.3.07-.29-.1-.29,0h-.59l-.29.1-.3,0-.29,0h-.3l-.3,0-.26.19-.31-.07-.29.05-.29.07-.26.14-.27.13-.3,0-.23.21-.31,0-.25.14-.27.11-.2.25-.33,0-.22.19-.27.12-.25.16-.17.28-.32,0-.24.18-.23.18-.25.16-.27.12L316,32l-.26.15-.28.09-.22.21h-.32l-.26.14-.24.19-.26.14-.3,0-.25.17-.28.09-.27.13-.31,0-.29,0-.25.21-.28.08-.3,0-.31-.05-.28.07-.28.08-.29.07h-.29l-.29.11-.3-.05-.29,0-.3,0-.18.09-.05.23Z"/><polygon class="cls-6" points="375.54 32.1 375.69 32.19 375.8 32.25 375.99 32.21 376.27 32.12 376.53 31.98 376.81 31.89 377.04 31.69 377.37 31.71 377.6 31.5 377.85 31.35 378.17 31.35 378.41 31.16 378.7 31.11 378.95 30.93 379.24 30.88 379.53 30.83 379.8 30.71 380.11 30.75 380.39 30.7 380.68 30.65 380.95 30.55 381.25 30.57 381.54 30.54 381.83 30.52 382.12 30.46 382.41 30.38 382.7 30.48 383 30.47 383.29 30.44 383.58 30.45 383.87 30.53 384.18 30.45 384.45 30.6 384.73 30.69 385.03 30.65 385.31 30.74 385.59 30.82 385.9 30.8 386.15 30.98 386.45 30.99 386.7 31.16 387.01 31.14 387.29 31.24 387.55 31.38 387.82 31.49 388.08 31.63 388.33 31.77 388.59 31.89 388.86 32.01 389.12 32.15 389.41 32.21 389.68 32.34 389.93 32.49 390.18 32.65 390.38 32.9 390.64 33.03 390.91 33.15 391.16 33.31 391.38 33.5 391.69 33.57 391.9 33.78 392.15 33.93 392.44 34.02 392.66 34.22 392.93 34.33 393.26 34.33 393.48 34.55 393.76 34.65 394.02 34.77 394.31 34.85 394.59 34.94 394.88 34.99 395.18 35.02 395.44 35.19 395.73 35.24 396.03 35.21 396.33 35.2 396.62 35.26 396.91 35.29 397.2 35.39 397.43 35.27 397.54 35.04 397.44 34.76 397.44 34.48 397.56 34.2 397.46 33.99 397.21 33.85 396.92 33.86 396.62 33.96 396.33 33.88 396.04 33.83 395.74 33.84 395.46 33.7 395.15 33.81 394.87 33.73 394.58 33.69 394.3 33.57 394.04 33.41 393.73 33.45 393.47 33.27 393.19 33.19 392.89 33.18 392.64 33 392.35 32.95 392.05 32.92 391.84 32.66 391.54 32.6 391.3 32.44 391 32.39 390.71 32.31 390.51 32.05 390.22 31.98 389.93 31.9 389.7 31.69 389.49 31.48 389.16 31.46 389 31.16 388.73 31.04 388.43 30.96 388.21 30.77 387.94 30.64 387.71 30.46 387.48 30.27 387.17 30.23 386.93 30.06 386.66 29.95 386.4 29.83 386.14 29.68 385.89 29.52 385.57 29.55 385.33 29.34 385.04 29.26 384.74 29.3 384.47 29.12 384.17 29.17 383.87 29.14 383.58 29.09 383.3 29.03 383 29.12 382.7 28.99 382.42 29.05 382.13 29.1 381.85 29.15 381.56 29.04 381.27 29.11 381.01 29.25 380.7 29.18 380.44 29.31 380.17 29.4 379.89 29.45 379.59 29.46 379.35 29.65 379.06 29.68 378.8 29.81 378.58 30.01 378.28 30.05 378.03 30.19 377.77 30.32 377.56 30.53 377.29 30.62 377.11 30.86 376.83 30.95 376.57 31.08 376.39 31.33 376.15 31.47 375.88 31.58 375.68 31.73 375.54 31.87 375.54 32.1"/><path class="cls-7" d="M372,21.64l-.13.08a1.36,1.36,0,0,0-.18.17c0,.05-.05.13-.09.14s-.13,0-.12,0,.09-.11.11-.15a.06.06,0,0,0,0-.09s-.13-.12-.18-.11-.11,0-.12,0,0-.07,0-.08a.37.37,0,0,0,.19-.12c0-.07.07-.12,0-.14s-.07-.06-.1,0a1.58,1.58,0,0,1-.13.18.18.18,0,0,1-.1.07.63.63,0,0,1-.27,0,.77.77,0,0,1-.25-.16s-.08-.15-.13-.14a3.25,3.25,0,0,1-.46-.17.86.86,0,0,1-.18-.14s-.08,0-.12,0a1,1,0,0,1-.29-.19c0-.05-.14-.17-.19-.18l-.09,0s-.06,0-.07,0a1,1,0,0,1-.09-.18,1.1,1.1,0,0,0,0-.11l-.34.07c-.06,0-.07,0-.08,0s0,.16,0,.19-.12,0-.18,0-.1,0-.13,0,0,.06-.05.11a.17.17,0,0,0,0,.08s-.25,0-.25,0,0-.08,0-.09-.18,0-.19,0,0-.11,0-.14,0-.09-.05-.06a1.11,1.11,0,0,0,0,.13v0a1.21,1.21,0,0,0-.19,0s-.08.07-.1.11a.25.25,0,0,0,0,.15s.05,0,.05,0,0-.09,0-.1.08,0,.09,0a1.47,1.47,0,0,1,0,.21s0,.05,0,.07a.86.86,0,0,1,0,.16s0,.07,0,.11a1,1,0,0,1,0,.24c0,.05,0,.16,0,.2s-.06,0-.09,0,0-.1,0-.13-.09-.06-.1,0a.22.22,0,0,0,0,.13s.11,0,.11.08a.31.31,0,0,1-.05.13.16.16,0,0,0,0,.13.52.52,0,0,0,.13.24.87.87,0,0,1,.22.31.69.69,0,0,1,.06.37,1.91,1.91,0,0,0-.05.21.34.34,0,0,0,.05.11,2,2,0,0,0,.07.19.48.48,0,0,1,.05.12,1,1,0,0,1,0,.32c0,.1,0,.14,0,.19s.16.21.23.23a2.07,2.07,0,0,1,.27.18l.09.07a.36.36,0,0,1,.07.19c0,.07,0,.1,0,.13a.7.7,0,0,1,0,.12.67.67,0,0,0,.08.18c.05,0,.09.09.13.09a1.82,1.82,0,0,1,.32,0l.25.11a.19.19,0,0,1,.11.08.56.56,0,0,1,0,.13.36.36,0,0,0,0,.18s0,0,.06,0,.05-.09.09-.11l.1,0,.1-.17s.09-.27.12-.31.09-.18.1-.19,0-.08.09-.09a.17.17,0,0,0,.1,0l.16,0s0-.13.05-.17.08-.08,0-.08a.15.15,0,0,0-.13.06.51.51,0,0,1-.13.09.41.41,0,0,1-.15,0,.25.25,0,0,1-.12-.08s-.1-.12-.06-.13l.08-.05s0-.12,0-.14,0-.06,0,0-.13,0-.14,0,0-.11,0-.12.1,0,.11,0,0-.06,0-.08-.07,0-.08-.06,0-.14,0-.16.14,0,.15,0,0,0,0-.05a.61.61,0,0,1-.14-.07s-.05-.06,0-.09a.36.36,0,0,1,.2-.11.49.49,0,0,0,.18-.13s.09-.09.12-.08.07.09.11.11a.22.22,0,0,0,.17,0l.29-.24a.49.49,0,0,1,.25-.1c.08,0,.08.06.1.07l.12,0s.06,0,.05-.09-.1-.1-.1-.15,0-.16,0-.22,0-.13.06-.18a2.09,2.09,0,0,1,.14-.17.76.76,0,0,0,.06-.16s.11-.09.16-.09a.3.3,0,0,0,.16-.07.93.93,0,0,0,.06-.18C372,21.7,372,21.61,372,21.64Z"/><path class="cls-7" d="M372.4,12.86c-.08,0-.25,0-.27-.11a1.4,1.4,0,0,1,0-.25l0,0,.1-.23a2.21,2.21,0,0,0,0-.32,1.82,1.82,0,0,0-.05-.23V11l-.24-.28-.54-.53,0-.19a1.2,1.2,0,0,0-.36.15c-.05.08-.1.21-.13.25s0,0,.1-.07.15-.2.2-.18a2.88,2.88,0,0,1,.52.58c0,.05,0,.07-.05.11l-2.94,1.64a5.58,5.58,0,0,1-.64,0c-.06,0-.4-.34-.41-.32a4.48,4.48,0,0,1-.58.16c-.11,0-.26,0-.33,0s-.19.17-.23.18a2,2,0,0,1-.36,0,.93.93,0,0,1-.19-.07s-.08-.27-.11-.15a1.19,1.19,0,0,0,0,.25s-.09,0-.12,0-.11.19-.11.19v.16a.85.85,0,0,0,0,.32c0,.07.32.35.35.48a.51.51,0,0,0,.13.23s.2.12.21.21a.5.5,0,0,1,0,.21.54.54,0,0,0,0,.2s0,.15.07.17a2.81,2.81,0,0,1,.37.49,1.15,1.15,0,0,1,.09.27s-.3.9-.3.9-.15.34-.17.37-.51.46-.51.46l-.45.38.08.05s.83-.41,1-.45a6.48,6.48,0,0,1,1-.08l.85,0,.17.89.6.28.06,0-.53-.26,0-.13.17-.59.21,0,0,.1.51.15-.23.66a.52.52,0,0,0-.07.11s0,.08,0,.08l.38-.27.16-.59s.08,0,.08,0,.08-.28.08-.28a2.73,2.73,0,0,0,.48-.18l.55-.6s2.26-2.21,2.26-2.18.05-1.08.05-1.08S372.49,12.86,372.4,12.86Z"/><path class="cls-7" d="M378.68,9.16a.53.53,0,0,0,0-.13s-.17.05-.2,0-.15-.23-.18-.23-.14-.13-.16-.18a2,2,0,0,0-.07-.37A2.25,2.25,0,0,1,378,7.9s0-.22,0-.25,0-.2,0-.2-.1-.13-.17-.11-.24.11-.28,0,0-.23-.09-.23a.5.5,0,0,0-.29.09L377,7.4l-.83,0a2.93,2.93,0,0,1,.12-.32c0-.06,0-.08-.09-.09s-.2-.14-.19-.19.08-.21.14-.19l.22.09a.26.26,0,0,1,.08-.08c.05,0,.12-.07.14-.14a1,1,0,0,1,.17-.23H377c.06,0,.19,0,.23,0a.73.73,0,0,0,.11-.26.55.55,0,0,0-.1-.39,1.39,1.39,0,0,1-.3-.43c0-.08-.09-.22,0-.27s0-.21,0-.21a.22.22,0,0,1-.13-.11c0-.08,0-.19-.12-.16s0,.23-.09.28a1.79,1.79,0,0,1-.22.13,3.7,3.7,0,0,0-.28.28s-.19.13-.22.17-.06.26-.09.31-.08.17-.13.24a1.52,1.52,0,0,1-.22.22,2.78,2.78,0,0,1-.36.08c-.1,0-.35-.13-.42-.12s-.24,0-.34,0a.94.94,0,0,0-.29.23s-.17.09-.22.11-.3.1-.31.18a.45.45,0,0,1-.15.29s-.22,0-.25.07-.18.19-.17.29a.36.36,0,0,0,.09.17s0,.14,0,.14a.34.34,0,0,0-.08.17c0,.12,0,.19,0,.22a1.17,1.17,0,0,0-.05.27s-.4.56-.45.65-.3.26-.31.33a.13.13,0,0,0,0,.15,1,1,0,0,1,.05.33c0,.05,0,.22,0,.32a.5.5,0,0,0-.1.26c0,.07,0,.24,0,.27s0,.28,0,.3a.53.53,0,0,1,.17.25s0,.61,0,.66a3.12,3.12,0,0,1,.1.32,1,1,0,0,1-.08.34.51.51,0,0,0-.05.19,1.76,1.76,0,0,0,.3.1l0,.15,1,.13,0,.22.2.05a.22.22,0,0,0,.06.1.43.43,0,0,0,.17.06v.17l-.24.05.48,0V13a.92.92,0,0,1-.34,0,.28.28,0,0,1-.08-.1l.89-.11a1.55,1.55,0,0,0,.44-.2c.06-.06.28-.52.35-.56a1.13,1.13,0,0,1,.33-.07s.41-.2.48-.22.27-.2.34-.21.27-.1.36,0a1.21,1.21,0,0,0,.44.22,1,1,0,0,0,.47-.2c.09-.09.07-.22.11-.3a.64.64,0,0,1,.26-.22l.29,0s.21-.09.27-.1-.13-.17-.16-.2a.94.94,0,0,0-.23-.06c-.07,0-.15-.14-.12-.19s0-.13,0-.2a.34.34,0,0,0,.11-.24c0-.08-.25-.24-.28-.28a.4.4,0,0,1,0-.31c0-.1.14-.2.2-.2s.18,0,.23.08a.44.44,0,0,0,.18.17s.17.15.18.08a.26.26,0,0,0-.08-.21S378.67,9.23,378.68,9.16Z"/><path class="cls-7" d="M380.7.34c-.07,0-.12.08-.15.11s-.14,0-.15,0-.1-.1-.1-.1l-.16-.05a.35.35,0,0,1-.1,0c-.05,0-.1-.15-.15-.15s-.17,0-.18-.09-.07,0,0,.1.08.12,0,.15a.71.71,0,0,1-.25.06c-.07,0-.17,0-.18,0a.32.32,0,0,1-.12.08,1.76,1.76,0,0,1-.37-.08s-.12,0-.16.05a.34.34,0,0,0,0,.22.66.66,0,0,1,0,.28l-.21.18-.09.11a1.33,1.33,0,0,1-.16.41c-.06,0-.11,0-.15,0a2,2,0,0,0-.19.12,1,1,0,0,1-.18.18l-.3.19a.47.47,0,0,1-.19.08H377s-.07,0-.08,0-.05.15,0,.19a.46.46,0,0,1,.12.12.41.41,0,0,1,0,.19s0,.1.05.12a2.27,2.27,0,0,1,.26.28l.23.19a.22.22,0,0,1,0,.18s-.2.1-.26.11-.17-.06-.18,0,0,0-.05.09a.17.17,0,0,1-.1.09.14.14,0,0,0-.11.08.26.26,0,0,0,0,.17,1.18,1.18,0,0,0,.15.25l.15.09a.09.09,0,0,0,.09,0v0a.34.34,0,0,0,.08-.1.73.73,0,0,1,.16-.25.19.19,0,0,0,.06-.18s.06-.11.1-.07.2.08.19.18,0,.16,0,.26-.15,0-.17.09,0,.11.07.14.19.13.19.2a.44.44,0,0,1,0,.19l-.16.1.09,0c.07,0,.14-.09.18,0s.17,0,.2-.07a.43.43,0,0,1,.29,0,2.33,2.33,0,0,1,.42.24,1.17,1.17,0,0,0,.31.2.09.09,0,0,0,.07-.15c0-.06-.11-.15-.07-.23s.18-.15.2-.19a.49.49,0,0,0,0-.21s0-.63,0-.66.14-.16.16-.19.17-.3.21-.4S380,3,380,2.89a3.07,3.07,0,0,0,.11-.36,1.53,1.53,0,0,1,.11-.27c0-.06,0-.32.05-.42a1.21,1.21,0,0,0,.08-.33c0-.08.06-.2.07-.25s.13-.14.15-.19,0-.12,0-.16.07-.1.12-.18a.33.33,0,0,0,.06-.22C380.75.42,380.77.33,380.7.34Z"/><path class="cls-7" d="M366.46,39.51a.47.47,0,0,0-.26-.28.93.93,0,0,1-.27-.36c-.05-.14-.08-.32-.13-.32a1.68,1.68,0,0,1-.33.1,8.64,8.64,0,0,1-1.07,0c-.12,0-.35-.09-.38,0s-.12.3-.08.34a2.34,2.34,0,0,1,.27.42,6.38,6.38,0,0,1,.06,1.21,4.58,4.58,0,0,1-.26,1,1.56,1.56,0,0,1-.31.43c-.05,0-.25,0-.29.06s-.3.54-.33.6-.1.13-.06.18a.45.45,0,0,1,.09.39c-.06.14-.14.27-.07.23s.17-.32.24-.37.17,0,.19.14-.12.24-.06.33.19,0,.24-.06a.36.36,0,0,1,.35,0,.62.62,0,0,1,.14.3.49.49,0,0,0,.06.23c0,.06.15,0,.23.07s.24.28.32.29.46.1.53,0a.43.43,0,0,0,0-.29l-.12-.1s-.07-.2,0-.21.22-.24.22-.3-.19-.15-.18-.26a.44.44,0,0,1,.33-.26.54.54,0,0,0,.3-.1c.06,0,.36-.25.36-.25a2.41,2.41,0,0,0,.07-.5,5.73,5.73,0,0,1-.13-.88,5.83,5.83,0,0,1,.06-.74.93.93,0,0,1,.17-.36,3.27,3.27,0,0,1,.3-.14l-.13-.23A.64.64,0,0,1,366.46,39.51Z"/><polygon class="cls-7" points="339.26 94.09 338.86 94.05 338.46 94.1 338.05 94.14 337.69 94.33 337.31 94.44 336.96 94.66 336.56 94.74 336.18 94.85 335.83 95.07 335.46 95.22 335.06 95.34 334.62 95.24 334.18 95.08 333.87 95.4 334.01 95.81 334.26 96.16 334.57 96.47 334.96 96.65 335.35 96.82 335.74 96.86 336.13 96.88 336.5 96.75 336.83 96.54 337.18 96.36 337.48 96.09 337.91 96.05 338.25 95.88 338.64 95.84 339.02 95.83 339.44 95.84 339.75 96.13 340.04 96.41 340.33 96.72 340.44 97.13 340.46 97.54 340.47 97.94 340.35 98.34 340.45 98.76 340.41 99.17 340.28 99.57 340.22 99.98 340.06 100.36 340.06 100.8 339.76 101.12 339.67 101.54 339.51 101.92 339.29 102.27 339.07 102.63 338.75 102.9 338.49 103.23 338.25 103.57 337.91 103.81 337.55 104.04 337.26 104.32 336.96 104.61 336.66 104.9 336.26 105.01 335.97 105.27 335.82 105.58 335.93 105.66 336.3 105.58 336.71 105.52 337.09 105.37 337.5 105.27 337.84 105.02 338.24 104.89 338.53 104.57 338.93 104.44 339.21 104.12 339.51 103.83 339.83 103.58 340.15 103.32 340.48 103.06 340.76 102.76 340.93 102.37 341.21 102.07 341.48 101.75 341.62 101.35 341.75 100.96 341.98 100.62 342.15 100.24 342.22 99.83 342.35 99.44 342.49 99.04 342.43 98.62 342.43 98.21 342.55 97.8 342.41 97.4 342.36 97.01 342.37 96.61 342.23 96.24 342.05 95.88 342.01 95.45 341.7 95.17 341.44 94.87 341.14 94.61 340.82 94.36 340.41 94.31 340.07 94.05 339.65 94.11 339.26 94.09"/><polygon class="cls-7" points="337.06 91.01 337.27 91.37 337.08 91.72 336.87 92.05 336.67 92.4 336.35 92.64 336.12 92.97 335.76 93.17 335.62 93.6 336.02 93.43 336.43 93.4 336.75 93.16 337.14 93.08 337.51 92.93 337.85 92.72 338.19 92.5 338.61 92.52 338.97 92.33 339.4 92.4 339.83 92.4 340.26 92.49 340.68 92.4 341.06 92.16 341.24 91.8 341.33 91.39 341.1 91.05 340.87 90.75 340.59 90.47 340.22 90.34 339.84 90.32 339.47 90.18 339.08 90.31 338.69 90.28 338.31 90.14 337.93 90.13 337.52 90.17 337.12 90.1 336.74 89.89 336.31 89.94 335.93 89.79 335.56 90.03 335.92 90.33 336.23 90.67 336.69 90.77 337.06 91.01"/><path class="cls-7" d="M353.47,96.64l-.39.16h-.4l-.4,0-.38-.15,0-.42.29-.36.28-.36.28-.31.24-.34.31-.29.24-.34.36-.24.22-.37.32-.28.37-.24.36-.26.37-.24.3-.32.17-.43-.18-.4-.21-.35-.24-.31-.4-.06-.35-.15-.36-.07-.37-.13-.38,0-.37.09-.31.24-.34.16-.34.16-.44,0-.42.08-.37.26-.41.12h-.86l-.42.07h-.34l-.22.21.1.35.28.26.1.39.37.15.32.15.34.09.39-.11L351,93l.37-.21.45,0,.38,0,.32.15.11.4-.31.32-.17.37-.28.31-.13.42-.27.32-.37.24-.24.33-.27.33-.26.33-.22.36-.34.26-.29.3-.24.34-.33.26-.23.36-.24.32-.26.29-.28.28-.3.26-.29.27-.24.32-.2.34,0,.41-.2.37.28.3.27.24.32.21.41-.07.34-.22.22-.34.23-.32.24-.3.17-.36.32-.26.22-.31.24-.31L350,99l.29-.27.35-.18.32-.22.3-.27.34-.2.39-.08.38-.12.4.05h.39l.42-.06.38.17.42,0,.39.14.27.33.34.22.22.34.32.28.14.4.09.4-.07.42-.09.37,0,.39-.18.33-.12.38-.33.22-.2.35-.36.16-.36.12-.41,0-.36-.22-.26-.34-.37-.24-.3-.32-.43-.12-.41-.15h-.43l-.4,0-.39.13-.33.22-.33.22-.28.29-.17.36-.11.38,0,.38.19.33.18.36.35.25.33.28.37.23.45,0,.41.17.42.1.44-.08.4,0,.39-.06.39,0,.37-.14.41,0,.35-.2.37-.16.37-.16.32-.24.26-.31.25-.31.32-.26.11-.4.22-.32.18-.35.21-.35-.06-.42.1-.38.07-.44-.14-.41-.15-.4V99l-.29-.34-.23-.36-.22-.38-.35-.2-.33-.2-.32-.19-.33-.19L355,97h-.4l-.36-.13-.38,0Zm-2.23,5.59.56.11.18.33.12.36-.24.2-.39,0-.36-.15-.31-.21-.07-.23.16-.3Z"/><path class="cls-7" d="M368,100.7l0-.44,0-.42v-.43l0-.43-.17-.35.13-.35.13-.33.32-.17.42-.06.36-.2.35-.24.39-.13.38-.16.4-.14.35-.25.3-.31.11-.42-.19-.38-.39-.17-.41-.06-.42,0-.41-.18-.44,0-.4-.06.34.29.22.36-.31.32-.35.29-.43.15h-.35l-.09-.32,0-.39v-.4l0-.39.14-.38.15-.34.3-.2.34-.25.37-.16.38-.18.27-.31.11-.39-.16-.34-.39-.11h-.41l-.37.18-.32-.17,0-.36.14-.39.15-.4.13-.4.29-.35-.13-.4-.34-.23-.31-.25-.39-.1-.39,0-.39,0-.37.18.11.4.14.39.22.35.08.42,0,.4-.14.39,0,.4-.07.46-.44.07h-.72l-.38,0-.29-.26-.4,0-.26-.22-.29-.2-.11.29-.05.39.29.27.24.29.27.26.32.22.33.2.38.07.36.12.31.21.2.27.16.35v.45l-.15.45-.06.45-.05.48-.47.17-.39,0-.39-.11-.38.1-.39-.1-.38,0-.4,0-.39-.07-.35-.2-.35-.16-.38,0-.33-.13-.18.19.09.37.21.32.28.26.28.3.41.07.31.3.43,0,.39,0,.38.17.41,0,.34,0,.34-.18.36.09.41,0,.23.3.09.41.09.37-.13.38.1.38-.08.37-.05.44-.43.15-.56-.14-.41,0-.41.07-.41.08-.41.07-.37.18-.37.17-.37.17-.36.22-.24.35v.43l-.09.39,0,.4.09.4.2.36.3.29.31.26.38.15.37.16.39.15h.42l.42,0,.41-.08.34-.27.39-.12.39-.13.31-.28.39-.17.19-.38.23-.31.39-.31.45.16.28.29.22.32.25.3.21.36.39.13.39.05.38,0,.42,0,.3-.29,0-.42,0-.39-.16-.37-.28-.29-.28-.28-.26-.35-.39-.15-.38-.16-.35-.23-.39-.13-.39-.15-.35-.2-.19-.36Zm-2.18,2.48-.35.15-.35.14-.36.07-.35,0-.47.08-.39-.27-.24-.38.21-.39.43-.13.41-.16.44-.12.45.06.44.09.34.2-.09.26Z"/><path class="cls-7" d="M358.4,114.87l-.26-.26-.3-.21-.34-.14-.35-.16-.55.32-.33.36-.46,0-.43.11H355l-.43-.09h-.42l-.43,0-.43,0-.43.09-.43-.11-.1,0v-.23l.08-.58.05-.19-.09-.36-.23-.3-.31-.23-.33-.17-.34-.16-.31-.27h-.39l-.38,0-.48.09-.11.13.13.3.19.26.18.27,0,.32-.05.39,0,.41-.06.4-.18.36-.13.37-.23.34-.19.34-.05.42-.21.35-.22.32-.21.34-.12.39-.26.31-.16.37-.3.28-.18.36-.19.35-.22.34-.28.29-.22.33-.26.3-.25.32-.27.29-.33.32-.27.39-.18.41.19.26.38-.14.31-.23.27-.27.28-.27.27-.27.3-.24.33-.21.31-.23.26-.34.34-.25.33-.26.28-.32.39-.15h.38l.35.19.39.07.35.19.33.22.36.17.25.32.27.29.36.2.19.36.09.38-.14.38-.18.37-.18.37-.19.36-.27.32-.21.36-.32.27-.25.32-.23.35-.3.29-.24.33-.33.25-.18.4-.32.27-.33.25-.28.3-.35.23L348,128l-.31.27-.32.27-.39.16-.29.32-.34.23-.31.28-.42.11-.35.22-.28.12-.33.34.15.22.26.11.4-.06.39-.12.32-.27.4-.08.38-.13.31-.28.36-.17.41-.1.28-.32.42-.08.25-.35.41-.11.3-.26.31-.27.31-.24.3-.28.37-.17.34-.23.26-.32.27-.3.31-.26.37-.19.16-.41.4-.18.2-.44.43-.21.3-.34.39-.29.35.28.39.23.11.44.27.3.32.25.24.34.33.23.4.12.4-.05.4,0,.32-.25.41-.12.15-.4.26-.32,0-.42v-.42l-.27-.34-.12-.4-.34-.26-.3-.27-.25-.32-.25-.34-.41-.15-.18-.39-.15-.41.15-.41.17-.38,0-.44.27-.34.18-.38.29-.28.19-.34.06-.4,0,0,.23-.3.21-.31.13-.34.28-.25L359,117l.34-.1.21-.26.17-.34-.22-.35-.24-.31-.34-.21-.3-.24Zm-2.29,1.89-.14.39-.16.4-.17.4-.28.35-.22.37-.16.42-.31.31-.17.41-.31.31-.4.11-.37,0-.37-.08-.38,0-.4,0-.32-.26-.4-.07-.33-.2-.37-.13-.35-.17-.27-.24-.16-.31.09-.35.19-.36.23-.34.36-.25.16-.38.24-.33.29-.32.4-.15.41-.08.43-.06.43,0,.44.08.43,0,.43-.09.44,0,.43.07.39,0,.24.27Z"/><polygon class="cls-7" points="360.94 110.12 360.57 110.16 360.22 110.25 360.03 110.46 360.33 110.77 360.73 110.92 361.11 111.09 361.41 111.42 361.84 111.55 362.17 111.82 362.37 112.21 362.73 112.46 362.98 112.81 363.38 112.96 363.77 113.04 364.08 112.92 364.43 112.71 364.46 112.31 364.48 111.87 364.28 111.48 364.03 111.14 363.64 110.95 363.38 110.6 362.96 110.5 362.57 110.35 362.18 110.2 361.76 110.19 361.36 110.13 360.94 110.12"/><polygon class="cls-7" points="359 112.14 358.66 112.09 358.41 112.38 358.84 112.81 359.09 113.1 359.33 113.4 359.64 113.63 359.93 113.87 360.19 114.14 360.31 114.52 360.57 114.79 360.84 115.06 360.94 115.46 361.33 115.57 361.65 115.77 362.12 115.6 362.34 115.17 362.47 114.74 362.53 114.32 362.29 113.99 362.08 113.66 361.82 113.36 361.51 113.12 361.16 112.94 360.83 112.74 360.54 112.44 360.13 112.4 359.77 112.24 359.39 112.15 359 112.14"/><polygon class="cls-7" points="378.93 115.36 378.48 115.32 378.17 115.66 377.83 115.94 377.41 116.1 376.97 116.17 376.54 116.21 376.12 116.21 375.7 116.29 375.27 116.17 374.85 116.19 374.46 116.12 374.17 115.89 373.98 115.55 374.04 115.15 374.05 114.74 374.26 114.38 374.26 113.95 374.42 113.67 374.59 113.4 374.65 113.01 374.57 112.64 374.32 112.33 373.95 112.17 373.65 111.92 373.32 111.7 372.95 111.54 372.56 111.45 372.18 111.34 371.78 111.34 371.42 111.49 371.38 111.61 371.49 112.05 371.56 112.18 371.57 112.57 371.69 112.95 371.79 113.33 371.84 113.72 371.73 114.15 371.83 114.57 371.79 114.99 371.65 115.38 371.57 115.79 371.27 116.11 370.85 116.22 370.43 116.12 370.01 116.22 369.59 116.28 369.17 116.25 368.75 116.26 368.33 116.28 367.91 116.18 367.49 116.14 367.07 116.21 366.65 116.26 366.23 116.25 365.81 116.11 365.67 116.2 365.78 116.3 366.05 116.69 366.16 117.16 366.44 117.55 366.5 117.62 366.9 117.52 367.31 117.63 367.71 117.62 368.11 117.56 368.5 117.62 368.91 117.55 369.31 117.61 369.71 117.51 370.12 117.55 370.49 117.68 370.86 117.8 371 118.16 371.06 118.53 371 118.91 370.95 119.3 370.85 119.7 370.74 120.09 370.62 120.48 370.43 120.85 370.29 121.23 370.1 121.59 369.96 121.98 369.74 122.33 369.6 122.71 369.45 123.09 369.35 123.5 369.09 123.82 368.96 124.22 368.62 124.5 368.39 124.83 368.27 125.24 368.01 125.56 367.75 125.87 367.47 126.17 367.34 126.59 367.04 126.88 366.72 127.14 366.43 127.43 366.24 127.81 365.87 128.02 365.62 128.35 365.3 128.6 364.99 128.87 364.69 129.16 364.4 129.44 364.2 129.48 363.89 129.97 364.14 130.25 364.55 130.17 364.9 129.95 365.3 129.86 365.59 129.55 365.99 129.44 366.27 129.14 366.64 128.97 367 128.77 367.25 128.45 367.57 128.2 367.92 127.97 368.19 127.67 368.43 127.33 368.68 127.01 368.98 126.73 369.29 126.46 369.56 126.15 369.78 125.8 369.97 125.44 370.3 125.17 370.41 124.76 370.64 124.42 370.95 124.13 371.05 123.72 371.23 123.36 371.4 122.99 371.59 122.63 371.86 122.31 371.94 121.9 372.1 121.52 372.18 121.12 372.36 120.75 372.55 120.39 372.63 119.99 372.79 119.61 372.83 119.2 372.94 118.81 373.07 118.43 373.2 118.06 373.47 117.78 373.85 117.7 374.21 117.56 374.6 117.56 374.99 117.65 375.38 117.56 375.77 117.62 376.16 117.58 376.55 117.63 376.94 117.56 377.34 117.61 377.71 117.76 377.98 118.04 378.14 118.4 378.24 118.79 378.19 119.19 378.28 119.61 378.11 120 378.12 120.42 378.12 120.84 377.98 121.24 377.94 121.66 377.81 122.06 377.72 122.47 377.68 122.88 377.5 123.27 377.52 123.7 377.39 124.1 377.29 124.51 377.15 124.9 376.98 125.28 376.75 125.63 376.47 125.93 376.13 126.14 375.72 126.12 375.28 126.06 374.82 126 374.35 125.92 373.92 125.66 373.43 125.57 373.3 125.63 373.26 125.74 373.43 126.04 373.62 126.39 373.97 126.59 374.04 126.66 374.25 127.02 374.58 127.28 374.73 127.67 374.77 128.08 374.82 128.49 374.94 128.89 375.11 129.16 375.45 129.32 375.81 129.46 376.19 129.6 376.62 129.54 376.92 129.22 377.29 129.03 377.62 128.77 377.98 128.54 378.17 128.16 378.36 127.81 378.68 127.52 378.8 127.14 378.99 126.78 379.12 126.4 379.26 126.03 379.35 125.64 379.48 125.26 379.64 124.89 379.71 124.49 379.79 124.1 379.9 123.72 379.91 123.31 380.01 122.92 380.11 122.53 380.13 122.13 380.13 121.71 380.18 121.3 380.29 120.89 380.46 120.49 380.42 120.06 380.47 119.65 380.65 119.25 380.64 118.83 380.64 118.4 380.9 118.1 381.1 117.71 381.31 117.3 381.13 116.93 380.86 116.63 380.67 116.26 380.36 116 380.02 115.78 379.66 115.59 379.3 115.41 378.93 115.36"/><polygon class="cls-7" points="336.84 120.14 336.65 120.49 336.4 120.81 336.15 121.12 335.95 121.46 335.7 121.78 335.43 122.08 335.14 122.36 334.87 122.66 334.69 123.04 334.32 123.24 334.04 123.54 333.68 123.7 333.3 123.84 332.9 123.78 332.49 123.76 332.1 123.64 331.73 123.47 331.39 123.21 331.01 123.03 330.65 122.79 330.2 122.75 329.85 122.53 329.47 122.33 329.07 122.19 328.76 122.49 328.92 122.93 329.22 123.2 329.45 123.53 329.76 123.78 330.03 124.09 330.24 124.43 330.54 124.71 330.66 125.11 330.9 125.44 331.08 125.79 331.38 126.09 331.56 126.45 331.77 126.79 331.94 127.16 332.02 127.57 332.19 127.94 332.44 128.26 332.79 128.48 333.05 128.77 333.39 128.98 333.78 129.08 334.18 129.07 334.58 129.1 334.86 128.8 335.13 128.54 335.36 128.24 335.5 127.89 335.53 127.5 335.45 127.12 335.31 126.76 335.12 126.42 334.92 126.09 334.73 125.74 334.65 125.34 334.81 124.97 335 124.64 335.16 124.28 335.35 123.94 335.57 123.61 335.89 123.37 336.11 123.03 336.46 122.83 336.78 122.61 337.12 122.38 337.39 122.06 337.68 121.75 338.02 121.52 338.38 121.31 338.76 121.13 339 120.76 339.35 120.54 339.78 120.45 340.08 120.14 340.5 120.07 340.88 119.94 341.25 119.77 341.64 119.62 342 119.64 342.31 119.45 342.59 119.31 342.81 119.04 342.77 118.62 342.53 118.27 342.29 117.94 342.17 117.54 341.98 117.16 341.64 116.9 341.33 116.63 341.08 116.31 340.8 116 340.44 115.8 340.18 115.45 339.82 115.23 339.41 115.11 338.99 115.1 338.59 115.18 338.28 115.43 338 115.72 337.62 115.87 337.27 116.04 336.9 116.17 336.49 116.24 336.08 116.14 335.68 116.22 335.27 116.11 334.86 116.22 334.45 116.13 334.04 116.21 333.63 116.11 333.23 116.09 332.82 116.17 332.41 116.11 332 116.23 331.6 116.23 331.19 116.13 330.78 116.08 330.37 116.1 329.96 116.24 329.56 116.1 329.15 116.22 328.74 116.25 328.33 116.1 327.92 116.1 327.51 116.13 327.1 116.08 326.69 116.12 326.28 116.08 325.87 116.17 325.46 116.08 325.05 116.22 324.63 116.08 324.22 116.16 324.1 116.18 324.18 116.27 324.31 116.62 324.56 116.9 324.7 117.25 324.91 117.56 324.95 117.65 325.36 117.57 325.76 117.55 326.17 117.71 326.58 117.63 326.99 117.67 327.39 117.54 327.8 117.61 328.21 117.59 328.62 117.65 329.03 117.61 329.44 117.63 329.84 117.65 330.25 117.64 330.66 117.56 331.08 117.62 331.49 117.68 331.9 117.63 332.31 117.66 332.73 117.63 333.14 117.53 333.55 117.6 333.96 117.68 334.37 117.58 334.78 117.58 335.19 117.69 335.59 117.6 336 117.69 336.4 117.64 336.8 117.72 337.15 117.92 337.31 118.3 337.35 118.68 337.42 119.08 337.29 119.47 337.04 119.8 336.84 120.14"/><polygon class="cls-7" points="307.28 113.6 307.61 113.84 307.96 114 308.29 114.21 308.62 114.41 308.97 114.58 309.3 114.81 309.49 115.17 309.73 115.5 309.96 115.83 310.22 116.14 310.57 116.35 310.91 116.46 311.32 116.4 311.69 116.13 311.84 115.7 311.98 115.27 311.88 114.85 311.76 114.46 311.62 114.06 311.33 113.74 311 113.48 310.63 113.28 310.25 113.09 309.86 112.92 309.43 112.94 309.01 112.77 308.62 112.89 308.23 112.8 307.86 113.02 307.48 113.04 307.12 113.17 306.73 113.36 307.28 113.6"/><path class="cls-7" d="M320.8,117l-.32.26-.26.31-.35.23-.17.39-.31.27-.24.32-.34.24-.18.38-.31.26-.29.28-.28.3-.27.29-.26.31-.35.22-.27.3-.27.3-.33.23-.26.32-.31.25-.32.24-.37.17-.23.36-.35.2-.33.23-.31.27-.32.23-.34.23-.4.12-.34.2-.32.24-.38.14-.32.24-.4.09-.32.27-.39.11-.33.24-.4.07-.4.07-.32.29h-.42l-.36.18-.37.16-.41-.07-.41,0-.37-.19-.42.08-.38,0-.21.23.16.39.17.38.12.41.2.37.29.31.24.34.18.4.29.31.4.18.28.33.43,0,.32-.18.4-.08.23-.34.36-.17.32-.22.32-.2.34-.24.26-.34.37-.19.32-.26.39-.15.33-.26.35-.2.28-.32.41-.13.31-.28.34-.22.28-.31.33-.24.28-.31.34-.24.29-.29.28-.3.3-.27.39-.19.23-.34.3-.29.28-.29.3-.28.26-.31.22-.36.27-.3.24-.33.32-.26.15-.4.33-.28.22-.36.2-.37.27-.33.21-.36.24-.34.28-.33.21-.37.11-.41.23-.36v-.42Zm-13.18,13.31h0v0Z"/><polygon class="cls-7" points="307.07 120.53 307.49 120.61 307.91 120.66 308.32 120.58 308.73 120.4 309.01 120.05 309.1 119.61 309.05 119.19 309.08 118.75 308.78 118.42 308.63 118.01 308.3 117.74 308.01 117.42 307.69 117.14 307.3 116.95 306.88 116.86 306.52 116.63 306.11 116.51 305.71 116.39 305.31 116.34 304.91 116.22 304.5 116.36 304.1 116.3 303.69 116.32 303.36 116.61 303.7 117 304.13 117.2 304.5 117.38 304.74 117.74 305.13 117.93 305.31 118.31 305.59 118.62 305.7 119.04 305.95 119.37 306.17 119.71 306.44 120.02 306.74 120.29 307.07 120.53"/><polygon class="cls-7" points="389.5 113.76 389.61 113.73 389.71 113.73 390.11 113.83 390.52 113.82 390.93 113.79 391.34 113.9 391.75 113.81 392.16 113.83 392.56 114.01 392.98 113.9 393.38 113.97 393.79 114.04 394.21 114.02 394.62 113.99 395.03 113.99 395.44 113.97 395.85 113.98 396.26 114.04 396.67 114.05 397.1 114.06 397.54 114.05 397.96 113.98 398.37 113.89 398.65 113.63 398.9 113.27 398.77 112.86 398.41 112.66 398.17 112.32 397.8 112.16 397.43 112.02 397.04 111.86 396.65 111.87 396.29 112.07 395.86 112.08 395.48 112.29 395.07 112.43 394.64 112.48 394.21 112.47 393.78 112.51 393.35 112.42 392.92 112.34 392.49 112.42 392.06 112.32 391.62 112.33 391.19 112.34 390.8 112.33 390.42 112.27 390.04 112.28 389.65 112.27 389.27 112.31 388.89 112.19 388.83 112.26 388.85 112.31 388.98 112.69 389.14 113.05 389.36 113.39 389.5 113.76"/><polygon class="cls-7" points="399.61 117.21 399.19 117.31 398.76 117.33 398.38 117.5 398.02 117.74 397.63 117.92 397.22 118.03 396.79 118.04 396.37 118.1 395.96 118.02 395.56 118.14 395.15 118.03 394.74 118.05 394.34 118.15 393.93 118.14 393.53 118.05 393.13 118.04 392.72 118.06 392.31 118.11 391.91 118.14 391.5 118.01 391.1 118.02 390.69 117.99 390.28 118.1 389.88 118.12 389.47 118.13 389.06 118.05 388.65 118.05 388.25 118.16 387.84 118.06 387.43 118.06 387.02 118.11 386.61 118.08 386.2 118.1 386.17 118.13 386.08 118.22 386.31 118.63 386.58 119.02 386.83 119.42 386.89 119.44 387.29 119.46 387.69 119.53 388.09 119.54 388.49 119.44 388.89 119.42 389.29 119.47 389.69 119.47 390.09 119.49 390.48 119.39 390.88 119.42 391.28 119.46 391.68 119.45 392.08 119.51 392.48 119.42 392.88 119.47 393.27 119.47 393.68 119.44 394.08 119.5 394.48 119.51 394.88 119.49 395.28 119.43 395.68 119.51 396.08 119.46 396.48 119.41 396.88 119.39 397.29 119.43 397.69 119.49 398.02 119.53 398.12 119.85 398.02 120.23 397.97 120.63 397.77 120.98 397.65 121.36 397.52 121.74 397.33 122.09 397.22 122.48 396.96 122.79 396.78 123.15 396.6 123.51 396.29 123.79 396.15 124.17 395.94 124.52 395.67 124.82 395.36 125.09 395.12 125.41 394.86 125.72 394.58 126.01 394.27 126.27 393.96 126.52 393.64 126.76 393.3 126.98 393.04 127.29 392.7 127.5 392.36 127.72 392.12 128.07 391.79 128.3 391.45 128.52 391.06 128.65 390.72 128.86 390.38 129.07 390.1 129.39 389.68 129.46 389.34 129.68 389.17 129.87 388.79 129.99 388.43 130.16 388.43 130.38 388.68 130.64 389.05 130.54 389.44 130.51 389.83 130.45 390.21 130.35 390.58 130.21 390.94 130.07 391.28 129.85 391.61 129.63 391.97 129.49 392.39 129.46 392.74 129.29 393.09 129.1 393.44 128.89 393.79 128.68 394.17 128.53 394.53 128.33 394.8 128 395.16 127.81 395.45 127.52 395.83 127.35 396.17 127.14 396.47 126.86 396.79 126.6 397.04 126.28 397.28 125.95 397.66 125.75 397.93 125.45 398.14 125.1 398.38 124.77 398.65 124.47 398.85 124.12 399.05 123.76 399.28 123.43 399.61 123.17 399.81 122.81 399.96 122.42 400.23 122.08 400.45 121.71 400.69 121.34 401.06 121.08 401.38 120.79 401.68 120.5 401.95 120.16 402.02 119.75 401.87 119.39 401.65 119.06 401.49 118.68 401.22 118.38 400.94 118.08 400.62 117.84 400.31 117.58 400.03 117.24 399.61 117.21"/><polygon class="cls-7" points="335.08 147.6 334.67 147.78 334.49 148.16 334.23 148.5 334.08 148.92 333.65 149.01 333.22 149.02 332.79 149.12 332.38 149.06 331.98 149.13 331.58 149.13 331.18 149.13 330.77 149.13 330.37 148.99 329.97 149.13 329.57 149.11 329.17 149.01 328.76 149.08 328.36 149 327.95 149.14 327.55 149.11 327.15 149.05 326.75 149.05 326.34 148.99 325.94 149.13 325.54 149 325.13 149.04 324.73 149.05 324.32 149.06 323.92 148.98 323.52 149.1 323.12 149.08 322.72 149.14 322.31 149.04 321.91 149.01 321.5 149.01 321.1 149.01 320.7 148.99 320.29 149.05 319.89 149.02 319.48 149.13 319.08 149.03 318.67 149.12 318.27 149.15 317.86 149.13 317.46 149.01 317.05 149.15 316.64 149.01 316.23 149.03 316.1 149.16 316.1 149.34 316.37 149.64 316.59 149.98 316.76 149.95 317.16 149.94 317.55 150.04 317.95 149.96 318.35 149.93 318.75 150.04 319.15 149.91 319.55 149.94 319.95 149.95 320.35 150.05 320.75 149.92 321.15 150.06 321.55 150.01 321.95 149.98 322.36 149.95 322.76 150.06 322.98 150.4 323.25 150.74 323.06 151.13 322.99 151.52 322.85 151.89 322.71 152.26 322.5 152.6 322.32 152.95 322.18 153.31 322 153.68 321.83 154.05 321.6 154.38 321.36 154.71 321.08 154.98 320.74 155.22 320.33 155.15 319.96 155.09 319.57 155.14 319.22 154.96 318.82 155.04 318.45 154.98 318.08 154.87 317.73 154.73 317.31 154.88 317.26 155.3 317.36 155.68 317.48 156.05 317.63 156.41 317.76 156.79 317.99 157.12 318.25 157.41 318.51 157.59 318.91 157.61 319.22 157.41 319.54 157.22 319.92 157.13 320.33 157.17 320.74 157.13 321.14 156.99 321.54 156.9 321.96 156.98 322.37 156.93 322.75 156.71 323.17 156.73 323.58 156.74 323.99 156.71 324.4 156.64 324.8 156.59 325.21 156.51 325.62 156.46 326.04 156.46 326.45 156.42 326.85 156.33 327.26 156.3 327.67 156.23 328.07 156.06 328.48 156.06 328.9 156.1 329.3 155.98 329.7 155.85 330.13 155.9 330.53 155.79 330.95 155.82 331.35 155.76 331.77 155.72 332.18 155.79 332.53 156.03 332.73 156.38 332.9 156.75 333.04 157.15 333.35 157.43 333.64 157.72 334.03 157.87 334.44 157.84 334.82 157.8 335.18 157.66 335.5 157.45 335.76 157.17 335.93 156.82 336.02 156.45 336.11 156.04 336 155.63 335.82 155.26 335.61 154.91 335.4 154.56 335.17 154.22 334.8 154.01 334.48 153.76 334.18 153.49 333.81 153.31 333.47 153.08 333.13 152.85 332.73 152.73 332.35 152.57 331.97 152.43 331.56 152.39 331.16 152.29 330.75 152.27 330.5 152.52 330.69 152.86 330.96 153.15 331.26 153.41 331.43 153.8 331.65 154.11 331.76 154.54 331.48 154.92 331.03 154.89 330.62 155.02 330.21 154.95 329.8 154.96 329.39 154.98 328.98 155 328.56 154.96 328.15 155.05 327.74 155.12 327.33 155.11 326.92 155.13 326.5 155.06 326.09 155.07 325.67 155.15 325.26 155.01 324.85 155.08 324.43 155.06 324.02 155.1 323.61 155.16 323.2 155.16 322.8 155.07 322.72 154.66 323.03 154.39 323.18 154.01 323.57 153.85 323.84 153.58 324.09 153.28 324.42 153.07 324.63 152.72 324.92 152.46 325.24 152.24 325.57 152.03 325.86 151.76 326.23 151.57 326.61 151.39 326.82 150.99 326.58 150.62 326.29 150.32 326.14 150.08 326.53 150 326.93 149.95 327.33 150.06 327.73 149.93 328.13 150.07 328.54 149.98 328.93 150.05 329.33 150.05 329.73 149.97 330.13 149.98 330.54 150 330.94 149.92 331.34 149.97 331.74 149.93 332.14 150 332.55 150.06 332.95 149.94 333.35 150.05 333.75 150.04 334.16 149.94 334.56 149.99 334.96 150.02 335.37 149.99 335.77 149.99 336.18 149.99 336.6 150.03 337 149.92 337.37 149.81 337.57 149.51 337.41 149.14 337.07 148.94 336.73 148.74 336.47 148.41 336.13 148.21 335.78 148.03 335.46 147.78 335.08 147.6"/><polygon class="cls-7" points="317.84 140.26 317.93 140.3 318.31 140.3 318.69 140.41 319.08 140.3 319.46 140.32 319.84 140.41 320.23 140.25 320.61 140.28 320.99 140.38 321.38 140.37 321.78 140.37 321.98 140.72 322.13 141.08 322.08 141.56 322.06 142.02 322 142.43 322.33 142.66 322.66 142.82 323.02 142.86 323.38 142.82 323.73 142.73 324.02 142.53 324.21 142.24 324.35 141.91 324.32 141.43 324.22 140.96 324.4 140.62 324.59 140.36 324.95 140.28 325.36 140.28 325.76 140.41 326.17 140.3 326.57 140.26 326.98 140.37 327.39 140.38 327.8 140.37 328.18 140.34 328.54 140.49 328.65 140.86 328.66 141.26 328.59 141.66 328.64 142.05 328.69 142.42 328.95 142.71 329.35 142.87 329.71 142.68 330.07 142.62 330.42 142.5 330.7 142.27 330.91 142 331.03 141.67 331.1 141.3 330.97 140.88 331.17 140.49 331.54 140.41 331.95 140.25 332.36 140.42 332.77 140.37 333.18 140.32 333.59 140.35 334 140.31 334.41 140.35 334.82 140.42 335.24 140.34 335.66 140.32 336.07 140.35 336.46 140.22 336.64 139.88 336.44 139.5 336.09 139.26 335.81 138.92 335.38 138.8 335.05 138.53 334.72 138.26 334.32 138.02 333.97 138.31 333.66 138.59 333.43 138.95 333.1 139.22 332.72 139.47 332.34 139.43 331.95 139.32 331.57 139.39 331.23 139.29 330.96 139.1 331.02 138.73 330.96 138.32 331.1 137.94 331.36 137.61 331.66 137.29 331.36 136.93 330.95 136.8 330.53 136.77 330.12 136.68 329.71 136.62 329.3 136.52 328.88 136.49 328.54 136.53 328.48 136.87 328.44 137.24 328.65 137.57 328.62 137.95 328.63 138.3 328.65 138.71 328.57 139.12 328.22 139.32 327.82 139.47 327.42 139.43 327.02 139.44 326.62 139.49 326.21 139.43 325.81 139.39 325.4 139.32 325 139.31 324.56 139.26 324.34 138.88 324.48 138.46 324.71 138.12 324.85 137.75 325.11 137.46 324.84 137.16 324.5 136.96 324.12 136.9 323.75 136.75 323.36 136.72 322.98 136.58 322.59 136.49 322.19 136.63 321.79 136.9 321.81 137.29 321.92 137.67 322.08 138.03 322.14 138.43 322.09 138.9 321.84 139.31 321.38 139.42 320.98 139.45 320.58 139.48 320.19 139.43 319.79 139.47 319.39 139.48 319 139.41 318.6 139.47 318.2 139.41 317.8 139.4 317.4 139.34 317.29 139.5 317.35 139.6 317.58 139.94 317.84 140.26"/><polygon class="cls-7" points="330.94 143.88 330.77 144.2 330.46 144.37 330.17 144.61 329.8 144.56 329.43 144.61 329.03 144.67 328.62 144.58 328.21 144.66 327.81 144.73 327.41 144.76 327 144.78 326.6 144.84 326.2 144.81 325.8 144.98 325.39 144.99 324.99 145.03 324.57 144.94 324.18 145.05 323.77 145.15 323.37 145.22 322.96 145.2 322.55 145.18 322.14 145.2 321.74 145.29 321.33 145.24 320.93 145.37 320.51 145.3 320.11 145.47 319.71 145.54 319.5 145.53 319.61 145.71 319.92 145.96 320.13 146.31 320.28 146.32 320.69 146.27 321.09 146.22 321.51 146.26 321.91 146.22 322.32 146.14 322.73 146.15 323.14 146.15 323.54 146.04 323.95 145.99 324.35 145.88 324.77 146.01 325.16 145.82 325.57 145.91 325.98 145.82 326.38 145.76 326.79 145.7 327.2 145.69 327.61 145.72 328.01 145.6 328.43 145.66 328.84 145.65 329.23 145.48 329.64 145.41 330.06 145.46 330.47 145.52 330.87 145.35 331.29 145.37 331.7 145.37 332.12 145.37 332.53 145.33 332.94 145.19 333.37 145.22 333.74 144.99 333.8 144.61 333.65 144.29 333.34 144.07 333.09 143.76 332.7 143.66 332.44 143.35 332.04 143.29 331.72 143.11 331.47 143.34 331.14 143.55 330.94 143.88"/><path class="cls-7" d="M377.27,141.46l.28-.26.34-.28.36-.16.11-.34V140l-.25-.36-.37-.25-.31-.28-.33-.26-.29-.33-.41-.16-.3.28-.32.26-.28.29-.4.11-.42,0-.42,0-.42-.05-.42.05-.37-.14v-.38l.2-.33.34-.15.34-.09.12-.28-.14-.35-.33-.24-.32-.25-.35-.21-.38-.13-.4-.1-.38-.06-.2.2-.07.37-.12.36-.19.37-.08.41-.14.39-.24.35-.21.35-.2.37-.22.35-.14.4-.27.32-.25.33-.12.42-.37.26-.12.42-.26.33-.27.31-.29.31-.17.39-.31.24-.27.28-.23.32-.13.34.15.19.39-.19.46-.08.3-.33.41-.2.3-.34.31-.22.31.07.18.33.22.36.05.41.08.4.23.35.24.33.21.34v.4l-.29.3-.29.26-.18.38-.26.29-.34.22-.34.2-.25.32-.38.16-.32.22-.33.22-.31.25-.33.2-.29.26,0,.23.28.18.39-.11.37-.13.36-.18.37-.13.39-.12.34-.22.34-.2.38-.15.35-.19.31-.26.37-.17.31-.25.36-.19.32-.27.34-.23.3-.29.28-.29.32-.27.21-.37.4-.19.27-.31.21-.36.27-.31.27-.31.19-.37.31-.28.26-.32.21-.36.22-.34.17-.38.34-.27.2-.36.17-.38Zm-5.28-.91.25-.21.31-.22h.36l.41,0,.41.16h.41l.41-.11.46.15.1.48-.24.35-.19.36-.12.39-.29.31-.32.22-.4-.2-.25-.29-.28-.24-.29-.26-.36-.14-.34-.17-.25-.27Zm-1.53,2.58-.23-.22,0-.37.29-.29.24-.32.39-.18.25-.12.32.08.21.32.16.35,0,.39.11.36.31.4.3.4.17.27-.2.31-.29.26-.39-.13-.2-.31-.29-.23-.27-.24-.3-.22-.33-.19Z"/><polygon class="cls-7" points="378.09 146.53 377.69 146.44 377.28 146.49 376.87 146.46 376.46 146.39 376.05 146.46 375.64 146.5 375.24 146.47 374.82 146.4 374.41 146.38 374.21 146.5 374.32 146.67 374.56 147.01 374.8 147.35 374.94 147.33 375.36 147.42 375.77 147.29 376.19 147.35 376.61 147.4 377.03 147.36 377.45 147.3 377.87 147.41 378.29 147.39 378.7 147.3 379.12 147.46 379.54 147.42 379.96 147.43 380.39 147.42 380.81 147.44 381.22 147.3 381.64 147.37 382.04 147.25 382.23 146.88 382.05 146.51 381.86 146.13 381.53 145.89 381.23 145.61 380.85 145.44 380.56 145.15 380.15 144.99 379.82 145.25 379.52 145.51 379.38 145.89 379.05 146.21 378.79 146.45 378.44 146.52 378.09 146.53"/><polygon class="cls-7" points="374.7 152.75 374.4 152.53 374.13 152.26 373.88 151.94 373.47 151.86 373.17 151.63 372.85 151.43 372.48 151.67 372.31 152.11 372.19 152.46 371.98 152.79 371.67 153.05 371.53 153.43 371.21 153.67 370.93 153.95 370.65 154.22 370.44 154.57 370.19 154.88 369.91 155.15 369.58 155.38 369.31 155.67 369.01 155.94 368.6 156.04 368.32 156.33 368.03 156.6 367.61 156.67 367.48 157.06 367.85 157.22 368.23 157.05 368.64 157.02 369.02 156.89 369.37 156.68 369.77 156.58 370.11 156.35 370.5 156.24 370.85 156.03 371.19 155.82 371.53 155.59 371.92 155.46 372.24 155.2 372.56 154.95 372.89 154.73 373.21 154.47 373.53 154.23 373.83 153.95 374.24 153.82 374.54 153.58 374.84 153.33 374.99 153.02 374.7 152.75"/><polygon class="cls-7" points="388.55 147.47 388.32 147.37 387.93 147.27 387.56 147.12 387.22 146.91 386.93 146.63 386.58 146.44 386.22 146.27 385.94 145.99 385.56 145.84 385.22 145.63 384.98 145.29 384.66 145.06 384.3 144.88 384.09 144.52 383.74 144.32 383.64 143.94 383.5 143.53 383.79 143.22 384 142.87 384.29 142.57 384.51 142.22 384.69 141.84 385.02 141.58 385.25 141.23 385.65 141.06 385.89 140.71 386.22 140.46 386.57 140.22 387 140.25 387.33 139.96 387.49 139.61 387.31 139.26 386.99 138.99 386.72 138.66 386.4 138.37 386.05 138.13 385.69 137.91 385.4 137.57 384.99 137.53 384.64 137.63 384.35 137.9 384.06 138.16 383.8 138.44 383.49 138.64 383.1 138.61 382.71 138.72 382.33 138.72 381.94 138.69 381.55 138.59 381.16 138.59 380.77 138.59 380.64 138.73 380.64 138.9 380.85 139.24 381.23 139.44 381.29 139.51 381.73 139.6 382.17 139.54 382.62 139.48 383.07 139.51 383.51 139.57 383.96 139.73 383.98 140.22 383.89 140.58 383.77 140.94 383.54 141.25 383.45 141.61 383.3 141.96 383.11 142.28 382.81 142.58 382.39 142.6 381.98 142.44 381.77 142.11 381.63 141.74 381.32 141.48 381.22 141.09 380.87 140.85 380.75 140.47 380.48 140.18 380.31 139.82 380.15 139.46 380 139.1 379.9 138.71 379.65 138.39 379.47 138.04 379.36 137.66 379.13 137.33 378.93 136.99 378.71 136.58 378.4 136.27 378.13 136.57 378.16 136.97 378.32 137.35 378.31 137.78 378.58 138.12 378.67 138.52 378.8 138.9 378.85 139.32 379.03 139.69 379.25 140.04 379.42 140.41 379.57 140.79 379.7 141.18 379.92 141.53 380.12 141.89 380.24 142.28 380.39 142.67 380.68 142.96 380.88 143.31 381.11 143.62 381.27 144 381.56 144.28 381.7 144.67 381.97 144.96 382.3 145.21 382.56 145.51 382.77 145.84 383.03 146.15 383.29 146.44 383.56 146.73 383.85 147 384.09 147.33 384.36 147.61 384.64 147.89 384.92 148.17 385.23 148.43 385.51 148.71 385.8 148.99 386.17 149.15 386.49 149.38 386.79 149.21 387.01 148.94 387.21 148.79 387.62 148.72 387.95 148.54 388.29 148.35 388.68 148.29 389.02 148.12 389.38 147.8 389.02 147.54 388.55 147.47"/><polygon class="cls-7" points="380.93 151.68 380.74 151.95 380.95 152.14 381.25 152.34 381.57 152.5 381.83 152.76 382.11 153.02 382.43 153.24 382.75 153.47 382.97 153.79 383.19 154.11 383.41 154.42 383.68 154.71 383.76 155.12 383.93 155.46 384.17 155.77 384.37 156.15 384.67 156.46 384.95 156.77 385.28 157.04 385.69 157.21 386.13 157.24 386.54 157.08 386.88 156.84 387.16 156.55 387.43 156.2 387.48 155.76 387.39 155.36 387.17 155.01 387.01 154.64 386.88 154.24 386.58 153.94 386.2 153.75 385.87 153.51 385.53 153.28 385.14 153.16 384.79 152.94 384.43 152.75 384.05 152.6 383.69 152.4 383.31 152.23 382.92 152.11 382.49 152.12 382.12 151.93 381.72 151.84 381.34 151.68 380.93 151.68"/><polygon class="cls-7" points="379.98 150.48 380.39 150.35 380.8 150.41 381.21 150.37 381.63 150.47 382.04 150.46 382.45 150.48 382.87 150.44 383.28 150.33 383.7 150.41 384.11 150.32 384.53 150.45 384.93 150.35 385.35 150.29 385.55 149.91 385.29 149.57 385.03 149.25 384.75 148.95 384.44 148.66 384.13 148.38 383.8 148.11 383.39 147.99 382.96 148.2 382.65 148.56 382.34 148.91 382.06 149.33 381.65 149.51 381.22 149.53 380.79 149.54 380.39 149.39 379.98 149.43 379.57 149.53 379.17 149.4 378.76 149.41 378.36 149.56 377.96 149.45 377.56 149.44 377.15 149.5 376.75 149.4 376.34 149.4 375.94 149.41 375.53 149.39 375.13 149.43 374.72 149.49 374.31 149.45 373.91 149.48 373.5 149.49 373.09 149.5 372.69 149.47 372.28 149.55 371.87 149.39 371.46 149.51 371.06 149.4 370.65 149.43 370.58 149.6 370.54 149.72 370.84 149.99 371.01 150.38 371.17 150.48 371.59 150.33 372.01 150.31 372.43 150.41 372.85 150.44 373.27 150.35 373.69 150.33 374.11 150.43 374.53 150.47 374.95 150.36 375.38 150.44 375.8 150.46 376.22 150.32 376.6 150.4 376.87 150.66 377.13 150.93 377.21 151.31 377.21 151.73 377.21 152.15 377.09 152.57 377.19 152.99 377.11 153.42 377.16 153.84 377.15 154.26 377.1 154.68 377.14 155.12 376.85 155.43 376.45 155.56 376.02 155.51 375.6 155.49 375.18 155.63 374.76 155.52 374.34 155.59 374.01 155.78 374.44 156.05 374.84 156.09 375.19 156.29 375.48 156.57 375.68 156.9 375.88 157.24 376.19 157.49 376.51 157.71 376.87 157.78 377.27 157.72 377.69 157.74 378.02 157.48 378.37 157.29 378.73 157.11 378.99 156.81 379.06 156.43 379.23 156.07 379.11 155.67 379.24 155.29 379.29 154.91 379.27 154.52 379.11 154.12 379.12 153.71 379.25 153.3 379.18 152.89 379.12 152.48 379.11 152.08 379.14 151.66 379.05 151.26 379.13 150.77 379.52 150.48 379.98 150.48"/><polygon class="cls-7" points="347.35 143.52 347.2 143.14 347.02 142.77 346.73 142.47 346.47 142.12 346.06 141.97 345.74 141.78 345.47 142.03 345.28 142.46 345.08 142.82 344.91 143.2 344.61 143.48 344.33 143.79 344.17 144.16 343.98 144.53 343.71 144.83 343.42 145.12 343.29 145.53 343.02 145.84 342.76 146.15 342.44 146.42 342.28 146.81 341.99 147.11 341.67 147.38 341.41 147.69 341.23 148.07 340.92 148.34 340.65 148.64 340.44 149 340.28 149.38 340.02 149.68 340.17 149.91 340.56 149.81 340.86 149.54 341.24 149.36 341.57 149.12 341.88 148.85 342.15 148.53 342.54 148.34 342.92 148.12 343.35 148.25 343.5 148.65 343.69 149.04 343.66 149.47 343.77 149.88 343.7 150.3 343.75 150.7 343.71 151.09 343.73 151.49 343.7 151.89 343.71 152.28 343.7 152.68 343.63 153.07 343.53 153.47 343.59 153.87 343.48 154.26 343.53 154.66 343.54 155.06 343.47 155.46 343.43 155.85 343.45 156.25 343.52 156.64 343.48 157.11 343.82 157.44 344.12 157.75 344.54 157.84 344.99 157.87 345.37 157.63 345.7 157.35 345.87 156.94 345.87 156.53 345.89 156.13 346.01 155.72 345.94 155.32 345.85 154.92 345.94 154.52 345.8 154.12 345.82 153.72 345.82 153.31 345.82 152.91 345.89 152.5 345.91 152.1 345.88 151.69 345.78 151.29 345.86 150.88 345.73 150.48 345.7 150.08 345.69 149.67 345.81 149.27 345.81 148.86 345.63 148.46 345.63 148.06 345.65 147.64 345.87 147.39 346.19 147.25 346.21 146.91 346.12 146.59 345.81 146.41 345.45 146.33 345.08 146.09 345.29 145.68 345.52 145.41 345.78 145.16 346.09 144.95 346.26 144.62 346.63 144.33 346.95 144.02 347.29 143.88 347.35 143.52"/><polygon class="cls-7" points="340.94 142.79 341.27 142.6 341.65 142.53 341.92 142.23 342.24 142.04 342.6 141.91 342.96 141.77 343.24 141.49 343.56 141.29 343.92 141.11 344.18 140.8 344.57 140.66 344.9 140.44 345.22 140.15 345.55 139.88 345.92 139.65 346.19 139.31 346.61 139.16 346.96 138.97 346.95 138.81 347.35 138.75 347.52 138.44 347.41 138.1 347.2 137.78 346.88 137.54 346.65 137.21 346.38 136.93 346.04 136.72 345.66 136.66 345.28 136.8 345.14 137.23 345.08 137.34 344.79 137.63 344.6 137.97 344.36 138.29 344.2 138.67 343.89 138.93 343.72 139.31 343.45 139.61 343.16 139.88 342.98 140.25 342.7 140.55 342.33 140.75 342.15 141.12 341.71 141.54 341.3 141.79 341.03 142.18 340.73 142.52 340.94 142.79"/><polygon class="cls-7" points="349.06 145.05 348.72 145.02 348.68 145.36 348.66 145.7 348.68 146.06 348.56 146.4 348.58 146.74 348.56 147.13 348.56 147.52 348.46 147.91 348.49 148.31 348.43 148.7 348.35 149.08 348.27 149.47 348.15 149.84 348.12 150.24 347.95 150.61 347.98 151.02 347.78 151.38 347.65 151.75 347.54 152.13 347.39 152.5 347.38 152.92 347.13 153.24 346.91 153.57 346.91 153.73 346.6 154.02 346.46 154.42 346.67 154.67 346.91 154.5 347.23 154.26 347.51 153.98 347.78 153.7 348.08 153.44 348.32 153.13 348.52 152.79 348.72 152.46 348.99 152.16 349.12 151.78 349.29 151.43 349.48 151.08 349.5 150.67 349.68 150.32 349.79 149.94 349.97 149.58 350.09 149.2 350 148.77 350.18 148.39 350.26 147.99 350.24 147.53 350.31 147.08 350.63 146.88 350.8 146.6 350.99 146.36 350.77 146.04 350.52 145.74 350.24 145.42 349.81 145.35 349.45 145.14 349.06 145.05"/><polygon class="cls-7" points="354.07 135.67 354.44 135.87 354.68 136.19 354.83 136.56 355 136.91 355.18 137.25 355.32 137.6 355.41 137.98 355.62 138.29 355.87 138.58 356.14 138.84 356.52 138.82 356.89 138.79 357.26 138.7 357.56 138.43 357.6 138.03 357.66 137.67 357.72 137.28 357.66 136.89 357.4 136.58 357.21 136.24 356.87 136.03 356.54 135.83 356.23 135.6 355.9 135.37 355.51 135.29 355.13 135.2 354.75 135.11 354.37 134.99 353.92 135.31 354.07 135.67"/><polygon class="cls-7" points="358.31 139.44 358.49 139.49 358.88 139.51 359.26 139.49 359.65 139.49 360.04 139.49 360.43 139.57 360.81 139.49 361.2 139.57 361.59 139.55 361.98 139.5 362.37 139.58 362.76 139.49 363.14 139.44 363.48 139.34 363.66 139.05 363.59 138.66 363.24 138.44 363.05 138.08 362.69 137.9 362.42 137.6 362.06 137.44 361.68 137.34 361.26 137.45 361.09 137.85 360.92 138.24 360.81 138.27 360.64 138.47 360.32 138.63 359.98 138.63 359.53 138.62 359.08 138.48 358.64 138.55 358.19 138.63 358.11 138.67 357.99 138.81 358.15 139.12 358.31 139.44"/><polygon class="cls-7" points="354.35 142.46 354.75 142.32 355.14 142.32 355.54 142.39 355.93 142.34 356.33 142.47 356.79 142.41 357.2 142.24 357.36 141.89 357.33 141.53 357.15 141.19 356.82 140.99 356.53 140.75 356.23 140.53 355.88 140.32 355.49 140.5 355.31 140.86 355.06 141.16 354.77 141.37 354.35 141.43 353.95 141.42 353.64 141.24 353.42 140.94 353.36 140.55 353.28 140.14 353.4 139.74 353.42 139.35 353.37 138.95 353.41 138.56 353.59 138.23 353.81 137.89 353.95 137.52 353.73 137.25 353.48 136.95 353.12 136.8 352.72 136.82 352.39 136.58 352.01 136.5 351.62 136.58 351.31 136.68 351.22 136.91 351.19 137.32 351.41 137.67 351.43 138.07 351.46 138.46 351.44 138.85 351.37 139.24 351.5 139.63 351.56 140.02 351.43 140.41 351.44 140.79 351.39 141.2 351.04 141.44 350.63 141.45 350.21 141.54 349.79 141.54 349.36 141.53 348.94 141.54 348.51 141.43 348.08 141.4 348.08 141.41 347.91 141.53 348.03 141.67 348.16 142 348.39 142.28 348.46 142.37 348.89 142.41 349.32 142.44 349.75 142.44 350.18 142.49 350.61 142.37 351.08 142.45 351.34 142.84 351.51 143.26 351.58 143.67 351.58 144.07 351.57 144.48 351.41 144.88 351.53 145.29 351.43 145.69 351.52 146.1 351.37 146.5 351.4 146.91 351.46 147.32 351.42 147.72 351.39 148.13 351.33 148.53 351.39 148.94 351.42 149.35 351.3 149.75 351.41 150.16 351.39 150.57 351.41 150.98 351.24 151.38 351.23 151.79 351.27 152.2 351.35 152.61 351.33 153.02 351.2 153.42 351.33 153.84 351.19 154.24 351.18 154.65 351.24 155.06 351.26 155.47 351.19 155.87 351.24 156.28 351.17 156.68 351.24 157.11 351.46 157.47 351.72 157.81 352.15 157.91 352.55 157.9 352.92 157.76 353.19 157.47 353.51 157.24 353.7 156.89 353.75 156.49 353.71 156.09 353.63 155.69 353.74 155.29 353.66 154.9 353.67 154.5 353.64 154.09 353.63 153.69 353.56 153.29 353.54 152.89 353.53 152.49 353.57 152.09 353.62 151.69 353.6 151.29 353.56 150.89 353.55 150.49 353.53 150.09 353.51 149.69 353.58 149.28 353.49 148.88 353.52 148.48 353.41 148.08 353.55 147.67 353.55 147.27 353.41 146.87 353.52 146.47 353.37 146.07 353.44 145.66 353.45 145.26 353.43 144.86 353.46 144.46 353.38 144.05 353.35 143.65 353.42 143.25 353.41 142.88 353.69 142.64 353.99 142.44 354.35 142.46"/><polygon class="cls-7" points="362.35 142.67 362 142.92 361.92 143.32 361.63 143.6 361.42 143.95 361.01 144.04 360.62 144.04 360.24 144.01 359.85 144 359.47 143.89 359.08 143.97 358.69 144.03 358.3 143.98 357.92 143.9 357.53 143.96 357.15 144 357 144.04 357.07 144.17 357.28 144.48 357.32 144.88 357.53 144.82 357.9 144.95 358.27 144.84 358.64 144.83 359.01 144.87 359.38 144.94 359.78 144.94 360.04 145.22 360.21 145.55 360.32 145.94 360.32 146.35 360.26 146.76 360.17 147.18 360.22 147.59 360.21 148 360.32 148.42 360.18 148.83 360.25 149.25 360.22 149.66 360.28 150.08 360.13 150.49 360.21 150.91 360.2 151.33 360.16 151.74 360.09 152.15 360.12 152.57 360.06 152.98 360.07 153.39 360 153.76 359.96 154.13 359.89 154.5 359.73 154.87 359.38 155.07 358.99 155.06 358.62 155.06 358.22 155.11 357.82 155.09 357.43 155 357.03 154.99 356.53 155.34 356.87 155.6 357.23 155.75 357.6 155.91 357.89 156.18 358.11 156.5 358.44 156.75 358.48 157.15 358.64 157.5 358.78 157.87 359.16 157.97 359.55 157.95 359.95 158.02 360.34 157.9 360.71 157.75 361.08 157.6 361.38 157.33 361.7 157.09 361.86 156.71 362.14 156.42 362.2 156.02 362.32 155.66 362.42 155.25 362.4 154.85 362.37 154.44 362.29 154.03 362.38 153.62 362.3 153.22 362.21 152.81 362.32 152.4 362.2 151.99 362.22 151.59 362.33 151.17 362.15 150.77 362.16 150.35 362.29 149.94 362.22 149.53 362.14 149.11 362.1 148.7 362.24 148.29 362.2 147.88 362.16 147.47 362.07 147.06 362.2 146.65 362.19 146.25 362.18 145.84 362.16 145.47 362.43 145.23 362.67 144.97 363.02 144.87 363.51 144.93 363.89 144.97 364.27 144.83 364.34 144.48 364.25 144.12 364.04 143.78 363.79 143.46 363.45 143.23 363.12 142.98 362.71 142.88 362.35 142.67"/><polygon class="cls-7" points="357.1 153.87 357.48 153.82 357.8 153.59 358.09 153.32 358.17 152.93 358.27 152.57 358.21 152.18 358.2 151.81 358.16 151.41 358.1 151 358.06 150.6 358.04 150.19 357.84 149.82 357.76 149.42 357.6 149.04 357.51 148.64 357.42 148.24 357.13 147.92 357 147.53 356.81 147.17 356.68 146.78 356.47 146.42 356.23 146.09 355.9 145.82 355.78 145.4 355.43 145.16 355.14 144.88 354.74 144.81 354.66 144.74 354.41 145 354.7 145.42 354.81 145.68 354.9 146.08 354.95 146.49 355.1 146.87 355.19 147.27 355.28 147.67 355.25 148.08 355.41 148.47 355.33 148.88 355.4 149.28 355.55 149.68 355.42 150.09 355.55 150.49 355.51 150.9 355.58 151.3 355.68 151.7 355.67 152.11 355.77 152.52 355.87 152.92 356.02 153.32 356.35 153.58 356.66 153.87 357.1 153.87"/><path class="cls-8" d="M0,152.92s0-.44,0-.91c0,0,1.45,0,1.74.1s.23.09.23.16-.12.17-.41.21c0,.25,0,.59,0,.59v0H3.28v-1.41H2.79v.15H1.28V144h2.6a7.57,7.57,0,0,0,.52-1.21s1.12.14,1.66.19c.22,0,.34.1.34.18s-.17.21-.52.25c-.09.17-.2.39-.32.59H9.72v4.44H8.18v-.22H2.79v.61H11.9V150H2.79v.6h8.63a13,13,0,0,1-.4,3.09,2.5,2.5,0,0,1-2.73,1.76c-.79,0-.84-.05-.87-.15a4.24,4.24,0,0,0-.4-.73H6.5v-.33h-5v.68H0Zm8.14-7.24v-.61H2.79v.61Zm0,1.57v-.63H2.79v.63ZM6.5,153.09v-.29s0-.36,0-.78c0,0,1.37,0,1.66.1s.25.1.25.17-.12.16-.41.2a4,4,0,0,0,0,.46v1h.36a1.09,1.09,0,0,0,1.2-.72,7.3,7.3,0,0,0,.26-1.57h-5v1.41Z"/><path class="cls-8" d="M25,149.1a3.38,3.38,0,0,0-3-3.34,2.71,2.71,0,0,1,.06.65,11.14,11.14,0,0,1-2.81,6.37,2.17,2.17,0,0,1-1.58.83c-1,0-2.59-1.32-2.59-3.48a6.33,6.33,0,0,1,6.4-5.89,5,5,0,0,1,5.34,5c0,4.49-5.08,5.71-5.49,5.71a.12.12,0,0,1-.1-.06,10.82,10.82,0,0,0-1.71-1.53C21.9,153.16,25,152.08,25,149.1Zm-8.22,1c0,1,.65,1.56.9,1.56a.6.6,0,0,0,.45-.25,9.06,9.06,0,0,0,2.17-5,2.44,2.44,0,0,0-.05-.48A5,5,0,0,0,16.78,150.09Z"/><path class="cls-8" d="M29.93,145.11h5.71v1.37H29.93Zm.57,5.53h4.69v4.65H33.72v-.67H32v.76H30.5Zm.09-7.33h4.53v1.21H30.59Zm0,3.78h4.47v1.17H30.61Zm0,1.76h4.46V150H30.62Zm3.1,4.46v-1.4H32v1.4Zm2.35-6.06h4V145H35.9v-1.51h5.73v6.05H40.07v-.74H37.64V153c0,.58.43.72,1.49.72,1.7,0,1.75-.35,1.82-2.67a15.37,15.37,0,0,0,1.6,1.19s.07,0,.06.14c-.21,2.6-1.33,2.89-3.51,2.89-1.67,0-3-.09-3-2Z"/><path class="cls-8" d="M46.3,149.6h0a6.72,6.72,0,0,0-1.11-.11,11.89,11.89,0,0,0,.42-3.58c0-.49,0-.81,0-.81s.86.05,1.09.1.25.08.25.15-.07.15-.28.22C46.61,146.35,46.52,149.6,46.3,149.6Zm.69-5.69s0-.51-.05-1a15.79,15.79,0,0,1,1.73.08c.14,0,.22.09.22.15s-.11.18-.37.24c0,.22,0,.62,0,.62v1.1l.66-.16a28.87,28.87,0,0,1,.66,3.25l-.84.38a22.52,22.52,0,0,0-.48-3.33v9.23A6.39,6.39,0,0,0,50,152s.93.28,1.25.39a.66.66,0,0,1,.15.09c0-.15,0-.37,0-.58.18,0,1,0,1.39.08a2,2,0,0,0-.25-.16l.71-.58H51.61v.29H50.17v-4.18h6.75v4.15H55.47v-.26H53.72a8.16,8.16,0,0,1,1.4,1.25l-.95.94a6.36,6.36,0,0,0-1-1.17.4.4,0,0,1-.29.13,1.45,1.45,0,0,0-.06.39s0,.47,0,.76c0,.55.26.57.91.57,1.17,0,1.25-.34,1.25-1.19a9.43,9.43,0,0,0,1.31,1,.08.08,0,0,1,.07.08s0,.05,0,.07c-.2,1-.83,1.29-2.61,1.29s-2.32-.42-2.32-1.31v-.07l0-1.25a.81.81,0,0,1-.3.06,5.66,5.66,0,0,1-1.26,2.3H49.8a6.55,6.55,0,0,0-1.31-.4v.9H47Zm2.7,1.67h1.78c-.11-.3-.24-.59-.32-.78H49.87v-1.11h2.92v-.23a5,5,0,0,0,0-.62c1.13,0,2,0,2,.22s-.11.16-.39.22c0,.15,0,.36,0,.36v.05h3.16v1.11H55.91c-.06.17-.18.48-.32.78h2.35v1.19H49.69Zm5.78,3.24v-.59H51.59v.59Zm0,1.45v-.59H51.59l0,.59Zm-1.24-4.69c.11-.26.19-.54.27-.78h-2a6.54,6.54,0,0,1,.33.78Zm2.23,6.2A10.78,10.78,0,0,1,58.38,154l-1.16.88a8.36,8.36,0,0,0-1.85-2.42Z"/><path class="cls-8" d="M69.32,149.11c-3.07.17-6.41,1.11-6.41,2.69,0,.36.17,1.34,2.83,1.34a13,13,0,0,0,4.33-.8,14.36,14.36,0,0,0-.33,2c0,.06,0,.08-.08.1a16.08,16.08,0,0,1-3.49.43c-3.18,0-5-1.2-5-3,0-1.3,1.12-2.46,3-3.31a5,5,0,0,1-.33-2c0-.45,0-.95,0-1.49s0-1.14-.07-1.89a.64.64,0,0,0,0-.09s0,0,.06,0,1.76.2,2,.26.23.08.23.15-.12.17-.33.22c0,.48-.19,2.51-.19,3a3,3,0,0,0,.23,1.25,10.62,10.62,0,0,1,1.12-.32c.66-.17,1.72-.39,2.26-.54h.1c.07,0,.09,0,.09.09v1.93Z"/><path class="cls-8" d="M74.38,151.61a14.53,14.53,0,0,1,3.14,2.47l-1.33,1.41a12.07,12.07,0,0,0-3-2.79Z"/><path class="cls-8" d="M87.11,153.2c0-.62,0-1.55.11-2.35a13.13,13.13,0,0,1-4.24,4h0a.06.06,0,0,1,0,0,6.73,6.73,0,0,0-1.65-1.13,13,13,0,0,0,5.33-4.23l-4.55,0v-1.58h5.1v-1.45h-4.4v-1.56h4.4V144s0-.7,0-1.17c0,0,1.42,0,2,.09.18,0,.27.1.27.17s-.16.23-.48.28a4.45,4.45,0,0,0,0,.59v.91h4.44v1.57H88.8v1.44h5.13v1.6l-4.62-.05a13.3,13.3,0,0,0,5.43,4A9.39,9.39,0,0,0,93,154.69h0a11.35,11.35,0,0,1-4.22-3.86c0,.73.1,1.6.1,2.34v2.26H87.09Z"/><path class="cls-8" d="M102.57,153.46c0-.51.06-1.39.1-2.17A11.79,11.79,0,0,1,98.35,155h0a6.75,6.75,0,0,0-1.6-1.17,13.55,13.55,0,0,0,5.37-3.86l-4.62,0v-1.52h2.78a7.65,7.65,0,0,0-1.07-1.84l1.45-.38a7.9,7.9,0,0,1,1.18,2.11l-.32.11h1.12v-2.36H98.05V144.6h4.55v-.66s0-.59,0-1.08c.06,0,1.38,0,1.89.1.17,0,.26.1.26.17s-.16.22-.47.26c0,.32,0,.7,0,.7v.51h4.6v1.52h-4.6l0,2.36H105a13,13,0,0,0,1-2.28,16.75,16.75,0,0,1,1.68.46c.15.05.25.15.25.22s-.11.14-.34.14h-.13c-.21.45-.54,1-.8,1.46h2.82V150l-4.65,0a13.6,13.6,0,0,0,5.42,3.62,12,12,0,0,0-1.69,1.29l-.06,0a12.17,12.17,0,0,1-4.27-3.61c.06.68.1,1.47.1,2.16v2h-1.68Z"/><path class="cls-8" d="M112.47,154.52a61.91,61.91,0,0,0,3.15-6.22,10,10,0,0,1-2.35.33c-.12-.37-.5-1.7-.5-1.72a.07.07,0,0,1,.07-.06l.09,0a8,8,0,0,0,.82,0,13.57,13.57,0,0,0,2.49-.3,15.24,15.24,0,0,0,.66-3.09s1.63.27,2,.37c.17,0,.24.12.24.19s-.17.2-.45.21c-.12.44-.34,1.32-.56,2.07a3.4,3.4,0,0,1,.45,0c1.38,0,2.09.79,2.09,3a10.35,10.35,0,0,1-.46,3.13,2.88,2.88,0,0,1-2.76,2.13,2.52,2.52,0,0,1-1.36-.38c-.06,0-.07,0-.07-.12a17.38,17.38,0,0,0-.24-2c-.4.87-.84,1.76-1.31,2.76Zm4.83-1.75a1.3,1.3,0,0,0,1.24-1,8.43,8.43,0,0,0,.4-2.59c0-.65,0-1.3-.7-1.3a3.82,3.82,0,0,0-.72.09c-.52,1.32-1.08,2.6-1.72,4A2,2,0,0,0,117.3,152.77Zm5-6.4c1.8,1.23,2.94,2.73,3,4.26l-1.63.81-.07,0s0,0-.06-.08a5.36,5.36,0,0,0-2.71-4.19c-.1-.07-.14-.1-.14-.13s0,0,.15-.09Zm-.11-2.2A6.77,6.77,0,0,1,124,145.6l-.8.75a6.3,6.3,0,0,0-1.82-1.51Zm1.37-.93a7,7,0,0,1,1.82,1.29l-.77.79a6.61,6.61,0,0,0-1.79-1.41Z"/><path class="cls-8" d="M129.87,147.54c.36.35.86.87,1.39,1.49a10.63,10.63,0,0,0,.51-2.29s1.36.26,1.8.41c.16.06.25.13.25.2s-.18.19-.51.22a27.08,27.08,0,0,1-.9,2.85,18.16,18.16,0,0,1,1.59,2.42L132.7,154a19.41,19.41,0,0,0-1-1.85,8.94,8.94,0,0,1-2.38,3.29s0,0-.06,0a7.4,7.4,0,0,0-1.68-.65,9.79,9.79,0,0,0,3.1-4.05,15.76,15.76,0,0,0-2.08-2.31Zm-1.64-2.5h2.12v-1.15a9.2,9.2,0,0,0,0-1s1.27,0,1.84.09c.12,0,.2.07.2.15s-.09.18-.35.23c0,.31,0,.73,0,.73V145h2v1.45h-5.71Zm6.91,2.85a10.76,10.76,0,0,1,2,3.06l-1.44.81a10.26,10.26,0,0,0-1.82-3.25Zm2.43-.8h-3.33V145.6h3.33V144s0-.59,0-1c0,0,1.24,0,1.8.11.17,0,.25.08.25.16s-.14.2-.4.24c0,.32,0,.74,0,.74v1.36h1.31v1.49h-1.31V152c0,.67,0,1.2,0,1.3v0c0,1.67-1.09,2.1-2.65,2.1h-.63a.1.1,0,0,1-.1-.07,8.05,8.05,0,0,0-1.05-1.66,13.26,13.26,0,0,0,1.76.18c.66,0,1.06-.16,1.06-.7Z"/><path class="cls-8" d="M143.24,145.07h5.48v1.41h-5.48Zm.58,5.57h4.51v4.69h-1.46v-.67H145.3v.76h-1.48Zm.11-7.38h4.31v1.23h-4.31Zm0,3.8h4.23v1.18H144Zm0,1.78h4.22V150H144Zm2.91,4.48v-1.39H145.3v1.39Zm2.47-3.34h2.11v-1.83h-2.8v-1.4h2.8v-1.57c-.68.08-1.35.15-1.95.2-.06,0-.09,0-.12-.07a5.63,5.63,0,0,0-.9-1.29,19.27,19.27,0,0,0,5.94-.91c.05.07.78.93,1,1.26a.27.27,0,0,1,.07.18.11.11,0,0,1-.12.12.51.51,0,0,1-.36-.18,15.93,15.93,0,0,1-2,.46v1.8h3v1.4h-3V150h2.16v5.38h-1.54v-.69h-2.75v.73h-1.54Zm4.29,3.27v-1.93h-2.75v1.93Z"/><path class="cls-8" d="M158.88,145.6a.15.15,0,0,1,0-.09s0-.08.16-.08h.8c.63,0,1.32,0,2-.08.86-.08,1.94-.18,3.11-.25,0-.7-.1-1.38-.17-1.9,1.92,0,2.29,0,2.29.25s-.14.19-.36.22c0,.4,0,.85-.08,1.34.84,0,1.71-.06,2.55-.06.53,0,1,0,1.55,0l0,1.68c0,.07,0,.07-.09.07a24.72,24.72,0,0,0-3.18-.21c-.28,0-.56,0-.82,0,0,.71,0,1.41,0,2a3.23,3.23,0,0,1,.49,1.83,4.63,4.63,0,0,1-.81,2.58,7,7,0,0,1-3.41,2.34.15.15,0,0,1-.11-.07,9.37,9.37,0,0,0-1.81-1.31,7.64,7.64,0,0,0,4.21-2,2.6,2.6,0,0,1-1,.2,2.27,2.27,0,0,1-2.32-2.22,2.42,2.42,0,0,1,2.48-2.42,3.37,3.37,0,0,1,.66.06c0-.29,0-.6,0-.91-1.15.08-2.18.2-3,.33s-1.72.23-2.61.29Zm5.43,3.33a.85.85,0,0,0-.91.83.8.8,0,0,0,.83.84.83.83,0,0,0,.88-.85v-.14a1.81,1.81,0,0,0,0-.4A1,1,0,0,0,164.31,148.93Z"/><path class="cls-8" d="M173,150.93l0-.06a31.21,31.21,0,0,1,2.46-2.05,31.89,31.89,0,0,0,3.25-3.14s0,0,0,0h0a.11.11,0,0,0-.07,0,10.32,10.32,0,0,1-3,.6h-.18l-.61-1.65v0c0-.05,0-.06,0-.06h0a4.79,4.79,0,0,0,1,.08,14,14,0,0,0,4.11-.71c.15-.06.19-.14.28-.14s1.49,1,1.49,1.18-.14.14-.32.21c-1.05,1-2.57,2.3-3.55,3.17,0,0,0,0,0,.06h.08a6.11,6.11,0,0,1,1.88-.35c1.92,0,3.67,1.09,3.67,3,0,2.24-2.33,4-5,4-2.29,0-3.38-1.1-3.38-2.15a1.84,1.84,0,0,1,2.08-1.7,2.39,2.39,0,0,1,2.57,2.06,2.45,2.45,0,0,0,1.93-2.14c0-.88-.7-1.64-2.19-1.64a6.18,6.18,0,0,0-.71.06,5.58,5.58,0,0,0-4,2.31s-.06.07-.09.07l-.08,0Zm5.12,2.38c0-1-1.06-1-1.12-1s-.62,0-.62.41c0,.08,0,.7,1.73.76A1.34,1.34,0,0,0,178.07,153.31Z"/><path class="cls-8" d="M188.24,147.36h-1.58v-1.43h1.58V144s0-.55,0-.92a17.9,17.9,0,0,1,1.81.08c.16,0,.26.09.26.16s-.12.2-.43.27c0,.18,0,.64,0,.64v1.69h1.42v1.43h-1.42v2.55a8.29,8.29,0,0,0,.82-.36v-1.22h8.57v1.27H194c-.1.16-.22.36-.37.58l5.23,0c-.07,3.28-.25,5.26-3,5.26h-.31c-.08,0-.11,0-.12-.07a3.86,3.86,0,0,0-.47-.94,5.92,5.92,0,0,1-1.56,1.19s-.07,0-.1,0l-.05,0a7.74,7.74,0,0,0-1.49-.65,6.85,6.85,0,0,0,3.78-3.67h-.66a8.6,8.6,0,0,1-3.8,3.52.07.07,0,0,1-.05,0,9.21,9.21,0,0,0-1.37-.76,7.09,7.09,0,0,0,3.77-2.73h-.69a7,7,0,0,1-2.62,2,.1.1,0,0,1-.07,0,7.6,7.6,0,0,0-1.34-.75,7.42,7.42,0,0,0,3.86-2.92h-1.38a6.79,6.79,0,0,0,.07,1,.12.12,0,0,1,0,.07,27.16,27.16,0,0,1-3.87,1.75.71.71,0,0,1,0,.2c0,.16-.06.25-.13.25s-.15-.06-.23-.18a17,17,0,0,1-.81-1.59,17.61,17.61,0,0,0,1.94-.58Zm3.53-4.14h6.16v4.69h-1.52v-.23h-3.17V148h-1.47Zm4.64,1.78v-.6h-3.17v.6Zm0,1.63V146h-3.17v.63Zm.54,4.66a10.73,10.73,0,0,1-1.48,2.57,3.29,3.29,0,0,0,.54,0c.8,0,1.21-.53,1.31-2.62Z"/><path class="cls-8" d="M206.44,150.27h-1.9c-.07,3.77-1.19,5-1.23,5s0,0-.07,0a6,6,0,0,0-1.62-.39c1.28-1.43,1.43-3.75,1.43-5.31,0-.41,0-.77,0-1,0-.55,0-2.56,0-2.56h4.87v4.95h-1.44Zm-4.05-6.76h5.83V145h-5.83Zm4.05,5.4v-1.65h-1.91s0,.56,0,1.27v.38Zm5.12-.29h-1.31c0,2.34-.34,4.87-2.5,6.65a.12.12,0,0,1-.08,0,.05.05,0,0,1,0,0,7.9,7.9,0,0,0-1.78-.68c2.6-1.51,2.88-3.86,2.88-6.12,0-.26,0-.54,0-.8,0-1.63-.11-3.66-.11-3.66l1.51.25a11,11,0,0,0,3.13-1.25s.9.93,1.16,1.24a.4.4,0,0,1,.13.26c0,.1-.06.15-.17.15a.8.8,0,0,1-.39-.14,25.25,25.25,0,0,1-3.73,1.12v1.48h4.5v1.49h-1.6v6.85h-1.59Z"/><path class="cls-8" d="M217.48,150.52c-.11-.06-.15-.11-.15-.15s.06-.07.13-.11a16,16,0,0,0,2.73-2.91,2.42,2.42,0,0,1,1.86-1,3.15,3.15,0,0,1,2.06.95c1.9,1.74,4.11,4.22,6.15,5.64l-2,1a.16.16,0,0,1-.1,0s0,0-.08-.06c-1.87-1.64-3.75-4-5.17-5.42a1.2,1.2,0,0,0-.76-.4,1,1,0,0,0-.76.49,15.59,15.59,0,0,1-2.21,2.81Z"/><path class="cls-8" d="M234.91,151.39a2,2,0,1,1-2,2A2,2,0,0,1,234.91,151.39Zm0,2.94a.9.9,0,1,0-.9-.9A.9.9,0,0,0,234.91,154.33Z"/></g></g></svg>