<svg xmlns="http://www.w3.org/2000/svg" viewBox="0 0 72.27 15.88"><defs><style>.cls-1{fill:#231815;}</style></defs><title>アセット 6</title><g id="レイヤー_2" data-name="レイヤー 2"><g id="レイヤー_1-2" data-name="レイヤー 1"><path class="cls-1" d="M.14,4.1c4.11.35,3,3.33,1.48,2.36A5.09,5.09,0,0,0,0,4.23ZM5.37,2.86C4.64,5.05,3.3,9.09,3.08,10a6.43,6.43,0,0,0-.28,1.58c0,.84.62,1.52.57,3a1.19,1.19,0,0,1-1.21,1.29c-.36,0-.68-.25-.78-.85.29-1.75.2-3.19-.19-3.45a1.6,1.6,0,0,0-.87-.27v-.34h.77c.24,0,.3,0,.47-.34.36-.65.36-.65,3.52-7.8ZM1.45.29C5.69.59,4.71,3.67,3.13,2.8A5.75,5.75,0,0,0,1.29.42ZM3.5,15.67a12.8,12.8,0,0,0,3.84-4.08l2,1.16c-.1.15-.26.24-.65.17a13.36,13.36,0,0,1-5.06,3Zm11-6.54s1,.9,1.58,1.51c-.05.17-.21.26-.46.26H3.77l-.13-.48H6V1.68l1.72.63A27.61,27.61,0,0,0,12.51.17l1.75,1.51c-.17.16-.51.19-1,0A38.21,38.21,0,0,1,7.56,2.86V5.39h5.21l.93-1.24s1.05.85,1.67,1.46c0,.19-.21.27-.45.27H12.83v4.54h.73ZM7.56,10.42h3.73V5.88H7.56Zm3.23,1.38c6,1.31,5.27,4.79,3.45,3.91a15.64,15.64,0,0,0-3.6-3.78Z"/><path class="cls-1" d="M25.41,4.45s1.16,1,1.79,1.69c-.05.18-.22.27-.48.27H22.54V13c1.34-.29,2.89-.64,4.44-1l.05.22c-1.45.78-3.55,1.79-6.7,3.11a.74.74,0,0,1-.42.43l-1.06-2c.5-.08,1.23-.22,2.13-.4V.34l2.19.22c0,.24-.17.43-.63.49V5.93h1.87Zm8.66,9.23c.47.23.63.41.63.72,0,.73-.74,1-3.4,1H29.66c-1.54,0-2-.37-2-1.68V.34l2.19.25c0,.23-.17.41-.61.48V6.8a23.9,23.9,0,0,0,3.64-3.25l1.67,1.63c-.16.16-.36.19-.72,0a19.84,19.84,0,0,1-4.59,2.07v6c0,.41.16.58.78.58h1.42c.57,0,1,0,1.25,0a.53.53,0,0,0,.43-.26,14.82,14.82,0,0,0,.71-2.67H34Z"/><path class="cls-1" d="M44.71,10.74l1.43,1.16a1,1,0,0,1-.65.27C45.34,14,45,15,44.42,15.42a3.09,3.09,0,0,1-1.67.37,1,1,0,0,0-.25-.85,2.48,2.48,0,0,0-1.16-.41l0-.27c.49.05,1.36.1,1.65.1a.81.81,0,0,0,.49-.11A4.47,4.47,0,0,0,44.1,12H42.26c-.34,1.37-1.24,2.84-4.42,3.89l-.2-.24A5.24,5.24,0,0,0,40.78,12H38.47l-.15-.5h2.55c.05-.44.07-.9.08-1.32l2,.17c0,.2-.18.35-.54.42,0,.24-.05.48-.1.73H44Zm6.92-2.46s1.1.85,1.77,1.44c0,.19-.21.28-.45.28H37.86l-.14-.5h5.43a.83.83,0,0,1-.29-.42A1.58,1.58,0,0,0,42.3,8,2.64,2.64,0,0,1,41,8.35h-.22V4.44l1.72.69h6.22l.77-.83,1.68,1.26a1.26,1.26,0,0,1-.66.32v2a2.35,2.35,0,0,1-1,.39h0c-.07.2-.27.34-.64.35a10.3,10.3,0,0,1-1.36.92h3.21ZM38,1.72h6.53V.05l2.27.2c0,.24-.18.41-.62.46v1h4.25l1-1.28s1.11.89,1.8,1.5c-.05.19-.24.27-.47.27H46.21V3.62h3.07l.92-1.14s1.07.78,1.72,1.36c0,.19-.22.27-.46.27h-12l-.13-.49h5.22V2.21H38.17Zm4.32,3.91V7.11h6.49V5.63Zm0,2.19c1.05,0,1.85.29,2.06.83a.76.76,0,0,1-.38.85h2.67a16.49,16.49,0,0,0,.56-1.73l1.53.32V7.6H42.35v.27Zm8.73,2.62,1.59,1.19a1.23,1.23,0,0,1-.65.3v3a2.19,2.19,0,0,1-1.26.41h-.27v-.82H47.79v.7a1.75,1.75,0,0,1-1.24.46h-.23V10.57l1.55.65h2.52ZM50.54,14V11.71H47.79V14Z"/><path class="cls-1" d="M60.69,8.58v1.47h8.84l.83-.82,1.55,1.27a.92.92,0,0,1-.65.26c-.18,2.7-.58,4.08-1.32,4.61a3,3,0,0,1-1.77.49,1.55,1.55,0,0,0-.26-1,2.17,2.17,0,0,0-1.19-.51,1.93,1.93,0,0,1-1.24.39h-.25v-.55H58.87V15c0,.13-.68.44-1.24.44h-.25V10.93l2,.19c0,.18-.15.32-.49.39v2.14h2.4V10.54h-.58a1.83,1.83,0,0,1-1.36.51h-.25V1.33l1.73.73h2c.15-.6.34-1.45.46-2.06L65.7.44c-.06.27-.3.41-.66.41-.36.34-.88.83-1.31,1.21h3.15l.8-.89,1.7,1.29a1.2,1.2,0,0,1-.7.36V6.9a2.21,2.21,0,0,1-1.36.49h-.27V6.6H60.69V8.11h8.74l1-1.24s1.12.85,1.82,1.46a.44.44,0,0,1-.46.25Zm0-6v1.5h6.36V2.55ZM67.05,6.1V4.54H60.69V6.1Zm-3.83,4.44a.52.52,0,0,1-.42.22v2.89h2.43V11l2,.19c0,.19-.15.32-.49.39V14c.46,0,1.33.1,1.65.1a.8.8,0,0,0,.53-.13c.32-.29.59-1.43.75-3.47Z"/></g></g></svg>