<svg xmlns="http://www.w3.org/2000/svg" viewBox="0 0 53.19 15.86"><defs><style>.cls-1{fill:#231815;}</style></defs><title>アセット 7</title><g id="レイヤー_2" data-name="レイヤー 2"><g id="レイヤー_1-2" data-name="レイヤー 1"><path class="cls-1" d="M15.64,2.86A1,1,0,0,1,15,3,11.31,11.31,0,0,1,12.8,4.73l-.17-.11a16.67,16.67,0,0,0,.59-1.88H2.38A2.82,2.82,0,0,1,1.53,5.1,1,1,0,0,1,.07,4.9.94.94,0,0,1,.59,3.71,3.16,3.16,0,0,0,1.8,1.12h.26a6.47,6.47,0,0,1,.27,1.12H6.8V.07l2.29.2c0,.24-.18.41-.63.48V2.24h4.69l.91-.9ZM12.42,9.59l1.72,1.29a1.25,1.25,0,0,1-.75.37v4a2.25,2.25,0,0,1-1.32.46H11.8V14.53H3.67v.82c0,.15-.7.49-1.34.49H2.11V9.77l1.68.7H6.41c.12-.73.25-1.72.32-2.41H5V8.6c0,.15-.7.49-1.36.49H3.38V3.82l1.68.68h5.29l.78-.86,1.68,1.29a1.29,1.29,0,0,1-.69.36V8.48a2.17,2.17,0,0,1-1.35.46h-.25V8.06H8.57c-.38.73-.91,1.71-1.36,2.41h4.42ZM11.8,14V11H3.67V14ZM5,7.56h5.56V5H5Z"/><path class="cls-1" d="M34.06,14c.46.94.53,1.43.28,1.62-.7.53-1.82-.24-2.37-1a10.91,10.91,0,0,1-1.27-2.3,12.51,12.51,0,0,1-4.62,3.4l-.16-.27a12.75,12.75,0,0,0,4.32-4.35A28.46,28.46,0,0,1,29.12,4H25.46V6.68H27l.75-.75,1.44,1.16a1,1,0,0,1-.63.29c-.06,3.23-.18,4.74-.8,5.28a1.91,1.91,0,0,1-1.32.43,1.29,1.29,0,0,0-.26-.83,2.28,2.28,0,0,0-1.05-.48v-.26c.44,0,1.14.09,1.34.09a.3.3,0,0,0,.29-.12c.26-.3.34-1.63.39-4.32H25.46v.19c0,2.79-.37,6.26-4,8.47l-.2-.19a9.21,9.21,0,0,0,2.6-5.83c-.94.68-2.31,1.65-4.17,2.84a.67.67,0,0,1-.37.47l-.93-1.92c.42-.1,1.12-.3,2-.58V5.41H18.7l-.14-.5h1.8V.41l2.16.22c0,.24-.17.41-.63.46V4.91H22l.78-1.2s.66.66,1.16,1.2v-2l1.75.67H29.1C29.05,2.48,29,1.39,29,.27l2.18.24a.42.42,0,0,1-.12.27c2.48.14,2.65,1.46,2,1.92.34.27.88.7,1.29,1.06-.05.18-.22.27-.46.27H30.61a28.18,28.18,0,0,0,.6,5.13,25,25,0,0,0,1.14-3.67l2,.65c-.08.2-.23.3-.68.29a18.19,18.19,0,0,1-1.93,4.48A7.68,7.68,0,0,0,33,13.17c.21.29.29.29.45,0a13.21,13.21,0,0,0,.76-1.92l.2,0ZM21.89,10.15c.65-.21,1.31-.43,2-.67.07-.69.09-1.41.09-2.1v-2a.8.8,0,0,1-.24,0H21.89ZM32.5,2.82a1.36,1.36,0,0,1-.37-.13A4.13,4.13,0,0,0,30.89.92L30.6,1q0,1.28,0,2.55h1.32Z"/><path class="cls-1" d="M41.61,8.58v1.47h8.84l.84-.82,1.54,1.27a.91.91,0,0,1-.64.26c-.19,2.7-.58,4.08-1.33,4.61a3,3,0,0,1-1.77.49,1.61,1.61,0,0,0-.25-1,2.2,2.2,0,0,0-1.19-.51,2,2,0,0,1-1.24.39h-.26v-.55H39.8V15c0,.13-.68.44-1.25.44H38.3V10.93l2,.19c0,.18-.15.32-.49.39v2.14h2.39V10.54h-.58a1.83,1.83,0,0,1-1.36.51H40V1.33l1.73.73h2c.16-.6.34-1.45.46-2.06l2.4.44A.6.6,0,0,1,46,.85L44.66,2.06H47.8l.8-.89,1.7,1.29a1.2,1.2,0,0,1-.7.36V6.9a2.15,2.15,0,0,1-1.36.49H48V6.6H41.61V8.11h8.74l1-1.24s1.12.85,1.82,1.46c0,.17-.22.25-.46.25Zm0-6v1.5H48V2.55ZM48,6.1V4.54H41.61V6.1Zm-3.82,4.44a.57.57,0,0,1-.43.22v2.89h2.43V11l2,.19c0,.19-.15.32-.49.39V14c.45,0,1.32.1,1.64.1a.78.78,0,0,0,.53-.13c.32-.29.6-1.43.75-3.47Z"/></g></g></svg>