<svg xmlns="http://www.w3.org/2000/svg" viewBox="0 0 53.65 15.88"><defs><style>.cls-1{fill:#231815;}</style></defs><title>アセット 8</title><g id="レイヤー_2" data-name="レイヤー 2"><g id="レイヤー_1-2" data-name="レイヤー 1"><path class="cls-1" d="M5.9.78c-.07.22-.26.34-.65.34A29.51,29.51,0,0,1,3.72,4.47l.68.26c-.05.17-.2.27-.52.32V15.37a1.91,1.91,0,0,1-1.31.49H2.26v-9a14.3,14.3,0,0,1-2,2.35L0,9a31.84,31.84,0,0,0,3.55-9ZM15.13,4s.88.94,1.36,1.55a.41.41,0,0,1-.44.27H14.31v4.5a2.16,2.16,0,0,1-1.36.48H12.7V9.67H10.06c-.32,2.5-1.48,4.69-5.05,6.19l-.15-.2a7.59,7.59,0,0,0,3.6-6h-3L5.29,9.2H8.5c.05-.56.07-1.16.07-1.77V5.78h-4l-.14-.49H8.57V1.9H5.86l-.15-.49h6.82l.8-.88L15,1.84a1.5,1.5,0,0,1-.72.35v3.1h0ZM12.7,5.78H10.2V7.41c0,.61,0,1.21-.07,1.79H12.7Zm-2.5-.49h2.5V1.9H10.2Z"/><path class="cls-1" d="M25.09,2.36s1,.75,1.57,1.28a.44.44,0,0,1-.46.27H19.11L19,3.43h5.31Zm-5.18-.59-.14-.5h3.55l.84-1s.93.73,1.51,1.26c-.05.18-.2.27-.44.27Zm3.57,3.86.81-1s.9.73,1.48,1.26c-.05.17-.22.25-.44.25H19.91l-.14-.47ZM19.91,8.29l-.14-.47h3.71l.81-1s.9.72,1.48,1.24c-.05.19-.22.27-.44.27Zm4.5.92L26,10.47a1.18,1.18,0,0,1-.71.34V15a2.26,2.26,0,0,1-1.28.45H23.8v-.88H21.33v.83c0,.14-.64.46-1.27.46h-.22V9.42l1.56.64h2.23Zm-.61,4.85v-3.5H21.33v3.5Zm9.57-9.45s1,.9,1.65,1.49c-.05.19-.22.27-.46.27H31.08v8.91c0,.21-.7.6-1.33.6h-.31V6.37H26.2l-.14-.47h3.38V.12l2.3.24c0,.27-.17.46-.66.52v5h1.37Z"/><path class="cls-1" d="M42.08,8.58v1.47h8.83l.84-.82,1.54,1.27a.91.91,0,0,1-.64.26c-.19,2.7-.58,4.08-1.33,4.61a3,3,0,0,1-1.77.49,1.61,1.61,0,0,0-.25-1,2.2,2.2,0,0,0-1.19-.51,2,2,0,0,1-1.24.39h-.26v-.55H40.26V15c0,.13-.68.44-1.25.44h-.25V10.93l2,.19c0,.18-.15.32-.49.39v2.14h2.39V10.54h-.57a1.88,1.88,0,0,1-1.37.51h-.25V1.33l1.73.73h2c.16-.6.34-1.45.46-2.06l2.4.44a.6.6,0,0,1-.66.41L45.12,2.06h3.14l.8-.89,1.7,1.29a1.2,1.2,0,0,1-.7.36V6.9a2.15,2.15,0,0,1-1.36.49h-.27V6.6H42.08V8.11h8.73l1-1.24s1.12.85,1.82,1.46c0,.17-.22.25-.46.25Zm0-6v1.5h6.35V2.55ZM48.43,6.1V4.54H42.08V6.1Zm-3.82,4.44a.57.57,0,0,1-.43.22v2.89h2.43V11l2,.19c0,.19-.15.32-.49.39V14c.45,0,1.32.1,1.65.1A.77.77,0,0,0,50.3,14c.33-.29.6-1.43.75-3.47Z"/></g></g></svg>