<svg xmlns="http://www.w3.org/2000/svg" viewBox="0 0 64.19 14.25"><defs><style>.cls-1{fill:#231815;}</style></defs><title>アセット 10</title><g id="レイヤー_2" data-name="レイヤー 2"><g id="レイヤー_1-2" data-name="レイヤー 1"><path class="cls-1" d="M.31,1.3c.42.53.65.83,1.17.83,1.36,0,7.35-.66,8.45-.83.51-.07.73-.36,1.09-.36.58,0,2.06,1.35,2.06,2s-.84.58-1.23.83c-.75.48-2.14,1.34-3.6,2.11a.82.82,0,0,1-.05.36A13.51,13.51,0,0,1,1,14.13l-.25-.32C4,11.65,6.22,7.44,6.22,6.3c0-.53-.61-.82-1.32-1.11l0-.3a5,5,0,0,1,1.14,0,4.24,4.24,0,0,1,1.65.45,12.5,12.5,0,0,0,2.67-2.6c.18-.34.1-.4-.24-.4a70.68,70.68,0,0,0-7,1.15c-.66.17-.8.56-1.27.56A2.56,2.56,0,0,1,.17,2.57,3,3,0,0,1,0,1.4Z"/><path class="cls-1" d="M22.61,3a21,21,0,0,0,3.16-.39c.46-.12.68-.49,1-.49s1.91.83,1.91,1.41c0,.42-.61.57-.89,1.05a21,21,0,0,1-11.15,9.72l-.22-.35c4.34-2.3,8.31-6.63,9.69-10.1.09-.22,0-.31-.17-.31a14.47,14.47,0,0,0-2.34.43,4,4,0,0,1-1,.22,1.47,1.47,0,0,1-.76-.41,15.62,15.62,0,0,1-5.39,4.42l-.24-.32C19,5.72,21.34,2.3,21.34,1.27c0-.33-.43-.67-1-.94L20.4.06a3.67,3.67,0,0,1,1.12,0c.94.08,2.06.71,2.06,1.1s-.22.44-.49.88-.39.63-.61.94Z"/><path class="cls-1" d="M41.3,8.37A17.73,17.73,0,0,0,43.73,5c.12-.2,0-.34-.22-.29A40.52,40.52,0,0,0,38.85,6.2C38.76,7.56,38.71,9,38.73,10c0,1.42.24,1.56,2,1.56a14.86,14.86,0,0,0,3.5-.42c.63,0,1.48.23,1.48.83,0,.44-.37.61-.83.71a18.81,18.81,0,0,1-3.48.36c-2.93,0-4-.27-4-2.65,0-1,0-2.59,0-3.74-.68.25-1.45.54-2,.8s-.8.63-1.34.63A3,3,0,0,1,32.3,6.76a2.27,2.27,0,0,1-.1-1.11l.24-.08c.36.44.66.83,1.19.83a26.74,26.74,0,0,0,3.86-1c0-1.38,0-3.05,0-3.69,0-.41-.54-.56-1.39-.77l0-.29a4.71,4.71,0,0,1,1.5-.35c.81,0,2,.73,2,1.21s-.36.66-.46,1.25S39,4.07,38.92,5l4.26-1.22c.53-.16.72-.5,1-.5.6,0,2,1.14,2,1.65s-.68.56-1,.89a23.38,23.38,0,0,1-3.66,2.78Z"/><path class="cls-1" d="M53,1.74c.34.46.73,1,1.31,1A35.53,35.53,0,0,0,59.42,2c.39-.11.64-.53.95-.53.63,0,2,1.14,2,1.61s-.68.63-.89.94a28.31,28.31,0,0,1-2.68,3.67c2.77,1,5.4,2.74,5.4,4.44a.84.84,0,0,1-.85.88c-.57,0-.93-.53-1.64-1.46a11.46,11.46,0,0,0-3.34-3.4,19.32,19.32,0,0,1-7.87,5.13l-.22-.35c4-2.08,8.13-6.28,9.59-9.68.09-.23,0-.29-.2-.27a40.51,40.51,0,0,0-4,1c-.54.17-.68.54-1.14.54-.64,0-1.39-.88-1.6-1.43a3.63,3.63,0,0,1-.17-1.15Z"/></g></g></svg>