<svg xmlns="http://www.w3.org/2000/svg" viewBox="0 0 174.88 15.89"><defs><style>.cls-1{fill:#231815;}</style></defs><title>アセット 11</title><g id="レイヤー_2" data-name="レイヤー 2"><g id="レイヤー_1-2" data-name="レイヤー 1"><path class="cls-1" d="M0,5.86l.14-.34A20.59,20.59,0,0,1,2.41,6c1.14.34,2.08,1,2.08,1.87a.71.71,0,0,1-.73.77c-.68,0-1-.7-1.82-1.38A10.81,10.81,0,0,0,0,5.86ZM13.14,4.79l.34.21C11.7,8.45,8,11.71,4.22,13.84c-.46.29-.67.8-1.19.8a3.58,3.58,0,0,1-2.2-1.43,3.3,3.3,0,0,1-.4-1.45l.25-.13c.41.44.95,1.07,1.58,1.07C3.88,12.7,10.18,8.6,13.14,4.79ZM2.21,2.41l.14-.32a16.27,16.27,0,0,1,2.29.49c1.17.43,2,1,2,1.86a.73.73,0,0,1-.7.76c-.66,0-1-.66-1.89-1.44A13.56,13.56,0,0,0,2.21,2.41Z"/><path class="cls-1" d="M17.12,4.08c.42.46.75.9,1.33.9,1.76,0,7.88-.7,9.41-.88.43,0,.68-.46,1.06-.46.68,0,2.22,1.31,2.22,2s-.71.41-1.34.92a59.11,59.11,0,0,1-4.69,3.64,3.84,3.84,0,0,1,1.56,2.73.84.84,0,0,1-.88.9c-.78,0-.75-1.17-2.45-3.13a14.42,14.42,0,0,0-2.62-2.49l.19-.29a12.69,12.69,0,0,1,3.57,1.78,20.36,20.36,0,0,0,3.86-4.21c.13-.24.05-.38-.19-.36a75.49,75.49,0,0,0-8.09,1.22c-.42.1-.82.55-1.24.55-.6,0-1.5-.87-1.75-1.48a3.19,3.19,0,0,1-.22-1.19Z"/><path class="cls-1" d="M39.73,1.44a3.89,3.89,0,0,1,1.1,0c1,.09,2.06.72,2.06,1.11s-.24.44-.51.88c-.15.24-.3.48-.46.71a21,21,0,0,0,3.28-.44c.46-.12.67-.49,1-.49S48,4.08,48,4.67c0,.38-.66.55-.88,1a25.62,25.62,0,0,1-2.52,3.78c1,.69,1.69,1.48,1.72,2.24a.78.78,0,0,1-.78.88c-.63,0-.89-.62-2-1.92a19.92,19.92,0,0,1-7.94,5.09l-.22-.36a23.86,23.86,0,0,0,7.21-5.76,12,12,0,0,0-3.45-2.26A15.26,15.26,0,0,1,35.53,10l-.24-.32c2.6-2.06,5.36-5.95,5.36-7,0-.32-.41-.64-1-.93Zm5.63,3.17a15.64,15.64,0,0,0-2.47.44,3.88,3.88,0,0,1-1,.22A1.35,1.35,0,0,1,41.31,5a22,22,0,0,1-1.77,2,22.18,22.18,0,0,1,3.88,1.63A15.74,15.74,0,0,0,45.54,4.9C45.65,4.67,45.54,4.59,45.36,4.61Zm1-3.35a5.73,5.73,0,0,1,2.06,1,1.36,1.36,0,0,1,.57,1,.48.48,0,0,1-.51.53c-.25,0-.49-.29-.8-.68a8.1,8.1,0,0,0-1.51-1.6Zm1.48-1a6.36,6.36,0,0,1,2,.83,1.29,1.29,0,0,1,.64,1,.48.48,0,0,1-.49.54c-.31,0-.49-.32-.85-.73A8.57,8.57,0,0,0,47.65.48Z"/><path class="cls-1" d="M63.39,4.84c.48,0,.67-.51,1-.51s1.71,1,1.71,1.5-.52.39-.61,1A20.28,20.28,0,0,1,63.78,13a2.77,2.77,0,0,1-2.19,1.62c-.42,0-.58-.19-.71-.67s-.61-1-1.63-1.8l.15-.29a14.15,14.15,0,0,0,2.11.72c.44.08.61.05.85-.24C63.36,11,64,7.21,64,6.12c0-.14-.06-.2-.18-.2a24.63,24.63,0,0,0-3.08.32,13.59,13.59,0,0,1-7.44,9L53,15a15.78,15.78,0,0,0,6-8.47c-.89.15-2,.37-2.45.51s-.75.39-1.12.39S54.23,6.51,54,6A2.44,2.44,0,0,1,54,4.79l.29-.06c.3.49.59,1,1.13,1s2.2-.19,4-.39a15.53,15.53,0,0,0,.42-2.57c0-.34,0-.49-.28-.61a4.8,4.8,0,0,0-1-.38l0-.3a4.68,4.68,0,0,1,1.34-.36c.84,0,2.2.8,2.2,1.29s-.45.48-.62,1.16c-.08.37-.2.93-.35,1.56Z"/><path class="cls-1" d="M71.28,5.47l.29-.13c.43.52.73.88,1.33.88,1,0,5.59-.59,6.83-.8.58-.08.77-.41,1.1-.41.63,0,1.91,1,1.91,1.62,0,.39-.73.63-1,1.21a14.94,14.94,0,0,1-9.09,7.49L72.4,15a16,16,0,0,0,7.79-8.25q.11-.3-.21-.27a55.23,55.23,0,0,0-5.77,1c-.51.13-.8.44-1.18.44-.59,0-1.39-.89-1.56-1.38A3.49,3.49,0,0,1,71.28,5.47ZM80.09,3A28.72,28.72,0,0,1,75,3.65c-1,0-1.49-.56-2.09-1.64l.21-.19a3,3,0,0,0,1.78.58,10.68,10.68,0,0,0,2.87-.46c.94-.22,1.16-.48,1.47-.48,1,0,1.63.31,1.63.87C80.82,2.63,80.63,2.84,80.09,3Z"/><path class="cls-1" d="M91,2.82H86.55l-.1-.49H91V.08l2.18.21c0,.24-.17.41-.6.46V2.33h3.33V.08l2.21.21c0,.24-.17.41-.59.46V2.33h2l1-1.24s1.08.87,1.68,1.46c0,.19-.2.27-.46.27H97.53V4.37c0,.15-.63.41-1.34.42h-.28v-2H92.58V4.45c0,.17-.68.41-1.32.41H91Zm9.33,4.59s1.13.88,1.79,1.5c0,.18-.22.27-.46.27H94.15a29.18,29.18,0,0,1-2.93,4.32l7.06-.38a16.57,16.57,0,0,0-2.37-2.48l.17-.15c6.58,2.09,5.49,6.39,3.54,5.1a7.28,7.28,0,0,0-1.07-2.09C96.2,14,93,14.57,88.45,15.3a.75.75,0,0,1-.49.36l-.88-2c.79,0,2-.05,3.43-.1A31.22,31.22,0,0,0,92,9.18H86.8l-.15-.49h12.7ZM97.82,5.68l1-1.21s1,.83,1.72,1.43c0,.17-.24.25-.48.25H88.49l-.14-.47Z"/><path class="cls-1" d="M110.18,4.91c-.1.19-.26.27-.67.21-.32.52-.73,1.12-1.18,1.71l.76.29c-.07.16-.22.27-.53.31v8a1.71,1.71,0,0,1-1.24.45H107V8.38a14.92,14.92,0,0,1-1.85,1.7L105,9.91a22,22,0,0,0,3.16-6.07Zm-.12-3.7c-.1.17-.26.25-.66.18a15.6,15.6,0,0,1-4.07,3.66l-.17-.19A17,17,0,0,0,108.07.15Zm3.74,3v11c0,.17-.65.54-1.19.54h-.29V6.56a.75.75,0,0,1-.46.17A14.63,14.63,0,0,1,109.53,13l-.27-.16A23.89,23.89,0,0,0,110.47,6l1.85.31V4.23h-2.45l-.13-.49h2.58V.27l2.11.22c-.05.24-.19.41-.63.48V3.74h.9l.73-.83s-.09-.07-.12-.11a4.24,4.24,0,0,0-.83-2l.19-.1a2.71,2.71,0,0,1,1.73,1.16l-.05-.19h2l.9-1.16s1,.8,1.6,1.38c0,.19-.22.27-.46.27H116.5a.68.68,0,0,1-.59.84c.34.25.83.62,1.2.93,0,.19-.22.27-.46.27Zm.68,1.67c3.6,3.67,1.58,6.87.69,5.37A14.21,14.21,0,0,0,114.24,6Zm5-1.57s1,.87,1.66,1.47c0,.17-.22.25-.46.25h-1.24v7.84c0,1.09-.25,1.83-2,2a1.81,1.81,0,0,0-.29-1.08,2.1,2.1,0,0,0-1.31-.52V14s1.46.1,1.77.1.34-.08.34-.3V6.05H116l-.14-.47h2.72Z"/><path class="cls-1" d="M132.52,2.33c-.12.15-.31.2-.68.24a11.27,11.27,0,0,1-7.71,6.85L124,9.18a11.14,11.14,0,0,0,6.12-6.83H128c-.16.18-.31.37-.46.56,2.41.3,1.73,2.16.64,1.61a3.64,3.64,0,0,0-1-1.21,12.68,12.68,0,0,1-1.07,1c2.63.71,1.63,2.67.54,1.9a3.56,3.56,0,0,0-.91-1.6,11,11,0,0,1-1.48.92l-.21-.2A12.72,12.72,0,0,0,127.42,0l2,.82a.62.62,0,0,1-.67.28,8.38,8.38,0,0,1-.46.75h1.74L131,1ZM130,11.86c-.1.17-.25.26-.63.19a12.14,12.14,0,0,1-4.74,3l-.15-.18a12.52,12.52,0,0,0,3.45-4.17Zm6.88-3.29s1,.81,1.67,1.43c0,.18-.2.27-.44.27H132.7V13.9c0,1.14-.3,1.84-2.26,2a1.62,1.62,0,0,0-.36-1.07,2.62,2.62,0,0,0-1.47-.53v-.23s1.71.12,2.09.12.35-.11.35-.29V10.27h-5.71l-.15-.5H136Zm-8.46-1.21h4.64l.88-1.16s1,.8,1.58,1.38c0,.19-.2.27-.45.27h-6.52Zm10.84-5.07c-.13.14-.3.17-.66.21a15.06,15.06,0,0,1-2.84,2.62,13.54,13.54,0,0,0,4.08,2.12l0,.17a1.86,1.86,0,0,0-1.45,1.33c-3.16-1.55-5.25-4.07-6.18-8.25l.27-.15a9.3,9.3,0,0,0,3,4.5,17.15,17.15,0,0,0,1.38-2.65h-2.89l-.15-.49h3l.92-.9ZM134,11.17c5.73,1,5.08,4.57,3.28,3.72a11.94,11.94,0,0,0-3.42-3.57Z"/><path class="cls-1" d="M151.55,3.62a3.92,3.92,0,0,1,1.43.27,2.28,2.28,0,0,1,1.23,1.55c0,.37-.36.54-1.13.81a26.44,26.44,0,0,0-4.43,2c-1.45.85-3,2.15-3,3.54,0,1,1,1.65,3.28,1.65a21,21,0,0,0,4.09-.49c.85,0,1.58.18,1.58.88,0,.31-.3.61-.71.76a16,16,0,0,1-4.35.45c-3,0-4.93-1-4.93-2.91s1.85-3.6,3.08-4.52a2.76,2.76,0,0,1-1-1.28,16.69,16.69,0,0,1-.74-3.5.85.85,0,0,0-.51-.71,5.58,5.58,0,0,0-1-.34l0-.31a4.08,4.08,0,0,1,1.27-.27c1,0,2,.7,2,1.19,0,.32-.12.61-.11,1a8.68,8.68,0,0,0,.33,2.33,2.25,2.25,0,0,0,.86,1.15c1.23-.75,2.74-1.55,3.23-1.83.23-.14.28-.28.19-.5a2,2,0,0,0-.76-.73Z"/><path class="cls-1" d="M164.44,8.31c-.32.9-1,2.67-1.15,3.28a5.82,5.82,0,0,0-.24,1.26c0,.56.29,1.12.29,1.6a.67.67,0,0,1-.7.76,1.35,1.35,0,0,1-1-.71,7.49,7.49,0,0,1-1-4.13,19.09,19.09,0,0,1,.78-4.66,8.42,8.42,0,0,0,.41-2.14,3.16,3.16,0,0,0-.92-2l.21-.18a2.81,2.81,0,0,1,1.13.53A3.07,3.07,0,0,1,163.54,4c0,.42-.25.75-.66,1.63a10.79,10.79,0,0,0-1.23,4.52,3.31,3.31,0,0,0,.24,1.43c.1.22.27.25.43,0,.39-.6,1.31-2.62,1.73-3.48Zm6.82-1.73a41.16,41.16,0,0,0,.24,4.13,6.51,6.51,0,0,1,2.82,1.56,1.55,1.55,0,0,1,.56,1.06c0,.47-.24.74-.63.74s-.56-.23-1-.68a7.7,7.7,0,0,0-1.62-1.2v.27c0,1.48-.93,2.36-3.12,2.36-1.53,0-2.82-.76-2.82-2.12,0-1.58,1.61-2.28,3.53-2.28.34,0,.66,0,1,.05,0-1.12-.14-2.63-.15-3.91V6.41a15.29,15.29,0,0,1-1.75.12c-1.08,0-1.87-.19-2.74-1.82l.22-.21a3.87,3.87,0,0,0,2.33.82A11.39,11.39,0,0,0,170,5.15V3.2c0-.58-.11-.65-.39-.75a4.74,4.74,0,0,0-1.21-.22l0-.31a3.26,3.26,0,0,1,1.42-.51c1,0,1.95.53,1.95,1s-.17.51-.27,1.19a7.75,7.75,0,0,0-.15,1.24l.42-.15c1-.34,1.36-.58,1.5-.58.49,0,1.12.25,1.12.7s-.26.59-1,.86a13.86,13.86,0,0,1-2.16.56Zm-1,5.05a6.29,6.29,0,0,0-1.78-.22c-1,0-2,.42-2,1.17s.75,1,1.65,1c1.77,0,2.16-.62,2.16-1.88Z"/></g></g></svg>