<svg xmlns="http://www.w3.org/2000/svg" viewBox="0 0 71.26 15.86"><defs><style>.cls-1{fill:#231815;}</style></defs><title>アセット 12</title><g id="レイヤー_2" data-name="レイヤー 2"><g id="レイヤー_1-2" data-name="レイヤー 1"><path class="cls-1" d="M1.56,5.9v9.33c0,.2-.56.6-1.29.6H0V.53l1.65.73H4.33L5.05.48,6.61,1.65A1.12,1.12,0,0,1,6,2V6.19a2,2,0,0,1-1.25.47H4.49V5.9Zm0-4.15V3.31H4.49V1.75ZM4.49,5.41V3.79H1.56V5.41ZM9.23,11v3.68A1.55,1.55,0,0,1,8.07,15H7.82V11H6A5,5,0,0,1,2.7,15.2L2.53,15a5.31,5.31,0,0,0,2.08-4H2.5l-.14-.47H4.62a5.62,5.62,0,0,0,0-.58V8.11H2.87l-.13-.49H9.09l.82-1.06s.92.73,1.48,1.28c0,.18-.21.27-.44.27H9.23v2.43H9.5l.78-1s.89.73,1.43,1.25c-.05.19-.22.27-.46.27Zm-1.41-.47V8.11H6V10c0,.19,0,.37,0,.58Zm6.85-8.87A1.38,1.38,0,0,1,14,2V13.84c0,1.15-.23,1.8-2,2a2.2,2.2,0,0,0-.29-1.13,1.88,1.88,0,0,0-1.19-.56V13.9S11.76,14,12,14s.35-.1.35-.32V5.9H9.33v.18c0,.14-.66.48-1.29.48H7.82v-6l1.58.67h2.8L13,.36Zm-5.34.08V3.31h3.05V1.75Zm3.05,3.66V3.79H9.33V5.41Z"/><path class="cls-1" d="M21.88,5c-.05.17-.21.28-.53.33V15.35a1.86,1.86,0,0,1-1.27.48h-.29v-9a15.37,15.37,0,0,1-1.91,2.14l-.22-.15A31.61,31.61,0,0,0,21.1.05l2.34.71c-.07.21-.27.34-.64.33a26.51,26.51,0,0,1-1.65,3.6Zm10.37,8.11s1,.83,1.7,1.43c0,.19-.22.27-.46.27H25.33v.53c0,.12-.49.47-1.31.47h-.27V8.33a12.93,12.93,0,0,1-2,1.73l-.19-.17a16.48,16.48,0,0,0,2.93-5.15,3.27,3.27,0,0,1-.7.09h-.27V.76L25.7,1c-.05.24-.18.39-.64.46V3.47h2.26V.17l2.14.2c0,.21-.15.36-.54.43V3.47h2.31V.75l2.21.18c0,.24-.19.4-.63.46V4.2c0,.13-.68.39-1.31.39h-.27V3.94H25.06v.51l1.77.43c-.07.19-.21.27-.65.24a15.63,15.63,0,0,1-1,1.53l.39.15h2.16c.19-.65.42-1.62.54-2.3L30.48,5c-.07.28-.29.39-.66.39-.39.43-1,1-1.45,1.45H31l.9-1.16S33,6.43,33.59,7c0,.19-.22.27-.44.27H29.29v2h1.58l.87-1.1a19.31,19.31,0,0,1,1.54,1.33c0,.18-.2.27-.42.27H29.29v2h1.56l.85-1.11s1,.77,1.58,1.33a.41.41,0,0,1-.44.27H29.29v2h2ZM25.33,7.29v2h2.38v-2Zm2.38,2.47H25.33v2h2.38Zm-2.38,4.52h2.38v-2H25.33Z"/><path class="cls-1" d="M50.2,8.09a12,12,0,0,1-.36,1.16l.95.1c0,.22-.18.37-.5.42V14c0,.19,0,.24.22.24h.68c.1,0,.15,0,.22-.17a19.47,19.47,0,0,0,.49-1.92h.2l0,2a.6.6,0,0,1,.43.63c0,.54-.53.88-1.87.88h-.66c-1,0-1.18-.34-1.18-1.24v-3A11.62,11.62,0,0,1,44,15.86l-.19-.19a13,13,0,0,0,4.95-7.58H46.1v.39c0,.12-.68.43-1.14.43h-.23V8.06H43.32v4.09c.59-.18,1.22-.4,1.87-.63a11.75,11.75,0,0,0-1-2.2l.21-.11c3.72,2,2.29,4.76,1,3.56A5.08,5.08,0,0,0,45.3,12c-.79.58-1.87,1.34-3.21,2.23a.64.64,0,0,1-.37.44l-.89-1.72L42,12.58V9.42a.64.64,0,0,1-1,0A5.71,5.71,0,0,0,40.14,7v8.26c0,.19-.6.53-1.14.53h-.29v-7a14.21,14.21,0,0,1-1.92,3.06l-.26-.22a22.33,22.33,0,0,0,2-7H36.72l-.14-.49h2.13V.07l2.06.22c-.06.25-.19.41-.63.47V4.15h.15L41.05,3s.5.45.94.91V.65l1.55.63h1.05l.68-.7,1.09.81,0-.06h3.54L50.76.19s1,.8,1.6,1.36c0,.18-.22.27-.46.27H51a32.5,32.5,0,0,1-.68,5.78h.34l.78-1.24s.87.88,1.34,1.46c-.05.19-.22.27-.44.27ZM40.14,6.61A3.93,3.93,0,0,1,42,8.14V4.64H40.14Zm3.18-4.84v2.6h1.41V1.77Zm1.41,5.79V4.86H43.32v2.7Zm1.37,0h1V1.82h-.59l0,0a1.28,1.28,0,0,1-.36.11Zm2.79,0a31.55,31.55,0,0,0,.6-5.78H48.3V7.6Z"/><path class="cls-1" d="M69.48,8s1.1.82,1.78,1.41c-.05.19-.22.27-.46.27H67.44a8.06,8.06,0,0,1-1.79,2.94c6.31,1.47,4.47,3.88,2.86,2.91a18.57,18.57,0,0,0-4-2c-1.89,1.27-4.66,1.92-8.92,2.23l0-.28c3.35-.52,5.79-1.24,7.49-2.46-.9-.29-1.88-.56-2.94-.82-.29.38-.54.72-.78,1a2.61,2.61,0,0,1-1.68-.38c.64-.74,1.56-2,2.38-3.16H55.61l-.16-.49h4.92a24.59,24.59,0,0,0,1.34-2.16l2.18.49c-.07.24-.28.4-.72.38-.2.32-.51.78-.87,1.29h6.21ZM55.76,1.58l-.14-.49H68.39l1-1.09s1.07.76,1.75,1.31c0,.19-.22.27-.48.27H65.84V3.37h1.85l.78-.87,1.7,1.27a1.33,1.33,0,0,1-.71.36V7.46a2.44,2.44,0,0,1-1.33.41h-.27V7.05H58.8V7.6a1.87,1.87,0,0,1-1.34.49h-.22V2.67l1.7.7h1.82V1.58Zm3,5h2V3.84h-2ZM62,9.72c-.49.72-1.05,1.48-1.58,2.18,1.36.12,2.55.25,3.57.42a6.56,6.56,0,0,0,1.6-2.6Zm.34-8.14V3.37h2V1.58Zm0,5h2V3.84h-2Zm3.54-2.72V6.56h2V3.84Z"/></g></g></svg>