<svg xmlns="http://www.w3.org/2000/svg" viewBox="0 0 137.99 15.89"><defs><style>.cls-1{fill:#231815;}</style></defs><title>アセット 1</title><g id="レイヤー_2" data-name="レイヤー 2"><g id="レイヤー_1-2" data-name="レイヤー 1"><path class="cls-1" d="M8,1.17a3.94,3.94,0,0,1,1.35.14C10.13,1.56,11,2.43,11,3s-.35.42-.83.92S8.74,5.42,7.7,6.41c.53.36.94.68.94,1s-.14.54-.17,1c-.09,2.36,0,4.88,0,5.81,0,.68-.26,1-.77,1-.74,0-1.1-.85-1.1-1.58,0-.32.12-.68.19-1.24A37,37,0,0,0,7,7.89a1.37,1.37,0,0,0-.17-.7A22.76,22.76,0,0,1,.2,11.13L0,10.78A27.77,27.77,0,0,0,8.42,3.33a2.28,2.28,0,0,0,.45-1c0-.3-.39-.59-1-.9Z"/><path class="cls-1" d="M15.74,8.48,16,8.3a2,2,0,0,0,1,.52,1.52,1.52,0,0,0,.9-.49c.82-.73,2.28-2.4,2.83-3A1.72,1.72,0,0,1,22,4.69a2.2,2.2,0,0,1,1.53.73,56.07,56.07,0,0,0,6.59,5.73,1.9,1.9,0,0,1,.87,1.55.67.67,0,0,1-.7.76c-.56,0-1.41-.68-2.65-1.94-1.05-1.07-3.74-4-4.84-5.11C22.42,6.09,22.2,6,22,6s-.36.1-.61.42C20.84,7,19.6,8.82,19,9.62c-.39.55-.65,1-1.21,1a2.56,2.56,0,0,1-1.73-1A2.15,2.15,0,0,1,15.74,8.48ZM27.18,5.75a8.25,8.25,0,0,0-1.7-1.84l.19-.26A5.83,5.83,0,0,1,28,4.86,1.45,1.45,0,0,1,28.58,6a.53.53,0,0,1-.56.54C27.73,6.49,27.51,6.2,27.18,5.75Zm1.7-1.55A7,7,0,0,0,27.1,2.48l.2-.25a5.76,5.76,0,0,1,2.26,1,1.58,1.58,0,0,1,.72,1.17.51.51,0,0,1-.53.54C29.44,5,29.24,4.67,28.88,4.2Z"/><path class="cls-1" d="M48.43,4.27l.34.22a24.3,24.3,0,0,1-8.94,9c-.46.28-.66.78-1.11.78a3.45,3.45,0,0,1-2.31-1.53,3.64,3.64,0,0,1-.35-1.36l.25-.15c.44.47,1,1.07,1.62,1.07C39.52,12.26,46,7.68,48.43,4.27ZM36.33,2.62c2.16.39,4.76,1.44,4.76,3a.88.88,0,0,1-.89.92c-.44,0-.73-.25-1.17-.83a11.22,11.22,0,0,0-2.89-2.79Z"/><path class="cls-1" d="M53.5,1.6a4.26,4.26,0,0,1,1.34-.36c.8,0,2.16.75,2.16,1.24s-.34.56-.42,1.16-.12,1.77-.16,2.75a12.67,12.67,0,0,1,4.24,1.34,1.88,1.88,0,0,1,1.12,1.6.79.79,0,0,1-.8.85c-.85,0-1-.78-2.18-1.8A10.47,10.47,0,0,0,56.42,7c0,1.5,0,4,0,5.58,0,.83.05,1.37.05,1.63,0,.69-.19,1-.73,1-.73,0-1.14-.93-1.14-1.9,0-.41.15-.77.22-1.48C55,10.57,55,8.07,55,6.94a41.21,41.21,0,0,0-.15-4.2c-.08-.56-.54-.72-1.32-.84Z"/><path class="cls-1" d="M67.32,3.16a4.94,4.94,0,0,1-.12,4c-.32.46-1,.63-1.27.24a.84.84,0,0,1,.25-1.09A5.11,5.11,0,0,0,67,3.15ZM70.45.32c0,.24-.19.41-.63.48V15.4c0,.17-.65.48-1.21.48h-.3V.08Zm-.31,2.4c2.87,1.46,1.55,3.62.53,2.63a5.6,5.6,0,0,0-.73-2.55Zm10.2,2s1,.8,1.63,1.36c0,.19-.22.27-.46.27H71.16L71,5.92h4.43V4.37H72.32l-.14-.49h3.28V2.48H71.59L71.47,2h4V.17l2.13.2c0,.23-.16.38-.55.45V2h2.13L80.09.85s1,.78,1.63,1.36c0,.19-.22.27-.46.27H77v1.4h1.77l.83-1.08s1,.75,1.57,1.3a.4.4,0,0,1-.44.27H77V5.92h2.4Zm-1.07,2L81,8.06a1.3,1.3,0,0,1-.71.34v5.5c0,1.13-.24,1.79-2,2a2,2,0,0,0-.32-1.12,1.79,1.79,0,0,0-1.21-.55v-.25s1.36.1,1.67.1.32-.1.32-.32v-1.6H74.07v3.2c0,.17-.65.52-1.31.52H72.5V6.92l1.67.71h4.37Zm-5.2,1.36V9.59h4.64V8.13Zm4.64,3.5V10.08H74.07v1.55Z"/><path class="cls-1" d="M91.31,3.86s1,.85,1.61,1.44a.41.41,0,0,1-.44.28h-2.6l2,.59c-.07.2-.27.34-.63.32a19.42,19.42,0,0,1-1.65,2.15h.87l.86-1.13s1,.8,1.57,1.35a.41.41,0,0,1-.44.27h-3.1v2.36h1l.87-1.19s1,.83,1.56,1.41c0,.19-.2.27-.44.27H89.35v3.49c0,.1-.47.41-1.27.41h-.26V12H85.09L85,11.49h2.87V9.13h-3l-.14-.49h4.47c.24-.91.49-2.16.65-3.06h-5l-.14-.5h3.11V2.94H85.27l-.13-.49h2.68V.07l2.09.2c0,.21-.17.36-.56.43V2.45h.83L91,1.31s1,.8,1.53,1.36c0,.19-.22.27-.46.27H89.35V5.08h1.06Zm-5.2,1.85c3.16,1.41,1.59,3.76.42,2.62a6.42,6.42,0,0,0-.61-2.55Zm14.46,1.84c-.12.15-.27.22-.65.25a14.16,14.16,0,0,1-1.73,4.63,9.84,9.84,0,0,0,2.7,1.9l0,.17a1.86,1.86,0,0,0-1.46,1.29,8.94,8.94,0,0,1-2.08-2.17,10.42,10.42,0,0,1-2.66,2.26l-.17-.22a10,10,0,0,0,2.27-3A15.63,15.63,0,0,1,95.32,7.6h-.77v7.68c0,.21-.56.58-1.27.58H93V.56l1.62.7H98l.72-.82,1.7,1.24a1.15,1.15,0,0,1-.7.34V4.3c0,1-.25,1.67-2.18,1.82a1.52,1.52,0,0,0-.35-1,2.8,2.8,0,0,0-1.46-.53V4.35s1.66.12,2.07.12.37-.1.37-.32V1.75H94.55V7.11h3.66l.87-.87Zm-4.93,0a10.5,10.5,0,0,0,1.7,3.81,17.19,17.19,0,0,0,1-3.81Z"/><path class="cls-1" d="M115.84,7.19l1.25-1.72s1.43,1.19,2.3,2c0,.2-.26.27-.53.27h-15l-.17-.56Z"/><path class="cls-1" d="M137.46,14.13c.43.13.53.32.53.59,0,.63-.56.88-3.35.88h-1.89c-1.51,0-1.77-.25-1.77-1.24V12.43h-1.31c-.74,2.38-3.17,3.19-6.83,3.46l0-.27c3-.53,4.59-1.38,5.12-3.19H127v.3c0,.14-.68.48-1.33.48h-.24V6.39l1.69.7h6.47l.77-.82L136,7.48a1.22,1.22,0,0,1-.64.32v4.86a2.2,2.2,0,0,1-1.29.45h-.28v-.68h-1.32v1.63c0,.18,0,.24.61.24h1.72c.66,0,1.26,0,1.49,0s.29,0,.39-.21a12.1,12.1,0,0,0,.58-1.68h.21ZM124.88,6.82a1.53,1.53,0,0,1-1.26.44h-.25v-7L125.1,1h3.49l.78-1s.88.68,1.41,1.17c0,.19-.2.27-.44.27H127.5v1h.9l.68-.7,1.45,1.07a1,1,0,0,1-.55.27v1.5a2.25,2.25,0,0,1-1.19.39h-.24V4.59H127.5V5.76h1.36l.8-1s.87.66,1.44,1.16a.41.41,0,0,1-.44.27h-5.78Zm0-5.38v1h1.31v-1Zm0,1.5V4.1h3.67V2.94Zm1.31,1.65h-1.31V5.76h1.31Zm.82,3V8.75h6.74V7.58Zm6.74,1.67H127v1.1h6.74ZM127,11.93h6.74v-1.1H127Zm3.36-7.1A12.32,12.32,0,0,0,132.31.08l2.24.7c-.06.21-.27.36-.64.34A10,10,0,0,1,133,2.63h2.35l.86-1.15s1,.81,1.58,1.38a.41.41,0,0,1-.44.27h-4.71A7.84,7.84,0,0,1,130.58,5ZM136,4.1s1,.78,1.56,1.34c0,.19-.2.27-.44.27h-5.45l-.14-.49h3.62Z"/></g></g></svg>