<svg xmlns="http://www.w3.org/2000/svg" viewBox="0 0 104.4 15.89"><defs><style>.cls-1{fill:#231815;}</style></defs><title>アセット 2</title><g id="レイヤー_2" data-name="レイヤー 2"><g id="レイヤー_1-2" data-name="レイヤー 1"><path class="cls-1" d="M5.63,9a10.17,10.17,0,0,1,4.48-1.17c2.13,0,3.62,1.24,3.62,3.31a3.35,3.35,0,0,1-3.63,3.3,3.67,3.67,0,0,1-3.23-2.07l.24-.24a3.81,3.81,0,0,0,2.63,1,2.31,2.31,0,0,0,2.5-2.38c0-1.21-.73-2.24-2.53-2.24A8.68,8.68,0,0,0,5.64,10C5.73,12.38,6,13,6,13.6c0,.81-.58,1.77-1.19,1.77s-.53-.63-1-1.14A13.86,13.86,0,0,0,2,12.92c-.49.51-.68.76-1,.76a1,1,0,0,1-.68-.34A1.36,1.36,0,0,1,0,12.39c0-.54.12-.68.56-.66a1.44,1.44,0,0,0,1-.22c.57-.31,1.86-1.31,3-2v-3a8.22,8.22,0,0,1-1.82.29c-.95,0-1.77-.3-2.35-2l.26-.19c.83.8,1.17,1,2,1a9,9,0,0,0,1.92-.35c0-1.13,0-2.15,0-2.57s-.1-.53-.37-.63A3.74,3.74,0,0,0,3,1.87l0-.29a2.4,2.4,0,0,1,1.41-.46c.78,0,2,.58,2,1S6.14,2.87,6,3.42c-.07.32-.14.81-.21,1.41,1.09-.44,1.57-.89,1.86-.9s1.1,0,1.13.64c0,.31-.22.56-.61.77a23.2,23.2,0,0,1-2.5.92c0,.71-.06,1.46-.06,2.12Zm-1,1.65A21.92,21.92,0,0,0,2.4,12.58c.59.27,1.25.58,1.71.73s.48,0,.48-.34ZM9.79,3.4a5.21,5.21,0,0,1,2.36-.2,3.09,3.09,0,0,1,2.76,2.56c0,.46-.21.85-.7.87s-.68-.46-1.17-.39a8.28,8.28,0,0,0-1.41.42l-.16-.25a12.37,12.37,0,0,0,1.31-.94.45.45,0,0,0,.07-.66,3.45,3.45,0,0,0-3-1Z"/><path class="cls-1" d="M20,1.9V1.6a3.62,3.62,0,0,1,1.24-.24c1,0,2.43,1.12,2.43,1.73,0,.43-.41.62-.58,1.45a35.79,35.79,0,0,0-.66,6.25c0,2,.58,2.79,2.53,2.79a8.55,8.55,0,0,0,6.5-3.48l.33.22a7.67,7.67,0,0,1-7,4.88c-2.34,0-3.67-1.18-3.67-4.25,0-2.52.37-6.19.37-7.35,0-.73-.08-1-.39-1.22A3.59,3.59,0,0,0,20,1.9Z"/><path class="cls-1" d="M38.45,1.48l.09-.31a6.07,6.07,0,0,1,3.28.73,2.26,2.26,0,0,1,1.27,2c0,.46-.2.72-.67.72s-.8-.16-1.57-.19a13.45,13.45,0,0,0-2.43.25c-.29.06-.37.19-.37.34s.23.67.25,1.09a5.64,5.64,0,0,1-.19,1.43,11.32,11.32,0,0,0-.32,2.14c0,.19.09.21.22.12A10.1,10.1,0,0,1,43.67,7.5c2.64,0,3.95,1.76,3.95,3.55,0,3.19-4.75,4.5-8.86,4.18l0-.39a16.7,16.7,0,0,0,3.35-.65c3-1,3.89-2.33,3.89-3.65a2.32,2.32,0,0,0-2.43-2.38c-1.9,0-3.93,1.82-5.05,3.18-.36.46-.56,1.07-1,1.07a1,1,0,0,1-.79-.48,1.43,1.43,0,0,1-.41-.95c0-.31.12-.68.2-1.24.12-.88.41-2.48.51-3.3A7.14,7.14,0,0,0,37,5.1a.86.86,0,0,1,.75-.95,23.38,23.38,0,0,0,3-.85c.22-.1.24-.26,0-.5A4.54,4.54,0,0,0,38.45,1.48Z"/><path class="cls-1" d="M59.86,1.6a2.74,2.74,0,0,1,1.24-.44c1,0,2.09.8,2.09,1.32,0,.31-.34.49-.39,1.11,0,.44-.09,1-.12,1.65A16.71,16.71,0,0,1,65,4.81c.8,0,1.67.36,1.67,1.07,0,.46-.33.6-.91.6a17,17,0,0,0-2.68-.07l-.49,0a20.15,20.15,0,0,1-.36,3.4,1.56,1.56,0,0,1-1.46,1.39.68.68,0,0,1-.72-.52,3.59,3.59,0,0,0-1.7-1.3l.11-.3a11.35,11.35,0,0,0,2,.42c.31,0,.49-.05.61-.49a14.94,14.94,0,0,0,.24-2.41,42.78,42.78,0,0,0-4.52,1c-.07,1.46-.12,3.06-.08,3.81,0,1.6.35,1.87,2.39,1.87a24.28,24.28,0,0,0,4-.5c.66,0,1.31.28,1.31.85,0,.4-.27.63-.9.79a19.29,19.29,0,0,1-3.76.27c-2.7,0-4.2-.49-4.28-2.62,0-.95,0-2.46,0-4a18,18,0,0,1-3,1.1c-.53,0-1.19-.62-1.48-1.29A2.54,2.54,0,0,1,51,6.9l.24-.1a1.59,1.59,0,0,0,1.14.83c.37,0,2-.41,3.16-.69,0-1.08,0-2.06-.09-2.64s-.13-.61-.39-.73a3.42,3.42,0,0,0-1-.22L54,3a3.64,3.64,0,0,1,1.34-.39c.87,0,2,.78,2,1.31,0,.34-.3.44-.39,1.11,0,.32-.08.86-.12,1.51,1.24-.31,3.13-.75,4.53-1.06,0-1,0-2.24,0-2.94,0-.29-.17-.44-.49-.52a6.22,6.22,0,0,0-1-.17Z"/><path class="cls-1" d="M82.25,7.19,83.5,5.47s1.43,1.19,2.3,2c0,.2-.26.27-.53.27h-15l-.17-.56Z"/><path class="cls-1" d="M103.87,14.13c.42.13.53.32.53.59,0,.63-.57.88-3.35.88H99.16c-1.51,0-1.77-.25-1.77-1.24V12.43H96.08c-.75,2.38-3.18,3.19-6.83,3.46l0-.27c3-.53,4.59-1.38,5.12-3.19h-.9v.3c0,.14-.69.48-1.33.48h-.24V6.39l1.68.7H100l.76-.82,1.6,1.21a1.26,1.26,0,0,1-.64.32v4.86a2.21,2.21,0,0,1-1.3.45h-.27v-.68H98.84v1.63c0,.18,0,.24.61.24h1.72c.66,0,1.25,0,1.49,0s.29,0,.39-.21a12.1,12.1,0,0,0,.58-1.68h.2ZM91.29,6.82A1.53,1.53,0,0,1,90,7.26h-.25v-7L91.51,1H95l.78-1s.88.68,1.41,1.17c0,.19-.21.27-.44.27H93.91v1h.9l.68-.7,1.44,1.07a1,1,0,0,1-.54.27v1.5A2.25,2.25,0,0,1,95.2,5H95V4.59h-1V5.76h1.36l.8-1s.86.66,1.44,1.16a.41.41,0,0,1-.44.27H91.29Zm0-5.38v1H92.6v-1Zm0,1.5V4.1H95V2.94ZM92.6,4.59H91.29V5.76H92.6Zm.82,3V8.75h6.74V7.58Zm6.74,1.67H93.42v1.1h6.74Zm-6.74,2.68h6.74v-1.1H93.42Zm3.36-7.1A12.48,12.48,0,0,0,98.72.08l2.24.7c-.07.21-.27.36-.64.34a10,10,0,0,1-.87,1.51h2.34l.87-1.15s1,.81,1.58,1.38a.41.41,0,0,1-.44.27H99.09A7.73,7.73,0,0,1,97,5Zm5.61-.73s1,.78,1.56,1.34c0,.19-.2.27-.44.27H98.05l-.13-.49h3.62Z"/></g></g></svg>