<svg xmlns="http://www.w3.org/2000/svg" viewBox="0 0 22.52 22.38"><defs><style>.cls-1{fill:#fff;}</style></defs><title>アセット 4</title><g id="レイヤー_2" data-name="レイヤー 2"><g id="レイヤー_1-2" data-name="レイヤー 1"><path class="cls-1" d="M10.81,0h.92l.13,0c.47.06.94.08,1.4.17a10.91,10.91,0,0,1,6.27,3.44,11,11,0,0,1,2.94,6.66c0,.15,0,.29.05.43V11.8l0,.13c0,.28,0,.56-.07.83a10.88,10.88,0,0,1-1.15,3.65,11.17,11.17,0,0,1-7.22,5.75c-.33.09-.67.15-1,.22V14.51h2.51c.06,0,.11,0,.12-.08s.06-.41.09-.61c.1-.63.19-1.25.29-1.88,0-.22.07-.45.1-.69H13c0-.12,0-.22,0-.32,0-.71,0-1.41,0-2.11a1.37,1.37,0,0,1,.78-1.21,2,2,0,0,1,.92-.22h1.51V4.62l-.29,0-1.47-.15a6.52,6.52,0,0,0-2,.11,3.62,3.62,0,0,0-2.67,2.2,5.3,5.3,0,0,0-.37,2v2.55H6.65v3.26H9.49v7.85H9.44a10.55,10.55,0,0,1-3.23-1.05A11.12,11.12,0,0,1,1.08,16,10.9,10.9,0,0,1,0,11.73a1.79,1.79,0,0,0,0-.23V11a.19.19,0,0,0,0-.07,10.2,10.2,0,0,1,.23-2A11.14,11.14,0,0,1,4.32,2.4a11.06,11.06,0,0,1,6-2.36Z"/></g></g></svg>