<svg xmlns="http://www.w3.org/2000/svg" viewBox="0 0 21.89 21.89"><defs><style>.cls-1{fill:#fff;}</style></defs><title>アセット 5</title><g id="レイヤー_2" data-name="レイヤー 2"><g id="レイヤー_1-2" data-name="レイヤー 1"><path class="cls-1" d="M11,2c2.92,0,3.26,0,4.42.07a5.82,5.82,0,0,1,2,.37,3.44,3.44,0,0,1,1.26.82,3.44,3.44,0,0,1,.82,1.26,6.12,6.12,0,0,1,.38,2c.05,1.16.06,1.5.06,4.43s0,3.26-.06,4.42a6,6,0,0,1-.38,2,3.63,3.63,0,0,1-2.08,2.08,6,6,0,0,1-2,.38c-1.16.05-1.5.06-4.42.06s-3.27,0-4.43-.06a6.12,6.12,0,0,1-2-.38,3.44,3.44,0,0,1-1.26-.82,3.44,3.44,0,0,1-.82-1.26,5.82,5.82,0,0,1-.37-2C2,14.21,2,13.87,2,11S2,7.68,2,6.52a5.93,5.93,0,0,1,.37-2,3.44,3.44,0,0,1,.82-1.26,3.44,3.44,0,0,1,1.26-.82,5.93,5.93,0,0,1,2-.37C7.68,2,8,2,11,2m0-2C8,0,7.6,0,6.43.07a7.94,7.94,0,0,0-2.65.5A5.39,5.39,0,0,0,1.84,1.84,5.39,5.39,0,0,0,.57,3.78a7.94,7.94,0,0,0-.5,2.65C0,7.6,0,8,0,11s0,3.34.07,4.51a8.06,8.06,0,0,0,.5,2.66,5.27,5.27,0,0,0,1.27,1.93,5.39,5.39,0,0,0,1.94,1.27,8.17,8.17,0,0,0,2.65.51c1.17.05,1.54.06,4.52.06s3.34,0,4.51-.06a8.3,8.3,0,0,0,2.66-.51,5.72,5.72,0,0,0,3.2-3.2,8.3,8.3,0,0,0,.51-2.66c.05-1.17.06-1.54.06-4.51s0-3.35-.06-4.52a8.17,8.17,0,0,0-.51-2.65,5.39,5.39,0,0,0-1.27-1.94A5.27,5.27,0,0,0,18.12.57a8.06,8.06,0,0,0-2.66-.5C14.29,0,13.92,0,11,0Z"/><path class="cls-1" d="M11,5.33A5.62,5.62,0,1,0,16.57,11,5.61,5.61,0,0,0,11,5.33Zm0,9.26A3.65,3.65,0,1,1,14.59,11,3.64,3.64,0,0,1,11,14.59Z"/><circle class="cls-1" cx="16.79" cy="5.1" r="1.31"/></g></g></svg>