<svg xmlns="http://www.w3.org/2000/svg" viewBox="0 0 136.7 181.04"><defs><style>.cls-1,.cls-2{fill:#fff;}.cls-1{fill-rule:evenodd;}</style></defs><title>アセット 1</title><g id="レイヤー_2" data-name="レイヤー 2"><g id="レイヤー_1-2" data-name="レイヤー 1"><path class="cls-1" d="M101.65,58.2h0v-.05h0Z"/><polygon class="cls-2" points="10.75 72.33 11.06 72.38 11.46 72.43 11.8 72.36 12.2 72.43 12.87 72.21 13.45 72.26 14.01 72.04 14.5 71.87 14.94 71.81 15.23 71.68 15.55 71.6 15.83 71.41 16.29 71.27 16.59 71.14 17.02 70.87 17.32 70.61 17.32 70.32 17.21 70.05 16.96 69.95 16.55 70.01 16.26 70.11 15.92 70.11 15.61 70.19 15.2 70.36 14.76 70.38 14.29 70.47 13.94 70.4 13.39 70.59 12.83 70.59 12.26 70.68 11.81 70.65 11.44 70.84 11.06 70.65 10.7 70.84 10.61 71.11 10.69 71.48 10.57 71.75 10.62 72.11 10.75 72.33"/><polygon class="cls-2" points="81.22 69.21 80.92 68.92 80.52 68.86 80.25 68.55 79.89 68.4 79.48 68.36 79.13 68.17 78.85 67.88 78.51 67.7 78.1 67.63 77.85 67.3 77.5 67.12 77.13 66.99 76.83 66.74 76.56 66.44 76.23 66.23 75.84 66.14 75.53 65.91 75.22 65.66 74.82 65.6 74.5 65.37 74.1 65.32 73.81 65.02 73.39 65.05 73.04 64.89 72.68 64.76 72.34 64.5 71.96 64.42 71.57 64.39 71.18 64.41 70.79 64.4 70.41 64.31 70.03 64.28 69.64 64.18 69.25 64.31 68.86 64.19 68.47 64.24 68.08 64.22 67.7 64.41 67.32 64.42 66.91 64.35 66.56 64.57 66.16 64.56 65.8 64.73 65.4 64.76 65.04 64.91 64.67 65.01 64.3 65.15 63.99 65.4 63.66 65.61 63.34 65.82 62.97 65.95 62.61 66.1 62.31 66.35 61.93 66.47 61.67 66.79 61.33 66.96 60.97 67.11 60.67 67.35 60.3 67.5 60.03 67.79 59.72 68.03 59.32 68.11 59.02 68.37 58.65 68.51 58.24 68.55 57.94 68.8 57.57 68.93 57.21 69.06 56.91 69.35 56.52 69.44 56.16 69.57 55.78 69.65 55.45 69.87 55.07 69.96 54.68 70.02 54.28 70.03 53.94 70.25 53.55 70.29 53.2 70.48 52.81 70.49 52.43 70.58 52.04 70.56 51.66 70.66 51.26 70.58 50.88 70.66 50.5 70.78 50.11 70.65 49.78 70.71 49.33 70.68 48.95 70.58 48.56 70.58 48.17 70.61 47.79 70.57 47.41 70.45 47.01 70.59 46.65 70.34 46.24 70.43 45.9 70.21 45.51 70.17 45.14 70.05 44.77 69.94 44.36 69.99 44.03 69.73 43.64 69.7 43.29 69.53 42.93 69.39 42.55 69.31 42.23 69.07 41.9 68.86 41.5 68.81 41.19 68.57 40.78 68.53 40.46 68.29 40.1 68.16 39.81 67.87 39.42 67.78 39.13 67.5 38.77 67.35 38.44 67.15 38.16 66.86 37.83 66.66 37.47 66.51 37.18 66.24 36.85 66.04 36.52 65.84 36.19 65.64 35.75 65.64 35.45 65.37 35.09 65.25 34.71 65.15 34.37 64.97 34.03 64.78 33.65 64.68 33.28 64.55 32.89 64.53 32.49 64.56 32.14 64.37 31.76 64.25 31.36 64.31 30.97 64.35 30.59 64.18 30.2 64.31 29.81 64.33 29.43 64.38 29.03 64.21 28.64 64.26 28.27 64.45 27.88 64.44 27.5 64.5 27.14 64.67 26.75 64.73 26.4 64.88 26.05 65.05 25.66 65.1 25.33 65.33 24.94 65.39 24.62 65.63 24.24 65.73 23.94 65.98 23.55 66.08 23.23 66.3 22.95 66.58 22.63 66.8 22.27 66.95 21.89 67.05 21.67 67.43 21.32 67.6 21 67.82 20.57 67.85 20.28 68.11 19.99 68.37 19.61 68.46 19.3 68.72 19.21 69 19.25 69.33 19.4 69.41 19.57 69.39 19.98 69.28 20.35 69.11 20.63 68.78 21.09 68.78 21.41 68.56 21.77 68.41 22.09 68.18 22.38 67.91 22.74 67.76 23.08 67.57 23.48 67.53 23.8 67.29 24.21 67.3 24.52 67 24.91 66.96 25.27 66.82 25.63 66.68 26.02 66.64 26.39 66.57 26.75 66.42 27.12 66.28 27.52 66.35 27.88 66.15 28.28 66.27 28.66 66.19 29.04 66.19 29.43 66.18 29.81 66.17 30.2 66.05 30.58 66.19 30.97 66.09 31.35 66.24 31.75 66.17 32.12 66.26 32.52 66.21 32.87 66.42 33.25 66.47 33.64 66.5 34.05 66.43 34.38 66.69 34.79 66.66 35.12 66.88 35.52 66.9 35.9 67 36.21 67.25 36.57 67.4 36.93 67.51 37.24 67.76 37.63 67.83 37.94 68.06 38.31 68.18 38.7 68.28 38.96 68.59 39.41 68.59 39.66 68.93 40.07 69 40.35 69.29 40.67 69.51 41.07 69.59 41.39 69.82 41.75 69.96 42.07 70.17 42.42 70.33 42.66 70.71 43 70.88 43.37 71.02 43.77 71.08 44.04 71.4 44.42 71.5 44.81 71.57 45.13 71.83 45.55 71.8 45.88 72.02 46.25 72.14 46.63 72.23 47.01 72.34 47.4 72.33 47.78 72.39 48.17 72.42 48.55 72.5 48.95 72.41 49.33 72.5 49.62 72.49 50.11 72.5 50.5 72.52 50.89 72.51 51.27 72.45 51.66 72.41 52.04 72.36 52.4 72.18 52.82 72.26 53.16 72.04 53.55 71.97 53.91 71.83 54.31 71.8 54.66 71.64 54.98 71.4 55.4 71.4 55.69 71.09 56.09 71.04 56.38 70.74 56.73 70.58 57.08 70.42 57.41 70.22 57.75 70.04 58.03 69.75 58.43 69.67 58.73 69.42 59.05 69.2 59.45 69.13 59.73 68.84 60.12 68.74 60.41 68.47 60.78 68.34 61.11 68.14 61.47 68 61.8 67.8 62.14 67.61 62.52 67.5 62.87 67.36 63.26 67.28 63.62 67.14 63.96 66.97 64.29 66.75 64.68 66.7 65.07 66.67 65.41 66.45 65.79 66.37 66.17 66.32 66.58 66.4 66.95 66.3 67.32 66.16 67.71 66.21 68.09 66.17 68.47 66.13 68.86 66.18 69.25 66.15 69.63 66.2 70.02 66.13 70.4 66.24 70.8 66.09 71.19 66.13 71.55 66.3 71.93 66.38 72.31 66.45 72.68 66.51 73.09 66.44 73.46 66.58 73.79 66.83 74.16 66.93 74.57 66.9 74.94 67 75.26 67.25 75.61 67.39 76 67.47 76.33 67.67 76.65 67.9 77.01 68.03 77.36 68.17 77.69 68.38 78.05 68.52 78.45 68.6 78.76 68.85 79.1 69.02 79.39 69.3 79.81 69.35 80.06 69.68 80.4 69.87 80.77 70 81.12 70.18 81.41 70.44 81.7 70.71 82.12 70.76 82.47 70.91 82.76 71.2 83.08 71.42 83.5 71.43 83.84 71.62 84.23 71.68 84.59 71.81 84.93 72.02 85.28 72.19 85.7 72.14 86.05 72.38 86.43 72.41 86.83 72.39 87.22 72.4 87.59 72.56 87.99 72.5 88.38 72.51 88.69 72.5 89.16 72.63 89.54 72.46 90.12 72.43 90.4 72.28 90.79 72.23 91.14 71.97 91.77 71.83 92.18 71.67 92.76 71.58 93.47 71.33 94.03 71.14 94.57 70.64 94.93 70.57 95.35 70.16 95.35 69.9 95.2 69.64 94.83 69.68 94.18 69.88 93.54 70.16 92.75 70.26 92.21 70.41 91.83 70.43 91.44 70.4 91.06 70.47 90.69 70.65 90.3 70.58 89.92 70.58 89.54 70.7 89.16 70.73 88.84 70.68 88.68 70.69 88.38 70.73 87.99 70.69 87.61 70.63 87.23 70.53 86.84 70.5 86.45 70.53 86.05 70.6 85.68 70.45 85.31 70.32 84.94 70.24 84.55 70.2 84.19 70.04 83.78 70.1 83.42 69.95 83.04 69.85 82.71 69.63 82.3 69.62 81.97 69.41 81.61 69.26 81.22 69.21"/><polygon class="cls-2" points="100.68 67.58 101.04 67.63 101.26 67.61 101.63 67.35 101.99 67.19 102.37 67.11 102.76 67.08 103.08 66.81 103.48 66.82 103.97 66.58 104.43 66.36 105.22 66.17 105.59 66.09 105.99 66.18 106.37 66.09 106.74 65.97 107.13 65.93 107.52 66.08 107.91 66.17 108.29 66.06 108.68 66.06 109.06 66.18 109.45 66.2 109.84 66.11 110.21 66.33 110.62 66.16 110.97 66.38 111.35 66.48 111.75 66.43 112.14 66.46 112.5 66.58 112.85 66.76 113.22 66.86 113.63 66.87 113.99 66.99 114.33 67.19 114.67 67.37 115.02 67.53 115.42 67.58 115.75 67.77 116.06 68.02 116.41 68.17 116.72 68.41 117.05 68.6 117.45 68.69 117.83 68.81 118.13 69.06 118.52 69.16 118.83 69.41 119.16 69.61 119.47 69.83 119.75 70.12 120.09 70.31 120.44 70.46 120.78 70.65 121.17 70.74 121.48 70.99 121.81 71.18 122.21 71.25 122.53 71.47 122.9 71.58 123.26 71.73 123.62 71.86 124.01 71.91 124.36 72.1 124.76 72.09 125.11 72.3 125.47 72.46 125.87 72.4 126.27 72.38 126.65 72.5 127.03 72.6 127.42 72.6 127.55 72.46 127.71 72.16 127.83 71.8 127.71 71.43 127.82 71.06 127.69 70.87 127.43 70.78 127.04 70.65 126.66 70.59 126.27 70.55 125.88 70.62 125.5 70.5 125.13 70.39 124.73 70.46 124.34 70.41 123.97 70.29 123.59 70.22 123.23 70.06 122.84 70.05 122.5 69.81 122.07 69.9 121.74 69.67 121.4 69.48 121.01 69.43 120.68 69.22 120.28 69.17 119.91 69.04 119.56 68.88 119.22 68.69 118.88 68.51 118.61 68.19 118.18 68.18 117.86 67.96 117.51 67.78 117.19 67.57 116.89 67.31 116.49 67.22 116.2 66.94 115.9 66.7 115.56 66.52 115.28 66.24 114.91 66.11 114.6 65.86 114.2 65.79 113.91 65.52 113.55 65.37 113.18 65.25 112.88 64.98 112.5 64.86 112.08 64.91 111.71 64.81 111.36 64.62 110.98 64.57 110.62 64.36 110.22 64.44 109.85 64.3 109.47 64.2 109.07 64.39 108.68 64.33 108.29 64.22 107.92 64.38 107.54 64.39 107.16 64.34 106.78 64.35 106.41 64.38 106.05 64.53 105.65 64.43 105.28 64.5 104.91 64.59 104.61 64.89 103.88 64.97 103.34 65.24 102.92 65.54 102.56 65.67 102.23 65.84 101.83 65.89 101.56 66.17 101.23 66.36 100.9 66.53 100.67 66.78 100.36 67.29 100.45 67.47 100.68 67.58"/><polygon class="cls-2" points="58.22 57.36 57.84 57.55 57.46 57.4 57.09 57.37 56.7 57.46 56.33 57.36 55.95 57.38 55.57 57.36 55.2 57.31 54.83 57.23 54.46 57.14 54.08 57.15 53.7 57.12 53.34 56.95 52.98 56.86 52.63 56.72 52.25 56.65 51.89 56.55 51.53 56.45 51.11 56.52 50.75 56.39 50.4 56.24 50.08 56 49.68 55.99 49.38 55.73 49.03 55.58 48.63 55.56 48.29 55.4 47.98 55.19 47.68 54.95 47.26 54.96 47.01 54.63 46.67 54.48 46.26 54.46 46 54.15 45.61 54.07 45.32 53.8 44.92 53.79 44.56 53.68 44.2 53.58 43.91 53.27 43.53 53.22 43.17 53.14 42.83 52.94 42.46 52.86 42.05 52.96 41.7 52.77 41.32 52.79 40.96 52.68 40.58 52.73 40.21 52.59 39.83 52.72 39.46 52.66 39.08 52.7 38.7 52.62 38.33 52.71 37.95 52.56 37.58 52.74 37.2 52.69 36.83 52.72 36.45 52.78 36.08 52.8 35.7 52.85 35.36 53.04 34.99 53.13 34.65 53.27 34.31 53.44 33.93 53.49 33.56 53.55 33.27 53.84 32.93 53.98 32.52 53.98 32.2 54.19 31.87 54.35 31.59 54.64 31.23 54.75 30.86 54.85 30.58 55.12 30.21 55.23 29.83 55.3 29.53 55.56 29.17 55.67 28.8 55.77 28.48 55.98 28.11 56.09 27.75 56.2 27.37 56.25 27 56.34 26.67 56.53 26.3 56.62 25.92 56.65 25.58 56.83 25.18 56.79 24.85 57.05 24.48 57.14 24.1 57.16 23.73 57.24 23.36 57.34 22.97 57.29 22.59 57.35 22.22 57.44 21.84 57.45 21.46 57.47 21.08 57.43 20.7 57.55 20.32 57.43 19.94 57.41 19.6 57.57 19.48 57.86 19.61 58.2 19.94 58.34 20.32 58.13 20.7 58.12 21.09 58.24 21.48 58.27 21.86 58.28 22.23 58.12 22.61 58.05 23 58.13 23.38 58.06 23.75 57.96 24.12 57.88 24.49 57.79 24.86 57.69 25.24 57.67 25.62 57.63 25.97 57.47 26.33 57.36 26.71 57.29 27.09 57.24 27.39 56.95 27.81 57 28.12 56.73 28.53 56.74 28.84 56.46 29.21 56.37 29.61 56.32 29.89 56 30.26 55.89 30.61 55.75 31.01 55.75 31.37 55.65 31.67 55.38 32.04 55.29 32.41 55.22 32.78 55.15 33.09 54.88 33.45 54.76 33.85 54.78 34.23 54.75 34.57 54.58 34.92 54.39 35.31 54.44 35.67 54.28 36.06 54.34 36.42 54.16 36.82 54.29 37.18 54.14 37.57 54.2 37.94 54.15 38.32 54.1 38.7 54.22 39.08 54.01 39.46 54.19 39.84 54.04 40.22 54.1 40.6 54.07 40.97 54.24 41.35 54.19 41.71 54.31 42.08 54.39 42.46 54.38 42.82 54.47 43.21 54.47 43.56 54.64 43.95 54.61 44.31 54.71 44.66 54.85 45.05 54.87 45.4 55.04 45.72 55.26 46.12 55.26 46.49 55.35 46.81 55.58 47.2 55.61 47.57 55.72 47.9 55.9 48.2 56.17 48.6 56.22 48.94 56.39 49.27 56.6 49.67 56.59 49.98 56.86 50.34 56.98 50.72 57.03 51.1 57.09 51.44 57.28 51.81 57.36 52.18 57.48 52.57 57.48 52.91 57.69 53.28 57.82 53.68 57.76 54.04 57.87 54.42 57.9 54.8 57.96 55.18 58.01 55.56 58.04 55.94 58.06 56.32 58.09 56.7 58.19 57.08 58.12 57.46 58.31 57.84 58.26 58.22 58.31 58.55 58.23 58.57 58.17 58.59 58.25 58.99 58.33 59.37 58.21 59.75 58.26 60.13 58.27 60.52 58.25 60.9 58.21 61.28 58.17 61.65 58.07 62.04 58.12 62.41 57.92 62.78 57.87 63.18 57.94 63.53 57.76 63.92 57.74 64.29 57.65 64.68 57.65 65.01 57.4 65.41 57.41 65.77 57.28 66.12 57.12 66.52 57.11 66.87 56.97 67.22 56.82 67.58 56.7 67.93 56.55 68.23 56.28 68.6 56.18 68.98 56.1 69.34 55.93 69.71 55.76 70.09 55.63 70.46 55.45 70.87 55.41 71.23 55.22 71.51 55.04 71.61 54.77 71.64 54.41 71.55 54.19 71.24 54.14 70.94 54.39 70.6 54.54 70.23 54.65 69.92 54.88 69.58 55.03 69.27 55.24 68.94 55.44 68.56 55.5 68.24 55.73 67.86 55.79 67.5 55.93 67.15 56.06 66.79 56.18 66.41 56.26 66.07 56.41 65.73 56.63 65.33 56.57 64.95 56.63 64.6 56.78 64.24 56.89 63.88 57.02 63.48 56.94 63.11 57.03 62.76 57.19 62.37 57.14 62.02 57.35 61.63 57.35 61.25 57.33 60.89 57.48 60.51 57.5 60.13 57.45 59.75 57.42 59.37 57.52 58.99 57.38 58.52 57.44 58.52 57.52 58.51 57.51 58.22 57.36"/><path class="cls-2" d="M136.66,57.61l-.34-.2-.39.15-.37-.12-.39.08-.36-.17-.38,0h-.76l-.37-.13-.39.1-.34-.28-.41.15-.35-.15-.37-.13h-.38l-.34-.22-.37-.06H130l-.39,0-.32-.23h-.4l-.32-.22-.36-.15-.34-.17-.35-.12h-.41l-.28-.3-.39,0-.31-.21-.32-.19-.36-.12-.31-.21-.35-.13-.32-.21-.4,0-.32-.19-.34-.17-.37-.08-.29-.28-.36-.12L122,53.3l-.37-.1-.34-.15-.41.06-.33-.23-.37-.08-.39,0h-.38l-.37-.08-.36-.08-.38,0h-.75l-.37-.06-.38-.05-.38.15-.38-.15-.37.18h-.37l-.38,0-.38,0-.35.15-.36.12-.39,0-.36.12-.38,0-.31.26-.39,0-.34.15-.33.18-.38.07-.33.17-.35.13-.3.24-.31.23-.35.13-.36.11-.28.3-.43,0-.32.19-.29.27h-.41l-.28.32-.39,0-.35.15-.39,0-.35.14-.31.25h-.4l-.37.08-.34.2-.36.12-.4-.05-.35.14-.35.17-.38.06h-.38l-.39-.06-.36.2-.39,0-.38,0-.37,0-.39,0-.37.1-.38,0-.38.07-.38.07-.35-.09v0l-.44,0-.4,0-.4-.08-.4,0h-.79l-.41,0-.4,0-.38-.12-.24.13-.09.17.06.27.28.15.39.09.4,0,.39.17h.4l.39.07.41-.11.39,0,.4.11.47,0H98l.38.06.38-.14.39.1.38-.14.38,0,.37-.1.4.09.37-.06.39,0,.37-.1.36-.12.38-.08.37-.08.37-.05.36-.15.37-.07.36-.09.37-.1.37-.09.34-.16h.41l.29-.3.37-.11.39-.05.37-.12.37-.09.34-.19.37-.1.34-.16.35-.15.36-.1.36-.11.32-.21.34-.18.39,0,.32-.23.37-.07.37-.06.37-.09.37-.06.35-.18.4.08.37-.06.35-.24.39.09.37-.09.38-.06.37-.06.39,0h.38l.38.07h.38l.38,0,.38-.11.37.08.38,0,.38-.11.37.1.37.1.38,0,.35.19.37.06.4-.11.37.07.35.17.35.16.4,0,.37.1.35.13.37.1.33.21.38,0,.36.12.3.29h.41L126,56l.37.08.34.2.39,0,.34.16.32.22.39,0,.38.06.31.25.37.11.38.07.38,0,.35.16.33.25.41-.06.38.06.35.16h.39l.35.2.39,0,.39-.06.37.14H134l.38.07.38,0,.38.07.38,0,.39-.09.38.11.23-.18.15-.29Zm-39.11.25v0Z"/><polygon class="cls-2" points="117.14 83.81 117.09 83.55 116.79 83.47 116.41 83.46 116.03 83.38 115.65 83.39 115.28 83.29 114.9 83.35 114.52 83.34 114.14 83.34 113.78 83.19 113.4 83.19 113.03 83.13 112.67 82.96 112.3 82.93 111.9 82.97 111.55 82.82 111.15 82.86 110.83 82.56 110.43 82.61 110.09 82.41 109.74 82.28 109.34 82.27 109.03 82.02 108.64 81.99 108.26 81.91 107.92 81.75 107.6 81.52 107.2 81.52 106.89 81.28 106.56 81.1 106.19 81.03 105.85 80.86 105.54 80.65 105.24 80.41 104.85 80.36 104.54 80.15 104.23 79.91 103.83 79.89 103.46 79.8 103.17 79.54 102.79 79.48 102.44 79.33 102.11 79.16 101.71 79.18 101.39 78.92 101.02 78.85 100.64 78.81 100.28 78.71 99.91 78.6 99.53 78.59 99.15 78.61 98.79 78.49 98.4 78.64 98.03 78.61 97.65 78.5 97.27 78.48 96.89 78.5 96.52 78.5 96.14 78.54 95.77 78.66 95.4 78.66 95.04 78.81 94.65 78.77 94.3 78.93 93.92 78.96 93.58 79.14 93.22 79.21 92.85 79.29 92.53 79.49 92.16 79.58 91.85 79.79 91.51 79.94 91.11 79.96 90.74 80.06 90.47 80.36 90.11 80.47 89.78 80.66 89.44 80.8 89.12 81 88.73 81.06 88.45 81.36 88.07 81.43 87.71 81.54 87.4 81.79 87 81.8 86.65 81.93 86.31 82.1 85.93 82.15 85.6 82.37 85.22 82.41 84.89 82.61 84.49 82.59 84.15 82.77 83.76 82.78 83.42 82.99 83.04 83.01 82.67 83.13 82.27 83.01 81.91 83.13 81.54 83.24 81.17 83.36 80.79 83.4 80.4 83.32 80.03 83.38 79.65 83.45 79.27 83.44 78.89 83.4 78.51 83.34 78.18 83.43 78.05 83.44 77.75 83.33 77.37 83.37 76.98 83.48 76.61 83.37 76.24 83.27 75.85 83.4 75.48 83.23 75.11 83.19 74.73 83.19 74.35 83.2 73.98 83.1 73.6 83.08 73.23 83.02 72.86 82.96 72.48 82.92 72.15 82.65 71.76 82.66 71.37 82.67 71.01 82.52 70.67 82.35 70.31 82.22 69.96 82.08 69.57 82.05 69.26 81.79 68.88 81.73 68.48 81.69 68.19 81.43 67.82 81.34 67.51 81.11 67.19 80.93 66.86 80.74 66.53 80.57 66.12 80.56 65.86 80.24 65.44 80.25 65.12 80.06 64.8 79.86 64.45 79.72 64.1 79.59 63.77 79.4 63.4 79.32 63.06 79.14 62.67 79.14 62.32 79.02 61.98 78.83 61.59 78.84 61.23 78.72 60.86 78.67 60.49 78.57 60.1 78.72 59.73 78.67 59.36 78.57 58.98 78.54 58.6 78.63 58.23 78.67 57.85 78.57 57.48 78.64 57.09 78.53 56.72 78.56 56.35 78.65 55.98 78.73 55.61 78.81 55.24 78.85 54.85 78.87 54.5 79.01 54.15 79.14 53.83 79.36 53.47 79.47 53.11 79.56 52.77 79.71 52.38 79.75 52.07 79.98 51.75 80.19 51.42 80.36 51.04 80.42 50.77 80.71 50.4 80.81 50.02 80.9 49.72 81.14 49.37 81.28 49 81.37 48.67 81.55 48.3 81.66 47.94 81.76 47.62 81.98 47.28 82.15 46.88 82.14 46.54 82.31 46.19 82.45 45.85 82.67 45.47 82.69 45.11 82.83 44.71 82.77 44.35 82.87 44 83.04 43.63 83.12 43.26 83.21 42.87 83.2 42.49 83.19 42.12 83.35 41.73 83.29 41.35 83.31 40.98 83.38 40.59 83.27 40.22 83.4 39.84 83.49 39.46 83.46 39.17 83.45 38.7 83.36 38.32 83.46 37.94 83.38 37.56 83.38 37.18 83.47 36.8 83.38 36.43 83.31 36.06 83.19 35.69 83.17 35.31 83.12 34.94 83.08 34.56 83.04 34.2 82.9 33.82 82.91 33.45 82.83 33.09 82.7 32.7 82.71 32.32 82.65 31.95 82.56 31.64 82.3 31.26 82.23 30.9 82.11 30.52 82.06 30.17 81.9 29.8 81.81 29.48 81.59 29.11 81.5 28.75 81.38 28.41 81.23 28.11 80.99 27.8 80.77 27.4 80.75 27.09 80.53 26.78 80.32 26.45 80.14 26.14 79.91 25.74 79.89 25.42 79.67 25.07 79.54 24.69 79.49 24.35 79.33 23.98 79.26 23.64 79.09 23.26 79.06 22.94 78.79 22.55 78.81 22.17 78.79 21.81 78.65 21.44 78.61 21.05 78.67 20.68 78.61 20.31 78.61 19.93 78.62 19.56 78.62 19.18 78.55 18.8 78.66 18.43 78.6 18.06 78.68 17.69 78.75 17.3 78.62 16.94 78.75 16.57 78.83 16.19 78.85 15.81 78.88 15.46 79.02 15.12 79.22 14.77 79.33 14.36 79.31 14.04 79.53 13.74 79.75 13.4 79.91 12.98 79.9 12.68 80.14 12.34 80.28 12.07 80.58 11.72 80.72 11.37 80.85 11.04 81.04 10.63 81.06 10.34 81.32 9.96 81.38 9.66 81.64 9.25 81.64 8.94 81.9 8.56 81.94 8.19 82.04 7.88 82.29 7.48 82.27 7.16 82.51 6.78 82.57 6.41 82.65 6.04 82.7 5.66 82.77 5.3 82.89 4.92 82.88 4.58 83.16 4.19 83.11 3.81 83.13 3.45 83.28 3.07 83.3 2.69 83.39 2.31 83.35 1.93 83.38 1.55 83.33 1.17 83.36 0.79 83.42 0.41 83.46 0.1 83.5 0 83.8 0.06 84.18 0.42 84.2 0.81 84.29 1.18 84.11 1.57 84.19 1.95 84.14 2.34 84.21 2.72 84.18 3.08 83.99 3.47 84.05 3.85 83.94 4.21 83.84 4.59 83.79 4.97 83.74 5.36 83.75 5.74 83.72 6.09 83.55 6.46 83.47 6.8 83.28 7.16 83.17 7.57 83.19 7.9 82.98 8.26 82.86 8.61 82.7 8.97 82.57 9.35 82.5 9.68 82.28 10.06 82.22 10.4 82.02 10.78 81.95 11.12 81.79 11.42 81.52 11.8 81.45 12.19 81.45 12.49 81.14 12.87 81.11 13.22 80.96 13.61 80.96 13.93 80.72 14.3 80.63 14.7 80.67 15.04 80.49 15.43 80.5 15.77 80.26 16.18 80.39 16.55 80.34 16.92 80.26 17.28 80.13 17.66 80.15 18.05 80.22 18.42 80.2 18.8 80.06 19.18 80.01 19.56 79.98 19.94 79.95 20.32 80.11 20.69 80.16 21.07 80.16 21.45 80.04 21.81 80.27 22.21 80.11 22.56 80.31 22.92 80.4 23.32 80.3 23.7 80.35 24.03 80.6 24.41 80.64 24.8 80.61 25.17 80.7 25.53 80.81 25.84 81.08 26.23 81.11 26.58 81.25 26.97 81.28 27.31 81.47 27.66 81.59 28 81.79 28.37 81.87 28.71 82.03 29.04 82.26 29.43 82.29 29.78 82.44 30.09 82.68 30.46 82.78 30.85 82.82 31.23 82.87 31.58 83.04 31.91 83.25 32.3 83.25 32.65 83.44 33.01 83.57 33.38 83.66 33.76 83.75 34.14 83.75 34.53 83.77 34.9 83.87 35.27 83.93 35.65 84.03 36.03 84 36.41 84.16 36.8 84.05 37.17 84.18 37.55 84.25 37.94 84.12 38.32 84.13 38.7 84.1 39.15 84.17 39.47 84.09 39.85 84.28 40.23 84.24 40.61 84.12 41 84.2 41.38 84.07 41.76 84.17 42.13 84.02 42.52 84.06 42.89 83.89 43.28 83.92 43.66 83.93 44.02 83.78 44.42 83.81 44.77 83.63 45.15 83.61 45.5 83.44 45.88 83.39 46.2 83.15 46.57 83.06 46.91 82.88 47.34 82.95 47.69 82.78 48.05 82.66 48.38 82.46 48.7 82.23 49.1 82.18 49.42 81.96 49.76 81.79 50.17 81.79 50.54 81.71 50.9 81.59 51.23 81.43 51.59 81.32 51.93 81.14 52.26 80.94 52.65 80.94 52.99 80.77 53.34 80.6 53.73 80.63 54.08 80.45 54.48 80.53 54.84 80.38 55.22 80.39 55.59 80.27 55.95 80.15 56.33 80.13 56.72 80.22 57.09 80.09 57.46 79.97 57.85 80.18 58.23 80.1 58.6 80.04 58.98 80.06 59.37 80.01 59.75 80 60.12 80.01 60.5 80.11 60.86 80.26 61.25 80.14 61.6 80.32 61.99 80.27 62.35 80.39 62.73 80.42 63.11 80.44 63.44 80.67 63.84 80.62 64.19 80.77 64.58 80.8 64.89 81.09 65.31 81.02 65.6 81.34 66.02 81.28 66.33 81.55 66.72 81.56 67.08 81.69 67.44 81.8 67.76 82.05 68.08 82.27 68.5 82.25 68.79 82.53 69.19 82.56 69.55 82.66 69.88 82.88 70.24 83 70.62 83.06 70.96 83.23 71.35 83.26 71.68 83.51 72.06 83.54 72.42 83.71 72.79 83.79 73.2 83.69 73.54 83.95 73.93 83.97 74.33 83.86 74.7 84 75.08 84 75.47 83.97 75.85 84.03 76.22 84.21 76.61 84.06 76.98 84.27 77.36 84.24 77.75 84.15 78.05 84.16 78.2 84.17 78.51 84.21 78.9 84.09 79.28 84.27 79.66 84.15 80.05 84.16 80.43 84.22 80.81 84.09 81.19 84.09 81.56 83.98 81.95 84.04 82.34 84.01 82.68 83.75 83.07 83.77 83.45 83.75 83.8 83.58 84.18 83.52 84.54 83.39 84.88 83.23 85.28 83.22 85.62 83.05 85.99 82.98 86.33 82.78 86.72 82.74 87.1 82.67 87.42 82.44 87.79 82.32 88.16 82.22 88.46 81.94 88.86 81.92 89.22 81.81 89.59 81.72 89.89 81.43 90.29 81.45 90.65 81.33 91 81.22 91.3 80.9 91.69 80.9 92.03 80.72 92.39 80.61 92.77 80.57 93.16 80.59 93.52 80.5 93.87 80.32 94.27 80.38 94.62 80.15 95.02 80.31 95.39 80.25 95.76 80.13 96.14 80.13 96.52 80.18 96.89 80.11 97.27 80.08 97.65 79.98 98.03 79.95 98.41 80.16 98.79 80.04 99.17 80.08 99.55 80.05 99.91 80.27 100.3 80.17 100.67 80.18 101.02 80.41 101.4 80.38 101.79 80.36 102.13 80.59 102.49 80.67 102.89 80.63 103.25 80.75 103.6 80.9 103.97 80.98 104.35 81.03 104.71 81.14 105.05 81.34 105.39 81.5 105.73 81.66 106.09 81.79 106.48 81.84 106.78 82.09 107.17 82.17 107.52 82.31 107.86 82.48 108.23 82.57 108.55 82.81 108.9 82.95 109.31 82.94 109.69 82.99 110.03 83.17 110.38 83.33 110.75 83.42 111.11 83.54 111.48 83.63 111.87 83.66 112.21 83.88 112.62 83.8 112.97 84.02 113.36 83.98 113.75 83.91 114.12 84.13 114.5 84.17 114.88 84.2 115.27 84.16 115.65 84.06 116.03 84.12 116.41 84.17 116.79 84.14 117.06 84.1 117.14 83.81"/><polygon class="cls-2" points="127.57 96.71 127.3 96.63 126.91 96.73 126.53 96.62 126.14 96.63 125.75 96.56 125.37 96.56 124.99 96.47 124.62 96.33 124.25 96.25 123.85 96.24 123.49 96.08 123.08 96.16 122.73 95.94 122.39 95.76 121.96 95.83 121.59 95.72 121.22 95.59 120.9 95.34 120.51 95.28 120.18 95.06 119.78 95.01 119.52 94.65 119.14 94.56 118.73 94.51 118.42 94.27 118.05 94.14 117.73 93.9 117.4 93.7 117.07 93.51 116.77 93.26 116.48 93 116.06 92.93 115.73 92.75 115.48 92.42 115.13 92.25 114.79 92.06 114.41 91.95 114.12 91.68 113.81 91.42 113.39 91.41 113.11 91.08 112.7 91.06 112.39 90.8 112 90.71 111.62 90.65 111.22 90.65 110.86 90.45 110.48 90.4 110.09 90.36 109.71 90.33 109.33 90.22 108.94 90.3 108.56 90.12 108.17 90.28 107.77 90.18 107.39 90.22 107 90.31 106.61 90.21 106.24 90.41 105.87 90.5 105.47 90.48 105.11 90.65 104.7 90.61 104.34 90.73 103.98 90.88 103.64 91.06 103.28 91.22 102.91 91.33 102.52 91.42 102.25 91.73 101.86 91.82 101.53 92.02 101.28 92.35 100.89 92.45 100.58 92.67 100.19 92.78 99.95 93.14 99.59 93.29 99.31 93.57 98.97 93.76 98.59 93.88 98.2 93.98 97.9 94.24 97.56 94.43 97.23 94.63 96.9 94.84 96.48 94.84 96.17 95.11 95.8 95.22 95.44 95.36 95.04 95.38 94.7 95.59 94.33 95.69 93.95 95.75 93.64 96.06 93.22 96.01 92.84 96.08 92.49 96.26 92.13 96.43 91.71 96.31 91.36 96.52 90.96 96.48 90.57 96.49 90.19 96.58 89.8 96.53 89.42 96.59 89.03 96.7 88.69 96.65 88.69 96.62 88.25 96.74 87.87 96.55 87.48 96.53 87.09 96.58 86.7 96.63 86.33 96.45 85.93 96.54 85.57 96.34 85.2 96.24 84.79 96.32 84.42 96.19 84.07 96.02 83.66 96.05 83.34 95.76 82.97 95.66 82.6 95.55 82.24 95.41 81.85 95.36 81.49 95.22 81.14 95.05 80.8 94.86 80.38 94.85 80.1 94.54 79.68 94.51 79.33 94.33 79.03 94.07 78.7 93.88 78.38 93.66 78.05 93.46 77.7 93.29 77.37 93.09 77.05 92.89 76.67 92.75 76.44 92.39 76.08 92.26 75.69 92.15 75.41 91.86 75.04 91.74 74.72 91.51 74.33 91.43 74.05 91.13 73.66 91.05 73.28 90.97 72.94 90.78 72.57 90.65 72.18 90.61 71.82 90.44 71.44 90.36 71.05 90.32 70.67 90.19 70.28 90.28 69.89 90.35 69.5 90.25 69.12 90.25 68.73 90.22 68.34 90.28 67.95 90.21 67.56 90.19 67.17 90.26 66.79 90.32 66.42 90.47 66.06 90.62 65.7 90.75 65.31 90.79 64.91 90.83 64.61 91.13 64.26 91.27 63.88 91.36 63.53 91.52 63.22 91.75 62.81 91.81 62.56 92.15 62.13 92.19 61.91 92.55 61.56 92.72 61.18 92.85 60.85 93.05 60.52 93.25 60.18 93.44 59.92 93.75 59.49 93.79 59.19 94.05 58.84 94.22 58.54 94.48 58.13 94.51 57.83 94.78 57.42 94.82 57.13 95.11 56.73 95.16 56.42 95.44 56.06 95.58 55.66 95.61 55.29 95.69 54.94 95.89 54.57 95.98 54.2 96.11 53.81 96.13 53.44 96.26 53.05 96.28 52.69 96.44 52.3 96.5 51.93 96.6 51.53 96.59 51.14 96.57 50.76 96.55 50.37 96.67 49.98 96.55 49.51 96.61 49.2 96.58 48.82 96.62 48.42 96.7 48.04 96.69 47.66 96.57 47.29 96.4 46.9 96.41 46.53 96.28 46.12 96.41 45.76 96.21 45.36 96.23 45 96.11 44.65 95.92 44.28 95.81 43.9 95.73 43.53 95.62 43.17 95.48 42.77 95.43 42.49 95.11 42.1 95.04 41.69 95 41.42 94.66 40.98 94.68 40.66 94.45 40.32 94.28 39.96 94.12 39.66 93.86 39.27 93.76 39.02 93.42 38.67 93.27 38.29 93.14 37.95 92.97 37.69 92.65 37.3 92.54 36.99 92.32 36.69 92.07 36.33 91.92 36.01 91.71 35.63 91.6 35.29 91.42 34.93 91.28 34.63 91.01 34.23 90.97 33.91 90.72 33.54 90.57 33.15 90.55 32.74 90.58 32.37 90.48 32.01 90.24 31.61 90.33 31.23 90.34 30.85 90.2 30.46 90.19 30.07 90.33 29.68 90.23 29.29 90.14 28.9 90.24 28.51 90.21 28.14 90.37 27.77 90.5 27.35 90.37 26.98 90.48 26.64 90.7 26.27 90.82 25.86 90.81 25.55 91.09 25.19 91.22 24.84 91.37 24.52 91.6 24.15 91.72 23.8 91.87 23.41 91.97 23.16 92.31 22.77 92.4 22.45 92.62 22.12 92.82 21.77 93.01 21.47 93.25 21.18 93.52 20.88 93.78 20.55 93.97 20.13 94.02 19.85 94.34 19.44 94.37 19.14 94.64 18.75 94.73 18.37 94.81 18.02 94.97 17.71 95.23 17.34 95.33 17.01 95.56 16.59 95.52 16.25 95.71 15.86 95.76 15.49 95.87 15.12 95.96 14.78 96.22 14.4 96.31 14.01 96.32 13.61 96.28 13.25 96.48 12.86 96.47 12.47 96.46 12.09 96.49 11.7 96.49 11.32 96.59 10.94 96.72 10.69 96.84 10.57 97 10.47 97.37 10.54 97.74 10.56 98.11 10.74 98.29 10.94 98.39 11.33 98.43 11.71 98.33 12.09 98.29 12.49 98.4 12.87 98.31 13.23 98.15 13.65 98.25 14.01 98.07 14.35 97.86 14.75 97.85 15.1 97.67 15.45 97.49 15.87 97.49 16.18 97.24 16.54 97.1 16.86 96.89 17.27 96.85 17.57 96.57 17.94 96.45 18.23 96.18 18.55 95.96 18.86 95.72 19.24 95.61 19.52 95.31 19.85 95.12 20.22 94.98 20.59 94.85 20.94 94.69 21.21 94.36 21.6 94.27 21.96 94.14 22.27 93.89 22.66 93.83 22.99 93.62 23.38 93.55 23.71 93.37 24.06 93.22 24.4 93.01 24.79 92.96 25.15 92.85 25.53 92.79 25.86 92.51 26.23 92.42 26.64 92.5 26.98 92.26 27.38 92.29 27.77 92.28 28.14 92.18 28.53 92.18 28.91 92.1 29.3 92.14 29.68 92.03 30.07 92.09 30.46 91.98 30.84 92.07 31.23 91.99 31.61 92.17 31.99 92.17 32.37 92.25 32.74 92.31 33.12 92.37 33.51 92.36 33.88 92.47 34.25 92.57 34.61 92.73 35 92.77 35.37 92.88 35.74 92.98 36.1 93.11 36.44 93.31 36.81 93.42 37.1 93.71 37.47 93.84 37.82 93.99 38.23 94.03 38.57 94.22 38.87 94.47 39.27 94.55 39.56 94.82 39.86 95.08 40.2 95.25 40.62 95.31 40.85 95.67 41.29 95.69 41.53 96.03 41.94 96.11 42.24 96.35 42.61 96.49 42.88 96.8 43.24 96.95 43.63 97.03 43.98 97.19 44.27 97.5 44.67 97.55 45.05 97.64 45.42 97.73 45.75 97.98 46.13 98.08 46.51 98.17 46.91 98.14 47.28 98.26 47.66 98.33 48.05 98.35 48.43 98.45 48.82 98.41 49.2 98.47 49.5 98.48 49.5 98.51 49.98 98.42 50.38 98.53 50.76 98.35 51.16 98.5 51.52 98.25 51.91 98.25 52.3 98.26 52.68 98.15 53.04 98 53.41 97.88 53.83 97.92 54.19 97.77 54.52 97.55 54.89 97.45 55.28 97.36 55.55 97.03 55.96 96.99 56.29 96.78 56.65 96.64 56.91 96.32 57.27 96.17 57.59 95.94 58 95.88 58.29 95.61 58.66 95.48 58.99 95.28 59.23 94.92 59.66 94.9 59.98 94.67 60.26 94.36 60.69 94.36 61 94.12 61.34 93.94 61.69 93.78 62 93.54 62.42 93.55 62.74 93.32 63.07 93.11 63.48 93.1 63.81 92.88 64.18 92.79 64.57 92.77 64.91 92.56 65.31 92.55 65.68 92.45 66.06 92.39 66.44 92.34 66.81 92.23 67.19 92.16 67.57 92.17 67.96 92.14 68.34 92.13 68.73 92.13 69.12 92.05 69.5 92.1 69.89 92.13 70.28 92.04 70.67 92.01 71.05 92.09 71.44 92.11 71.81 92.16 72.18 92.32 72.57 92.33 72.92 92.51 73.31 92.56 73.65 92.75 74.02 92.84 74.4 92.91 74.74 93.1 75.16 93.1 75.45 93.41 75.85 93.45 76.2 93.6 76.52 93.82 76.86 94.02 77.28 94.04 77.55 94.35 77.95 94.42 78.3 94.59 78.61 94.82 78.97 94.97 79.31 95.15 79.63 95.37 79.92 95.63 80.24 95.86 80.61 95.99 80.91 96.24 81.3 96.34 81.67 96.48 81.97 96.72 82.27 96.99 82.61 97.18 83.01 97.24 83.31 97.53 83.74 97.48 84.04 97.8 84.43 97.84 84.81 97.96 85.16 98.13 85.55 98.2 85.96 98.14 86.34 98.21 86.72 98.26 87.08 98.48 87.49 98.33 87.86 98.48 88.25 98.43 88.66 98.48 88.67 98.47 89.03 98.4 89.42 98.44 89.81 98.41 90.19 98.37 90.59 98.38 90.98 98.36 91.34 98.2 91.73 98.16 92.08 97.96 92.46 97.89 92.87 97.91 93.19 97.66 93.57 97.57 93.96 97.5 94.24 97.18 94.66 97.16 94.95 96.88 95.34 96.79 95.64 96.54 95.98 96.35 96.33 96.18 96.65 95.97 97.02 95.84 97.36 95.66 97.65 95.39 97.96 95.14 98.34 95.02 98.72 94.91 98.96 94.54 99.32 94.38 99.67 94.24 100.06 94.14 100.38 93.93 100.73 93.78 101.08 93.6 101.47 93.55 101.82 93.4 102.12 93.12 102.52 93.08 102.89 92.99 103.21 92.72 103.61 92.72 103.95 92.53 104.33 92.46 104.72 92.41 105.1 92.39 105.47 92.27 105.86 92.23 106.23 92.09 106.62 92.16 107.01 92.15 107.39 92.01 107.78 92.13 108.17 92.07 108.55 92.11 108.94 92.03 109.33 92.01 109.71 92.02 110.09 92.11 110.47 92.22 110.86 92.17 111.24 92.26 111.59 92.46 111.97 92.5 112.36 92.53 112.73 92.64 113.07 92.84 113.45 92.92 113.82 93.02 114.16 93.21 114.54 93.3 114.89 93.46 115.24 93.62 115.57 93.82 115.92 93.98 116.28 94.11 116.58 94.37 116.97 94.47 117.3 94.68 117.67 94.81 117.95 95.09 118.32 95.22 118.61 95.47 118.99 95.59 119.38 95.7 119.66 95.98 119.96 96.23 120.27 96.47 120.61 96.65 120.98 96.8 121.38 96.86 121.65 97.19 122.06 97.23 122.43 97.35 122.75 97.57 123.11 97.73 123.48 97.83 123.84 98.01 124.21 98.12 124.61 98.11 124.97 98.29 125.37 98.31 125.76 98.34 126.13 98.5 126.53 98.34 126.91 98.56 127.3 98.53 127.5 98.34 127.63 98.1 127.72 97.74 127.64 97.37 127.64 97 127.57 96.71"/><path class="cls-2" d="M10.64,45.49l-.13.37.1.36.15.23.18.12.39,0,.38-.06.38-.13.41.11.36-.2h.39l.36-.18H14l.39,0,.38-.08.36-.16.35-.17.33-.2.36-.16.4,0,.35-.16.33-.2.32-.23.35-.16.26-.33.35-.16.33-.21.36-.14.39-.11.32-.21.34-.19.31-.24.36-.15.35-.17.34-.18.36-.13.35-.16.29-.29.34-.17.4,0,.34-.16.31-.27.4,0,.35-.16.35-.18.35-.16.43.1.33-.27.38,0,.37-.14.41.1.37-.07.39,0,.38-.06.38,0,.39.05.38-.2.39.1.39-.05.38.05.38.09h.39l.38.07.37.1.41-.13.37.1.39,0,.37.09.36.16.37.08.37.13.39,0,.34.19.39.09.31.24.39.07.33.21.36.13.32.24.34.18.37.13.38.1.27.32.38.11.31.22.38.11.35.17.28.29.36.15.3.25.32.22.32.22.41.06.31.24.31.23.42,0,.3.27.37.12.34.18.41,0,.35.17.35.18h.4l.36.16.36.18.38.09.41-.1.38,0,.38.08.39.09.38,0,.42,0,.36,0,.39-.06.39.07.37-.15.41.11.36-.2h.4l.36-.13.42.06.36-.17.38-.09.32-.25.37-.11.38-.09.39-.1.27-.32H56l.28-.3.32-.22.42,0,.31-.25.37-.13.25-.34.37-.12.31-.23.29-.28.37-.12.34-.18.35-.18.38-.1.36-.15.29-.28.35-.16.36-.14.36-.15.31-.24.34-.18.41,0,.35-.14.36-.15.35-.18.39,0,.37-.09.38-.06.35-.2.4,0,.36-.12.38-.07.38-.08.38-.09.39.09.38-.14.39.06.39.12.39-.11h.38l.39.11.38,0h.39l.37.08.4,0,.35.2.39,0,.36.12.38.07.41,0L74,41l.37.12h.41l.31.26h.41l.32.22.33.22h.41l.31.24.36.14.32.23.31.24.41.05.29.19.28.23.35.09.29.18.17,0,.21-.11V42.9l-.14-.34-.31-.25-.37-.2L78.69,42l-.3-.26-.34-.18-.32-.21-.32-.23L77.06,41l-.37-.13-.37-.15-.3-.24-.25-.33-.34-.18-.38-.11-.3-.27-.37-.12L74,39.31l-.37-.12L73.29,39,73,38.81l-.39-.07h-.39l-.38-.06-.38-.06L71,38.53l-.37-.17-.38-.09-.39.08-.39.06h-.39l-.39,0-.39-.1-.38.11h-.39l-.4,0-.35.27-.4-.06-.35.21-.38.08-.43-.07-.36.14-.33.22-.4.06-.34.19-.33.22-.37.12-.29.27-.34.18-.3.26-.3.24-.42.06-.23.35-.41.08-.25.33-.34.17-.39.1-.33.2-.29.29-.39.09-.32.23-.37.11-.34.19-.33.23-.36.14-.4,0-.33.2-.37.12-.35.17-.36.15-.38.07h-.4l-.35.19h-.4l-.35.2-.38.07-.4-.06-.37.14-.38.1-.39-.1-.38.08h-.77l-.38.15-.37,0h0l-.42,0-.38,0h-.39l-.38-.09-.38-.09-.38,0-.4.05-.37-.12-.39,0h-.39l-.37-.12L45,44.11l-.39,0-.37-.1-.4,0-.33-.21-.41,0-.36-.15-.32-.23-.35-.16L41.76,43l-.42,0-.28-.31-.42,0-.35-.18L40,42.26l-.35-.17-.26-.34L39,41.63l-.27-.28-.35-.17L38,40.94l-.34-.17-.3-.25L37,40.45l-.27-.3-.4-.07-.3-.25-.37-.13-.27-.35-.41,0-.37-.12-.36-.11-.32-.26-.38-.09-.4,0-.37-.1-.37-.15L32,38.35l-.4.09-.37-.13-.39-.05h-.78l-.39.13-.39,0-.38,0h-.39l-.4,0-.35.25-.41-.09-.38.06-.38.1-.35.19-.35.17-.4,0-.3.27-.4,0-.34.19-.36.15-.26.32-.43,0-.3.25-.35.16-.33.21-.23.36-.41.07-.31.23-.31.24-.33.2-.36.16-.31.23-.35.19-.37.12-.29.29h-.43l-.34.19-.31.25-.34.18-.4,0-.33.22-.37.12-.35.17-.41,0-.39,0-.33.28-.37.1-.39.06-.4-.07-.38.09-.37.1-.38.09h-.39l-.38.14-.39-.07-.39,0-.39-.07-.24.12-.06.31Z"/><polygon class="cls-2" points="98.72 42.34 98.91 42.46 99.06 42.54 99.31 42.49 99.68 42.36 100.03 42.19 100.4 42.07 100.7 41.8 101.13 41.83 101.43 41.55 101.77 41.35 102.18 41.35 102.5 41.1 102.89 41.04 103.21 40.8 103.59 40.73 103.98 40.67 104.33 40.51 104.74 40.57 105.12 40.49 105.49 40.42 105.86 40.3 106.25 40.32 106.63 40.28 107.01 40.27 107.39 40.19 107.78 40.08 108.17 40.2 108.55 40.19 108.94 40.15 109.33 40.17 109.71 40.27 110.11 40.17 110.47 40.37 110.84 40.48 111.24 40.43 111.61 40.55 111.98 40.65 112.38 40.63 112.71 40.87 113.11 40.88 113.44 41.1 113.85 41.08 114.22 41.2 114.56 41.4 114.91 41.54 115.25 41.72 115.59 41.9 115.94 42.07 116.29 42.22 116.63 42.4 117.02 42.48 117.37 42.66 117.7 42.86 118.03 43.07 118.29 43.39 118.64 43.56 118.99 43.72 119.32 43.94 119.62 44.19 120.01 44.28 120.29 44.56 120.63 44.76 121.01 44.87 121.3 45.14 121.66 45.29 122.09 45.28 122.39 45.57 122.75 45.71 123.1 45.87 123.48 45.97 123.85 46.09 124.23 46.16 124.62 46.19 124.97 46.42 125.35 46.49 125.75 46.45 126.14 46.44 126.52 46.51 126.91 46.55 127.3 46.68 127.59 46.52 127.73 46.22 127.6 45.85 127.61 45.49 127.77 45.12 127.63 44.83 127.3 44.65 126.91 44.66 126.52 44.79 126.14 44.69 125.75 44.63 125.36 44.64 125 44.46 124.59 44.6 124.21 44.5 123.83 44.44 123.46 44.28 123.12 44.07 122.71 44.12 122.37 43.89 122 43.78 121.6 43.77 121.28 43.53 120.89 43.46 120.49 43.42 120.22 43.08 119.83 43.01 119.5 42.79 119.11 42.73 118.73 42.62 118.47 42.28 118.08 42.18 117.69 42.08 117.4 41.81 117.12 41.52 116.68 41.49 116.47 41.11 116.11 40.94 115.72 40.85 115.42 40.59 115.08 40.41 114.77 40.18 114.47 39.94 114.06 39.87 113.74 39.65 113.39 39.51 113.04 39.34 112.7 39.16 112.37 38.94 111.95 38.98 111.63 38.7 111.25 38.6 110.85 38.65 110.5 38.41 110.09 38.48 109.71 38.45 109.33 38.38 108.95 38.29 108.55 38.41 108.17 38.25 107.79 38.33 107.41 38.39 107.04 38.45 106.65 38.3 106.28 38.4 105.93 38.58 105.53 38.49 105.18 38.66 104.82 38.78 104.45 38.85 104.06 38.87 103.74 39.11 103.36 39.15 103.02 39.33 102.73 39.59 102.33 39.63 102 39.83 101.67 40 101.39 40.27 101.02 40.38 100.78 40.71 100.41 40.83 100.08 41 99.84 41.33 99.52 41.51 99.17 41.65 98.9 41.85 98.72 42.04 98.72 42.34"/><path class="cls-2" d="M94,28.54l-.18.11a1.65,1.65,0,0,0-.22.23c0,.07-.08.17-.13.18s-.17,0-.16,0,.13-.15.16-.2,0-.08,0-.11-.17-.16-.24-.15-.14,0-.15-.06,0-.09,0-.1.22-.08.25-.17.09-.15,0-.18S93.3,28,93.27,28s-.12.18-.17.24a.33.33,0,0,1-.14.1,1.58,1.58,0,0,1-.36,0,1.33,1.33,0,0,1-.33-.21c0-.05-.1-.2-.16-.19a4.54,4.54,0,0,1-.61-.22.92.92,0,0,1-.24-.19c0-.05-.1,0-.16-.05a1.34,1.34,0,0,1-.37-.25c-.06-.07-.2-.23-.26-.24l-.12,0s-.08,0-.09,0a1,1,0,0,1-.12-.24.64.64,0,0,0,0-.14l-.45.09c-.07,0-.08-.06-.11.05s0,.21,0,.25-.16,0-.23.06-.14-.05-.18,0,0,.08-.06.15a.17.17,0,0,0,0,.11s-.33,0-.34,0,0-.11,0-.12-.23,0-.24,0a1.8,1.8,0,0,0,0-.19s0-.12-.06-.07a.68.68,0,0,0,0,.17.12.12,0,0,1,0,0s-.24,0-.24,0-.11.09-.13.15a.32.32,0,0,0,0,.19c0,.05.07,0,.07,0s0-.12.05-.13.1,0,.11,0a2.61,2.61,0,0,1,0,.28s0,.06.06.1a1.33,1.33,0,0,1,0,.2s0,.1,0,.14a1.79,1.79,0,0,1,0,.33c0,.06,0,.21,0,.25s-.09.06-.12,0,0-.14-.06-.18-.11-.07-.13,0a.34.34,0,0,0,0,.16s.16.07.16.11a.42.42,0,0,1-.08.17.21.21,0,0,0,0,.17.7.7,0,0,0,.18.32,1.58,1.58,0,0,1,.29.41.93.93,0,0,1,.08.49,1.8,1.8,0,0,0-.07.27c0,.05,0,.09.06.15s.08.22.1.25a1.13,1.13,0,0,1,.06.16,1.67,1.67,0,0,1,0,.42c0,.13-.07.19,0,.25a.83.83,0,0,0,.29.3,2.44,2.44,0,0,1,.36.24l.13.09s.07.17.09.25a.89.89,0,0,0,0,.17s0,.13,0,.16a.59.59,0,0,0,.1.24c.06.06.11.11.17.11a2.09,2.09,0,0,1,.42.05,2.67,2.67,0,0,1,.34.15c.06,0,.12,0,.13.1a1,1,0,0,1,0,.17,1,1,0,0,0,0,.24s0,0,.08,0,.07-.12.12-.14l.13-.06.14-.22s.12-.36.16-.41a2.73,2.73,0,0,1,.13-.25s.06-.11.12-.11a.21.21,0,0,0,.13-.07l.21,0s0-.17.07-.23.11-.11,0-.1a.24.24,0,0,0-.17.07,1.31,1.31,0,0,1-.16.13.86.86,0,0,1-.21,0s-.12,0-.16-.11-.13-.15-.08-.17a.52.52,0,0,0,.11-.07s0-.15,0-.17.06-.08,0-.06-.18,0-.19,0,0-.14,0-.15.13,0,.14,0,0-.08,0-.1-.09,0-.1-.08,0-.18,0-.21.19-.07.2,0,0-.05,0-.07l-.18-.09a.08.08,0,0,1,0-.12.53.53,0,0,1,.25-.15.67.67,0,0,0,.25-.16s.11-.13.16-.11.08.12.14.14a.28.28,0,0,0,.23,0,4.26,4.26,0,0,1,.38-.32.58.58,0,0,1,.33-.14c.1,0,.1.08.13.1l.16,0s.07-.06.06-.12-.14-.13-.13-.19,0-.21,0-.29,0-.17.08-.24a1.92,1.92,0,0,1,.18-.22c0-.06,0-.16.08-.22s.15-.12.22-.12a.41.41,0,0,0,.2-.09A1,1,0,0,0,94,28.7C94.05,28.62,94.1,28.51,94,28.54Z"/><path class="cls-2" d="M94.58,17c-.11,0-.34,0-.37-.15a2.89,2.89,0,0,1,0-.32l0,0,.12-.31a3.84,3.84,0,0,0,0-.42c0-.12-.06-.3-.06-.3l0-1-.31-.36-.72-.7,0-.25a1.55,1.55,0,0,0-.47.2,1.88,1.88,0,0,0-.18.33c0,.06,0,0,.13-.09s.2-.27.26-.25a3.88,3.88,0,0,1,.69.77c0,.07,0,.1-.07.15l-3.87,2.17a7.33,7.33,0,0,1-.84-.08c-.09,0-.54-.44-.55-.42a5.47,5.47,0,0,1-.76.21c-.15,0-.35,0-.44,0s-.25.22-.31.24a3.32,3.32,0,0,1-.47,0,.92.92,0,0,1-.24-.09s-.12-.35-.16-.19a2.06,2.06,0,0,0,0,.33s-.12,0-.16,0a2.46,2.46,0,0,0-.14.26v.21a1.46,1.46,0,0,0,0,.42c.05.09.43.46.47.62a.57.57,0,0,0,.17.31c.05,0,.27.16.28.28a.62.62,0,0,1,0,.27.53.53,0,0,0,0,.28s0,.19.08.21a3.52,3.52,0,0,1,.49.65,1,1,0,0,1,.12.36c0,.06-.4,1.19-.4,1.19s-.19.44-.22.48-.68.61-.68.61l-.58.5.1.07s1.1-.54,1.3-.59a8.57,8.57,0,0,1,1.37-.12c.14,0,1.13.06,1.13.06l.23,1.18.78.37.09-.07-.71-.34,0-.18.22-.77.28,0,0,.14.67.2-.3.86a1,1,0,0,0-.09.15s0,.11,0,.11l.51-.36.2-.77s.11,0,.11,0,.11-.38.11-.38A3.29,3.29,0,0,0,92,22.4c.1-.09.73-.79.73-.79s3-2.92,3-2.88.07-1.42.07-1.42S94.69,17,94.58,17Z"/><path class="cls-2" d="M102.86,12.09a1,1,0,0,0,0-.18s-.22.07-.26,0-.19-.31-.24-.31-.18-.16-.21-.24a4,4,0,0,0-.09-.49,2.47,2.47,0,0,1-.11-.43c0-.05,0-.28,0-.32s0-.27,0-.27-.13-.18-.23-.15-.31.14-.37,0,0-.3-.12-.3-.36.06-.38.11a1.94,1.94,0,0,1-.11.24l-1.09.07a2.38,2.38,0,0,1,.16-.42c0-.09-.06-.11-.12-.12s-.26-.19-.25-.26.1-.27.19-.24a2.61,2.61,0,0,1,.29.12.21.21,0,0,1,.1-.11c.06,0,.16-.09.18-.18a1.36,1.36,0,0,1,.23-.31h.27c.08,0,.26,0,.31-.07a1.26,1.26,0,0,0,.15-.34.74.74,0,0,0-.14-.51,1.81,1.81,0,0,1-.39-.57c0-.11-.12-.29,0-.35s0-.28,0-.28a.32.32,0,0,1-.18-.15c0-.1-.06-.24-.15-.21s0,.31-.12.37a2.43,2.43,0,0,1-.3.17,4.21,4.21,0,0,0-.36.37c-.06.06-.26.17-.3.23s-.07.34-.11.4-.11.23-.17.32a1.63,1.63,0,0,1-.3.29,4.11,4.11,0,0,1-.47.11c-.13,0-.46-.17-.55-.16s-.32-.07-.45,0a1.2,1.2,0,0,0-.39.3c0,.06-.22.12-.29.15s-.39.13-.4.24a.73.73,0,0,1-.2.38c-.06,0-.29,0-.33.09s-.24.25-.22.38a.49.49,0,0,0,.11.23s0,.18,0,.18a.48.48,0,0,0-.11.23c0,.15,0,.24-.05.29a1.91,1.91,0,0,0-.07.36c0,.06-.52.73-.6.85s-.38.34-.4.43a.25.25,0,0,0,0,.21,1.29,1.29,0,0,1,.07.43c0,.07.06.28,0,.42a.66.66,0,0,0-.13.35c0,.08,0,.31,0,.35s0,.37,0,.39.24.28.22.33,0,.81,0,.87a4.33,4.33,0,0,1,.13.42,1.47,1.47,0,0,1-.1.46.59.59,0,0,0-.07.24s.39.13.39.13l0,.2L96,17l0,.28.26.08a.28.28,0,0,0,.08.13.66.66,0,0,0,.22.08v.22l-.32.06.63.06v-.78a1.17,1.17,0,0,1-.45-.06.36.36,0,0,1-.11-.13l1.18-.14a2.26,2.26,0,0,0,.58-.26c.08-.08.37-.69.47-.75a1.84,1.84,0,0,1,.42-.08s.55-.27.64-.3.36-.26.45-.28.35-.13.47,0a1.75,1.75,0,0,0,.58.29,1.17,1.17,0,0,0,.62-.27c.12-.11.09-.28.15-.38s.27-.3.34-.3.32,0,.38,0,.28-.11.36-.13-.17-.23-.21-.26a1.37,1.37,0,0,0-.31-.08c-.09,0-.19-.18-.16-.25s0-.18.06-.26a.49.49,0,0,0,.14-.32c0-.11-.32-.32-.36-.38a.5.5,0,0,1,0-.39c.07-.15.18-.28.27-.28a.34.34,0,0,1,.3.11.55.55,0,0,0,.24.23s.22.19.24.11a.41.41,0,0,0-.11-.29C103.06,12.27,102.84,12.18,102.86,12.09Z"/><path class="cls-2" d="M105.52.45a.32.32,0,0,0-.19.14s-.19.07-.2,0S105,.45,105,.45l-.21-.07-.13,0c-.06,0-.13-.2-.2-.2s-.22-.06-.23-.11-.1.05-.06.13.12.16,0,.2a1.21,1.21,0,0,1-.33.07c-.09,0-.22,0-.24,0a.46.46,0,0,1-.16.11A2.34,2.34,0,0,1,103,.46a.2.2,0,0,0-.21.06c-.06.07,0,.24,0,.3a.92.92,0,0,1,0,.37l-.28.24a1,1,0,0,0-.11.14,1.93,1.93,0,0,1-.21.54c-.08.05-.16,0-.2,0s-.22.12-.25.15a1.36,1.36,0,0,1-.24.24c-.09,0-.37.22-.4.25a.72.72,0,0,1-.25.11h-.17s-.09,0-.1,0-.07.2,0,.25a1.33,1.33,0,0,1,.17.16.71.71,0,0,1,0,.25s0,.13.07.16a3.92,3.92,0,0,1,.34.37s.25.2.29.25a.25.25,0,0,1,0,.24c0,.06-.27.13-.35.14s-.22-.07-.23,0a.5.5,0,0,0-.07.13.24.24,0,0,1-.14.11.19.19,0,0,0-.13.11c0,.07-.08.16,0,.22a1.39,1.39,0,0,0,.2.34l.19.11a.15.15,0,0,0,.12.07v0a.4.4,0,0,0,.11-.13,1.73,1.73,0,0,1,.21-.33.28.28,0,0,0,.09-.23c0-.05.07-.15.13-.1s.26.11.25.24,0,.21,0,.34-.2,0-.23.12,0,.15.1.19.24.17.24.26,0,.23,0,.25l-.2.14.12,0c.08,0,.18-.11.23,0s.23-.06.27-.09a.54.54,0,0,1,.38,0,5.15,5.15,0,0,1,.55.31,1.37,1.37,0,0,0,.42.27.12.12,0,0,0,.08-.19c0-.09-.14-.21-.08-.31s.22-.19.25-.25a.6.6,0,0,0,0-.27s.07-.83.07-.88.18-.21.21-.25.22-.4.27-.52.19-.39.21-.46.13-.39.14-.48a1.09,1.09,0,0,1,.15-.35c0-.09,0-.43.06-.56A2.35,2.35,0,0,0,105,2c0-.1.07-.26.09-.32s.17-.19.2-.26,0-.16,0-.22a1,1,0,0,1,.16-.22.43.43,0,0,0,.08-.29C105.59.55,105.61.44,105.52.45Z"/><path class="cls-2" d="M86.73,52.12a.62.62,0,0,0-.34-.38,1,1,0,0,1-.35-.47c-.06-.19-.1-.41-.18-.41a3,3,0,0,1-.43.13A10,10,0,0,1,84,50.91c-.15,0-.46-.11-.49,0s-.17.4-.12.46a2.82,2.82,0,0,1,.36.54,8.83,8.83,0,0,1,.08,1.61,5.64,5.64,0,0,1-.34,1.36,1.92,1.92,0,0,1-.42.56s-.32-.06-.37.08-.4.71-.44.79-.13.17-.07.24a.68.68,0,0,1,.11.51c-.08.19-.19.36-.09.31s.22-.42.32-.49.22,0,.24.18-.15.32-.07.44.24,0,.32-.08a.45.45,0,0,1,.45,0,.86.86,0,0,1,.19.4,1,1,0,0,0,.07.3c.06.08.21,0,.31.1s.32.36.43.37.6.14.7,0a.53.53,0,0,0,0-.37l-.16-.13s-.09-.27,0-.29.29-.32.29-.39-.25-.19-.23-.34a.53.53,0,0,1,.43-.34.83.83,0,0,0,.4-.14c.07,0,.47-.33.47-.33a3.19,3.19,0,0,0,.09-.66,9,9,0,0,1-.16-1.16,7.66,7.66,0,0,1,.07-1,1.08,1.08,0,0,1,.23-.47,4.3,4.3,0,0,1,.39-.19l-.17-.3A.79.79,0,0,1,86.73,52.12Z"/><polygon class="cls-2" points="54.58 111.96 54.15 111.92 53.72 111.97 53.28 112.01 52.89 112.22 52.47 112.34 52.1 112.58 51.67 112.66 51.25 112.78 50.88 113.02 50.48 113.18 50.05 113.31 49.56 113.2 49.09 113.02 48.76 113.38 48.92 113.82 49.19 114.2 49.51 114.53 49.94 114.73 50.35 114.91 50.78 114.95 51.2 114.98 51.6 114.84 51.96 114.61 52.34 114.41 52.66 114.12 53.12 114.08 53.5 113.89 53.91 113.85 54.32 113.84 54.78 113.86 55.12 114.17 55.42 114.47 55.74 114.8 55.85 115.24 55.88 115.68 55.89 116.12 55.76 116.56 55.87 117.01 55.83 117.45 55.68 117.88 55.63 118.32 55.45 118.74 55.45 119.21 55.13 119.56 55.03 120 54.85 120.42 54.62 120.8 54.38 121.19 54.03 121.48 53.76 121.84 53.5 122.21 53.12 122.47 52.74 122.71 52.42 123.02 52.1 123.33 51.77 123.64 51.35 123.76 51.03 124.04 50.87 124.38 50.98 124.46 51.39 124.38 51.83 124.31 52.24 124.14 52.68 124.03 53.05 123.77 53.48 123.63 53.8 123.29 54.23 123.14 54.53 122.8 54.86 122.49 55.2 122.21 55.55 121.94 55.9 121.66 56.21 121.33 56.39 120.91 56.69 120.58 56.98 120.23 57.13 119.81 57.27 119.39 57.52 119.01 57.71 118.61 57.78 118.16 57.92 117.74 58.08 117.31 58.01 116.85 58.01 116.41 58.14 115.96 57.98 115.54 57.94 115.11 57.94 114.68 57.79 114.28 57.6 113.89 57.56 113.43 57.23 113.13 56.94 112.81 56.62 112.52 56.27 112.26 55.82 112.2 55.46 111.92 55 111.99 54.58 111.96"/><polygon class="cls-2" points="52.2 108.64 52.44 109.02 52.23 109.4 52.01 109.76 51.78 110.13 51.44 110.39 51.19 110.75 50.8 110.96 50.65 111.43 51.09 111.24 51.52 111.21 51.88 110.96 52.3 110.86 52.69 110.71 53.06 110.48 53.43 110.24 53.88 110.27 54.27 110.06 54.74 110.13 55.21 110.14 55.66 110.23 56.12 110.13 56.53 109.87 56.73 109.48 56.82 109.04 56.57 108.67 56.33 108.34 56.02 108.05 55.62 107.91 55.21 107.89 54.81 107.74 54.39 107.88 53.97 107.85 53.56 107.69 53.15 107.68 52.7 107.72 52.27 107.65 51.86 107.43 51.4 107.48 50.98 107.32 50.59 107.57 50.97 107.9 51.31 108.26 51.81 108.37 52.2 108.64"/><path class="cls-2" d="M69.94,114.71l-.42.18h-.43l-.44.05-.41-.16,0-.46.31-.38.31-.39.3-.34.26-.37.33-.31.27-.37.38-.25.24-.41.35-.3.4-.26.38-.28.4-.26.33-.35.18-.46-.19-.43-.22-.38-.27-.33-.43-.07-.37-.16-.4-.08-.4-.14L70,108l-.4.1-.34.25-.36.18-.37.17-.48,0-.45.09-.39.28-.45.13H65.8l-.45.07H65l-.23.23.09.38.31.28.11.43.4.15L66,111l.37.1.41-.12.43-.13.4-.22.49,0,.41-.05.34.16.11.43-.33.34-.18.41-.31.33-.13.46-.29.34-.4.26-.27.36-.28.35-.28.36-.24.39-.38.28-.31.32-.26.37L65,116l-.24.38-.26.34-.29.32-.29.3-.32.28-.32.29-.26.35-.22.37,0,.44-.22.4.29.33.3.25.35.23.43-.08.37-.23.24-.37.25-.34L65,119l.18-.38.35-.29.24-.34.26-.33.2-.38.32-.28.37-.21.35-.24.32-.28L68,116l.42-.08.41-.14.44.06h.42l.45-.07.41.19H71l.43.16.29.36.37.24.23.37.35.3.15.42.1.44-.08.45-.09.4,0,.42-.2.37-.13.4-.36.24-.22.37-.38.18-.39.13-.44,0-.4-.24-.28-.37-.39-.26-.33-.35-.47-.12-.43-.17h-.47l-.44,0-.41.13-.36.25-.36.24-.3.31-.18.39-.12.4.06.41.2.36.19.39.37.28.37.29.4.26.48,0,.44.18.46.11.47-.09.43,0,.43-.06.42,0,.4-.15.44,0,.38-.21.4-.17.39-.18.35-.26.29-.33.27-.33.34-.28.12-.44.24-.34.19-.38.23-.38-.07-.45.12-.42.07-.46-.15-.46-.16-.43,0-.49-.3-.37-.26-.39-.24-.41-.37-.21-.36-.22-.35-.21-.35-.2-.35-.24h-.43l-.39-.14-.41,0Zm-2.42,6,.61.13.2.35.13.39-.26.21-.42,0-.39-.16-.33-.22-.09-.25.18-.33Z"/><path class="cls-2" d="M85.68,119.1l0-.47,0-.46v-.46l0-.47-.18-.37.13-.38.15-.36.35-.19.45,0,.39-.23.38-.26.42-.14.41-.17.43-.15.37-.27.33-.33.12-.46-.21-.4-.41-.19-.45-.07-.45,0-.44-.2L87,113l-.43-.06.37.3.24.4-.34.34-.37.32-.47.16h-.38l-.09-.35,0-.42v-.43l0-.43.15-.4.16-.38.33-.21.36-.27.41-.17.41-.2.29-.33.12-.42-.17-.37-.42-.12h-.44l-.41.19-.34-.18,0-.39.16-.42.16-.43.14-.44.31-.38-.14-.43-.36-.24-.34-.27-.42-.11-.42,0-.42,0-.41.19.13.44.15.41.24.38.08.45,0,.44-.16.42,0,.43-.07.49-.48.09-.38,0h-.4l-.4,0-.31-.28-.44,0-.28-.25-.31-.21-.12.32-.06.42.32.29.25.31.3.29.34.23.36.22.41.07.39.13.34.23.21.29.17.37,0,.5-.16.48-.08.48,0,.53-.5.18-.42,0-.42-.13-.42.11-.41-.1-.42,0-.43,0-.42-.08-.38-.22-.38-.17-.41,0-.36-.13-.19.2.09.4.24.34.3.28.29.33.46.08.33.32.46,0,.42,0,.42.18.43,0,.38,0,.36-.2.39.09.44.05.26.33.09.43.1.41-.15.41.11.4-.08.41,0,.48-.48.15-.6-.14-.44,0-.45.08-.43.09-.45.07-.4.19-.39.19-.4.18-.4.24-.25.39,0,.46-.1.42,0,.43.1.44.22.39.32.3.33.29.41.16.4.17.42.16h.45l.45,0L83,124l.37-.29.42-.13.42-.15.33-.3L85,123l.21-.41.24-.34.42-.33.49.18.3.3.24.35.27.32.23.39.42.15.42,0,.42,0,.44,0,.33-.32,0-.45,0-.42-.16-.4-.31-.31-.31-.31-.27-.38-.42-.16-.41-.17-.38-.25-.43-.15-.42-.15L86,119.9l-.21-.39Zm-2.35,2.69L83,122l-.38.14-.39.08-.38,0-.51.09-.42-.29-.26-.41.23-.43.46-.13.45-.17.48-.14.48.07.48.1.36.21-.09.29Z"/><path class="cls-2" d="M75.27,134.41l-.28-.28-.33-.22-.37-.16-.37-.17-.6.34-.35.4-.51,0-.46.12h-.46l-.46-.1h-.45l-.46,0-.47,0-.46.11-.46-.13-.12,0v-.25l.09-.62,0-.22-.09-.39-.26-.32-.32-.25-.36-.18-.37-.17-.33-.29h-.43l-.41,0-.52.1-.11.14.14.33.2.28.2.29,0,.35-.06.42,0,.43-.05.44-.21.39-.14.4-.24.37-.21.37,0,.45-.22.37-.24.36-.23.36-.13.42-.29.33-.16.41-.33.29-.19.4-.21.37-.23.37-.31.31-.23.37-.29.32-.26.34-.3.32-.36.35-.29.41-.19.44.2.28.41-.15.34-.24.29-.3.3-.28.29-.3.33-.25.35-.23.34-.26.28-.36.37-.27.35-.28.31-.34.42-.17.41,0,.38.2.42.08.38.2.35.24.4.18.26.35.29.31.39.22.2.38.11.41-.16.42-.19.39-.2.4-.2.4-.3.33-.21.4-.36.29-.27.35-.24.37-.32.31-.27.36-.36.28-.19.43-.34.29-.36.27-.3.33-.38.24-.34.29-.33.3-.34.29-.43.18-.31.33-.37.25-.33.31-.46.11-.38.24-.3.14-.35.36.16.23.27.13.44-.07.42-.13L62,151l.43-.08.41-.15.34-.3.39-.18.44-.11.3-.35.45-.08.28-.38.43-.12.34-.28.32-.29.35-.27.32-.29.4-.19.36-.25.28-.34.29-.32.34-.28.4-.22.17-.44.44-.19.21-.47.46-.24.33-.36.42-.31.38.3.42.25.12.48.3.32.34.27.25.37.37.24.42.13.44-.05.43,0,.35-.27.44-.13.16-.43.29-.35,0-.45v-.46l-.28-.36-.14-.44-.36-.27-.33-.3-.27-.35-.27-.36-.44-.16-.2-.43-.16-.44.16-.44.19-.41,0-.48.3-.36.18-.42.32-.29.21-.37.06-.44,0,0,.25-.32.22-.33.14-.38.3-.27.26-.33.37-.11.22-.28.19-.36-.24-.38-.25-.34-.37-.23-.33-.25Zm-2.47,2-.16.43-.17.43-.18.44-.31.37-.24.4-.17.45-.33.34-.19.44-.33.33-.44.12-.4,0-.4-.08-.41-.06-.43,0-.35-.27-.42-.09-.36-.21-.41-.14-.37-.19-.29-.25-.17-.34.09-.37.21-.39.25-.37.38-.27.18-.41.26-.36.31-.34.43-.17.45-.09.46-.06.47,0,.47.09.46,0,.47-.1.47-.05.47.07.43,0,.25.3Z"/><polygon class="cls-2" points="78.01 129.28 77.61 129.32 77.23 129.42 77.03 129.65 77.35 129.98 77.78 130.15 78.2 130.33 78.52 130.68 78.98 130.82 79.34 131.12 79.56 131.53 79.94 131.81 80.22 132.19 80.65 132.35 81.06 132.44 81.41 132.3 81.78 132.08 81.82 131.64 81.84 131.17 81.62 130.76 81.35 130.38 80.92 130.18 80.64 129.8 80.19 129.69 79.78 129.53 79.35 129.37 78.9 129.36 78.46 129.29 78.01 129.28"/><polygon class="cls-2" points="75.92 131.46 75.55 131.41 75.28 131.72 75.75 132.19 76.01 132.5 76.27 132.82 76.6 133.07 76.92 133.33 77.2 133.63 77.33 134.03 77.61 134.33 77.91 134.62 78.02 135.05 78.44 135.17 78.78 135.39 79.28 135.2 79.53 134.74 79.66 134.27 79.73 133.82 79.47 133.46 79.25 133.1 78.97 132.78 78.63 132.53 78.25 132.33 77.89 132.11 77.58 131.79 77.14 131.75 76.75 131.57 76.34 131.48 75.92 131.46"/><polygon class="cls-2" points="97.45 134.94 96.96 134.9 96.63 135.26 96.26 135.57 95.81 135.74 95.33 135.82 94.86 135.86 94.41 135.86 93.96 135.94 93.5 135.82 93.05 135.84 92.63 135.76 92.31 135.52 92.1 135.15 92.16 134.71 92.18 134.28 92.4 133.88 92.41 133.42 92.57 133.11 92.76 132.83 92.83 132.4 92.75 132 92.47 131.67 92.08 131.5 91.75 131.23 91.39 130.99 90.99 130.82 90.57 130.72 90.15 130.6 89.72 130.6 89.34 130.76 89.29 130.89 89.42 131.36 89.49 131.5 89.5 131.93 89.63 132.34 89.74 132.75 89.79 133.18 89.67 133.63 89.78 134.09 89.73 134.54 89.58 134.97 89.5 135.41 89.17 135.75 88.72 135.87 88.26 135.77 87.81 135.87 87.36 135.94 86.9 135.91 86.45 135.92 86 135.93 85.55 135.83 85.09 135.78 84.64 135.86 84.19 135.92 83.73 135.9 83.27 135.75 83.12 135.85 83.25 135.95 83.53 136.38 83.65 136.89 83.95 137.3 84.03 137.38 84.46 137.28 84.89 137.4 85.32 137.38 85.75 137.31 86.19 137.38 86.62 137.31 87.06 137.37 87.49 137.27 87.93 137.31 88.33 137.45 88.73 137.58 88.88 137.97 88.95 138.37 88.88 138.78 88.82 139.2 88.72 139.63 88.6 140.05 88.47 140.48 88.27 140.88 88.11 141.29 87.91 141.68 87.76 142.1 87.52 142.47 87.37 142.89 87.21 143.3 87.1 143.74 86.81 144.09 86.68 144.52 86.31 144.82 86.06 145.18 85.93 145.62 85.65 145.97 85.37 146.31 85.06 146.63 84.93 147.08 84.6 147.39 84.25 147.67 83.94 147.98 83.74 148.39 83.34 148.63 83.07 148.98 82.72 149.26 82.38 149.54 82.06 149.85 81.75 150.16 81.53 150.21 81.2 150.73 81.47 151.04 81.92 150.95 82.29 150.71 82.72 150.61 83.04 150.28 83.46 150.16 83.77 149.83 84.17 149.65 84.56 149.43 84.83 149.09 85.17 148.81 85.55 148.57 85.85 148.25 86.11 147.88 86.37 147.53 86.7 147.23 87.04 146.94 87.32 146.6 87.56 146.23 87.77 145.83 88.12 145.54 88.25 145.1 88.49 144.74 88.82 144.42 88.94 143.98 89.13 143.59 89.32 143.19 89.52 142.8 89.81 142.45 89.9 142.01 90.06 141.6 90.15 141.17 90.35 140.77 90.56 140.38 90.64 139.94 90.82 139.54 90.86 139.09 90.98 138.68 91.12 138.26 91.26 137.86 91.55 137.56 91.96 137.48 92.36 137.32 92.78 137.32 93.2 137.42 93.61 137.32 94.03 137.39 94.46 137.34 94.88 137.39 95.3 137.32 95.73 137.37 96.14 137.54 96.43 137.84 96.6 138.23 96.71 138.65 96.65 139.08 96.74 139.53 96.56 139.96 96.58 140.42 96.57 140.87 96.42 141.3 96.38 141.75 96.24 142.18 96.14 142.62 96.1 143.07 95.9 143.49 95.92 143.96 95.79 144.39 95.68 144.83 95.53 145.26 95.34 145.67 95.09 146.04 94.79 146.36 94.42 146.59 93.98 146.57 93.51 146.5 93.01 146.44 92.5 146.36 92.03 146.07 91.5 145.97 91.37 146.04 91.33 146.16 91.51 146.49 91.71 146.87 92.09 147.08 92.16 147.16 92.39 147.54 92.75 147.83 92.91 148.25 92.96 148.69 93.01 149.13 93.13 149.56 93.33 149.86 93.69 150.03 94.08 150.18 94.49 150.34 94.95 150.26 95.28 149.91 95.68 149.71 96.03 149.43 96.42 149.18 96.63 148.77 96.84 148.39 97.18 148.09 97.31 147.67 97.52 147.29 97.65 146.88 97.8 146.47 97.91 146.05 98.05 145.64 98.22 145.24 98.29 144.81 98.38 144.39 98.5 143.97 98.51 143.53 98.62 143.11 98.72 142.69 98.75 142.25 98.75 141.81 98.8 141.36 98.92 140.92 99.11 140.49 99.06 140.03 99.12 139.58 99.31 139.15 99.3 138.69 99.3 138.23 99.58 137.91 99.8 137.49 100.02 137.04 99.83 136.64 99.54 136.31 99.33 135.92 98.99 135.63 98.63 135.39 98.24 135.19 97.85 135 97.45 134.94"/><polygon class="cls-2" points="51.97 140.11 51.76 140.49 51.5 140.83 51.23 141.16 51.01 141.54 50.74 141.88 50.45 142.2 50.13 142.5 49.84 142.83 49.64 143.24 49.24 143.46 48.95 143.78 48.55 143.95 48.14 144.11 47.71 144.04 47.27 144.02 46.85 143.89 46.45 143.71 46.08 143.42 45.67 143.24 45.28 142.97 44.8 142.93 44.41 142.69 44 142.48 43.58 142.32 43.23 142.65 43.41 143.13 43.73 143.41 43.99 143.77 44.32 144.05 44.61 144.38 44.84 144.75 45.16 145.05 45.3 145.48 45.55 145.83 45.75 146.22 46.07 146.54 46.26 146.93 46.49 147.3 46.67 147.69 46.76 148.14 46.94 148.53 47.21 148.88 47.59 149.12 47.88 149.44 48.24 149.66 48.66 149.76 49.09 149.76 49.53 149.79 49.83 149.46 50.12 149.18 50.37 148.86 50.52 148.48 50.55 148.06 50.47 147.65 50.31 147.26 50.11 146.9 49.89 146.54 49.69 146.16 49.6 145.73 49.77 145.33 49.98 144.97 50.15 144.58 50.36 144.21 50.6 143.86 50.94 143.59 51.17 143.23 51.56 143.02 51.9 142.78 52.27 142.53 52.57 142.18 52.87 141.85 53.25 141.6 53.63 141.37 54.04 141.18 54.3 140.78 54.68 140.54 55.14 140.44 55.47 140.11 55.92 140.03 56.33 139.89 56.73 139.7 57.16 139.55 57.55 139.57 57.88 139.37 58.19 139.21 58.42 138.92 58.38 138.46 58.12 138.09 57.85 137.73 57.73 137.29 57.53 136.89 57.15 136.61 56.82 136.32 56.55 135.97 56.25 135.64 55.86 135.42 55.58 135.04 55.19 134.81 54.75 134.68 54.29 134.66 53.86 134.75 53.52 135.02 53.22 135.34 52.81 135.49 52.43 135.68 52.03 135.82 51.59 135.9 51.15 135.79 50.71 135.87 50.27 135.76 49.83 135.87 49.39 135.77 48.95 135.87 48.51 135.75 48.06 135.74 47.62 135.82 47.18 135.75 46.74 135.89 46.3 135.88 45.86 135.77 45.42 135.72 44.98 135.75 44.54 135.9 44.1 135.75 43.66 135.87 43.22 135.9 42.77 135.74 42.33 135.74 41.89 135.77 41.44 135.72 41 135.77 40.56 135.72 40.12 135.81 39.67 135.72 39.23 135.88 38.78 135.72 38.33 135.81 38.21 135.83 38.29 135.93 38.43 136.3 38.7 136.61 38.85 136.99 39.08 137.32 39.12 137.42 39.56 137.34 40 137.31 40.44 137.48 40.88 137.4 41.32 137.44 41.76 137.3 42.2 137.38 42.64 137.35 43.08 137.41 43.52 137.38 43.97 137.39 44.41 137.42 44.85 137.41 45.3 137.32 45.74 137.39 46.19 137.45 46.63 137.4 47.08 137.43 47.53 137.4 47.97 137.29 48.41 137.36 48.86 137.45 49.3 137.34 49.74 137.35 50.18 137.46 50.62 137.37 51.06 137.47 51.49 137.4 51.92 137.5 52.31 137.72 52.48 138.12 52.52 138.53 52.59 138.97 52.45 139.39 52.19 139.74 51.97 140.11"/><polygon class="cls-2" points="20.03 133.04 20.38 133.31 20.77 133.47 21.12 133.7 21.47 133.91 21.85 134.1 22.21 134.35 22.41 134.73 22.67 135.09 22.92 135.45 23.21 135.78 23.59 136.01 23.95 136.13 24.39 136.06 24.79 135.78 24.95 135.31 25.11 134.85 25 134.4 24.87 133.97 24.71 133.54 24.4 133.19 24.04 132.91 23.65 132.7 23.24 132.5 22.82 132.31 22.35 132.32 21.9 132.14 21.47 132.27 21.05 132.18 20.66 132.41 20.24 132.44 19.85 132.57 19.43 132.78 20.03 133.04"/><path class="cls-2" d="M34.64,136.7l-.34.27-.29.34-.38.25-.18.42-.34.29-.25.35-.38.25-.19.42-.33.28-.32.3-.3.32-.29.32-.28.34-.38.23-.29.33-.29.32-.36.24-.28.35-.33.27-.35.27-.41.18-.24.38-.38.22-.35.25-.34.29-.35.26-.36.24-.43.12-.37.23-.35.26-.41.15-.35.26-.43.1-.34.29-.42.11-.36.26-.43.08-.43.08-.35.31h-.45l-.39.2-.4.17-.45-.09-.44,0-.4-.21-.46.09L18,147l-.22.25.18.43.17.41.13.44.23.39.3.34.27.37.19.43.31.33.43.2.31.36.46,0,.34-.2.44-.09.25-.36.38-.19.35-.23.35-.22.36-.25.29-.38.4-.2.34-.28.43-.16.35-.28.38-.22.3-.34.45-.14.32-.3.38-.25.3-.33.36-.26.3-.33.36-.26.31-.31.31-.33.32-.3.42-.19.26-.37.31-.32.31-.31.32-.3L31,143l.23-.39.3-.32.25-.36.36-.28.15-.44.37-.29.23-.39.22-.4.28-.36.23-.39.26-.37.31-.35.22-.4.12-.45.25-.39v-.45ZM20.39,151.08h0v0Z"/><polygon class="cls-2" points="19.8 140.53 20.26 140.62 20.7 140.67 21.15 140.58 21.59 140.39 21.9 140.01 21.99 139.53 21.94 139.08 21.97 138.6 21.64 138.25 21.49 137.81 21.13 137.52 20.82 137.18 20.47 136.86 20.05 136.66 19.59 136.56 19.2 136.31 18.77 136.18 18.33 136.06 17.89 136.01 17.47 135.87 17.02 136.02 16.59 135.96 16.15 135.98 15.79 136.3 16.16 136.71 16.62 136.93 17.02 137.13 17.28 137.52 17.7 137.72 17.9 138.13 18.2 138.47 18.32 138.91 18.59 139.27 18.83 139.65 19.12 139.98 19.44 140.27 19.8 140.53"/><polygon class="cls-2" points="108.88 133.22 108.99 133.18 109.1 133.19 109.53 133.29 109.98 133.28 110.42 133.25 110.86 133.37 111.31 133.27 111.75 133.29 112.18 133.48 112.63 133.36 113.07 133.44 113.51 133.52 113.96 133.49 114.41 133.47 114.85 133.46 115.29 133.44 115.74 133.45 116.18 133.52 116.61 133.53 117.09 133.54 117.56 133.52 118.01 133.45 118.45 133.35 118.76 133.07 119.03 132.68 118.89 132.25 118.5 132.02 118.24 131.66 117.84 131.49 117.44 131.33 117.03 131.16 116.59 131.17 116.21 131.39 115.74 131.41 115.33 131.63 114.89 131.78 114.43 131.83 113.96 131.82 113.49 131.86 113.03 131.76 112.57 131.69 112.1 131.76 111.63 131.66 111.16 131.67 110.69 131.69 110.28 131.66 109.87 131.6 109.45 131.62 109.04 131.61 108.62 131.65 108.22 131.51 108.15 131.59 108.17 131.65 108.31 132.06 108.49 132.45 108.72 132.81 108.88 133.22"/><polygon class="cls-2" points="119.79 136.94 119.35 137.05 118.88 137.07 118.46 137.25 118.08 137.51 117.66 137.71 117.22 137.83 116.75 137.84 116.29 137.9 115.86 137.82 115.42 137.94 114.98 137.83 114.54 137.85 114.1 137.96 113.66 137.94 113.23 137.85 112.79 137.84 112.35 137.86 111.91 137.92 111.47 137.95 111.04 137.81 110.6 137.81 110.16 137.79 109.72 137.9 109.28 137.92 108.84 137.94 108.4 137.85 107.96 137.85 107.52 137.97 107.08 137.86 106.64 137.86 106.19 137.92 105.75 137.88 105.31 137.9 105.27 137.94 105.17 138.03 105.42 138.47 105.72 138.89 105.98 139.33 106.06 139.35 106.49 139.38 106.92 139.44 107.35 139.46 107.78 139.35 108.21 139.34 108.64 139.38 109.08 139.39 109.51 139.4 109.94 139.3 110.36 139.34 110.79 139.38 111.22 139.36 111.66 139.42 112.09 139.33 112.52 139.38 112.95 139.38 113.39 139.35 113.82 139.42 114.25 139.43 114.68 139.41 115.12 139.34 115.55 139.43 115.98 139.38 116.42 139.32 116.85 139.3 117.29 139.34 117.72 139.41 118.08 139.45 118.19 139.79 118.08 140.21 118.03 140.64 117.8 141.01 117.67 141.43 117.54 141.84 117.34 142.22 117.21 142.64 116.93 142.97 116.74 143.36 116.55 143.75 116.21 144.05 116.05 144.47 115.83 144.84 115.54 145.17 115.21 145.46 114.94 145.81 114.67 146.14 114.36 146.45 114.03 146.73 113.69 147 113.34 147.26 112.98 147.5 112.7 147.83 112.33 148.07 111.97 148.3 111.7 148.68 111.35 148.93 110.98 149.16 110.56 149.3 110.19 149.53 109.82 149.76 109.52 150.11 109.06 150.18 108.7 150.41 108.52 150.62 108.11 150.75 107.72 150.94 107.72 151.18 107.99 151.45 108.39 151.35 108.81 151.31 109.23 151.25 109.64 151.14 110.03 150.99 110.43 150.83 110.79 150.61 111.15 150.37 111.55 150.21 111.99 150.18 112.38 150 112.75 149.79 113.13 149.56 113.51 149.34 113.92 149.17 114.31 148.96 114.6 148.6 114.99 148.4 115.3 148.09 115.71 147.9 116.08 147.67 116.41 147.37 116.75 147.09 117.02 146.75 117.28 146.39 117.69 146.17 117.98 145.85 118.21 145.47 118.47 145.11 118.76 144.79 118.98 144.41 119.19 144.02 119.44 143.67 119.8 143.38 120.02 143 120.17 142.58 120.47 142.21 120.71 141.8 120.97 141.4 121.37 141.12 121.71 140.81 122.04 140.49 122.32 140.13 122.4 139.69 122.24 139.3 122 138.94 121.83 138.53 121.53 138.21 121.23 137.89 120.88 137.62 120.55 137.35 120.25 136.98 119.79 136.94"/><polygon class="cls-2" points="50.07 169.78 49.63 169.97 49.42 170.39 49.15 170.75 48.99 171.2 48.52 171.31 48.06 171.32 47.59 171.42 47.15 171.36 46.72 171.44 46.28 171.43 45.85 171.43 45.41 171.44 44.98 171.29 44.55 171.44 44.11 171.41 43.68 171.3 43.24 171.38 42.8 171.29 42.37 171.44 41.93 171.41 41.5 171.35 41.06 171.35 40.63 171.28 40.19 171.44 39.75 171.3 39.32 171.33 38.88 171.35 38.45 171.36 38.01 171.28 37.58 171.41 37.14 171.38 36.71 171.44 36.27 171.34 35.84 171.3 35.4 171.31 34.96 171.31 34.53 171.29 34.09 171.35 33.65 171.32 33.21 171.43 32.77 171.32 32.34 171.42 31.9 171.45 31.46 171.44 31.02 171.3 30.58 171.46 30.14 171.31 29.7 171.33 29.55 171.47 29.55 171.66 29.85 171.99 30.09 172.35 30.27 172.32 30.7 172.31 31.13 172.41 31.56 172.33 31.99 172.3 32.42 172.41 32.85 172.27 33.28 172.32 33.72 172.32 34.15 172.43 34.58 172.29 35.01 172.44 35.45 172.39 35.88 172.35 36.32 172.32 36.75 172.44 37 172.8 37.28 173.17 37.08 173.6 37 174.02 36.85 174.42 36.7 174.81 36.48 175.18 36.28 175.56 36.12 175.96 35.94 176.35 35.75 176.75 35.5 177.11 35.24 177.46 34.95 177.76 34.57 178.01 34.13 177.94 33.73 177.88 33.31 177.93 32.93 177.74 32.5 177.82 32.09 177.76 31.7 177.64 31.31 177.49 30.87 177.65 30.81 178.11 30.91 178.51 31.05 178.91 31.21 179.31 31.35 179.71 31.6 180.07 31.88 180.39 32.17 180.57 32.59 180.6 32.93 180.38 33.28 180.18 33.68 180.08 34.13 180.12 34.57 180.08 35 179.93 35.43 179.82 35.89 179.92 36.33 179.86 36.75 179.63 37.2 179.65 37.64 179.66 38.09 179.63 38.52 179.55 38.96 179.49 39.4 179.41 39.84 179.35 40.29 179.36 40.74 179.31 41.18 179.21 41.62 179.18 42.06 179.1 42.49 178.92 42.94 178.93 43.39 178.97 43.83 178.84 44.26 178.7 44.71 178.75 45.15 178.63 45.6 178.66 46.03 178.6 46.49 178.56 46.94 178.64 47.31 178.89 47.53 179.27 47.72 179.67 47.86 180.09 48.2 180.4 48.51 180.72 48.93 180.88 49.38 180.84 49.78 180.8 50.17 180.66 50.52 180.43 50.8 180.12 50.99 179.75 51.08 179.35 51.18 178.9 51.06 178.46 50.86 178.06 50.64 177.68 50.41 177.31 50.16 176.93 49.77 176.71 49.42 176.44 49.09 176.15 48.69 175.95 48.33 175.71 47.96 175.45 47.53 175.33 47.12 175.16 46.7 175 46.26 174.95 45.83 174.85 45.39 174.82 45.11 175.1 45.33 175.46 45.61 175.78 45.94 176.07 46.13 176.48 46.36 176.81 46.48 177.28 46.18 177.69 45.69 177.66 45.25 177.8 44.8 177.73 44.36 177.73 43.91 177.75 43.47 177.78 43.02 177.74 42.58 177.83 42.14 177.91 41.69 177.9 41.25 177.92 40.8 177.85 40.35 177.86 39.9 177.94 39.45 177.79 39.01 177.86 38.56 177.84 38.12 177.89 37.67 177.95 37.23 177.95 36.8 177.86 36.71 177.41 37.05 177.12 37.21 176.7 37.63 176.53 37.92 176.24 38.19 175.92 38.55 175.69 38.77 175.31 39.09 175.03 39.44 174.8 39.79 174.57 40.11 174.27 40.5 174.07 40.92 173.88 41.14 173.45 40.88 173.05 40.57 172.72 40.41 172.46 40.83 172.38 41.26 172.32 41.7 172.44 42.13 172.3 42.56 172.45 43 172.35 43.43 172.43 43.86 172.43 44.29 172.34 44.72 172.36 45.16 172.37 45.59 172.29 46.02 172.34 46.46 172.3 46.89 172.37 47.33 172.44 47.76 172.31 48.2 172.43 48.63 172.42 49.07 172.31 49.51 172.37 49.94 172.39 50.38 172.36 50.82 172.37 51.26 172.36 51.7 172.41 52.14 172.29 52.54 172.17 52.76 171.84 52.59 171.45 52.21 171.22 51.84 171.01 51.57 170.65 51.2 170.44 50.82 170.24 50.48 169.97 50.07 169.78"/><polygon class="cls-2" points="31.44 161.85 31.54 161.89 31.95 161.89 32.36 162.01 32.77 161.89 33.19 161.92 33.6 162.01 34.02 161.84 34.43 161.88 34.85 161.98 35.26 161.97 35.69 161.97 35.91 162.34 36.07 162.74 36.02 163.25 36 163.75 35.93 164.2 36.29 164.44 36.65 164.62 37.04 164.66 37.43 164.61 37.8 164.52 38.11 164.3 38.32 163.99 38.47 163.63 38.44 163.12 38.33 162.6 38.52 162.24 38.74 161.96 39.12 161.87 39.56 161.87 40 162.01 40.44 161.89 40.88 161.85 41.32 161.97 41.76 161.98 42.2 161.97 42.61 161.94 42.99 162.1 43.12 162.5 43.13 162.93 43.06 163.36 43.11 163.78 43.16 164.19 43.44 164.5 43.88 164.67 44.27 164.46 44.66 164.4 45.03 164.28 45.33 164.02 45.56 163.72 45.69 163.38 45.77 162.97 45.62 162.51 45.84 162.1 46.25 162.01 46.69 161.84 47.13 162.02 47.58 161.97 48.02 161.92 48.46 161.94 48.9 161.9 49.35 161.95 49.79 162.02 50.24 161.93 50.69 161.92 51.14 161.95 51.56 161.8 51.75 161.44 51.54 161.03 51.16 160.77 50.86 160.41 50.39 160.27 50.04 159.98 49.67 159.69 49.25 159.43 48.87 159.74 48.53 160.04 48.29 160.44 47.93 160.73 47.52 160.99 47.1 160.95 46.69 160.84 46.27 160.91 45.91 160.8 45.61 160.6 45.68 160.2 45.62 159.75 45.77 159.35 46.05 158.99 46.37 158.65 46.05 158.25 45.61 158.11 45.15 158.08 44.71 157.98 44.26 157.91 43.82 157.81 43.37 157.78 43 157.82 42.94 158.19 42.89 158.59 43.12 158.94 43.08 159.35 43.1 159.73 43.12 160.17 43.03 160.61 42.65 160.84 42.23 161 41.79 160.95 41.36 160.96 40.92 161.01 40.48 160.95 40.05 160.91 39.61 160.83 39.17 160.82 38.7 160.77 38.46 160.35 38.62 159.9 38.86 159.54 39.02 159.14 39.29 158.82 39 158.5 38.64 158.28 38.22 158.22 37.83 158.05 37.4 158.03 36.99 157.87 36.57 157.77 36.14 157.93 35.71 158.22 35.73 158.65 35.85 159.05 36.02 159.44 36.08 159.87 36.03 160.38 35.76 160.82 35.26 160.94 34.83 160.98 34.41 161.01 33.98 160.95 33.55 160.99 33.12 161 32.69 160.93 32.26 161 31.83 160.94 31.4 160.92 30.96 160.86 30.84 161.03 30.9 161.14 31.16 161.5 31.44 161.85"/><polygon class="cls-2" points="45.59 165.76 45.41 166.1 45.08 166.29 44.76 166.55 44.36 166.49 43.97 166.55 43.53 166.62 43.08 166.52 42.65 166.6 42.21 166.68 41.78 166.71 41.34 166.73 40.91 166.8 40.47 166.77 40.04 166.96 39.6 166.96 39.16 167 38.72 166.9 38.28 167.03 37.85 167.13 37.42 167.21 36.97 167.19 36.53 167.17 36.09 167.19 35.65 167.29 35.21 167.23 34.78 167.37 34.33 167.3 33.9 167.48 33.46 167.56 33.23 167.54 33.35 167.74 33.69 168.01 33.91 168.39 34.08 168.4 34.52 168.35 34.95 168.28 35.4 168.34 35.84 168.29 36.28 168.21 36.72 168.21 37.16 168.22 37.6 168.09 38.04 168.04 38.47 167.93 38.92 168.07 39.35 167.86 39.8 167.96 40.23 167.86 40.67 167.8 41.11 167.73 41.55 167.72 41.99 167.75 42.43 167.62 42.88 167.68 43.32 167.68 43.75 167.49 44.19 167.42 44.64 167.47 45.09 167.53 45.52 167.35 45.97 167.38 46.41 167.37 46.86 167.37 47.31 167.33 47.75 167.18 48.22 167.21 48.62 166.96 48.68 166.55 48.52 166.21 48.19 165.97 47.92 165.63 47.49 165.52 47.21 165.19 46.78 165.12 46.44 164.93 46.16 165.18 45.81 165.41 45.59 165.76"/><path class="cls-2" d="M95.65,163.15l.31-.28.36-.3.39-.18.12-.37v-.47l-.27-.38-.39-.27-.34-.3-.36-.28-.31-.36-.45-.17-.32.3-.34.28-.3.32-.44.11-.45,0-.45,0-.46-.06-.45.06-.4-.16v-.41l.21-.35.38-.17.36-.09.13-.3L92,159l-.36-.25-.35-.27-.37-.23-.42-.14-.42-.11-.42-.06-.21.22-.08.39-.13.39-.21.4-.08.45-.15.42-.26.37-.23.39-.21.39-.25.38-.15.43-.29.35-.27.36-.13.45-.39.28-.14.45-.27.36-.3.34-.31.33-.18.42-.34.27-.3.3-.24.34-.14.36.16.21.42-.21.5-.08.33-.36.44-.21.32-.37.34-.23.33.07.2.36.23.38.06.44.08.44.25.38.26.35.23.37v.43l-.31.32-.31.29-.2.4-.29.32-.36.24-.37.22-.27.35-.41.16-.35.25-.35.24-.33.26-.36.22-.31.28-.05.25.31.19.41-.12.41-.14.38-.19.41-.15.42-.12.36-.24.38-.22.4-.16.38-.2.34-.28.39-.19.34-.27.39-.2L90,170l.37-.25.32-.31.31-.33.34-.28.23-.41.43-.2.3-.33.22-.4.29-.33.3-.33.2-.4.34-.3.28-.35.22-.39.25-.36.17-.42.38-.28.21-.4.18-.41Zm-5.7-1,.28-.23.32-.23H91l.44,0,.44.17h.44l.45-.12.5.16.1.52-.26.38-.2.38-.14.43-.3.33-.36.25-.42-.23-.27-.31-.31-.26-.31-.28-.39-.15-.37-.19-.27-.28ZM88.3,165l-.25-.25,0-.4.31-.31.26-.35.43-.19.26-.13.35.09.23.35.17.37,0,.42.11.39.34.43.32.44.19.29-.21.33-.32.28-.42-.13-.22-.35-.31-.24-.3-.26-.32-.24-.36-.2Z"/><polygon class="cls-2" points="96.55 168.62 96.11 168.53 95.67 168.58 95.22 168.55 94.78 168.47 94.34 168.55 93.9 168.59 93.46 168.56 93.01 168.48 92.57 168.47 92.36 168.59 92.47 168.78 92.73 169.14 92.98 169.51 93.14 169.49 93.59 169.59 94.04 169.45 94.49 169.51 94.94 169.57 95.4 169.52 95.85 169.46 96.3 169.57 96.75 169.55 97.21 169.46 97.66 169.63 98.11 169.58 98.57 169.6 99.02 169.59 99.48 169.61 99.93 169.46 100.38 169.54 100.81 169.4 101.02 169 100.82 168.61 100.62 168.2 100.26 167.93 99.94 167.63 99.53 167.45 99.21 167.13 98.77 166.96 98.41 167.24 98.09 167.52 97.93 167.94 97.58 168.28 97.3 168.54 96.92 168.61 96.55 168.62"/><polygon class="cls-2" points="92.89 175.35 92.56 175.1 92.26 174.81 92 174.47 91.55 174.39 91.23 174.13 90.88 173.93 90.48 174.18 90.29 174.65 90.17 175.03 89.94 175.39 89.61 175.67 89.45 176.08 89.11 176.34 88.81 176.65 88.5 176.94 88.28 177.31 88.01 177.65 87.7 177.94 87.35 178.19 87.06 178.5 86.74 178.79 86.29 178.9 85.99 179.22 85.67 179.51 85.22 179.58 85.08 180 85.48 180.18 85.89 180 86.33 179.96 86.74 179.82 87.12 179.59 87.55 179.49 87.92 179.24 88.34 179.11 88.72 178.89 89.09 178.66 89.45 178.42 89.88 178.28 90.22 178 90.56 177.73 90.92 177.48 91.27 177.21 91.62 176.95 91.94 176.64 92.39 176.5 92.71 176.24 93.03 175.98 93.19 175.64 92.89 175.35"/><polygon class="cls-2" points="107.84 169.65 107.59 169.53 107.17 169.43 106.78 169.26 106.41 169.04 106.09 168.74 105.72 168.52 105.33 168.34 105.02 168.04 104.61 167.88 104.25 167.66 103.99 167.29 103.65 167.04 103.25 166.84 103.03 166.46 102.65 166.24 102.54 165.83 102.39 165.39 102.7 165.04 102.93 164.66 103.24 164.35 103.48 163.97 103.68 163.56 104.03 163.28 104.28 162.9 104.71 162.71 104.97 162.33 105.32 162.06 105.7 161.81 106.17 161.84 106.53 161.52 106.7 161.15 106.5 160.77 106.16 160.47 105.87 160.12 105.53 159.81 105.15 159.55 104.76 159.31 104.45 158.94 104 158.91 103.62 159.01 103.31 159.3 103 159.59 102.72 159.88 102.38 160.1 101.96 160.07 101.54 160.18 101.12 160.18 100.7 160.16 100.28 160.04 99.86 160.04 99.43 160.04 99.29 160.2 99.29 160.38 99.53 160.75 99.94 160.97 100 161.04 100.48 161.13 100.96 161.08 101.44 161 101.92 161.04 102.4 161.1 102.89 161.28 102.91 161.8 102.81 162.2 102.69 162.58 102.44 162.91 102.33 163.31 102.17 163.68 101.97 164.04 101.65 164.36 101.19 164.38 100.75 164.2 100.52 163.85 100.37 163.44 100.04 163.17 99.92 162.75 99.55 162.49 99.42 162.07 99.12 161.76 98.94 161.38 98.76 160.99 98.6 160.6 98.5 160.18 98.23 159.83 98.04 159.45 97.91 159.04 97.67 158.68 97.45 158.31 97.21 157.88 96.87 157.54 96.59 157.86 96.62 158.3 96.8 158.71 96.79 159.16 97.07 159.53 97.17 159.97 97.31 160.38 97.36 160.83 97.56 161.23 97.79 161.61 97.98 162.01 98.14 162.42 98.28 162.85 98.52 163.22 98.73 163.61 98.87 164.04 99.03 164.45 99.35 164.77 99.56 165.14 99.81 165.49 99.98 165.89 100.29 166.19 100.44 166.61 100.73 166.93 101.09 167.2 101.37 167.52 101.6 167.88 101.88 168.21 102.16 168.53 102.46 168.84 102.77 169.14 103.02 169.49 103.32 169.8 103.62 170.1 103.93 170.4 104.25 170.68 104.56 170.98 104.87 171.28 105.27 171.46 105.62 171.7 105.95 171.52 106.18 171.23 106.4 171.07 106.84 171 107.2 170.79 107.57 170.59 107.98 170.53 108.36 170.34 108.74 170 108.36 169.72 107.84 169.65"/><polygon class="cls-2" points="99.61 174.19 99.4 174.49 99.63 174.69 99.96 174.9 100.31 175.08 100.59 175.36 100.89 175.64 101.24 175.87 101.58 176.13 101.82 176.47 102.05 176.82 102.3 177.16 102.58 177.47 102.67 177.9 102.85 178.27 103.11 178.61 103.33 179.02 103.65 179.35 103.95 179.69 104.31 179.98 104.75 180.16 105.23 180.2 105.67 180.02 106.04 179.77 106.34 179.45 106.63 179.08 106.69 178.6 106.59 178.16 106.36 177.79 106.19 177.39 106.04 176.95 105.72 176.63 105.31 176.43 104.95 176.17 104.59 175.92 104.16 175.79 103.78 175.56 103.4 175.35 102.98 175.19 102.59 174.97 102.18 174.79 101.76 174.66 101.3 174.67 100.9 174.46 100.47 174.36 100.05 174.19 99.61 174.19"/><polygon class="cls-2" points="98.58 172.89 99.03 172.75 99.47 172.82 99.92 172.77 100.37 172.88 100.81 172.87 101.26 172.89 101.7 172.85 102.15 172.73 102.6 172.82 103.05 172.72 103.5 172.86 103.94 172.75 104.39 172.69 104.61 172.28 104.33 171.91 104.04 171.56 103.73 171.24 103.41 170.92 103.07 170.62 102.72 170.33 102.27 170.2 101.81 170.43 101.47 170.81 101.13 171.2 100.83 171.66 100.39 171.84 99.93 171.86 99.46 171.88 99.02 171.72 98.59 171.76 98.15 171.87 97.71 171.73 97.27 171.74 96.83 171.9 96.4 171.78 95.97 171.77 95.53 171.83 95.09 171.72 94.65 171.73 94.22 171.73 93.78 171.72 93.34 171.76 92.9 171.82 92.46 171.78 92.02 171.81 91.58 171.82 91.14 171.84 90.7 171.8 90.27 171.89 89.83 171.71 89.38 171.84 88.94 171.72 88.5 171.76 88.43 171.94 88.39 172.07 88.71 172.36 88.89 172.78 89.07 172.89 89.52 172.73 89.97 172.72 90.43 172.81 90.88 172.85 91.34 172.76 91.79 172.73 92.25 172.84 92.7 172.88 93.16 172.76 93.61 172.85 94.07 172.88 94.53 172.72 94.94 172.81 95.23 173.09 95.51 173.38 95.59 173.79 95.6 174.24 95.59 174.69 95.46 175.15 95.57 175.61 95.49 176.07 95.54 176.52 95.52 176.98 95.48 177.43 95.52 177.9 95.21 178.25 94.77 178.38 94.31 178.33 93.85 178.31 93.4 178.45 92.94 178.34 92.49 178.42 92.13 178.62 92.6 178.91 93.03 178.95 93.41 179.17 93.72 179.47 93.94 179.84 94.16 180.19 94.49 180.47 94.83 180.7 95.23 180.78 95.65 180.71 96.11 180.74 96.47 180.45 96.84 180.26 97.23 180.06 97.51 179.74 97.59 179.32 97.78 178.93 97.65 178.5 97.79 178.1 97.84 177.68 97.81 177.26 97.65 176.82 97.65 176.38 97.79 175.94 97.72 175.5 97.66 175.06 97.64 174.62 97.68 174.17 97.58 173.74 97.67 173.21 98.09 172.9 98.58 172.89"/><polygon class="cls-2" points="63.33 165.37 63.17 164.97 62.97 164.56 62.65 164.23 62.38 163.86 61.93 163.7 61.58 163.49 61.3 163.76 61.09 164.23 60.87 164.62 60.69 165.02 60.36 165.33 60.07 165.66 59.89 166.07 59.69 166.46 59.39 166.79 59.08 167.1 58.94 167.54 58.65 167.87 58.36 168.21 58.02 168.51 57.84 168.93 57.53 169.25 57.19 169.54 56.9 169.88 56.72 170.29 56.38 170.58 56.08 170.91 55.86 171.29 55.69 171.71 55.4 172.03 55.57 172.27 55.99 172.17 56.31 171.88 56.72 171.68 57.08 171.42 57.41 171.13 57.71 170.79 58.13 170.58 58.53 170.34 59 170.49 59.17 170.92 59.37 171.34 59.34 171.8 59.46 172.25 59.38 172.7 59.44 173.13 59.4 173.56 59.42 173.99 59.39 174.41 59.39 174.84 59.38 175.27 59.31 175.7 59.19 176.12 59.26 176.55 59.15 176.98 59.2 177.41 59.21 177.84 59.13 178.27 59.09 178.7 59.11 179.13 59.19 179.55 59.15 180.05 59.51 180.41 59.83 180.75 60.29 180.85 60.78 180.88 61.19 180.62 61.55 180.31 61.72 179.88 61.73 179.43 61.74 179 61.88 178.56 61.8 178.13 61.71 177.69 61.8 177.26 61.66 176.83 61.68 176.39 61.67 175.96 61.68 175.52 61.75 175.08 61.77 174.65 61.74 174.21 61.63 173.77 61.72 173.33 61.58 172.89 61.54 172.46 61.53 172.02 61.66 171.58 61.66 171.15 61.47 170.71 61.46 170.28 61.48 169.82 61.73 169.56 62.08 169.4 62.09 169.04 61.99 168.69 61.66 168.49 61.27 168.41 60.87 168.15 61.1 167.7 61.35 167.41 61.63 167.15 61.96 166.92 62.15 166.56 62.54 166.25 62.89 165.91 63.26 165.76 63.33 165.37"/><polygon class="cls-2" points="56.4 164.58 56.76 164.38 57.17 164.31 57.46 163.98 57.8 163.77 58.19 163.63 58.58 163.49 58.88 163.18 59.23 162.96 59.62 162.77 59.9 162.43 60.32 162.28 60.68 162.04 61.02 161.73 61.38 161.43 61.78 161.19 62.08 160.82 62.53 160.66 62.91 160.45 62.89 160.28 63.32 160.22 63.52 159.89 63.39 159.52 63.16 159.17 62.82 158.91 62.57 158.56 62.27 158.25 61.91 158.03 61.5 157.96 61.09 158.11 60.94 158.57 60.88 158.69 60.56 159.01 60.35 159.38 60.09 159.72 59.92 160.13 59.59 160.41 59.41 160.82 59.12 161.15 58.8 161.44 58.6 161.84 58.31 162.16 57.9 162.38 57.71 162.78 57.23 163.23 56.79 163.5 56.5 163.92 56.18 164.3 56.4 164.58"/><polygon class="cls-2" points="65.18 167.02 64.8 166.99 64.76 167.36 64.74 167.73 64.76 168.11 64.63 168.48 64.65 168.85 64.64 169.27 64.64 169.7 64.53 170.11 64.55 170.55 64.5 170.97 64.41 171.38 64.32 171.8 64.19 172.21 64.16 172.64 63.98 173.03 64.01 173.48 63.79 173.87 63.65 174.27 63.53 174.68 63.37 175.07 63.36 175.53 63.09 175.88 62.85 176.23 62.85 176.4 62.52 176.72 62.37 177.15 62.6 177.42 62.85 177.23 63.19 176.98 63.49 176.68 63.79 176.38 64.11 176.1 64.37 175.76 64.58 175.39 64.81 175.03 65.1 174.71 65.24 174.3 65.42 173.92 65.63 173.54 65.65 173.1 65.85 172.72 65.97 172.31 66.16 171.92 66.29 171.51 66.19 171.05 66.38 170.63 66.47 170.2 66.45 169.71 66.53 169.22 66.87 169 67.06 168.71 67.25 168.44 67.02 168.1 66.75 167.77 66.44 167.43 65.98 167.35 65.6 167.13 65.18 167.02"/><polygon class="cls-2" points="70.59 156.89 70.99 157.1 71.25 157.45 71.41 157.85 71.59 158.23 71.78 158.59 71.94 158.98 72.04 159.38 72.26 159.73 72.53 160.03 72.82 160.32 73.24 160.29 73.63 160.26 74.04 160.16 74.36 159.87 74.4 159.44 74.47 159.05 74.54 158.63 74.46 158.21 74.18 157.88 73.98 157.5 73.61 157.28 73.26 157.07 72.92 156.81 72.57 156.56 72.14 156.48 71.73 156.38 71.32 156.29 70.91 156.15 70.42 156.5 70.59 156.89"/><polygon class="cls-2" points="75.16 160.96 75.36 161.02 75.78 161.04 76.2 161.02 76.62 161.02 77.04 161.01 77.45 161.11 77.87 161.02 78.29 161.11 78.71 161.08 79.13 161.02 79.56 161.12 79.98 161.02 80.38 160.96 80.75 160.85 80.95 160.54 80.88 160.12 80.5 159.88 80.29 159.49 79.9 159.3 79.61 158.98 79.22 158.81 78.81 158.69 78.36 158.81 78.18 159.25 77.99 159.66 77.88 159.7 77.69 159.91 77.34 160.09 76.97 160.08 76.49 160.08 76 159.93 75.52 160 75.04 160.08 74.95 160.13 74.83 160.28 75 160.62 75.16 160.96"/><polygon class="cls-2" points="70.89 164.22 71.32 164.07 71.74 164.07 72.17 164.15 72.6 164.1 73.03 164.24 73.52 164.17 73.97 163.98 74.14 163.61 74.11 163.22 73.91 162.85 73.56 162.63 73.25 162.38 72.92 162.14 72.55 161.91 72.12 162.11 71.93 162.5 71.66 162.82 71.34 163.05 70.89 163.11 70.46 163.1 70.12 162.91 69.88 162.59 69.82 162.16 69.74 161.72 69.87 161.29 69.88 160.86 69.83 160.44 69.88 160.01 70.07 159.65 70.31 159.29 70.46 158.89 70.22 158.6 69.95 158.27 69.56 158.12 69.13 158.13 68.77 157.87 68.36 157.78 67.94 157.87 67.61 157.99 67.51 158.22 67.48 158.67 67.71 159.06 67.73 159.48 67.77 159.9 67.75 160.33 67.67 160.75 67.81 161.17 67.88 161.59 67.73 162.01 67.74 162.43 67.69 162.87 67.31 163.13 66.87 163.14 66.42 163.24 65.96 163.24 65.5 163.23 65.04 163.24 64.58 163.12 64.12 163.09 64.12 163.1 63.93 163.23 64.06 163.37 64.2 163.73 64.45 164.04 64.53 164.13 64.99 164.18 65.45 164.21 65.92 164.21 66.38 164.26 66.85 164.13 67.36 164.22 67.64 164.64 67.82 165.09 67.9 165.53 67.9 165.97 67.88 166.41 67.71 166.84 67.84 167.28 67.74 167.72 67.83 168.16 67.67 168.6 67.7 169.04 67.77 169.48 67.72 169.91 67.7 170.35 67.62 170.79 67.69 171.23 67.72 171.67 67.6 172.11 67.71 172.55 67.69 172.99 67.72 173.44 67.53 173.87 67.52 174.31 67.56 174.75 67.65 175.2 67.63 175.64 67.49 176.07 67.62 176.52 67.47 176.96 67.47 177.4 67.53 177.84 67.56 178.28 67.48 178.72 67.53 179.16 67.45 179.59 67.53 180.06 67.77 180.45 68.05 180.82 68.51 180.92 68.94 180.91 69.34 180.76 69.64 180.45 69.98 180.2 70.18 179.82 70.24 179.39 70.2 178.96 70.11 178.53 70.23 178.09 70.14 177.66 70.16 177.23 70.13 176.8 70.12 176.37 70.03 175.94 70.01 175.5 70.01 175.07 70.05 174.64 70.09 174.2 70.08 173.77 70.04 173.34 70.02 172.91 70.01 172.47 69.98 172.04 70.06 171.6 69.95 171.16 69.99 170.73 69.87 170.3 70.02 169.86 70.02 169.42 69.87 168.99 69.99 168.56 69.83 168.12 69.91 167.69 69.91 167.25 69.89 166.82 69.92 166.38 69.85 165.95 69.81 165.51 69.88 165.09 69.88 164.69 70.17 164.42 70.5 164.21 70.89 164.22"/><polygon class="cls-2" points="79.53 164.45 79.15 164.72 79.07 165.16 78.76 165.46 78.52 165.83 78.08 165.94 77.67 165.94 77.25 165.9 76.83 165.89 76.42 165.77 76 165.86 75.58 165.93 75.16 165.87 74.74 165.78 74.33 165.85 73.91 165.89 73.75 165.94 73.83 166.08 74.05 166.41 74.11 166.84 74.33 166.78 74.72 166.92 75.13 166.81 75.53 166.79 75.93 166.83 76.33 166.91 76.75 166.91 77.03 167.21 77.22 167.57 77.34 167.98 77.34 168.43 77.28 168.88 77.18 169.33 77.23 169.77 77.23 170.22 77.34 170.66 77.19 171.11 77.27 171.56 77.23 172.01 77.29 172.46 77.13 172.91 77.22 173.36 77.21 173.81 77.17 174.26 77.09 174.7 77.12 175.15 77.06 175.6 77.07 176.04 76.99 176.44 76.95 176.84 76.88 177.24 76.7 177.63 76.33 177.86 75.9 177.84 75.5 177.84 75.08 177.89 74.64 177.88 74.22 177.77 73.78 177.76 73.25 178.15 73.62 178.43 74.01 178.59 74.4 178.76 74.72 179.05 74.95 179.4 75.31 179.66 75.36 180.1 75.52 180.49 75.68 180.88 76.09 180.98 76.51 180.96 76.94 181.04 77.36 180.92 77.76 180.74 78.16 180.59 78.48 180.3 78.83 180.03 79.01 179.63 79.31 179.32 79.37 178.88 79.5 178.49 79.61 178.05 79.59 177.61 79.56 177.17 79.47 176.73 79.57 176.29 79.48 175.85 79.38 175.41 79.51 174.97 79.37 174.53 79.4 174.09 79.52 173.64 79.32 173.2 79.33 172.76 79.47 172.31 79.39 171.86 79.31 171.42 79.26 170.97 79.42 170.53 79.38 170.08 79.33 169.64 79.23 169.2 79.37 168.76 79.36 168.32 79.35 167.88 79.33 167.49 79.62 167.22 79.88 166.94 80.26 166.83 80.79 166.9 81.2 166.93 81.61 166.79 81.69 166.41 81.58 166.02 81.36 165.66 81.09 165.3 80.72 165.06 80.37 164.79 79.93 164.68 79.53 164.45"/><polygon class="cls-2" points="73.86 176.56 74.28 176.5 74.62 176.25 74.93 175.96 75.02 175.54 75.13 175.15 75.06 174.73 75.05 174.33 75 173.89 74.94 173.46 74.89 173.02 74.87 172.58 74.67 172.18 74.58 171.75 74.41 171.34 74.3 170.91 74.2 170.47 73.89 170.13 73.75 169.71 73.55 169.31 73.41 168.89 73.18 168.51 72.92 168.15 72.57 167.86 72.43 167.4 72.06 167.15 71.74 166.84 71.31 166.77 71.23 166.69 70.95 166.97 71.27 167.43 71.39 167.71 71.48 168.14 71.54 168.58 71.7 168.99 71.8 169.42 71.89 169.85 71.86 170.3 72.04 170.72 71.95 171.17 72.02 171.6 72.18 172.03 72.04 172.47 72.18 172.9 72.14 173.34 72.22 173.78 72.33 174.21 72.32 174.65 72.42 175.09 72.53 175.53 72.69 175.96 73.05 176.24 73.39 176.55 73.86 176.56"/></g></g></svg>