<svg xmlns="http://www.w3.org/2000/svg" viewBox="0 0 103.63 158.02"><defs><style>.cls-1{fill:#231815;fill-rule:evenodd;}.cls-2{fill:#1a96d5;}.cls-3{fill:#4774b9;}.cls-4{fill:#84ccc9;}.cls-5{fill:#7ecef4;}.cls-6{fill:#0fadca;}.cls-7{fill:#0068b7;}</style></defs><title>アセット 15</title><g id="レイヤー_2" data-name="レイヤー 2"><g id="レイヤー_1-2" data-name="レイヤー 1"><path class="cls-1" d="M77.06,44.12h0v0h0Z"/><polygon class="cls-2" points="8.15 54.83 8.38 54.87 8.69 54.91 8.95 54.86 9.25 54.91 9.75 54.74 10.19 54.78 10.62 54.61 10.99 54.48 11.32 54.44 11.54 54.34 11.79 54.28 12 54.13 12.35 54.03 12.58 53.93 12.9 53.72 13.13 53.53 13.13 53.31 13.05 53.1 12.86 53.03 12.55 53.07 12.32 53.15 12.07 53.15 11.83 53.21 11.52 53.34 11.19 53.35 10.84 53.42 10.57 53.37 10.15 53.51 9.72 53.52 9.29 53.58 8.96 53.56 8.67 53.7 8.38 53.56 8.11 53.71 8.05 53.91 8.1 54.19 8.01 54.39 8.05 54.67 8.15 54.83"/><polygon class="cls-2" points="61.57 52.47 61.35 52.24 61.04 52.2 60.83 51.96 60.56 51.85 60.25 51.82 59.99 51.68 59.77 51.46 59.52 51.32 59.21 51.27 59.01 51.02 58.75 50.88 58.47 50.78 58.24 50.59 58.04 50.37 57.79 50.21 57.49 50.14 57.26 49.96 57.03 49.78 56.72 49.73 56.48 49.56 56.18 49.52 55.96 49.29 55.64 49.31 55.37 49.19 55.1 49.09 54.84 48.9 54.55 48.84 54.26 48.81 53.96 48.83 53.66 48.82 53.38 48.75 53.08 48.73 52.79 48.66 52.49 48.75 52.2 48.66 51.9 48.7 51.61 48.68 51.33 48.83 51.03 48.84 50.73 48.78 50.46 48.95 50.15 48.94 49.88 49.07 49.58 49.09 49.31 49.21 49.02 49.28 48.75 49.39 48.51 49.58 48.26 49.74 48.02 49.9 47.74 50 47.47 50.11 47.24 50.3 46.95 50.39 46.76 50.63 46.49 50.76 46.22 50.88 45.99 51.06 45.72 51.17 45.51 51.39 45.27 51.57 44.97 51.63 44.74 51.83 44.46 51.93 44.15 51.97 43.92 52.16 43.64 52.26 43.37 52.36 43.14 52.57 42.85 52.64 42.58 52.74 42.28 52.8 42.03 52.97 41.74 53.03 41.45 53.08 41.15 53.09 40.89 53.26 40.6 53.29 40.33 53.43 40.03 53.43 39.75 53.51 39.45 53.49 39.16 53.57 38.86 53.51 38.57 53.57 38.28 53.66 37.99 53.55 37.74 53.6 37.4 53.58 37.11 53.51 36.81 53.51 36.52 53.52 36.23 53.5 35.94 53.41 35.63 53.51 35.37 53.32 35.06 53.39 34.79 53.22 34.5 53.2 34.22 53.1 33.94 53.02 33.63 53.06 33.38 52.86 33.08 52.84 32.81 52.71 32.54 52.6 32.25 52.54 32.01 52.36 31.76 52.2 31.46 52.16 31.22 51.98 30.91 51.95 30.68 51.77 30.4 51.67 30.18 51.45 29.88 51.38 29.66 51.17 29.39 51.05 29.14 50.91 28.93 50.68 28.68 50.53 28.41 50.42 28.19 50.22 27.94 50.06 27.69 49.91 27.43 49.76 27.1 49.76 26.88 49.56 26.6 49.47 26.32 49.39 26.06 49.25 25.8 49.11 25.51 49.03 25.23 48.94 24.93 48.92 24.63 48.94 24.36 48.8 24.08 48.7 23.77 48.75 23.48 48.78 23.19 48.65 22.89 48.75 22.6 48.77 22.31 48.81 22 48.67 21.71 48.72 21.43 48.86 21.14 48.85 20.85 48.9 20.57 49.02 20.28 49.07 20.01 49.19 19.75 49.31 19.45 49.35 19.2 49.52 18.91 49.58 18.67 49.75 18.38 49.83 18.15 50.02 17.85 50.09 17.61 50.26 17.4 50.47 17.16 50.64 16.89 50.75 16.59 50.83 16.43 51.12 16.16 51.25 15.92 51.41 15.6 51.44 15.37 51.63 15.15 51.83 14.87 51.9 14.63 52.09 14.56 52.31 14.59 52.56 14.7 52.62 14.84 52.6 15.14 52.52 15.42 52.39 15.64 52.14 15.99 52.14 16.23 51.98 16.5 51.86 16.74 51.69 16.97 51.48 17.24 51.36 17.5 51.23 17.8 51.19 18.04 51.01 18.36 51.02 18.58 50.79 18.88 50.76 19.16 50.65 19.43 50.55 19.72 50.52 20.01 50.46 20.28 50.35 20.56 50.24 20.86 50.3 21.13 50.15 21.44 50.23 21.73 50.18 22.02 50.18 22.31 50.17 22.6 50.17 22.89 50.07 23.18 50.18 23.48 50.1 23.77 50.22 24.07 50.16 24.35 50.23 24.65 50.19 24.92 50.36 25.21 50.39 25.5 50.41 25.81 50.36 26.06 50.55 26.37 50.53 26.63 50.7 26.93 50.71 27.21 50.79 27.45 50.98 27.72 51.09 28 51.18 28.23 51.37 28.52 51.42 28.77 51.6 29.04 51.69 29.33 51.76 29.54 52 29.87 52 30.07 52.25 30.38 52.31 30.59 52.53 30.83 52.69 31.14 52.76 31.38 52.93 31.65 53.04 31.89 53.2 32.16 53.32 32.34 53.6 32.6 53.74 32.88 53.84 33.18 53.89 33.39 54.13 33.67 54.2 33.97 54.25 34.21 54.45 34.53 54.43 34.78 54.6 35.06 54.69 35.35 54.76 35.63 54.84 35.93 54.83 36.22 54.87 36.52 54.9 36.81 54.96 37.1 54.89 37.4 54.96 37.61 54.95 37.99 54.96 38.28 54.98 38.58 54.97 38.87 54.93 39.16 54.89 39.45 54.85 39.73 54.72 40.04 54.78 40.3 54.61 40.59 54.56 40.87 54.45 41.17 54.43 41.44 54.31 41.68 54.13 42 54.12 42.22 53.9 42.52 53.85 42.74 53.63 43.01 53.51 43.27 53.38 43.52 53.24 43.78 53.1 43.99 52.88 44.3 52.82 44.52 52.63 44.76 52.46 45.07 52.41 45.28 52.19 45.57 52.11 45.8 51.91 46.08 51.81 46.33 51.66 46.6 51.55 46.85 51.4 47.11 51.25 47.39 51.17 47.66 51.06 47.95 51 48.23 50.9 48.49 50.77 48.74 50.6 49.03 50.56 49.33 50.54 49.59 50.37 49.88 50.32 50.17 50.28 50.47 50.34 50.75 50.26 51.03 50.16 51.33 50.19 51.62 50.16 51.91 50.13 52.2 50.17 52.49 50.15 52.79 50.18 53.08 50.13 53.37 50.22 53.67 50.1 53.96 50.13 54.24 50.26 54.53 50.32 54.81 50.37 55.1 50.42 55.41 50.37 55.69 50.47 55.94 50.66 56.22 50.74 56.53 50.71 56.81 50.79 57.05 50.98 57.32 51.09 57.61 51.15 57.86 51.3 58.1 51.47 58.38 51.58 58.65 51.68 58.9 51.84 59.17 51.94 59.47 52 59.7 52.19 59.97 52.33 60.18 52.54 60.5 52.57 60.69 52.83 60.95 52.96 61.23 53.07 61.49 53.2 61.72 53.4 61.94 53.61 62.25 53.64 62.52 53.76 62.74 53.98 62.98 54.14 63.3 54.15 63.56 54.3 63.85 54.34 64.13 54.44 64.38 54.59 64.65 54.73 64.97 54.69 65.23 54.87 65.52 54.89 65.82 54.88 66.12 54.89 66.4 55.01 66.7 54.96 67 54.97 67.24 54.96 67.59 55.06 67.88 54.93 68.32 54.91 68.53 54.8 68.83 54.76 69.09 54.56 69.57 54.46 69.88 54.33 70.32 54.27 70.86 54.07 71.28 53.93 71.69 53.55 71.97 53.5 72.29 53.18 72.29 52.99 72.17 52.79 71.89 52.82 71.4 52.97 70.91 53.19 70.31 53.26 69.91 53.38 69.61 53.39 69.31 53.37 69.03 53.43 68.75 53.55 68.46 53.51 68.17 53.5 67.88 53.6 67.59 53.62 67.35 53.58 67.23 53.59 67 53.62 66.7 53.59 66.41 53.55 66.12 53.47 65.83 53.44 65.54 53.47 65.23 53.52 64.95 53.41 64.67 53.31 64.39 53.25 64.1 53.22 63.82 53.1 63.51 53.14 63.24 53.03 62.95 52.95 62.7 52.78 62.39 52.78 62.14 52.62 61.87 52.51 61.57 52.47"/><polygon class="cls-2" points="76.33 51.23 76.59 51.27 76.76 51.26 77.04 51.05 77.32 50.94 77.61 50.88 77.9 50.85 78.15 50.65 78.45 50.66 78.81 50.47 79.17 50.31 79.76 50.16 80.05 50.1 80.35 50.17 80.64 50.1 80.92 50.01 81.21 49.98 81.51 50.09 81.8 50.16 82.09 50.08 82.39 50.08 82.68 50.17 82.97 50.19 83.27 50.11 83.55 50.28 83.86 50.15 84.13 50.32 84.41 50.4 84.71 50.36 85.01 50.38 85.29 50.47 85.55 50.61 85.83 50.69 86.14 50.7 86.42 50.78 86.67 50.93 86.93 51.07 87.19 51.19 87.5 51.23 87.75 51.37 87.98 51.57 88.25 51.67 88.48 51.86 88.74 52.01 89.04 52.07 89.32 52.16 89.55 52.36 89.85 52.42 90.08 52.62 90.33 52.77 90.57 52.94 90.78 53.16 91.04 53.3 91.31 53.42 91.56 53.56 91.86 53.63 92.09 53.82 92.34 53.96 92.64 54.02 92.89 54.18 93.17 54.26 93.44 54.38 93.72 54.48 94.01 54.51 94.27 54.66 94.58 54.65 94.84 54.81 95.12 54.93 95.42 54.89 95.72 54.87 96.01 54.96 96.3 55.04 96.6 55.03 96.69 54.93 96.82 54.71 96.91 54.43 96.82 54.15 96.9 53.87 96.8 53.72 96.6 53.66 96.31 53.56 96.02 53.52 95.72 53.48 95.43 53.54 95.14 53.45 94.86 53.36 94.55 53.41 94.26 53.38 93.98 53.29 93.69 53.23 93.42 53.11 93.12 53.1 92.87 52.92 92.54 52.99 92.29 52.81 92.03 52.67 91.73 52.63 91.48 52.48 91.18 52.43 90.91 52.34 90.64 52.22 90.38 52.07 90.12 51.94 89.92 51.7 89.59 51.69 89.34 51.52 89.08 51.39 88.84 51.22 88.61 51.03 88.31 50.96 88.09 50.75 87.86 50.56 87.6 50.43 87.39 50.21 87.11 50.11 86.88 49.92 86.58 49.87 86.35 49.67 86.08 49.55 85.8 49.46 85.57 49.26 85.29 49.17 84.97 49.21 84.69 49.13 84.42 48.99 84.13 48.95 83.86 48.79 83.56 48.85 83.27 48.74 82.98 48.67 82.68 48.82 82.39 48.77 82.09 48.68 81.81 48.8 81.52 48.82 81.24 48.77 80.95 48.78 80.67 48.81 80.39 48.91 80.09 48.84 79.81 48.9 79.53 48.97 79.3 49.19 78.75 49.25 78.34 49.46 78.02 49.69 77.75 49.79 77.5 49.91 77.2 49.95 76.99 50.16 76.74 50.3 76.49 50.43 76.31 50.62 76.08 51.01 76.15 51.14 76.33 51.23"/><polygon class="cls-3" points="44.14 43.48 43.85 43.63 43.56 43.51 43.28 43.49 42.99 43.56 42.7 43.49 42.42 43.5 42.13 43.49 41.85 43.45 41.57 43.38 41.29 43.32 40.99 43.33 40.71 43.3 40.44 43.18 40.16 43.1 39.89 42.99 39.61 42.95 39.34 42.87 39.06 42.79 38.75 42.84 38.47 42.75 38.21 42.64 37.97 42.45 37.66 42.45 37.43 42.25 37.17 42.13 36.87 42.12 36.61 42 36.37 41.84 36.15 41.65 35.83 41.66 35.63 41.42 35.38 41.3 35.07 41.28 34.87 41.05 34.58 40.99 34.36 40.79 34.05 40.78 33.78 40.7 33.51 40.61 33.29 40.38 33 40.35 32.72 40.28 32.47 40.13 32.19 40.08 31.88 40.15 31.62 40 31.33 40.02 31.05 39.93 30.76 39.97 30.48 39.86 30.19 39.96 29.91 39.92 29.63 39.95 29.34 39.89 29.05 39.95 28.77 39.84 28.49 39.98 28.2 39.94 27.92 39.97 27.64 40.01 27.35 40.03 27.06 40.06 26.8 40.21 26.53 40.28 26.26 40.38 26.01 40.51 25.72 40.55 25.44 40.59 25.22 40.81 24.96 40.92 24.65 40.92 24.41 41.08 24.16 41.2 23.95 41.42 23.68 41.5 23.4 41.58 23.18 41.79 22.9 41.87 22.61 41.92 22.39 42.12 22.11 42.21 21.83 42.28 21.59 42.44 21.31 42.52 21.04 42.61 20.75 42.64 20.47 42.71 20.22 42.85 19.94 42.92 19.65 42.94 19.39 43.09 19.09 43.05 18.84 43.25 18.56 43.32 18.27 43.33 17.99 43.39 17.71 43.47 17.41 43.43 17.13 43.48 16.84 43.54 16.55 43.55 16.27 43.56 15.98 43.54 15.69 43.63 15.4 43.54 15.11 43.52 14.86 43.64 14.77 43.86 14.87 44.12 15.12 44.23 15.41 44.06 15.7 44.06 15.99 44.15 16.28 44.17 16.57 44.18 16.85 44.06 17.14 44.01 17.44 44.06 17.72 44.01 18 43.94 18.29 43.88 18.57 43.81 18.84 43.73 19.13 43.72 19.42 43.69 19.69 43.57 19.96 43.48 20.25 43.43 20.54 43.39 20.77 43.17 21.09 43.21 21.32 43.01 21.63 43.01 21.86 42.8 22.14 42.73 22.44 42.7 22.66 42.45 22.94 42.37 23.2 42.26 23.51 42.26 23.78 42.18 24.01 41.98 24.29 41.91 24.57 41.86 24.85 41.81 25.09 41.6 25.36 41.51 25.66 41.53 25.95 41.5 26.21 41.37 26.47 41.23 26.77 41.27 27.04 41.15 27.34 41.2 27.61 41.05 27.91 41.16 28.19 41.04 28.48 41.09 28.76 41.05 29.05 41.02 29.34 41.11 29.63 40.94 29.91 41.08 30.21 40.97 30.49 41.01 30.78 40.99 31.06 41.12 31.35 41.08 31.62 41.17 31.9 41.23 32.19 41.23 32.46 41.3 32.76 41.29 33.02 41.42 33.32 41.4 33.59 41.47 33.86 41.58 34.15 41.59 34.41 41.72 34.66 41.89 34.97 41.89 35.24 41.96 35.48 42.14 35.78 42.16 36.06 42.24 36.31 42.38 36.54 42.59 36.84 42.62 37.1 42.75 37.35 42.91 37.66 42.9 37.88 43.11 38.16 43.19 38.45 43.24 38.74 43.28 39 43.42 39.28 43.48 39.55 43.57 39.85 43.57 40.11 43.74 40.39 43.83 40.69 43.79 40.97 43.87 41.26 43.89 41.54 43.94 41.83 43.98 42.12 44 42.41 44.01 42.7 44.04 42.98 44.11 43.27 44.06 43.56 44.21 43.85 44.16 44.14 44.21 44.38 44.14 44.4 44.1 44.41 44.16 44.72 44.22 45.01 44.13 45.3 44.17 45.59 44.18 45.88 44.16 46.16 44.13 46.45 44.1 46.74 44.02 47.03 44.06 47.31 43.91 47.59 43.87 47.9 43.93 48.16 43.78 48.45 43.77 48.74 43.7 49.03 43.7 49.28 43.51 49.59 43.52 49.86 43.42 50.12 43.3 50.42 43.3 50.69 43.19 50.96 43.07 51.23 42.99 51.49 42.87 51.72 42.66 52 42.59 52.29 42.53 52.57 42.4 52.85 42.27 53.14 42.18 53.41 42.04 53.72 42 54 41.86 54.21 41.73 54.28 41.52 54.31 41.24 54.24 41.08 54.01 41.04 53.78 41.23 53.52 41.35 53.24 41.43 53.01 41.6 52.75 41.72 52.51 41.88 52.26 42.03 51.97 42.07 51.73 42.25 51.44 42.3 51.17 42.4 50.9 42.5 50.63 42.59 50.35 42.65 50.08 42.76 49.83 42.93 49.52 42.88 49.24 42.93 48.97 43.04 48.7 43.13 48.42 43.23 48.12 43.17 47.84 43.24 47.57 43.35 47.28 43.31 47.01 43.48 46.72 43.48 46.44 43.46 46.16 43.57 45.87 43.59 45.58 43.55 45.29 43.53 45.01 43.6 44.72 43.5 44.36 43.55 44.36 43.6 44.35 43.59 44.14 43.48"/><path class="cls-3" d="M103.6,43.67l-.26-.15-.29.11-.29-.09-.29.07-.28-.13-.28,0h-.58l-.28-.1-.29.08-.26-.21-.31.11-.27-.12-.27-.09h-.3L99.1,43l-.29,0h-.29l-.29,0L98,42.74h-.3l-.25-.17-.26-.11-.26-.13-.27-.09h-.31L96.12,42l-.3,0-.24-.15-.24-.15-.27-.09-.23-.16-.27-.1-.24-.16-.3,0L93.78,41l-.25-.13-.29-.07L93,40.59l-.27-.09-.27-.09-.27-.08-.27-.11-.3,0-.25-.17L91.1,40l-.29,0h-.29L90.25,40,90,39.94l-.29,0h-.57l-.28,0-.29,0-.28.11L88,39.83l-.28.14h-.28l-.29,0-.29,0-.27.12-.27.09-.3,0-.27.09-.28,0-.24.2h-.29l-.26.12-.25.14-.29,0-.25.13-.27.1-.23.18-.23.17-.26.11-.28.07-.21.23-.32,0-.25.14-.22.21h-.31l-.21.24-.3,0-.26.12-.3,0-.26.11-.24.19h-.3l-.28.06-.26.15-.27.09-.3,0-.27.11-.27.12-.28,0h-.29l-.3,0-.27.16-.29,0H76l-.29,0-.29-.05-.28.08-.29,0-.28.05-.29,0-.27-.06v0l-.33,0-.31,0-.3-.06-.3,0h-.61l-.31,0-.3,0-.29-.09-.18.1-.06.13,0,.2.21.12.3.06.3,0,.29.13h.31l.29.06.31-.09.3,0,.3.09h.6l.29,0,.29-.1.29.07.29-.11.29,0,.28-.09.3.07.29,0,.29,0,.28-.08.28-.09.28-.06.28-.06.29,0,.26-.11.28-.06.28-.07.28-.07.28-.07.26-.12h.31l.22-.23.28-.08.3,0,.27-.1.29-.07.25-.14.29-.08.25-.12.27-.11.27-.08.27-.08.25-.16.25-.13.29,0,.25-.18.28-.05.29,0,.27-.07.28,0,.27-.13.3.05.28,0,.27-.18.3.07.28-.07.28-.05.28,0L88,41h.29l.29.06h.29l.29,0,.29-.08.28,0,.28,0,.3-.09.28.08.28.07h.28l.27.15.28,0,.3-.08.29.05.26.13.26.12.31,0,.28.08.27.09.27.08.25.16.29,0,.28.09.22.22h.31l.24.19.28.06.25.15.3,0,.26.12.25.16.28,0,.29,0,.24.19.28.08.29,0,.29,0,.26.12.25.19.31,0,.29,0,.27.13h.29l.27.15.29,0,.3,0,.28.11h.29l.29.06.29,0,.29,0,.29,0,.29-.07.29.09.18-.14.11-.22ZM74,43.86v0Z"/><polygon class="cls-4" points="88.8 63.53 88.77 63.34 88.54 63.27 88.25 63.27 87.96 63.2 87.67 63.21 87.39 63.14 87.1 63.19 86.82 63.18 86.53 63.18 86.25 63.06 85.97 63.07 85.68 63.02 85.41 62.89 85.13 62.87 84.83 62.9 84.56 62.79 84.26 62.82 84.02 62.59 83.71 62.63 83.46 62.47 83.19 62.37 82.89 62.37 82.65 62.18 82.36 62.16 82.07 62.09 81.81 61.97 81.57 61.8 81.26 61.8 81.03 61.62 80.78 61.48 80.5 61.43 80.24 61.3 80.01 61.14 79.78 60.96 79.49 60.92 79.25 60.76 79.02 60.58 78.71 60.56 78.43 60.49 78.21 60.3 77.92 60.25 77.66 60.13 77.41 60.01 77.11 60.02 76.86 59.83 76.58 59.77 76.29 59.75 76.02 59.67 75.74 59.59 75.45 59.58 75.17 59.59 74.89 59.5 74.6 59.62 74.31 59.59 74.03 59.51 73.74 59.5 73.45 59.51 73.17 59.51 72.88 59.54 72.61 59.63 72.32 59.63 72.05 59.75 71.75 59.71 71.49 59.84 71.2 59.85 70.94 59.99 70.66 60.05 70.39 60.11 70.14 60.26 69.87 60.33 69.63 60.49 69.37 60.6 69.07 60.62 68.79 60.69 68.59 60.92 68.31 61 68.06 61.15 67.8 61.25 67.56 61.41 67.26 61.45 67.06 61.68 66.77 61.73 66.49 61.81 66.26 62 65.95 62.01 65.69 62.11 65.43 62.24 65.14 62.28 64.89 62.44 64.61 62.48 64.35 62.62 64.05 62.61 63.79 62.75 63.5 62.75 63.24 62.91 62.95 62.93 62.67 63.02 62.37 62.93 62.09 63.02 61.81 63.1 61.53 63.19 61.25 63.22 60.95 63.16 60.67 63.21 60.38 63.26 60.09 63.25 59.8 63.23 59.52 63.18 59.27 63.25 59.17 63.26 58.94 63.17 58.65 63.2 58.36 63.29 58.08 63.2 57.79 63.12 57.5 63.22 57.22 63.09 56.94 63.06 56.65 63.07 56.36 63.07 56.09 63 55.8 62.98 55.52 62.93 55.23 62.89 54.95 62.86 54.7 62.66 54.4 62.66 54.1 62.67 53.83 62.56 53.57 62.43 53.3 62.33 53.03 62.23 52.74 62.2 52.51 62 52.22 61.96 51.92 61.93 51.69 61.73 51.41 61.66 51.18 61.48 50.93 61.35 50.69 61.21 50.44 61.08 50.13 61.07 49.93 60.83 49.61 60.84 49.37 60.69 49.12 60.54 48.86 60.43 48.59 60.34 48.34 60.19 48.06 60.13 47.81 59.99 47.51 59.99 47.24 59.91 46.98 59.76 46.69 59.77 46.41 59.68 46.13 59.64 45.85 59.56 45.56 59.67 45.28 59.64 45 59.56 44.71 59.54 44.43 59.61 44.14 59.63 43.85 59.56 43.57 59.62 43.28 59.53 42.99 59.55 42.72 59.63 42.44 59.68 42.16 59.74 41.87 59.77 41.58 59.79 41.32 59.9 41.05 60 40.8 60.16 40.53 60.24 40.26 60.32 40 60.43 39.71 60.46 39.47 60.63 39.23 60.79 38.98 60.92 38.69 60.96 38.48 61.19 38.2 61.26 37.92 61.33 37.69 61.51 37.43 61.62 37.15 61.69 36.9 61.82 36.62 61.9 36.34 61.98 36.1 62.15 35.84 62.27 35.54 62.27 35.28 62.4 35.01 62.51 34.76 62.67 34.47 62.68 34.2 62.79 33.9 62.74 33.62 62.82 33.35 62.95 33.07 63.01 32.79 63.08 32.5 63.08 32.21 63.06 31.93 63.19 31.64 63.14 31.35 63.15 31.07 63.21 30.77 63.13 30.49 63.22 30.2 63.29 29.92 63.27 29.69 63.26 29.34 63.2 29.05 63.27 28.76 63.21 28.47 63.21 28.18 63.27 27.9 63.21 27.62 63.16 27.34 63.07 27.05 63.05 26.77 63.01 26.49 62.98 26.2 62.95 25.93 62.84 25.64 62.85 25.36 62.79 25.09 62.7 24.79 62.7 24.5 62.66 24.22 62.59 23.98 62.39 23.7 62.34 23.43 62.24 23.14 62.21 22.87 62.09 22.59 62.02 22.35 61.85 22.07 61.78 21.8 61.69 21.54 61.58 21.31 61.4 21.07 61.23 20.77 61.21 20.54 61.05 20.3 60.89 20.05 60.75 19.82 60.58 19.51 60.56 19.27 60.4 19 60.3 18.71 60.26 18.46 60.14 18.18 60.08 17.92 59.96 17.63 59.94 17.39 59.73 17.09 59.75 16.81 59.73 16.54 59.62 16.25 59.59 15.96 59.64 15.68 59.6 15.39 59.6 15.11 59.6 14.83 59.6 14.54 59.55 14.26 59.63 13.97 59.59 13.69 59.65 13.41 59.7 13.11 59.6 12.84 59.7 12.56 59.76 12.27 59.78 11.98 59.8 11.72 59.9 11.46 60.05 11.2 60.14 10.89 60.13 10.65 60.29 10.41 60.46 10.16 60.58 9.84 60.57 9.62 60.75 9.35 60.85 9.15 61.08 8.89 61.2 8.62 61.29 8.37 61.43 8.06 61.45 7.84 61.65 7.55 61.69 7.32 61.89 7.01 61.89 6.78 62.09 6.49 62.12 6.21 62.19 5.97 62.38 5.67 62.37 5.42 62.55 5.14 62.6 4.86 62.65 4.58 62.69 4.29 62.74 4.02 62.84 3.73 62.83 3.48 63.04 3.18 63 2.89 63.02 2.62 63.13 2.33 63.15 2.04 63.22 1.75 63.19 1.47 63.21 1.18 63.17 0.89 63.2 0.6 63.24 0.31 63.27 0.08 63.3 0 63.53 0.05 63.82 0.32 63.83 0.61 63.9 0.9 63.77 1.19 63.83 1.48 63.79 1.77 63.84 2.06 63.82 2.34 63.67 2.63 63.72 2.92 63.63 3.19 63.56 3.48 63.52 3.77 63.48 4.06 63.49 4.35 63.46 4.62 63.34 4.9 63.28 5.16 63.13 5.43 63.05 5.74 63.06 5.99 62.91 6.26 62.82 6.53 62.7 6.8 62.59 7.09 62.54 7.33 62.37 7.63 62.33 7.88 62.18 8.17 62.12 8.43 62 8.66 61.8 8.94 61.74 9.24 61.74 9.47 61.51 9.76 61.49 10.02 61.38 10.32 61.37 10.56 61.19 10.84 61.13 11.14 61.16 11.4 61.02 11.7 61.02 11.95 60.85 12.26 60.95 12.54 60.9 12.82 60.84 13.1 60.74 13.39 60.76 13.68 60.81 13.97 60.8 14.25 60.69 14.54 60.65 14.83 60.63 15.12 60.61 15.4 60.73 15.69 60.77 15.97 60.77 16.26 60.67 16.54 60.85 16.83 60.73 17.1 60.88 17.38 60.95 17.68 60.88 17.96 60.91 18.22 61.1 18.5 61.13 18.8 61.11 19.08 61.18 19.35 61.26 19.59 61.46 19.88 61.49 20.15 61.59 20.45 61.62 20.7 61.76 20.97 61.85 21.22 62 21.51 62.06 21.77 62.18 22.01 62.36 22.31 62.38 22.57 62.5 22.81 62.68 23.09 62.75 23.39 62.79 23.68 62.83 23.94 62.95 24.19 63.11 24.49 63.11 24.75 63.26 25.02 63.35 25.3 63.42 25.59 63.49 25.88 63.49 26.17 63.5 26.45 63.58 26.74 63.62 27.02 63.7 27.32 63.68 27.6 63.8 27.89 63.72 28.18 63.82 28.47 63.87 28.76 63.77 29.05 63.78 29.34 63.75 29.68 63.81 29.92 63.75 30.21 63.89 30.5 63.86 30.79 63.77 31.08 63.83 31.37 63.73 31.66 63.8 31.94 63.69 32.24 63.73 32.51 63.6 32.81 63.62 33.1 63.63 33.37 63.52 33.67 63.53 33.94 63.39 34.23 63.38 34.49 63.26 34.78 63.22 35.03 63.03 35.31 62.97 35.56 62.83 35.89 62.88 36.15 62.76 36.42 62.66 36.68 62.51 36.92 62.34 37.22 62.3 37.47 62.14 37.73 62 38.03 62.01 38.31 61.94 38.58 61.85 38.84 61.73 39.11 61.65 39.37 61.52 39.62 61.35 39.91 61.36 40.17 61.23 40.44 61.1 40.73 61.12 41 60.99 41.3 61.05 41.57 60.93 41.86 60.94 42.14 60.85 42.42 60.76 42.7 60.74 43 60.81 43.28 60.71 43.56 60.63 43.85 60.78 44.14 60.72 44.43 60.68 44.72 60.7 45.01 60.66 45.29 60.65 45.58 60.65 45.86 60.73 46.14 60.84 46.43 60.75 46.7 60.89 46.99 60.85 47.27 60.95 47.55 60.97 47.84 60.98 48.1 61.16 48.4 61.12 48.66 61.23 48.96 61.25 49.19 61.47 49.51 61.42 49.73 61.66 50.05 61.61 50.28 61.82 50.58 61.83 50.85 61.93 51.13 62.01 51.37 62.2 51.61 62.37 51.93 62.35 52.15 62.56 52.45 62.59 52.73 62.66 52.97 62.83 53.25 62.92 53.53 62.97 53.8 63.09 54.09 63.12 54.34 63.31 54.63 63.33 54.9 63.46 55.18 63.52 55.49 63.45 55.75 63.64 56.04 63.66 56.35 63.57 56.63 63.68 56.92 63.68 57.21 63.66 57.5 63.7 57.78 63.84 58.07 63.73 58.36 63.88 58.65 63.86 58.94 63.79 59.17 63.8 59.28 63.8 59.52 63.84 59.81 63.75 60.1 63.89 60.39 63.8 60.68 63.8 60.98 63.84 61.26 63.75 61.55 63.75 61.83 63.66 62.13 63.71 62.42 63.69 62.68 63.49 62.97 63.5 63.27 63.49 63.53 63.36 63.81 63.31 64.08 63.22 64.35 63.1 64.65 63.09 64.91 62.95 65.19 62.9 65.44 62.75 65.74 62.72 66.03 62.67 66.27 62.49 66.55 62.4 66.83 62.33 67.06 62.12 67.36 62.1 67.64 62.02 67.92 61.95 68.14 61.73 68.45 61.75 68.72 61.66 68.99 61.57 69.21 61.33 69.51 61.33 69.76 61.19 70.04 61.11 70.33 61.08 70.62 61.09 70.9 61.03 71.16 60.89 71.46 60.94 71.73 60.76 72.03 60.88 72.31 60.84 72.59 60.75 72.88 60.74 73.17 60.78 73.45 60.73 73.74 60.7 74.03 60.63 74.32 60.61 74.6 60.77 74.89 60.68 75.18 60.71 75.47 60.69 75.74 60.85 76.03 60.77 76.32 60.78 76.58 60.96 76.87 60.93 77.17 60.92 77.42 61.1 77.7 61.16 78 61.12 78.27 61.21 78.54 61.33 78.82 61.39 79.11 61.43 79.38 61.51 79.63 61.66 79.89 61.79 80.16 61.91 80.42 62 80.72 62.04 80.95 62.23 81.24 62.29 81.51 62.4 81.77 62.53 82.05 62.6 82.29 62.77 82.55 62.88 82.86 62.87 83.15 62.92 83.41 63.05 83.68 63.17 83.95 63.24 84.23 63.33 84.51 63.4 84.81 63.42 85.07 63.59 85.37 63.52 85.64 63.69 85.94 63.67 86.23 63.61 86.51 63.78 86.8 63.81 87.09 63.83 87.38 63.8 87.67 63.73 87.96 63.77 88.25 63.81 88.54 63.78 88.74 63.75 88.8 63.53"/><polygon class="cls-5" points="96.71 73.31 96.5 73.25 96.21 73.33 95.92 73.24 95.62 73.26 95.33 73.2 95.04 73.2 94.75 73.13 94.47 73.03 94.19 72.96 93.89 72.95 93.62 72.84 93.3 72.89 93.04 72.73 92.78 72.59 92.45 72.65 92.17 72.56 91.9 72.46 91.66 72.27 91.36 72.23 91.11 72.06 90.8 72.03 90.61 71.75 90.32 71.68 90.01 71.64 89.77 71.46 89.49 71.36 89.25 71.18 89 71.03 88.75 70.89 88.52 70.7 88.3 70.5 87.99 70.45 87.73 70.31 87.54 70.06 87.28 69.94 87.02 69.79 86.73 69.7 86.51 69.5 86.28 69.31 85.96 69.29 85.75 69.04 85.44 69.03 85.2 68.83 84.91 68.77 84.61 68.72 84.31 68.72 84.04 68.56 83.75 68.53 83.46 68.5 83.17 68.47 82.88 68.4 82.58 68.45 82.29 68.32 82 68.44 81.7 68.36 81.41 68.4 81.12 68.46 80.82 68.39 80.54 68.54 80.26 68.61 79.96 68.59 79.69 68.72 79.38 68.69 79.1 68.78 78.82 68.89 78.56 69.03 78.3 69.15 78.02 69.24 77.72 69.3 77.52 69.54 77.22 69.61 76.97 69.75 76.78 70.01 76.49 70.09 76.25 70.25 75.95 70.34 75.77 70.61 75.5 70.72 75.28 70.93 75.03 71.08 74.74 71.17 74.45 71.25 74.22 71.44 73.96 71.58 73.71 71.74 73.46 71.9 73.14 71.89 72.91 72.1 72.63 72.18 72.35 72.29 72.05 72.31 71.79 72.46 71.51 72.54 71.22 72.59 70.98 72.82 70.67 72.78 70.38 72.83 70.11 72.97 69.84 73.1 69.53 73.01 69.25 73.17 68.95 73.14 68.66 73.15 68.37 73.22 68.08 73.18 67.78 73.22 67.49 73.31 67.23 73.27 67.23 73.25 66.9 73.34 66.61 73.19 66.32 73.18 66.03 73.21 65.73 73.25 65.45 73.11 65.14 73.19 64.87 73.03 64.59 72.95 64.28 73.02 64 72.92 63.73 72.79 63.42 72.82 63.18 72.6 62.9 72.52 62.62 72.43 62.34 72.33 62.05 72.29 61.77 72.18 61.51 72.06 61.25 71.92 60.94 71.9 60.72 71.67 60.4 71.65 60.14 71.51 59.91 71.31 59.66 71.17 59.42 71 59.17 70.85 58.91 70.72 58.66 70.57 58.41 70.42 58.13 70.32 57.95 70.04 57.67 69.94 57.38 69.86 57.17 69.64 56.88 69.55 56.65 69.37 56.35 69.31 56.13 69.08 55.84 69.02 55.55 68.96 55.29 68.82 55.01 68.72 54.72 68.69 54.44 68.56 54.16 68.5 53.86 68.47 53.58 68.37 53.28 68.44 52.98 68.49 52.69 68.41 52.4 68.42 52.1 68.39 51.81 68.44 51.51 68.39 51.21 68.37 50.92 68.42 50.63 68.47 50.35 68.58 50.08 68.7 49.8 68.8 49.51 68.83 49.21 68.86 48.98 69.08 48.71 69.19 48.42 69.26 48.16 69.38 47.92 69.55 47.61 69.6 47.43 69.86 47.1 69.89 46.93 70.16 46.66 70.29 46.38 70.39 46.13 70.54 45.88 70.69 45.62 70.83 45.42 71.07 45.1 71.1 44.87 71.29 44.61 71.43 44.38 71.62 44.06 71.65 43.84 71.85 43.53 71.88 43.31 72.1 43.01 72.14 42.77 72.35 42.5 72.45 42.2 72.48 41.91 72.55 41.65 72.69 41.37 72.76 41.09 72.86 40.79 72.87 40.51 72.97 40.22 72.99 39.94 73.11 39.65 73.15 39.36 73.23 39.07 73.23 38.77 73.21 38.48 73.19 38.19 73.28 37.89 73.19 37.53 73.23 37.3 73.22 37.01 73.25 36.71 73.31 36.42 73.3 36.13 73.21 35.85 73.08 35.55 73.08 35.28 72.99 34.96 73.08 34.69 72.94 34.39 72.95 34.11 72.86 33.85 72.72 33.57 72.63 33.28 72.57 33 72.49 32.72 72.38 32.43 72.34 32.21 72.1 31.91 72.05 31.6 72.02 31.4 71.76 31.07 71.77 30.82 71.6 30.56 71.47 30.29 71.35 30.07 71.15 29.77 71.08 29.58 70.82 29.32 70.7 29.03 70.61 28.77 70.48 28.57 70.24 28.28 70.16 28.04 69.99 27.81 69.8 27.54 69.68 27.3 69.52 27.01 69.44 26.75 69.3 26.48 69.19 26.25 69 25.95 68.96 25.7 68.77 25.43 68.66 25.13 68.64 24.82 68.66 24.54 68.59 24.27 68.41 23.96 68.48 23.67 68.49 23.38 68.38 23.09 68.37 22.8 68.47 22.5 68.4 22.2 68.33 21.91 68.41 21.61 68.39 21.33 68.51 21.05 68.61 20.74 68.51 20.45 68.59 20.19 68.76 19.91 68.85 19.6 68.84 19.37 69.05 19.09 69.15 18.83 69.27 18.59 69.44 18.31 69.53 18.04 69.65 17.75 69.72 17.56 69.98 17.26 70.05 17.02 70.21 16.77 70.37 16.51 70.51 16.27 70.69 16.06 70.9 15.83 71.09 15.58 71.24 15.26 71.28 15.05 71.52 14.74 71.54 14.51 71.74 14.22 71.81 13.93 71.88 13.66 71.99 13.43 72.19 13.14 72.27 12.89 72.44 12.57 72.41 12.32 72.56 12.02 72.59 11.74 72.68 11.46 72.74 11.21 72.94 10.92 73.01 10.62 73.02 10.32 72.99 10.05 73.14 9.75 73.13 9.46 73.13 9.16 73.15 8.87 73.15 8.58 73.22 8.29 73.33 8.1 73.41 8.02 73.54 7.94 73.82 7.99 74.1 8.01 74.38 8.14 74.51 8.29 74.59 8.59 74.61 8.88 74.55 9.17 74.51 9.47 74.59 9.76 74.53 10.03 74.4 10.35 74.48 10.62 74.34 10.88 74.18 11.19 74.17 11.45 74.04 11.71 73.91 12.03 73.91 12.26 73.72 12.54 73.61 12.78 73.45 13.1 73.42 13.32 73.21 13.6 73.12 13.82 72.91 14.06 72.75 14.29 72.56 14.58 72.48 14.79 72.26 15.05 72.11 15.33 72 15.61 71.9 15.88 71.78 16.08 71.53 16.37 71.46 16.65 71.37 16.88 71.18 17.18 71.13 17.43 70.97 17.72 70.92 17.98 70.78 18.24 70.67 18.49 70.51 18.79 70.47 19.07 70.39 19.36 70.34 19.6 70.13 19.88 70.06 20.2 70.12 20.46 69.94 20.76 69.97 21.05 69.96 21.33 69.88 21.63 69.88 21.91 69.82 22.21 69.85 22.5 69.77 22.8 69.81 23.09 69.72 23.38 69.8 23.68 69.74 23.96 69.87 24.25 69.87 24.54 69.93 24.82 69.98 25.11 70.02 25.41 70.02 25.69 70.1 25.97 70.18 26.24 70.3 26.53 70.33 26.81 70.41 27.09 70.49 27.37 70.58 27.63 70.73 27.91 70.82 28.13 71.04 28.4 71.14 28.67 71.25 28.98 71.28 29.24 71.43 29.47 71.62 29.77 71.67 29.99 71.88 30.22 72.07 30.48 72.21 30.79 72.25 30.97 72.53 31.3 72.54 31.49 72.8 31.79 72.86 32.02 73.04 32.3 73.15 32.51 73.38 32.78 73.5 33.08 73.56 33.34 73.68 33.56 73.91 33.86 73.95 34.15 74.02 34.43 74.09 34.68 74.28 34.97 74.35 35.26 74.42 35.56 74.4 35.84 74.49 36.13 74.54 36.43 74.56 36.71 74.64 37.01 74.6 37.3 74.65 37.53 74.65 37.52 74.68 37.89 74.61 38.19 74.69 38.48 74.56 38.78 74.67 39.06 74.48 39.35 74.48 39.65 74.49 39.94 74.41 40.21 74.29 40.49 74.2 40.8 74.23 41.08 74.12 41.33 73.95 41.61 73.88 41.91 73.81 42.11 73.55 42.42 73.53 42.67 73.37 42.95 73.27 43.15 73.02 43.41 72.9 43.66 72.73 43.97 72.68 44.19 72.48 44.47 72.38 44.72 72.23 44.9 71.95 45.23 71.94 45.47 71.77 45.68 71.53 46.01 71.54 46.24 71.35 46.5 71.22 46.76 71.09 47 70.91 47.32 70.92 47.56 70.74 47.81 70.58 48.12 70.58 48.37 70.41 48.66 70.34 48.95 70.33 49.21 70.17 49.51 70.16 49.79 70.08 50.08 70.04 50.36 70 50.65 69.92 50.93 69.86 51.23 69.87 51.52 69.85 51.81 69.84 52.1 69.84 52.4 69.78 52.69 69.82 52.98 69.84 53.28 69.77 53.57 69.75 53.86 69.81 54.15 69.82 54.44 69.87 54.72 69.98 55.01 70 55.28 70.13 55.57 70.16 55.83 70.31 56.12 70.38 56.4 70.43 56.66 70.58 56.97 70.58 57.2 70.81 57.5 70.84 57.77 70.95 58.01 71.12 58.26 71.27 58.58 71.29 58.79 71.52 59.09 71.58 59.36 71.71 59.6 71.88 59.87 71.99 60.12 72.13 60.37 72.3 60.59 72.49 60.83 72.67 61.11 72.77 61.34 72.96 61.63 73.03 61.91 73.14 62.14 73.32 62.37 73.53 62.63 73.67 62.93 73.72 63.16 73.93 63.48 73.9 63.71 74.14 64.01 74.17 64.29 74.26 64.56 74.39 64.85 74.45 65.16 74.4 65.45 74.45 65.74 74.49 66.02 74.65 66.32 74.54 66.61 74.66 66.9 74.62 67.22 74.66 67.22 74.65 67.49 74.59 67.79 74.62 68.08 74.61 68.37 74.57 68.67 74.58 68.97 74.57 69.24 74.45 69.54 74.41 69.8 74.26 70.09 74.2 70.4 74.22 70.65 74.03 70.94 73.96 71.23 73.91 71.44 73.67 71.76 73.65 71.98 73.44 72.28 73.38 72.5 73.18 72.76 73.04 73.03 72.92 73.27 72.76 73.55 72.66 73.81 72.52 74.03 72.31 74.26 72.12 74.55 72.03 74.83 71.95 75.02 71.67 75.29 71.55 75.56 71.44 75.85 71.36 76.1 71.21 76.36 71.09 76.62 70.96 76.92 70.92 77.19 70.8 77.42 70.59 77.72 70.56 78 70.5 78.24 70.29 78.55 70.29 78.81 70.14 79.09 70.09 79.39 70.06 79.68 70.04 79.96 69.95 80.25 69.92 80.53 69.81 80.83 69.86 81.12 69.86 81.41 69.75 81.7 69.84 82 69.79 82.29 69.83 82.58 69.77 82.88 69.75 83.17 69.76 83.46 69.83 83.74 69.91 84.04 69.88 84.33 69.94 84.59 70.09 84.89 70.12 85.18 70.14 85.46 70.23 85.72 70.38 86 70.44 86.28 70.52 86.54 70.66 86.83 70.73 87.1 70.85 87.36 70.97 87.61 71.13 87.88 71.24 88.15 71.35 88.38 71.54 88.67 71.61 88.92 71.78 89.2 71.88 89.42 72.08 89.7 72.18 89.92 72.38 90.21 72.47 90.5 72.55 90.71 72.76 90.94 72.95 91.18 73.13 91.44 73.27 91.71 73.38 92.02 73.43 92.22 73.68 92.53 73.71 92.81 73.8 93.06 73.97 93.33 74.09 93.61 74.17 93.88 74.3 94.16 74.38 94.47 74.37 94.74 74.51 95.04 74.53 95.33 74.55 95.62 74.67 95.92 74.55 96.21 74.72 96.5 74.69 96.65 74.55 96.75 74.37 96.83 74.09 96.76 73.81 96.76 73.54 96.71 73.31"/><path class="cls-6" d="M8.06,34.48,8,34.76l.08.28.11.17.13.09.3,0,.29,0,.29-.1.3.09.28-.16H10l.27-.13h.3l.3,0,.29-.06.27-.11.27-.13.25-.16.27-.11.3,0,.27-.13.25-.15.24-.17.27-.12.19-.25.27-.13.25-.15.27-.11.29-.08.25-.16.26-.14.23-.19.27-.11.27-.13.25-.14.28-.1.26-.12.22-.22.26-.12.3,0,.26-.13.24-.2h.3l.27-.13L19,31l.27-.12.32.08.25-.21.3,0,.27-.11.31.07.29,0,.29,0,.28-.05.3,0,.29,0,.29-.15.3.07.29,0,.29,0,.29.07H24l.29,0,.28.08.31-.09.28.07.29,0,.29.07.27.12.29.06.27.1.3,0,.26.15.29.06.24.19.29,0,.25.16.28.1.24.18.26.13.27.1.29.08.21.24.29.08.23.17.29.09.27.12.21.23.27.1.23.19.24.18.24.16.32,0,.23.19.24.17.31,0,.23.21.28.09.26.14h.31l.26.13.27.13H35l.28.13.27.14.29.07.31-.08.29,0,.29.06.29.07.29,0,.32,0,.27,0,.29,0,.3.05.28-.12.31.09.27-.15h.3l.28-.1.32,0,.27-.12.29-.07.24-.19.29-.08.28-.07.29-.07.21-.25h.33l.21-.23.25-.16.31,0,.23-.19.29-.1.18-.26.29-.09.23-.18.22-.21.28-.09.26-.13.26-.14.3-.07.26-.12.23-.21.26-.13.28-.1.26-.11.24-.18.26-.14.31,0,.27-.11.27-.12.26-.13.3,0,.28-.07.29-.05.26-.14h.3l.28-.09.29-.05.28-.06.29-.07.3.07.29-.11.29.05.3.09.29-.08H53l.28.08.3,0h.29l.28.07.3,0,.27.15.29,0,.28.09.29.05.31,0,.24.2.28.09h.31l.24.2h.31l.24.16.25.17h.31l.24.18.27.11.24.17.23.18.32,0,.22.15.21.17.26.07.23.13.12,0,.17-.08v-.27l-.11-.25-.24-.19-.28-.16-.29-.08-.22-.2-.26-.14-.25-.16-.23-.17-.27-.12-.29-.11-.27-.11-.23-.18-.19-.25-.26-.14-.29-.08-.22-.2-.28-.1-.28-.08-.28-.09-.27-.13-.25-.16L55,29.37h-.31l-.28-.05-.29,0-.28-.06-.28-.13L53.29,29l-.3.07-.3,0H52.1L51.81,29l-.29.08h-.6l-.26.19-.31,0-.26.16-.29.06-.32-.05-.28.1-.25.17-.3,0-.26.14-.25.16-.28.1-.22.21-.26.13-.23.19-.23.19-.31.05-.18.26-.31.06-.18.25-.27.13-.29.07-.25.16-.22.22-.29.07-.25.17-.28.09-.26.14-.25.17-.27.11-.3,0-.26.15-.27.1-.27.12-.27.12-.29.06h-.31l-.26.14h-.3l-.27.15-.29,0-.3,0-.28.11-.28.08-.31-.08-.28.06h-.59l-.29.12-.27,0h0l-.32,0-.29,0h-.3l-.28-.06-.29-.07-.29,0-.3,0-.28-.09h-.6l-.28-.1-.26-.16-.29,0-.28-.07-.3,0L33,33.13h-.3L32.43,33l-.25-.18-.27-.12-.25-.14-.32,0-.21-.23-.32,0-.26-.13L30.28,32,30,31.91l-.19-.26-.29-.09-.21-.21-.26-.13L28.83,31l-.26-.13-.23-.19L28,30.66l-.2-.22-.31-.06-.22-.19-.28-.1-.2-.26-.32,0-.27-.09L26,29.63l-.25-.19-.28-.07-.3,0-.29-.07-.27-.11-.29-.09-.3.07-.29-.1-.29,0H22.8l-.3.1-.29,0-.3,0h-.29l-.3,0-.27.19-.31-.07-.29.05-.29.07-.26.14-.26.13-.31,0-.23.21-.3,0-.26.14-.27.11-.2.25-.32,0-.23.19-.27.12-.25.16-.17.28-.31,0-.24.18-.23.18-.25.16-.27.12-.24.17-.26.15-.28.09-.22.21H14.2l-.26.14-.23.19-.26.14-.31,0-.25.17-.28.09-.26.13-.32,0-.29,0-.25.21-.28.08-.29,0-.31-.05-.28.07-.29.08-.28.07h-.3L9.18,34l-.3-.05-.3,0-.29,0L8.1,34l0,.23Z"/><polygon class="cls-6" points="74.84 32.1 74.98 32.19 75.09 32.25 75.29 32.21 75.57 32.12 75.83 31.98 76.11 31.89 76.34 31.69 76.67 31.71 76.89 31.5 77.15 31.35 77.46 31.35 77.7 31.16 78 31.11 78.24 30.93 78.53 30.88 78.82 30.83 79.09 30.71 79.4 30.75 79.69 30.7 79.97 30.65 80.25 30.55 80.54 30.57 80.83 30.54 81.12 30.52 81.41 30.46 81.7 30.38 82 30.48 82.29 30.47 82.59 30.44 82.88 30.45 83.17 30.53 83.47 30.45 83.75 30.6 84.03 30.69 84.33 30.65 84.61 30.74 84.89 30.82 85.19 30.8 85.44 30.98 85.75 30.99 86 31.16 86.31 31.14 86.59 31.24 86.84 31.38 87.11 31.49 87.37 31.63 87.63 31.77 87.89 31.89 88.16 32.01 88.41 32.15 88.71 32.21 88.97 32.34 89.23 32.49 89.47 32.65 89.67 32.9 89.94 33.03 90.21 33.15 90.45 33.31 90.68 33.5 90.98 33.57 91.19 33.78 91.45 33.93 91.73 34.02 91.96 34.22 92.23 34.33 92.56 34.33 92.78 34.55 93.05 34.65 93.32 34.77 93.61 34.85 93.89 34.94 94.18 34.99 94.47 35.02 94.74 35.19 95.03 35.24 95.33 35.21 95.63 35.2 95.92 35.26 96.21 35.29 96.5 35.39 96.72 35.27 96.83 35.04 96.73 34.76 96.74 34.48 96.86 34.2 96.75 33.99 96.5 33.85 96.21 33.86 95.91 33.96 95.62 33.88 95.33 33.83 95.04 33.84 94.76 33.7 94.45 33.81 94.16 33.73 93.87 33.69 93.6 33.57 93.33 33.41 93.02 33.45 92.77 33.27 92.49 33.19 92.18 33.18 91.94 33 91.65 32.95 91.34 32.92 91.13 32.66 90.84 32.6 90.59 32.44 90.29 32.39 90.01 32.31 89.81 32.05 89.52 31.98 89.22 31.9 89 31.69 88.79 31.48 88.45 31.46 88.29 31.16 88.03 31.04 87.72 30.96 87.5 30.77 87.24 30.64 87 30.46 86.78 30.27 86.47 30.23 86.23 30.06 85.96 29.95 85.69 29.83 85.44 29.68 85.19 29.52 84.87 29.55 84.63 29.34 84.34 29.26 84.03 29.3 83.77 29.12 83.46 29.17 83.17 29.14 82.88 29.09 82.59 29.03 82.29 29.12 82 28.99 81.71 29.05 81.43 29.1 81.15 29.15 80.85 29.04 80.57 29.11 80.3 29.25 80 29.18 79.73 29.31 79.46 29.4 79.18 29.45 78.88 29.46 78.65 29.65 78.35 29.68 78.1 29.81 77.88 30.01 77.57 30.05 77.33 30.19 77.07 30.32 76.86 30.53 76.58 30.62 76.4 30.86 76.12 30.95 75.87 31.08 75.69 31.33 75.44 31.47 75.18 31.58 74.97 31.73 74.84 31.87 74.84 32.1"/><path class="cls-7" d="M71.27,21.64l-.13.08a.91.91,0,0,0-.17.17c0,.05-.06.13-.1.14s-.13,0-.11,0,.09-.11.11-.15,0-.06,0-.09-.13-.12-.18-.11-.1,0-.11,0,0-.07,0-.08a.37.37,0,0,0,.19-.12c0-.07.06-.12,0-.14s-.08-.06-.1,0-.1.14-.13.18a.24.24,0,0,1-.11.07.63.63,0,0,1-.27,0A.77.77,0,0,1,70,21.3s-.08-.15-.12-.14a3.25,3.25,0,0,1-.46-.17.72.72,0,0,1-.19-.14s-.07,0-.12,0a.93.93,0,0,1-.28-.19c0-.05-.15-.17-.19-.18l-.1,0s0,0-.07,0a.62.62,0,0,1-.08-.18.53.53,0,0,0,0-.11l-.34.07s-.06,0-.08,0,0,.16,0,.19-.11,0-.17,0-.11,0-.14,0,0,.06,0,.11a.17.17,0,0,0,0,.08s-.25,0-.26,0,0-.08,0-.09-.18,0-.19,0a1,1,0,0,0,0-.14s0-.09,0-.06a.83.83,0,0,0,0,.13.06.06,0,0,1,0,0,1.08,1.08,0,0,0-.18,0s-.09.07-.1.11a.27.27,0,0,0,0,.15,0,0,0,0,0,.06,0s0-.09,0-.1.08,0,.09,0v.21s0,.05,0,.07a.86.86,0,0,1,0,.16.65.65,0,0,0,0,.11,1.92,1.92,0,0,1,0,.24c0,.05,0,.16,0,.2s-.07,0-.09,0,0-.1,0-.13-.08-.06-.09,0a.24.24,0,0,0,0,.13s.12,0,.12.08a.36.36,0,0,1-.06.13.2.2,0,0,0,0,.13.55.55,0,0,0,.14.24,1.23,1.23,0,0,1,.22.31.8.8,0,0,1,.06.37,1.91,1.91,0,0,0,0,.21s0,.07,0,.11a1.82,1.82,0,0,0,.08.19.55.55,0,0,1,0,.12,1.26,1.26,0,0,1,0,.32c0,.1-.05.14,0,.19a.6.6,0,0,0,.22.23,1.55,1.55,0,0,1,.27.18l.1.07a.36.36,0,0,1,.07.19.9.9,0,0,0,0,.13s0,.1,0,.12a.45.45,0,0,0,.08.18s.08.09.13.09a1.91,1.91,0,0,1,.32,0l.25.11s.09,0,.1.08a.56.56,0,0,1,0,.13,1.07,1.07,0,0,0,0,.18s0,0,.06,0,0-.09.09-.11l.1,0,.11-.17s.09-.27.12-.31a1.09,1.09,0,0,1,.1-.19s0-.08.09-.09a.17.17,0,0,0,.1,0l.15,0s0-.13.06-.17.08-.08,0-.08a.16.16,0,0,0-.13.06.74.74,0,0,1-.12.09.47.47,0,0,1-.16,0,.3.3,0,0,1-.12-.08s-.09-.12-.06-.13l.09-.05s0-.12,0-.14,0-.06,0,0-.13,0-.14,0,0-.11,0-.12.09,0,.1,0,0-.06,0-.08-.08,0-.08-.06,0-.14,0-.16.14,0,.15,0,0,0,0-.05l-.14-.07a.06.06,0,0,1,0-.09.33.33,0,0,1,.19-.11.46.46,0,0,0,.19-.13s.09-.09.12-.08.06.09.11.11a.23.23,0,0,0,.17,0l.29-.24a.46.46,0,0,1,.25-.1c.08,0,.07.06.1.07l.12,0s.06,0,0-.09-.1-.1-.09-.15,0-.16,0-.22,0-.13.06-.18a1.92,1.92,0,0,1,.13-.17s0-.11.07-.16S71,22,71.07,22a.3.3,0,0,0,.15-.07.84.84,0,0,0,.07-.18C71.3,21.7,71.33,21.61,71.27,21.64Z"/><path class="cls-7" d="M71.7,12.86c-.09,0-.26,0-.28-.11s0-.25,0-.25l0,0,.09-.23s0-.24,0-.32l-.05-.23,0-.73-.23-.28-.55-.53,0-.19s-.31.08-.36.15-.11.21-.14.25,0,0,.1-.07.15-.2.2-.18a2.88,2.88,0,0,1,.52.58c0,.05,0,.07-.05.11L68,12.44a5.42,5.42,0,0,1-.64,0c-.06,0-.41-.34-.42-.32a3.87,3.87,0,0,1-.57.16c-.12,0-.27,0-.33,0s-.2.17-.24.18a2,2,0,0,1-.36,0,.71.71,0,0,1-.18-.07s-.09-.27-.12-.15a1.19,1.19,0,0,0,0,.25s-.09,0-.12,0a1.88,1.88,0,0,0-.1.19v.16a1.12,1.12,0,0,0,0,.32c0,.07.32.35.35.48a.43.43,0,0,0,.14.23s.2.12.21.21a.74.74,0,0,1,0,.21.3.3,0,0,0,0,.2.85.85,0,0,0,.06.17,2.79,2.79,0,0,1,.38.49.72.72,0,0,1,.08.27s-.3.9-.3.9-.14.34-.16.37-.52.46-.52.46l-.44.38.08.05s.83-.41,1-.45a6.48,6.48,0,0,1,1-.08l.86,0,.17.89.59.28.07,0-.54-.26,0-.13.17-.59.21,0,0,.1.52.15-.23.66s-.08.09-.08.11,0,.08,0,.08l.39-.27.16-.59s.07,0,.07,0,.09-.28.09-.28a2.68,2.68,0,0,0,.47-.18l.55-.6s2.27-2.21,2.26-2.18.05-1.08.05-1.08S71.79,12.86,71.7,12.86Z"/><path class="cls-7" d="M78,9.16A1,1,0,0,0,78,9s-.16.05-.2,0-.14-.23-.18-.23-.13-.13-.16-.18a2,2,0,0,0-.07-.37s-.07-.3-.08-.33a1.9,1.9,0,0,0,0-.25,1.68,1.68,0,0,1,0-.2s-.1-.13-.17-.11-.24.11-.28,0,0-.23-.1-.23-.27,0-.28.09l-.09.18-.83,0a2.93,2.93,0,0,1,.12-.32c0-.06,0-.08-.08-.09s-.2-.14-.19-.19.07-.21.14-.19l.22.09a.18.18,0,0,1,.07-.08s.12-.07.14-.14a1.41,1.41,0,0,1,.18-.23h.2c.06,0,.2,0,.24,0A1.45,1.45,0,0,0,76.65,6a.67.67,0,0,0-.1-.39,1.24,1.24,0,0,1-.3-.43c0-.08-.1-.22,0-.27s0-.21,0-.21a.25.25,0,0,1-.14-.11c0-.08,0-.19-.11-.16s0,.23-.09.28-.18.1-.23.13a3.57,3.57,0,0,0-.27.28,2.29,2.29,0,0,0-.23.17s0,.26-.08.31L75,5.83a1.2,1.2,0,0,1-.23.22,2.45,2.45,0,0,1-.36.08C74.28,6.16,74,6,74,6s-.24,0-.34,0a1.15,1.15,0,0,0-.3.23s-.16.09-.22.11-.29.1-.3.18a.57.57,0,0,1-.15.29c-.05,0-.22,0-.26.07s-.18.19-.16.29a.29.29,0,0,0,.08.17s0,.14,0,.14a.41.41,0,0,0-.09.17c0,.12,0,.19,0,.22a2.14,2.14,0,0,0-.06.27s-.39.56-.45.65-.29.26-.31.33a.19.19,0,0,0,0,.15,1,1,0,0,1,.06.33c0,.05,0,.22,0,.32a.43.43,0,0,0-.1.26c0,.07,0,.24,0,.27s0,.28,0,.3.18.21.16.25,0,.61,0,.66a3.12,3.12,0,0,1,.1.32,1,1,0,0,1-.08.34.51.51,0,0,0,0,.19,1.66,1.66,0,0,0,.29.1l0,.15,1,.13,0,.22.19.05a.19.19,0,0,0,.07.1.4.4,0,0,0,.16.06v.17l-.24.05.47,0V13s-.27,0-.33,0a.26.26,0,0,1-.09-.1l.9-.11a1.39,1.39,0,0,0,.43-.2c.07-.06.29-.52.36-.56a1,1,0,0,1,.32-.07s.42-.2.49-.22.27-.2.33-.21.28-.1.36,0a1.39,1.39,0,0,0,.44.22,1,1,0,0,0,.48-.2c.08-.09.06-.22.11-.3s.2-.22.26-.22l.28,0s.22-.09.28-.1-.13-.17-.16-.2a1,1,0,0,0-.24-.06.19.19,0,0,1-.12-.19c0-.05,0-.13,0-.2a.3.3,0,0,0,.11-.24c0-.08-.24-.24-.27-.28a.39.39,0,0,1,0-.31c0-.1.14-.2.2-.2s.18,0,.23.08a.39.39,0,0,0,.19.17s.16.15.18.08a.34.34,0,0,0-.08-.21S78,9.23,78,9.16Z"/><path class="cls-7" d="M80,.34a.23.23,0,0,0-.14.11s-.14,0-.15,0-.11-.1-.11-.1L79.44.29l-.11,0S79.23.1,79.18.1,79,.05,79,0s-.08,0-.05.1.09.12,0,.15a.66.66,0,0,1-.25.06c-.07,0-.16,0-.17,0a.35.35,0,0,1-.13.08,1.68,1.68,0,0,1-.36-.08.16.16,0,0,0-.16.05s0,.18,0,.22.05.24,0,.28l-.21.18s-.08.09-.08.11a1.64,1.64,0,0,1-.16.41c-.06,0-.12,0-.15,0a1.22,1.22,0,0,0-.19.12.83.83,0,0,1-.19.18l-.3.19a.49.49,0,0,1-.18.08H76.3s-.07,0-.08,0,0,.15,0,.19a.68.68,0,0,1,.12.12.41.41,0,0,1,0,.19.1.1,0,0,0,.05.12,3.45,3.45,0,0,1,.26.28l.22.19a.22.22,0,0,1,0,.18s-.2.1-.27.11-.16-.06-.17,0,0,0-.06.09-.07.08-.1.09a.13.13,0,0,0-.1.08s-.06.12,0,.17a1.18,1.18,0,0,0,.15.25l.15.09a.11.11,0,0,0,.09,0v0a.34.34,0,0,0,.08-.1,1.27,1.27,0,0,1,.16-.25.24.24,0,0,0,.07-.18s.06-.11.1-.07.2.08.18.18,0,.16,0,.26-.15,0-.18.09,0,.11.08.14.18.13.18.2a.44.44,0,0,1,0,.19L77,5l.09,0c.06,0,.13-.09.18,0s.17,0,.2-.07a.4.4,0,0,1,.28,0,2.44,2.44,0,0,1,.43.24,1.17,1.17,0,0,0,.31.2c.06,0,.1-.08.06-.15s-.1-.15-.06-.23.17-.15.19-.19a.74.74,0,0,0,0-.21s.05-.63.05-.66.13-.16.15-.19.17-.3.21-.4.14-.29.16-.35.1-.29.11-.36a.77.77,0,0,1,.11-.27c0-.06,0-.32,0-.42a3.09,3.09,0,0,0,.08-.33c0-.08.06-.2.07-.25s.13-.14.15-.19a.45.45,0,0,0,0-.16c0-.05.08-.1.13-.18A.33.33,0,0,0,80,.51C80,.42,80.06.33,80,.34Z"/><path class="cls-7" d="M65.75,39.51a.42.42,0,0,0-.26-.28.93.93,0,0,1-.27-.36c0-.14-.07-.32-.13-.32a1.46,1.46,0,0,1-.33.1,8.74,8.74,0,0,1-1.07,0c-.11,0-.34-.09-.37,0s-.13.3-.09.34a1.92,1.92,0,0,1,.28.42,6.47,6.47,0,0,1,.05,1.21,4.06,4.06,0,0,1-.25,1A1.72,1.72,0,0,1,63,42s-.24,0-.29.06-.29.54-.32.6-.1.13-.06.18a.52.52,0,0,1,.09.39c-.06.14-.15.27-.08.23s.17-.32.25-.37.17,0,.18.14-.11.24-.06.33.19,0,.25-.06a.34.34,0,0,1,.34,0c.09.06.13.25.14.3a1,1,0,0,0,.06.23c0,.06.16,0,.23.07s.24.28.33.29.46.1.53,0a.41.41,0,0,0,0-.29l-.11-.1s-.07-.2,0-.21.21-.24.21-.3-.18-.15-.17-.26a.42.42,0,0,1,.33-.26c.1,0,.24-.07.3-.1s.36-.25.36-.25a2.41,2.41,0,0,0,.07-.5,5.73,5.73,0,0,1-.13-.88,5.83,5.83,0,0,1,.06-.74.81.81,0,0,1,.17-.36A2.37,2.37,0,0,1,66,40l-.13-.23A.58.58,0,0,1,65.75,39.51Z"/><polygon class="cls-7" points="38.55 94.09 38.15 94.05 37.76 94.1 37.35 94.14 36.99 94.33 36.6 94.44 36.26 94.66 35.86 94.74 35.47 94.85 35.13 95.07 34.76 95.22 34.36 95.34 33.91 95.24 33.47 95.08 33.16 95.4 33.31 95.81 33.56 96.16 33.86 96.47 34.26 96.65 34.64 96.82 35.03 96.86 35.42 96.88 35.8 96.75 36.13 96.54 36.48 96.36 36.78 96.09 37.2 96.05 37.55 95.88 37.93 95.84 38.31 95.83 38.74 95.84 39.05 96.13 39.33 96.41 39.62 96.72 39.73 97.13 39.76 97.54 39.77 97.94 39.65 98.34 39.74 98.76 39.7 99.17 39.57 99.57 39.52 99.98 39.36 100.36 39.35 100.8 39.06 101.12 38.97 101.54 38.8 101.92 38.59 102.27 38.37 102.63 38.04 102.9 37.79 103.23 37.55 103.57 37.2 103.81 36.85 104.04 36.55 104.32 36.26 104.61 35.95 104.9 35.56 105.01 35.27 105.27 35.12 105.58 35.22 105.66 35.6 105.58 36.01 105.52 36.39 105.37 36.8 105.27 37.13 105.02 37.53 104.89 37.83 104.57 38.23 104.44 38.51 104.12 38.81 103.83 39.12 103.58 39.45 103.32 39.77 103.06 40.06 102.76 40.23 102.37 40.51 102.07 40.77 101.75 40.91 101.35 41.04 100.96 41.27 100.62 41.45 100.24 41.52 99.83 41.64 99.44 41.79 99.04 41.73 98.62 41.73 98.21 41.85 97.8 41.7 97.4 41.66 97.01 41.66 96.61 41.52 96.24 41.35 95.88 41.31 95.45 41 95.17 40.74 94.87 40.44 94.61 40.11 94.36 39.7 94.31 39.36 94.05 38.95 94.11 38.55 94.09"/><polygon class="cls-7" points="36.35 91.01 36.57 91.37 36.38 91.72 36.17 92.05 35.96 92.4 35.65 92.64 35.42 92.97 35.05 93.17 34.91 93.6 35.32 93.43 35.72 93.4 36.05 93.16 36.44 93.08 36.81 92.93 37.14 92.72 37.48 92.5 37.9 92.52 38.27 92.33 38.7 92.4 39.13 92.4 39.55 92.49 39.98 92.4 40.36 92.16 40.54 91.8 40.62 91.39 40.4 91.05 40.17 90.75 39.89 90.47 39.52 90.34 39.13 90.32 38.76 90.18 38.37 90.31 37.99 90.28 37.61 90.14 37.23 90.13 36.82 90.17 36.41 90.1 36.04 89.89 35.61 89.94 35.22 89.79 34.86 90.03 35.21 90.33 35.52 90.67 35.98 90.77 36.35 91.01"/><path class="cls-7" d="M52.77,96.64l-.39.16H52l-.41,0-.38-.15v-.42l.29-.36.28-.36.28-.31.24-.34.3-.29.25-.34.35-.24.23-.37.31-.28.38-.24.36-.26.36-.24.3-.32.17-.43-.18-.4-.2-.35-.25-.31-.4-.06-.34-.15-.37-.07-.37-.13-.37,0-.38.09-.31.24-.33.16-.35.16-.44,0-.42.08-.36.26-.41.12h-.87l-.41.07h-.35l-.21.21.09.35.28.26.11.39.37.15.32.15.34.09.39-.11.39-.12.37-.21.45,0,.38,0,.31.15.11.4-.31.32L51.4,94l-.29.31-.12.42-.27.32-.37.24-.25.33-.26.33-.26.33-.22.36-.35.26-.29.3-.24.34-.33.26-.22.36-.24.32-.27.29-.27.28-.3.26-.3.27-.23.32-.21.34,0,.41-.2.37.27.3.27.24.33.21.4-.07.34-.22.22-.34.23-.32.24-.3.17-.36.33-.26.22-.31.23-.31.2-.35.29-.27.35-.18.31-.22.3-.27.35-.2.39-.08.37-.12.41.05h.39l.41-.06.38.17.42,0,.4.14.26.33.35.22.21.34.33.28.13.4.09.4-.06.42-.09.37,0,.39-.18.33-.12.38-.34.22-.2.35-.35.16-.36.12-.41,0L53,102.4l-.26-.34-.36-.24L52,101.5l-.43-.12-.4-.15h-.43l-.41,0-.38.13-.34.22-.33.22-.27.29-.17.36-.11.38,0,.38.19.33.17.36.35.25.34.28.37.23.45,0,.4.17.43.1.44-.08.39,0,.39-.06.4,0,.37-.14.4,0,.36-.2.36-.16.37-.16.32-.24.27-.31.25-.31.31-.26.11-.4.23-.32.17-.35.22-.35-.07-.42.11-.38.06-.44-.13-.41-.15-.4,0-.46-.28-.34-.24-.36L55.94,98l-.35-.2-.32-.2-.33-.19-.32-.19L54.29,97H53.9l-.37-.13-.38,0Zm-2.24,5.59.57.11.17.33.13.36-.25.2-.39,0-.35-.15-.31-.21-.08-.23.16-.3Z"/><path class="cls-7" d="M67.34,100.7l0-.44,0-.42v-.43l0-.43-.17-.35.13-.35L67.4,98l.32-.17.42-.06.36-.2.35-.24.39-.13.38-.16.4-.14.34-.25.31-.31.11-.42-.2-.38-.38-.17-.41-.06-.43,0L69,95.1l-.45,0-.4-.06.34.29.22.36-.31.32-.35.29-.43.15h-.35l-.08-.32,0-.39v-.4l0-.39.14-.38.15-.34.3-.2.34-.25.38-.16.37-.18.28-.31.11-.39L69,92.36l-.39-.11H68.2l-.38.18-.31-.17,0-.36.15-.39.15-.4.13-.4.29-.35-.14-.4-.33-.23-.31-.25-.39-.1-.39,0-.39,0-.38.18.12.4.14.39.22.35.07.42,0,.4-.14.39,0,.4-.07.46-.44.07H65l-.37,0-.29-.26-.41,0-.25-.22-.3-.2-.1.29-.06.39.3.27.23.29.28.26.31.22.33.2.39.07.35.12.32.21.2.27.16.35v.45l-.15.45-.07.45,0,.48L65.4,97,65,97l-.39-.11-.39.1-.38-.1-.39,0-.39,0-.39-.07-.35-.2L62,96.52l-.38,0-.34-.13-.17.19.08.37.22.32.28.26.27.3.42.07.31.3.42,0,.39,0,.39.17.4,0,.35,0,.34-.18.35.09.41,0,.24.3.09.41.09.37-.14.38.1.38-.07.37,0,.44-.44.15L65,101l-.42,0-.41.07-.4.08-.41.07-.37.18-.37.17-.37.17-.37.22-.23.35,0,.43-.09.39,0,.4.09.4.2.36.3.29.31.26.37.15.37.16.4.15H64l.42,0,.41-.08.35-.27.39-.12.39-.13.3-.28.39-.17.2-.38.23-.31.38-.31.45.16.28.29.23.32.25.3.21.36.39.13.39.05.38,0,.41,0,.31-.29,0-.42,0-.39-.15-.37-.28-.29-.29-.28-.25-.35-.39-.15-.38-.16-.35-.23-.4-.13-.39-.15-.34-.2-.19-.36Zm-2.18,2.48-.36.15-.34.14-.36.07-.36,0-.47.08-.39-.27-.24-.38.22-.39.42-.13.41-.16.45-.12.45.06.44.09.33.2-.09.26Z"/><path class="cls-7" d="M57.7,114.87l-.26-.26-.31-.21-.34-.14-.34-.16-.56.32-.32.36-.47,0-.42.11h-.43l-.42-.09H53.4l-.43,0-.42,0-.43.09-.43-.11-.11,0v-.23l.09-.58,0-.19-.08-.36-.24-.3-.3-.23-.34-.17-.33-.16-.31-.27h-.39l-.38,0-.49.09-.1.13.13.3.19.26.18.27,0,.32-.06.39,0,.41,0,.4-.19.36-.13.37-.22.34-.2.34,0,.42-.21.35-.22.32-.21.34-.12.39-.27.31-.15.37-.31.28-.17.36-.2.35-.21.34-.28.29-.22.33-.27.3-.24.32-.27.29-.34.32-.26.39-.18.41.18.26.38-.14.32-.23.27-.27.28-.27.26-.27.31-.24.32-.21.32-.23.26-.34.34-.25.32-.26.29-.32.38-.15h.39l.35.19.39.07.35.19.32.22.37.17.25.32.26.29.37.2.18.36.1.38-.14.38-.19.37-.18.37-.18.36-.28.32-.2.36-.33.27-.25.32-.23.35-.29.29-.25.33-.33.25-.18.4-.31.27-.33.25-.29.3-.35.23-.31.27-.31.27-.31.27-.39.16-.29.32-.34.23-.31.28-.43.11-.35.22-.28.12-.32.34.15.22.25.11.4-.06.39-.12.32-.27.41-.08.38-.13.31-.28.36-.17.4-.1.28-.32.42-.08.26-.35.4-.11.31-.26.3-.27.32-.24.3-.28.37-.17.33-.23.26-.32.27-.3.31-.26.38-.19.16-.41.4-.18.19-.44.43-.21.31-.34.38-.29.36.28.38.23.11.44.28.3.32.25.23.34.34.23.39.12.4-.05.41,0,.32-.25.41-.12.14-.4.27-.32,0-.42v-.42l-.26-.34-.12-.4-.34-.26-.3-.27-.26-.32-.25-.34-.41-.15-.18-.39-.15-.41.15-.41.18-.38,0-.44.27-.34.17-.38.29-.28.2-.34.06-.4,0,0,.23-.3.21-.31.13-.34.28-.25.23-.31.35-.1.2-.26.18-.34-.23-.35-.23-.31-.34-.21-.31-.24Zm-2.29,1.89-.14.39-.16.4-.17.4-.29.35-.22.37-.15.42-.31.31-.17.41-.31.31-.41.11-.37,0-.37-.08-.38,0-.4,0-.32-.26-.39-.07-.34-.2-.37-.13-.34-.17-.28-.24-.15-.31.09-.35.19-.36.23-.34.35-.25.17-.38.23-.33.3-.32.39-.15.42-.08.43-.06.43,0,.43.08.43,0,.44-.09.43,0,.44.07.39,0,.23.27Z"/><polygon class="cls-7" points="60.24 110.12 59.87 110.16 59.51 110.25 59.32 110.46 59.63 110.77 60.02 110.92 60.41 111.09 60.71 111.42 61.13 111.55 61.46 111.82 61.67 112.21 62.02 112.46 62.27 112.81 62.67 112.96 63.06 113.04 63.38 112.92 63.72 112.71 63.76 112.31 63.78 111.87 63.58 111.48 63.33 111.14 62.93 110.95 62.67 110.6 62.25 110.5 61.87 110.35 61.48 110.2 61.06 110.19 60.65 110.13 60.24 110.12"/><polygon class="cls-7" points="58.3 112.14 57.96 112.09 57.7 112.38 58.14 112.81 58.38 113.1 58.63 113.4 58.93 113.63 59.22 113.87 59.48 114.14 59.6 114.52 59.87 114.79 60.14 115.06 60.24 115.46 60.63 115.57 60.95 115.77 61.41 115.6 61.64 115.17 61.76 114.74 61.83 114.32 61.59 113.99 61.38 113.66 61.12 113.36 60.81 113.12 60.46 112.94 60.13 112.74 59.84 112.44 59.43 112.4 59.07 112.24 58.69 112.15 58.3 112.14"/><polygon class="cls-7" points="78.23 115.36 77.77 115.32 77.46 115.66 77.12 115.94 76.7 116.1 76.27 116.17 75.83 116.21 75.41 116.21 74.99 116.29 74.57 116.17 74.15 116.19 73.76 116.12 73.47 115.89 73.27 115.55 73.33 115.15 73.35 114.74 73.55 114.38 73.56 113.95 73.71 113.67 73.89 113.4 73.95 113.01 73.87 112.64 73.62 112.33 73.25 112.17 72.94 111.92 72.61 111.7 72.25 111.54 71.86 111.45 71.47 111.34 71.08 111.34 70.72 111.49 70.67 111.61 70.79 112.05 70.86 112.18 70.87 112.57 70.98 112.95 71.09 113.33 71.13 113.72 71.03 114.15 71.13 114.57 71.08 114.99 70.94 115.38 70.86 115.79 70.56 116.11 70.14 116.22 69.72 116.12 69.3 116.22 68.88 116.28 68.47 116.25 68.05 116.26 67.63 116.28 67.21 116.18 66.79 116.14 66.37 116.21 65.95 116.26 65.53 116.25 65.11 116.11 64.97 116.2 65.08 116.3 65.34 116.69 65.46 117.16 65.74 117.55 65.8 117.62 66.2 117.52 66.6 117.63 67 117.62 67.4 117.56 67.8 117.62 68.2 117.55 68.61 117.61 69.01 117.51 69.41 117.55 69.79 117.68 70.15 117.8 70.29 118.16 70.36 118.53 70.29 118.91 70.24 119.3 70.15 119.7 70.03 120.09 69.92 120.48 69.73 120.85 69.58 121.23 69.39 121.59 69.26 121.98 69.04 122.33 68.9 122.71 68.75 123.09 68.65 123.5 68.38 123.82 68.25 124.22 67.92 124.5 67.68 124.83 67.56 125.24 67.31 125.56 67.04 125.87 66.76 126.17 66.63 126.59 66.34 126.88 66.01 127.14 65.72 127.43 65.53 127.81 65.17 128.02 64.92 128.35 64.59 128.6 64.28 128.87 63.99 129.16 63.69 129.44 63.49 129.48 63.19 129.97 63.44 130.25 63.85 130.17 64.19 129.95 64.59 129.86 64.89 129.55 65.28 129.44 65.57 129.14 65.94 128.97 66.29 128.77 66.55 128.45 66.86 128.2 67.21 127.97 67.49 127.67 67.73 127.33 67.97 127.01 68.28 126.73 68.59 126.46 68.85 126.15 69.07 125.8 69.26 125.44 69.59 125.17 69.71 124.76 69.94 124.42 70.24 124.13 70.35 123.72 70.52 123.36 70.7 122.99 70.89 122.63 71.15 122.31 71.24 121.9 71.39 121.52 71.47 121.12 71.66 120.75 71.84 120.39 71.92 119.99 72.09 119.61 72.13 119.2 72.24 118.81 72.37 118.43 72.5 118.06 72.77 117.78 73.14 117.7 73.51 117.56 73.9 117.56 74.29 117.65 74.67 117.56 75.06 117.62 75.45 117.58 75.85 117.63 76.24 117.56 76.64 117.61 77.01 117.76 77.28 118.04 77.44 118.4 77.54 118.79 77.49 119.19 77.57 119.61 77.4 120 77.42 120.42 77.41 120.84 77.27 121.24 77.23 121.66 77.11 122.06 77.02 122.47 76.98 122.88 76.79 123.27 76.81 123.7 76.69 124.1 76.58 124.51 76.45 124.9 76.27 125.28 76.05 125.63 75.77 125.93 75.42 126.14 75.02 126.12 74.58 126.06 74.12 126 73.64 125.92 73.21 125.66 72.72 125.57 72.6 125.63 72.56 125.74 72.73 126.04 72.91 126.39 73.27 126.59 73.33 126.66 73.54 127.02 73.88 127.28 74.02 127.67 74.07 128.08 74.11 128.49 74.23 128.89 74.41 129.16 74.75 129.32 75.11 129.46 75.49 129.6 75.92 129.54 76.22 129.22 76.59 129.03 76.91 128.77 77.28 128.54 77.47 128.16 77.66 127.81 77.97 127.52 78.09 127.14 78.29 126.78 78.41 126.4 78.55 126.03 78.65 125.64 78.78 125.26 78.94 124.89 79.01 124.49 79.08 124.1 79.2 123.72 79.2 123.31 79.31 122.92 79.4 122.53 79.43 122.13 79.43 121.71 79.47 121.3 79.58 120.89 79.76 120.49 79.71 120.06 79.77 119.65 79.94 119.25 79.94 118.83 79.94 118.4 80.2 118.1 80.4 117.71 80.6 117.3 80.42 116.93 80.16 116.63 79.96 116.26 79.65 116 79.31 115.78 78.96 115.59 78.6 115.41 78.23 115.36"/><polygon class="cls-7" points="36.13 120.14 35.95 120.49 35.7 120.81 35.45 121.12 35.24 121.46 35 121.78 34.73 122.08 34.43 122.36 34.17 122.66 33.98 123.04 33.61 123.24 33.34 123.54 32.97 123.7 32.59 123.84 32.19 123.78 31.79 123.76 31.4 123.64 31.03 123.47 30.69 123.21 30.3 123.03 29.95 122.79 29.5 122.75 29.14 122.53 28.77 122.33 28.37 122.19 28.05 122.49 28.21 122.93 28.51 123.2 28.75 123.53 29.06 123.78 29.32 124.09 29.54 124.43 29.84 124.71 29.96 125.11 30.2 125.44 30.38 125.79 30.67 126.09 30.86 126.45 31.07 126.79 31.23 127.16 31.31 127.57 31.48 127.94 31.73 128.26 32.09 128.48 32.35 128.77 32.69 128.98 33.07 129.08 33.47 129.07 33.88 129.1 34.16 128.8 34.42 128.54 34.65 128.24 34.79 127.89 34.83 127.5 34.74 127.12 34.6 126.76 34.41 126.42 34.21 126.09 34.02 125.74 33.94 125.34 34.1 124.97 34.3 124.64 34.45 124.28 34.65 123.94 34.87 123.61 35.18 123.37 35.4 123.03 35.76 122.83 36.07 122.61 36.42 122.38 36.69 122.06 36.97 121.75 37.32 121.52 37.67 121.31 38.05 121.13 38.3 120.76 38.65 120.54 39.07 120.45 39.37 120.14 39.79 120.07 40.17 119.94 40.54 119.77 40.94 119.62 41.3 119.64 41.61 119.45 41.89 119.31 42.11 119.04 42.07 118.62 41.82 118.27 41.58 117.94 41.46 117.54 41.28 117.16 40.93 116.9 40.62 116.63 40.37 116.31 40.09 116 39.73 115.8 39.47 115.45 39.11 115.23 38.7 115.11 38.28 115.1 37.88 115.18 37.57 115.43 37.3 115.72 36.91 115.87 36.56 116.04 36.2 116.17 35.79 116.24 35.38 116.14 34.97 116.22 34.56 116.11 34.16 116.22 33.75 116.13 33.34 116.21 32.93 116.11 32.52 116.09 32.11 116.17 31.7 116.11 31.3 116.23 30.89 116.23 30.48 116.13 30.08 116.08 29.67 116.1 29.26 116.24 28.85 116.1 28.44 116.22 28.04 116.25 27.63 116.1 27.21 116.1 26.8 116.13 26.39 116.08 25.98 116.12 25.57 116.08 25.17 116.17 24.75 116.08 24.34 116.22 23.93 116.08 23.52 116.16 23.4 116.18 23.48 116.27 23.61 116.62 23.86 116.9 23.99 117.25 24.2 117.56 24.24 117.65 24.65 117.57 25.06 117.55 25.47 117.71 25.87 117.63 26.28 117.67 26.69 117.54 27.1 117.61 27.51 117.59 27.91 117.65 28.32 117.61 28.73 117.63 29.14 117.65 29.55 117.64 29.96 117.56 30.37 117.62 30.78 117.68 31.2 117.63 31.61 117.66 32.02 117.63 32.44 117.53 32.85 117.6 33.26 117.68 33.66 117.58 34.08 117.58 34.48 117.69 34.89 117.6 35.3 117.69 35.7 117.64 36.09 117.72 36.45 117.92 36.61 118.3 36.65 118.68 36.71 119.08 36.58 119.47 36.34 119.8 36.13 120.14"/><polygon class="cls-7" points="6.58 113.6 6.91 113.84 7.26 114 7.58 114.21 7.91 114.41 8.27 114.58 8.59 114.81 8.78 115.17 9.02 115.5 9.26 115.83 9.52 116.14 9.87 116.35 10.21 116.46 10.61 116.4 10.99 116.13 11.13 115.7 11.28 115.27 11.17 114.85 11.05 114.46 10.91 114.06 10.62 113.74 10.29 113.48 9.93 113.28 9.55 113.09 9.16 112.92 8.72 112.94 8.31 112.77 7.91 112.89 7.52 112.8 7.16 113.02 6.77 113.04 6.41 113.17 6.03 113.36 6.58 113.6"/><path class="cls-7" d="M20.1,117l-.32.26-.26.31-.36.23-.16.39-.31.27-.24.32-.35.24-.18.38-.31.26-.29.28-.27.3-.27.29-.26.31-.35.22-.27.3-.27.3-.34.23-.25.32-.31.25-.32.24-.38.17-.23.36-.35.2-.32.23-.31.27-.33.23-.33.23-.4.12-.34.2-.33.24-.37.14-.33.24-.4.09-.31.27-.39.11L9,126l-.4.07-.39.07-.32.29H7.42l-.36.18-.37.16-.42-.07-.4,0-.37-.19-.43.08-.38,0-.2.23.16.39.17.38.11.41.21.37.28.31.25.34.17.4.29.31.4.18.29.33.43,0,.31-.18L8,130l.24-.34.35-.17.32-.22.32-.2.34-.24.27-.34.37-.19.32-.26.39-.15.32-.26.36-.2.27-.32.42-.13.3-.28.34-.22.28-.31.34-.24.28-.31.33-.24.29-.29.28-.3.3-.27.39-.19.24-.34.29-.29.29-.29.29-.28.27-.31.21-.36.28-.3.23-.33.33-.26.14-.4.34-.28.22-.36.2-.37.26-.33.22-.36.24-.34.28-.33.2-.37L20,118l.24-.36v-.42ZM6.91,130.29h0v0Z"/><polygon class="cls-7" points="6.37 120.53 6.79 120.61 7.2 120.66 7.61 120.58 8.03 120.4 8.31 120.05 8.39 119.61 8.35 119.19 8.37 118.75 8.07 118.42 7.93 118.01 7.59 117.74 7.31 117.42 6.99 117.14 6.6 116.95 6.17 116.86 5.81 116.63 5.41 116.51 5 116.39 4.6 116.34 4.21 116.22 3.8 116.36 3.4 116.3 2.99 116.32 2.66 116.61 3 117 3.42 117.2 3.8 117.38 4.03 117.74 4.43 117.93 4.61 118.31 4.88 118.62 4.99 119.04 5.25 119.37 5.46 119.71 5.73 120.02 6.04 120.29 6.37 120.53"/><polygon class="cls-7" points="88.8 113.76 88.9 113.73 89 113.73 89.41 113.83 89.82 113.82 90.23 113.79 90.63 113.9 91.05 113.81 91.46 113.83 91.86 114.01 92.27 113.9 92.68 113.97 93.09 114.04 93.5 114.02 93.92 113.99 94.33 113.99 94.74 113.97 95.15 113.98 95.56 114.04 95.96 114.05 96.4 114.06 96.83 114.05 97.25 113.98 97.66 113.89 97.95 113.63 98.19 113.27 98.07 112.86 97.71 112.66 97.47 112.32 97.09 112.16 96.72 112.02 96.34 111.86 95.94 111.87 95.58 112.07 95.15 112.08 94.77 112.29 94.36 112.43 93.94 112.48 93.51 112.47 93.07 112.51 92.64 112.42 92.22 112.34 91.78 112.42 91.35 112.32 90.92 112.33 90.48 112.34 90.1 112.33 89.72 112.27 89.33 112.28 88.95 112.27 88.56 112.31 88.19 112.19 88.13 112.26 88.14 112.31 88.28 112.69 88.44 113.05 88.66 113.39 88.8 113.76"/><polygon class="cls-7" points="98.9 117.21 98.49 117.31 98.06 117.33 97.67 117.5 97.31 117.74 96.93 117.92 96.52 118.03 96.08 118.04 95.66 118.1 95.26 118.02 94.85 118.14 94.45 118.03 94.04 118.05 93.63 118.15 93.23 118.14 92.83 118.05 92.42 118.04 92.02 118.06 91.61 118.11 91.2 118.14 90.8 118.01 90.39 118.02 89.99 117.99 89.58 118.1 89.17 118.12 88.76 118.13 88.36 118.05 87.95 118.05 87.54 118.16 87.13 118.06 86.72 118.06 86.32 118.11 85.91 118.08 85.49 118.1 85.46 118.13 85.37 118.22 85.61 118.63 85.88 119.02 86.12 119.42 86.19 119.44 86.59 119.46 86.99 119.53 87.39 119.54 87.78 119.44 88.19 119.42 88.58 119.47 88.98 119.47 89.38 119.49 89.78 119.39 90.18 119.42 90.57 119.46 90.97 119.45 91.37 119.51 91.77 119.42 92.17 119.47 92.57 119.47 92.97 119.44 93.37 119.5 93.77 119.51 94.17 119.49 94.57 119.43 94.97 119.51 95.38 119.46 95.78 119.41 96.18 119.39 96.58 119.43 96.99 119.49 97.31 119.53 97.42 119.85 97.31 120.23 97.27 120.63 97.06 120.98 96.94 121.36 96.81 121.74 96.63 122.09 96.51 122.48 96.25 122.79 96.08 123.15 95.9 123.51 95.59 123.79 95.44 124.17 95.23 124.52 94.96 124.82 94.66 125.09 94.42 125.41 94.16 125.72 93.88 126.01 93.57 126.27 93.25 126.52 92.93 126.76 92.6 126.98 92.34 127.29 92 127.5 91.66 127.72 91.42 128.07 91.09 128.3 90.75 128.52 90.36 128.65 90.02 128.86 89.67 129.07 89.4 129.39 88.97 129.46 88.63 129.68 88.47 129.87 88.09 129.99 87.73 130.16 87.73 130.38 87.98 130.64 88.35 130.54 88.74 130.51 89.13 130.45 89.51 130.35 89.87 130.21 90.24 130.07 90.57 129.85 90.9 129.63 91.27 129.49 91.68 129.46 92.04 129.29 92.39 129.1 92.73 128.89 93.08 128.68 93.47 128.53 93.83 128.33 94.1 128 94.46 127.81 94.75 127.52 95.12 127.35 95.47 127.14 95.77 126.86 96.08 126.6 96.34 126.28 96.58 125.95 96.95 125.75 97.23 125.45 97.44 125.1 97.68 124.77 97.94 124.47 98.15 124.12 98.34 123.76 98.58 123.43 98.91 123.17 99.11 122.81 99.25 122.42 99.52 122.08 99.75 121.71 99.99 121.34 100.36 121.08 100.67 120.79 100.98 120.5 101.24 120.16 101.32 119.75 101.17 119.39 100.95 119.06 100.78 118.68 100.51 118.38 100.23 118.08 99.91 117.84 99.6 117.58 99.33 117.24 98.9 117.21"/><polygon class="cls-7" points="34.38 147.6 33.97 147.78 33.78 148.16 33.53 148.5 33.38 148.92 32.95 149.01 32.52 149.02 32.08 149.12 31.68 149.06 31.28 149.13 30.87 149.13 30.47 149.13 30.07 149.13 29.67 148.99 29.27 149.13 28.86 149.11 28.46 149.01 28.06 149.08 27.65 149 27.25 149.14 26.85 149.11 26.44 149.05 26.04 149.05 25.64 148.99 25.23 149.13 24.83 149 24.43 149.04 24.02 149.05 23.62 149.06 23.22 148.98 22.82 149.1 22.41 149.08 22.01 149.14 21.61 149.04 21.2 149.01 20.8 149.01 20.4 149.01 19.99 148.99 19.59 149.05 19.18 149.02 18.78 149.13 18.37 149.03 17.97 149.12 17.56 149.15 17.16 149.13 16.75 149.01 16.34 149.15 15.94 149.01 15.53 149.03 15.39 149.16 15.39 149.34 15.66 149.64 15.89 149.98 16.05 149.95 16.45 149.94 16.85 150.04 17.25 149.96 17.65 149.93 18.05 150.04 18.44 149.91 18.84 149.94 19.25 149.95 19.64 150.05 20.04 149.92 20.44 150.06 20.84 150.01 21.25 149.98 21.65 149.95 22.05 150.06 22.28 150.4 22.54 150.74 22.36 151.13 22.28 151.52 22.15 151.89 22.01 152.26 21.8 152.6 21.62 152.95 21.47 153.31 21.3 153.68 21.13 154.05 20.9 154.38 20.66 154.71 20.38 154.98 20.04 155.22 19.63 155.15 19.26 155.09 18.87 155.14 18.52 154.96 18.12 155.04 17.74 154.98 17.38 154.87 17.02 154.73 16.61 154.88 16.55 155.3 16.65 155.68 16.78 156.05 16.92 156.41 17.06 156.79 17.28 157.12 17.54 157.41 17.81 157.59 18.2 157.61 18.52 157.41 18.84 157.22 19.21 157.13 19.63 157.17 20.04 157.13 20.43 156.99 20.83 156.9 21.25 156.98 21.66 156.93 22.05 156.71 22.46 156.73 22.88 156.74 23.29 156.71 23.69 156.64 24.1 156.59 24.5 156.51 24.91 156.46 25.33 156.46 25.74 156.42 26.15 156.33 26.56 156.3 26.97 156.23 27.36 156.06 27.78 156.06 28.2 156.1 28.6 155.98 29 155.85 29.42 155.9 29.82 155.79 30.24 155.82 30.64 155.76 31.06 155.72 31.48 155.79 31.82 156.03 32.03 156.38 32.2 156.75 32.34 157.15 32.65 157.43 32.93 157.72 33.32 157.87 33.73 157.84 34.11 157.8 34.47 157.66 34.79 157.45 35.06 157.17 35.23 156.82 35.31 156.45 35.41 156.04 35.29 155.63 35.11 155.26 34.91 154.91 34.69 154.56 34.46 154.22 34.1 154.01 33.78 153.76 33.47 153.49 33.1 153.31 32.77 153.08 32.42 152.85 32.03 152.73 31.65 152.57 31.26 152.43 30.85 152.39 30.45 152.29 30.05 152.27 29.79 152.52 29.99 152.86 30.25 153.15 30.56 153.41 30.73 153.8 30.94 154.11 31.05 154.54 30.78 154.92 30.32 154.89 29.92 155.02 29.5 154.95 29.09 154.96 28.68 154.98 28.27 155 27.86 154.96 27.45 155.05 27.04 155.12 26.63 155.11 26.21 155.13 25.8 155.06 25.38 155.07 24.97 155.15 24.55 155.01 24.14 155.08 23.73 155.06 23.32 155.1 22.91 155.16 22.5 155.16 22.1 155.07 22.01 154.66 22.33 154.39 22.48 154.01 22.86 153.85 23.14 153.58 23.39 153.28 23.72 153.07 23.92 152.72 24.21 152.46 24.54 152.24 24.86 152.03 25.16 151.76 25.52 151.57 25.91 151.39 26.12 150.99 25.87 150.62 25.58 150.32 25.43 150.08 25.82 150 26.23 149.95 26.63 150.06 27.03 149.93 27.43 150.07 27.83 149.98 28.23 150.05 28.63 150.05 29.03 149.97 29.43 149.98 29.83 150 30.23 149.92 30.64 149.97 31.04 149.93 31.44 150 31.84 150.06 32.24 149.94 32.65 150.05 33.05 150.04 33.45 149.94 33.85 149.99 34.26 150.02 34.66 149.99 35.07 149.99 35.48 149.99 35.89 150.03 36.29 149.92 36.66 149.81 36.87 149.51 36.71 149.14 36.36 148.94 36.02 148.74 35.77 148.41 35.42 148.21 35.07 148.03 34.76 147.78 34.38 147.6"/><polygon class="cls-7" points="17.14 140.26 17.23 140.3 17.61 140.3 17.99 140.41 18.37 140.3 18.75 140.32 19.14 140.41 19.52 140.25 19.9 140.28 20.29 140.38 20.67 140.37 21.07 140.37 21.27 140.72 21.42 141.08 21.37 141.56 21.36 142.02 21.29 142.43 21.63 142.66 21.96 142.82 22.32 142.86 22.68 142.82 23.02 142.73 23.31 142.53 23.51 142.24 23.64 141.91 23.61 141.43 23.52 140.96 23.69 140.62 23.89 140.36 24.25 140.28 24.65 140.28 25.06 140.41 25.46 140.3 25.87 140.26 26.28 140.37 26.69 140.38 27.1 140.37 27.47 140.34 27.83 140.49 27.95 140.86 27.96 141.26 27.89 141.66 27.94 142.05 27.99 142.42 28.24 142.71 28.65 142.87 29.01 142.68 29.37 142.62 29.72 142.5 29.99 142.27 30.2 142 30.32 141.67 30.4 141.3 30.26 140.88 30.46 140.49 30.84 140.41 31.25 140.25 31.66 140.42 32.07 140.37 32.48 140.32 32.89 140.35 33.3 140.31 33.71 140.35 34.12 140.42 34.53 140.34 34.95 140.32 35.37 140.35 35.76 140.22 35.94 139.88 35.73 139.5 35.38 139.26 35.11 138.92 34.67 138.8 34.35 138.53 34.01 138.26 33.62 138.02 33.26 138.31 32.95 138.59 32.73 138.95 32.4 139.22 32.01 139.47 31.63 139.43 31.25 139.32 30.86 139.39 30.53 139.29 30.25 139.1 30.32 138.73 30.26 138.32 30.4 137.94 30.66 137.61 30.96 137.29 30.66 136.93 30.25 136.8 29.82 136.77 29.42 136.68 29 136.62 28.59 136.52 28.18 136.49 27.84 136.53 27.78 136.87 27.73 137.24 27.94 137.57 27.91 137.95 27.93 138.3 27.94 138.71 27.87 139.12 27.51 139.32 27.12 139.47 26.72 139.43 26.31 139.44 25.91 139.49 25.51 139.43 25.1 139.39 24.7 139.32 24.29 139.31 23.85 139.26 23.64 138.88 23.78 138.46 24 138.12 24.15 137.75 24.41 137.46 24.13 137.16 23.8 136.96 23.41 136.9 23.05 136.75 22.65 136.72 22.28 136.58 21.89 136.49 21.49 136.63 21.09 136.9 21.1 137.29 21.22 137.67 21.38 138.03 21.43 138.43 21.39 138.9 21.14 139.31 20.67 139.42 20.28 139.45 19.88 139.48 19.48 139.43 19.09 139.47 18.69 139.48 18.29 139.41 17.9 139.47 17.5 139.41 17.1 139.4 16.7 139.34 16.58 139.5 16.64 139.6 16.88 139.94 17.14 140.26"/><polygon class="cls-7" points="30.23 143.88 30.07 144.2 29.76 144.37 29.46 144.61 29.09 144.56 28.73 144.61 28.33 144.67 27.91 144.58 27.51 144.66 27.11 144.73 26.7 144.76 26.3 144.78 25.9 144.84 25.49 144.81 25.1 144.98 24.69 144.99 24.29 145.03 23.87 144.94 23.47 145.05 23.07 145.15 22.67 145.22 22.26 145.2 21.85 145.18 21.44 145.2 21.04 145.29 20.62 145.24 20.23 145.37 19.81 145.3 19.41 145.47 19 145.54 18.79 145.53 18.9 145.71 19.21 145.96 19.42 146.31 19.58 146.32 19.98 146.27 20.39 146.22 20.8 146.26 21.21 146.22 21.61 146.14 22.02 146.15 22.43 146.15 22.84 146.04 23.24 145.99 23.64 145.88 24.06 146.01 24.45 145.82 24.87 145.91 25.27 145.82 25.68 145.76 26.08 145.7 26.49 145.69 26.91 145.72 27.3 145.6 27.72 145.66 28.13 145.65 28.53 145.48 28.94 145.41 29.35 145.46 29.77 145.52 30.17 145.35 30.58 145.37 31 145.37 31.41 145.37 31.82 145.33 32.23 145.19 32.67 145.22 33.04 144.99 33.09 144.61 32.95 144.29 32.64 144.07 32.39 143.76 32 143.66 31.73 143.35 31.33 143.29 31.02 143.11 30.76 143.34 30.43 143.55 30.23 143.88"/><path class="cls-7" d="M76.56,141.46l.29-.26.33-.28.36-.16.11-.34V140l-.25-.36-.36-.25-.31-.28-.34-.26-.29-.33-.41-.16-.3.28-.32.26-.27.29-.41.11-.41,0-.42,0-.42-.05-.42.05-.37-.14v-.38l.19-.33.35-.15.34-.09.12-.28-.14-.35-.33-.24-.33-.25-.34-.21-.39-.13-.39-.1-.38-.06-.2.2-.08.37-.12.36-.19.37-.08.41-.14.39-.23.35-.22.35-.19.37-.23.35-.14.4-.27.32-.24.33-.13.42-.36.26-.13.42-.25.33-.28.31-.28.31-.17.39-.31.24-.28.28-.22.32-.13.34.14.19.39-.19.46-.08.31-.33.41-.2.3-.34.31-.22.31.07L69,144l.21.36.05.41.08.4.23.35.24.33.21.34v.4l-.28.3-.29.26-.18.38-.27.29-.34.22-.34.2-.25.32-.38.16-.32.22-.32.22-.31.25-.34.2-.28.26,0,.23.28.18.38-.11.38-.13.36-.18.37-.13.39-.12.33-.22.35-.2.37-.15.36-.19.31-.26.36-.17.32-.25L71,148l.31-.27.35-.23.29-.29.29-.29.32-.27.2-.37.4-.19.28-.31.2-.36.28-.31.27-.31.19-.37.31-.28.25-.32.21-.36.23-.34.16-.38.35-.27.2-.36.16-.38Zm-5.27-.91.25-.21.3-.22h.37l.41,0,.41.16h.41l.41-.11.46.15.09.48-.23.35-.19.36-.13.39-.28.31-.33.22-.39-.2-.25-.29-.29-.24-.28-.26-.37-.14-.34-.17-.25-.27Zm-1.54,2.58-.22-.22,0-.37.28-.29.25-.32.39-.18.24-.12.32.08.22.32.16.35v.39l.11.36.31.4.3.4.17.27-.19.31-.29.26-.4-.13-.2-.31-.28-.23-.28-.24-.3-.22-.33-.19Z"/><polygon class="cls-7" points="77.39 146.53 76.98 146.44 76.57 146.49 76.16 146.46 75.76 146.39 75.35 146.46 74.94 146.5 74.53 146.47 74.12 146.4 73.71 146.38 73.51 146.5 73.62 146.67 73.86 147.01 74.09 147.35 74.24 147.33 74.65 147.42 75.07 147.29 75.49 147.35 75.91 147.4 76.33 147.36 76.74 147.3 77.16 147.41 77.58 147.39 78 147.3 78.42 147.46 78.84 147.42 79.26 147.43 79.68 147.42 80.1 147.44 80.52 147.3 80.94 147.37 81.34 147.25 81.53 146.88 81.34 146.51 81.16 146.13 80.83 145.89 80.53 145.61 80.14 145.44 79.85 145.15 79.45 144.99 79.11 145.25 78.82 145.51 78.67 145.89 78.34 146.21 78.08 146.45 77.73 146.52 77.39 146.53"/><polygon class="cls-7" points="74 152.75 73.7 152.53 73.42 152.26 73.18 151.94 72.77 151.86 72.47 151.63 72.14 151.43 71.78 151.67 71.6 152.11 71.48 152.46 71.27 152.79 70.97 153.05 70.83 153.43 70.5 153.67 70.23 153.95 69.94 154.22 69.74 154.57 69.49 154.88 69.2 155.15 68.88 155.38 68.61 155.67 68.31 155.94 67.9 156.04 67.62 156.33 67.32 156.6 66.9 156.67 66.78 157.06 67.15 157.22 67.52 157.05 67.93 157.02 68.32 156.89 68.67 156.68 69.06 156.58 69.4 156.35 69.79 156.24 70.14 156.03 70.49 155.82 70.83 155.59 71.22 155.46 71.53 155.2 71.85 154.95 72.19 154.73 72.5 154.47 72.83 154.23 73.12 153.95 73.54 153.82 73.84 153.58 74.13 153.33 74.29 153.02 74 152.75"/><polygon class="cls-7" points="87.84 147.47 87.61 147.37 87.22 147.27 86.86 147.12 86.51 146.91 86.22 146.63 85.88 146.44 85.52 146.27 85.23 145.99 84.85 145.84 84.52 145.63 84.28 145.29 83.96 145.06 83.6 144.88 83.39 144.52 83.04 144.32 82.93 143.94 82.8 143.53 83.09 143.22 83.3 142.87 83.59 142.57 83.81 142.22 83.99 141.84 84.32 141.58 84.54 141.23 84.95 141.06 85.18 140.71 85.51 140.46 85.86 140.22 86.3 140.25 86.62 139.96 86.78 139.61 86.6 139.26 86.28 138.99 86.01 138.66 85.7 138.37 85.35 138.13 84.99 137.91 84.7 137.57 84.28 137.53 83.93 137.63 83.65 137.9 83.36 138.16 83.1 138.44 82.78 138.64 82.4 138.61 82.01 138.72 81.62 138.72 81.23 138.69 80.84 138.59 80.45 138.59 80.06 138.59 79.93 138.73 79.93 138.9 80.15 139.24 80.53 139.44 80.58 139.51 81.03 139.6 81.47 139.54 81.92 139.48 82.36 139.51 82.81 139.57 83.26 139.73 83.28 140.22 83.19 140.58 83.07 140.94 82.84 141.25 82.74 141.61 82.59 141.96 82.41 142.28 82.11 142.58 81.69 142.6 81.28 142.44 81.07 142.11 80.93 141.74 80.62 141.48 80.51 141.09 80.17 140.85 80.05 140.47 79.77 140.18 79.6 139.82 79.44 139.46 79.29 139.1 79.19 138.71 78.95 138.39 78.77 138.04 78.65 137.66 78.43 137.33 78.22 136.99 78 136.58 77.69 136.27 77.43 136.57 77.45 136.97 77.62 137.35 77.61 137.78 77.88 138.12 77.96 138.52 78.09 138.9 78.15 139.32 78.32 139.69 78.54 140.04 78.71 140.41 78.87 140.79 78.99 141.18 79.22 141.53 79.41 141.89 79.54 142.28 79.69 142.67 79.98 142.96 80.17 143.31 80.41 143.62 80.57 144 80.85 144.28 80.99 144.67 81.26 144.96 81.59 145.21 81.85 145.51 82.07 145.84 82.32 146.15 82.59 146.44 82.86 146.73 83.14 147 83.38 147.33 83.66 147.61 83.94 147.89 84.22 148.17 84.52 148.43 84.81 148.71 85.09 148.99 85.46 149.15 85.79 149.38 86.09 149.21 86.31 148.94 86.51 148.79 86.92 148.72 87.25 148.54 87.59 148.35 87.97 148.29 88.32 148.12 88.67 147.8 88.32 147.54 87.84 147.47"/><polygon class="cls-7" points="80.22 151.68 80.03 151.95 80.25 152.14 80.55 152.34 80.87 152.5 81.13 152.76 81.4 153.02 81.73 153.24 82.04 153.47 82.27 153.79 82.48 154.11 82.71 154.42 82.98 154.71 83.06 155.12 83.22 155.46 83.46 155.77 83.66 156.15 83.96 156.46 84.24 156.77 84.58 157.04 84.98 157.21 85.43 157.24 85.83 157.08 86.17 156.84 86.46 156.55 86.72 156.2 86.77 155.76 86.68 155.36 86.47 155.01 86.31 154.64 86.17 154.24 85.88 153.94 85.5 153.75 85.17 153.51 84.83 153.28 84.43 153.16 84.09 152.94 83.73 152.75 83.35 152.6 82.98 152.4 82.61 152.23 82.21 152.11 81.78 152.12 81.41 151.93 81.02 151.84 80.63 151.68 80.22 151.68"/><polygon class="cls-7" points="79.27 150.48 79.68 150.35 80.1 150.41 80.51 150.37 80.92 150.47 81.34 150.46 81.75 150.48 82.16 150.44 82.58 150.33 82.99 150.41 83.41 150.32 83.82 150.45 84.23 150.35 84.65 150.29 84.85 149.91 84.59 149.57 84.33 149.25 84.04 148.95 83.74 148.66 83.42 148.38 83.1 148.11 82.68 147.99 82.26 148.2 81.95 148.56 81.63 148.91 81.36 149.33 80.95 149.51 80.52 149.53 80.09 149.54 79.68 149.39 79.28 149.43 78.87 149.53 78.47 149.4 78.06 149.41 77.66 149.56 77.25 149.45 76.85 149.44 76.45 149.5 76.04 149.4 75.64 149.4 75.23 149.41 74.83 149.39 74.42 149.43 74.02 149.49 73.61 149.45 73.2 149.48 72.8 149.49 72.39 149.5 71.98 149.47 71.58 149.55 71.17 149.39 70.76 149.51 70.35 149.4 69.94 149.43 69.88 149.6 69.84 149.72 70.14 149.99 70.3 150.38 70.47 150.48 70.89 150.33 71.31 150.31 71.73 150.41 72.15 150.44 72.57 150.35 72.99 150.33 73.41 150.43 73.83 150.47 74.25 150.36 74.67 150.44 75.1 150.46 75.52 150.32 75.9 150.4 76.17 150.66 76.42 150.93 76.5 151.31 76.51 151.73 76.51 152.15 76.38 152.57 76.49 152.99 76.41 153.42 76.45 153.84 76.44 154.26 76.4 154.68 76.44 155.12 76.15 155.43 75.74 155.56 75.32 155.51 74.89 155.49 74.47 155.63 74.05 155.52 73.63 155.59 73.3 155.78 73.74 156.05 74.14 156.09 74.49 156.29 74.77 156.57 74.98 156.9 75.18 157.24 75.48 157.49 75.8 157.71 76.17 157.78 76.56 157.72 76.98 157.74 77.32 157.48 77.67 157.29 78.03 157.11 78.28 156.81 78.36 156.43 78.53 156.07 78.41 155.67 78.54 155.29 78.58 154.91 78.56 154.52 78.41 154.12 78.41 153.71 78.54 153.3 78.48 152.89 78.42 152.48 78.4 152.08 78.44 151.66 78.34 151.26 78.43 150.77 78.82 150.48 79.27 150.48"/><polygon class="cls-7" points="46.65 143.52 46.5 143.14 46.32 142.77 46.02 142.47 45.77 142.12 45.35 141.97 45.03 141.78 44.77 142.03 44.58 142.46 44.38 142.82 44.21 143.2 43.9 143.48 43.63 143.79 43.46 144.16 43.28 144.53 43 144.83 42.71 145.12 42.58 145.53 42.32 145.84 42.05 146.15 41.74 146.42 41.57 146.81 41.28 147.11 40.97 147.38 40.7 147.69 40.53 148.07 40.22 148.34 39.94 148.64 39.74 149 39.57 149.38 39.31 149.68 39.46 149.91 39.85 149.81 40.16 149.54 40.53 149.36 40.86 149.12 41.17 148.85 41.45 148.53 41.83 148.34 42.21 148.12 42.64 148.25 42.8 148.65 42.98 149.04 42.95 149.47 43.06 149.88 43 150.3 43.05 150.7 43.01 151.09 43.03 151.49 43 151.89 43.01 152.28 43 152.68 42.93 153.07 42.82 153.47 42.89 153.87 42.78 154.26 42.83 154.66 42.84 155.06 42.77 155.46 42.73 155.85 42.74 156.25 42.82 156.64 42.78 157.11 43.12 157.44 43.41 157.75 43.84 157.84 44.29 157.87 44.66 157.63 45 157.35 45.16 156.94 45.17 156.53 45.18 156.13 45.31 155.72 45.23 155.32 45.15 154.92 45.23 154.52 45.1 154.12 45.12 153.72 45.12 153.31 45.12 152.91 45.18 152.5 45.2 152.1 45.18 151.69 45.08 151.29 45.16 150.88 45.03 150.48 45 150.08 44.98 149.67 45.1 149.27 45.11 148.86 44.93 148.46 44.92 148.06 44.94 147.64 45.17 147.39 45.49 147.25 45.5 146.91 45.41 146.59 45.1 146.41 44.75 146.33 44.37 146.09 44.59 145.68 44.82 145.41 45.08 145.16 45.38 144.95 45.56 144.62 45.92 144.33 46.24 144.02 46.58 143.88 46.65 143.52"/><polygon class="cls-7" points="40.24 142.79 40.57 142.6 40.95 142.53 41.21 142.23 41.53 142.04 41.89 141.91 42.26 141.77 42.53 141.49 42.86 141.29 43.22 141.11 43.47 140.8 43.87 140.66 44.2 140.44 44.52 140.15 44.84 139.88 45.21 139.65 45.49 139.31 45.91 139.16 46.26 138.97 46.24 138.81 46.64 138.75 46.82 138.44 46.7 138.1 46.49 137.78 46.17 137.54 45.95 137.21 45.67 136.93 45.34 136.72 44.96 136.66 44.58 136.8 44.44 137.23 44.38 137.34 44.09 137.63 43.89 137.97 43.66 138.29 43.49 138.67 43.18 138.93 43.02 139.31 42.75 139.61 42.45 139.88 42.27 140.25 42 140.55 41.62 140.75 41.44 141.12 41.01 141.54 40.6 141.79 40.33 142.18 40.03 142.52 40.24 142.79"/><polygon class="cls-7" points="48.36 145.05 48.01 145.02 47.97 145.36 47.95 145.7 47.97 146.06 47.86 146.4 47.87 146.74 47.86 147.13 47.86 147.52 47.76 147.91 47.78 148.31 47.73 148.7 47.65 149.08 47.56 149.47 47.44 149.84 47.42 150.24 47.25 150.61 47.27 151.02 47.07 151.38 46.95 151.75 46.84 152.13 46.69 152.5 46.68 152.92 46.43 153.24 46.2 153.57 46.21 153.73 45.9 154.02 45.76 154.42 45.97 154.67 46.21 154.5 46.52 154.26 46.8 153.98 47.07 153.7 47.38 153.44 47.61 153.13 47.81 152.79 48.02 152.46 48.28 152.16 48.41 151.78 48.58 151.43 48.78 151.08 48.8 150.67 48.98 150.32 49.09 149.94 49.27 149.58 49.39 149.2 49.29 148.77 49.47 148.39 49.56 147.99 49.54 147.53 49.61 147.08 49.92 146.88 50.1 146.6 50.28 146.36 50.07 146.04 49.81 145.74 49.53 145.42 49.1 145.35 48.75 145.14 48.36 145.05"/><polygon class="cls-7" points="53.37 135.67 53.74 135.87 53.97 136.19 54.13 136.56 54.3 136.91 54.47 137.25 54.62 137.6 54.71 137.98 54.92 138.29 55.16 138.58 55.43 138.84 55.82 138.82 56.18 138.79 56.56 138.7 56.85 138.43 56.9 138.03 56.95 137.67 57.02 137.28 56.95 136.89 56.69 136.58 56.5 136.24 56.16 136.03 55.84 135.83 55.52 135.6 55.2 135.37 54.81 135.29 54.42 135.2 54.04 135.11 53.66 134.99 53.21 135.31 53.37 135.67"/><polygon class="cls-7" points="57.6 139.44 57.78 139.49 58.17 139.51 58.56 139.49 58.94 139.49 59.33 139.49 59.72 139.57 60.11 139.49 60.5 139.57 60.88 139.55 61.27 139.5 61.66 139.58 62.05 139.49 62.43 139.44 62.77 139.34 62.95 139.05 62.89 138.66 62.53 138.44 62.34 138.08 61.98 137.9 61.71 137.6 61.35 137.44 60.98 137.34 60.56 137.45 60.39 137.85 60.22 138.24 60.11 138.27 59.94 138.47 59.62 138.63 59.27 138.63 58.83 138.62 58.38 138.48 57.93 138.55 57.48 138.63 57.4 138.67 57.29 138.81 57.45 139.12 57.6 139.44"/><polygon class="cls-7" points="53.65 142.46 54.04 142.32 54.44 142.32 54.83 142.39 55.23 142.34 55.62 142.47 56.08 142.41 56.49 142.24 56.65 141.89 56.63 141.53 56.44 141.19 56.11 140.99 55.83 140.75 55.52 140.53 55.18 140.32 54.78 140.5 54.6 140.86 54.35 141.16 54.06 141.37 53.64 141.43 53.25 141.42 52.94 141.24 52.71 140.94 52.65 140.55 52.58 140.14 52.7 139.74 52.72 139.35 52.66 138.95 52.71 138.56 52.89 138.23 53.1 137.89 53.25 137.52 53.03 137.25 52.77 136.95 52.42 136.8 52.01 136.82 51.68 136.58 51.31 136.5 50.92 136.58 50.61 136.68 50.52 136.91 50.49 137.32 50.7 137.67 50.72 138.07 50.76 138.46 50.74 138.85 50.66 139.24 50.79 139.63 50.86 140.02 50.72 140.41 50.73 140.79 50.68 141.2 50.34 141.44 49.93 141.45 49.51 141.54 49.08 141.54 48.66 141.53 48.23 141.54 47.81 141.43 47.38 141.4 47.38 141.41 47.21 141.53 47.32 141.67 47.46 142 47.69 142.28 47.76 142.37 48.18 142.41 48.61 142.44 49.04 142.44 49.48 142.49 49.91 142.37 50.38 142.45 50.63 142.84 50.81 143.26 50.88 143.67 50.88 144.07 50.86 144.48 50.7 144.88 50.83 145.29 50.73 145.69 50.82 146.1 50.66 146.5 50.69 146.91 50.75 147.32 50.71 147.72 50.69 148.13 50.62 148.53 50.69 148.94 50.71 149.35 50.6 149.75 50.71 150.16 50.68 150.57 50.71 150.98 50.54 151.38 50.53 151.79 50.56 152.2 50.65 152.61 50.63 153.02 50.5 153.42 50.62 153.84 50.48 154.24 50.48 154.65 50.54 155.06 50.56 155.47 50.49 155.87 50.53 156.28 50.46 156.68 50.53 157.11 50.76 157.47 51.02 157.81 51.45 157.91 51.84 157.9 52.21 157.76 52.49 157.47 52.81 157.24 52.99 156.89 53.05 156.49 53.01 156.09 52.92 155.69 53.04 155.29 52.95 154.9 52.97 154.5 52.94 154.09 52.93 153.69 52.85 153.29 52.83 152.89 52.83 152.49 52.87 152.09 52.91 151.69 52.89 151.29 52.85 150.89 52.84 150.49 52.83 150.09 52.8 149.69 52.88 149.28 52.78 148.88 52.81 148.48 52.7 148.08 52.84 147.67 52.84 147.27 52.7 146.87 52.82 146.47 52.67 146.07 52.73 145.66 52.74 145.26 52.72 144.86 52.75 144.46 52.68 144.05 52.65 143.65 52.72 143.25 52.71 142.88 52.98 142.64 53.28 142.44 53.65 142.46"/><polygon class="cls-7" points="61.65 142.67 61.29 142.92 61.22 143.32 60.92 143.6 60.71 143.95 60.3 144.04 59.92 144.04 59.53 144.01 59.15 144 58.76 143.89 58.38 143.97 57.99 144.03 57.6 143.98 57.21 143.9 56.83 143.96 56.44 144 56.3 144.04 56.37 144.17 56.57 144.48 56.62 144.88 56.82 144.82 57.19 144.95 57.56 144.84 57.94 144.83 58.31 144.87 58.68 144.94 59.07 144.94 59.33 145.22 59.51 145.55 59.62 145.94 59.62 146.35 59.56 146.76 59.46 147.18 59.51 147.59 59.51 148 59.62 148.42 59.47 148.83 59.55 149.25 59.51 149.66 59.57 150.08 59.42 150.49 59.51 150.91 59.49 151.33 59.46 151.74 59.38 152.15 59.41 152.57 59.35 152.98 59.37 153.39 59.29 153.76 59.26 154.13 59.19 154.5 59.02 154.87 58.68 155.07 58.28 155.06 57.91 155.06 57.52 155.11 57.12 155.09 56.73 155 56.32 154.99 55.83 155.34 56.17 155.6 56.53 155.75 56.89 155.91 57.19 156.18 57.41 156.5 57.74 156.75 57.78 157.15 57.93 157.5 58.08 157.87 58.46 157.97 58.84 157.95 59.25 158.02 59.64 157.9 60 157.75 60.38 157.6 60.67 157.33 60.99 157.09 61.16 156.71 61.44 156.42 61.5 156.02 61.62 155.66 61.72 155.25 61.7 154.85 61.66 154.44 61.59 154.03 61.68 153.62 61.59 153.22 61.51 152.81 61.62 152.4 61.49 151.99 61.52 151.59 61.63 151.17 61.44 150.77 61.45 150.35 61.58 149.94 61.51 149.53 61.44 149.11 61.39 148.7 61.54 148.29 61.5 147.88 61.45 147.47 61.36 147.06 61.49 146.65 61.48 146.25 61.47 145.84 61.46 145.47 61.72 145.23 61.96 144.97 62.32 144.87 62.8 144.93 63.19 144.97 63.57 144.83 63.64 144.48 63.54 144.12 63.33 143.78 63.09 143.46 62.74 143.23 62.42 142.98 62.01 142.88 61.65 142.67"/><polygon class="cls-7" points="56.39 153.87 56.78 153.82 57.09 153.59 57.38 153.32 57.47 152.93 57.57 152.57 57.51 152.18 57.5 151.81 57.45 151.41 57.39 151 57.35 150.6 57.33 150.19 57.14 149.82 57.06 149.42 56.9 149.04 56.8 148.64 56.71 148.24 56.42 147.92 56.29 147.53 56.11 147.17 55.98 146.78 55.77 146.42 55.52 146.09 55.2 145.82 55.07 145.4 54.73 145.16 54.43 144.88 54.03 144.81 53.96 144.74 53.7 145 53.99 145.42 54.11 145.68 54.19 146.08 54.25 146.49 54.39 146.87 54.49 147.27 54.57 147.67 54.55 148.08 54.71 148.47 54.63 148.88 54.69 149.28 54.84 149.68 54.71 150.09 54.84 150.49 54.81 150.9 54.88 151.3 54.98 151.7 54.97 152.11 55.06 152.52 55.17 152.92 55.31 153.32 55.64 153.58 55.96 153.87 56.39 153.87"/></g></g></svg>