<svg xmlns="http://www.w3.org/2000/svg" viewBox="0 0 188.83 21.7"><defs><style>.cls-1{fill:#231815;}</style></defs><title>アセット 5</title><g id="レイヤー_2" data-name="レイヤー 2"><g id="レイヤー_1-2" data-name="レイヤー 1"><path class="cls-1" d="M1.16,7.62a.15.15,0,0,1-.11,0,3,3,0,0,0-.84-.44c-.08,0-.11,0-.11-.07S.15,7,.19,7A7.6,7.6,0,0,0,3.29,4.4a11.45,11.45,0,0,0-1.51-.9.11.11,0,0,1,0-.09c0-.07.44-.53.55-.53a7.59,7.59,0,0,1,1.49.77,5.66,5.66,0,0,0,.91-2.16c0-.06,0-.08,0-.08s1.2.37,1.2.61-.17.19-.26.26a1.09,1.09,0,0,0-.34.48c-.22.44-.48.91-.78,1.39A5.72,5.72,0,0,1,5.92,5.27,2.26,2.26,0,0,1,5.23,6s0,0-.05,0A9.24,9.24,0,0,0,4,4.93,8.32,8.32,0,0,1,1.16,7.62Z"/><path class="cls-1" d="M11,7.81c.12-1.33.11-2.58.12-3.89a9.53,9.53,0,0,1-2.59,2,.13.13,0,0,1-.1,0,3.12,3.12,0,0,0-.9-.44c-.08,0-.11,0-.11-.07s0,0,.08,0a11.19,11.19,0,0,0,4.39-3.66A2.86,2.86,0,0,0,12.35,1s0-.07.07-.07,1,.53,1,.72-.23.17-.29.21a1.72,1.72,0,0,0-.46.43L12.05,3c0,1.55,0,3.32.11,4.85,0,0,0,.09-.51.09s-.61,0-.61-.1Z"/><path class="cls-1" d="M16.5,7.29c-.29.14-.38.26-.49.26s-.92-.77-.92-.91,0-.07.11-.08a5.3,5.3,0,0,0,1.08-.29,14.47,14.47,0,0,0,4.83-3.19s.06-.06.08-.06,0,0,0,.11a2.47,2.47,0,0,0,.25.81.12.12,0,0,1,0,.08.16.16,0,0,1-.07.14A19.88,19.88,0,0,1,16.5,7.29Zm.61-3.54a10.23,10.23,0,0,0-1.86-1.21s-.06,0-.06-.06a1.76,1.76,0,0,1,.52-.7,7.56,7.56,0,0,1,2,1.14,2.36,2.36,0,0,1-.55.86A.09.09,0,0,1,17.11,3.75Z"/><path class="cls-1" d="M28.54,3.13s.08,0,.08.45a2.61,2.61,0,0,1,0,.35s0,0-.08,0c-.62,0-.9-.07-1.46-.07s-.78,0-1.47.07c-.13,0-.13,0-.13-.35,0-.13,0-.26,0-.35a8,8,0,0,1-1.75,1.44.09.09,0,0,1-.08,0,2.79,2.79,0,0,0-.89-.51c-.05,0-.07,0-.07-.06s0,0,.06-.06a8.26,8.26,0,0,0,4-3.95s0-.08.06-.08,1,.33,1,.53-.14.16-.25.2a8.48,8.48,0,0,0,3.74,2.87c.05,0,.1,0,.1,0s0,.05-.11.09a3.59,3.59,0,0,0-.81.59.14.14,0,0,1-.11.06,11.19,11.19,0,0,1-3.32-3,16.17,16.17,0,0,1-1.44,1.76c.62,0,.79.06,1.43.06.47,0,.87,0,1.45-.06Zm-4.5,4a13.48,13.48,0,0,0,1.39-.1,10.67,10.67,0,0,0,.44-1.6l-1.64.07c-.12,0-.13,0-.13-.43s0-.44.09-.44h0c1.39.07,1.78.08,2.83.08s1.56,0,3-.08c.08,0,.11,0,.11.45a2.8,2.8,0,0,1,0,.36s0,.06-.09.06c-1.36,0-1.95-.08-2.95-.08a.38.38,0,0,1-.16.12c-.07,0-.12,0-.16.15A10.2,10.2,0,0,1,26.35,7c.73-.09,1.46-.2,2-.28l-.47-.48a.07.07,0,0,1,0-.06,1.6,1.6,0,0,1,.61-.44l.07,0a7.76,7.76,0,0,1,1.79,1.88,2,2,0,0,1-.72.61s-.06,0-.1-.09a7.44,7.44,0,0,0-.58-.82c-.69.12-4,.73-4.3.77-.14,0-.22.13-.3.13s-.56-.89-.56-1,0,0,.11,0Z"/><path class="cls-1" d="M35.43,5.22s0,.08-.1.12c-.56.26-1.63.77-2,.93-.12.05-.2.16-.29.16s-.66-.78-.66-.83,0,0,.1,0a6.11,6.11,0,0,0,1.15-.31c0-.67,0-1.73,0-1.89V3l-.83,0c-.09,0-.1,0-.1-.36V2.28a.1.1,0,0,1,.1-.08c.3,0,.56.06.83.07a15,15,0,0,0-.1-2v0a0,0,0,0,1,0,0s1.1.15,1.1.34-.11.22-.16.34a5.1,5.1,0,0,0-.09,1.43c.29,0,.49,0,.87-.07a.1.1,0,0,1,.1.08c0,.08,0,.25,0,.42,0,.35,0,.36-.11.36l-.88,0v.33c0,.13,0,1,0,1.6l.89-.36.06,0s0,0,0,.07a3.83,3.83,0,0,0,0,.56Zm4.69-.28a10.16,10.16,0,0,1-.45,2.54,1.21,1.21,0,0,1-1.16.81h-.13c-.07,0-.13,0-.14-.07a3,3,0,0,0-.43-.73,2.79,2.79,0,0,1-1.08.83l-.07,0A2,2,0,0,0,36,8s-.08,0-.08-.06l0,0a4.32,4.32,0,0,0,2.21-2.43h-.38a0,0,0,0,1,0,0s0,.06-.07.08-.09,0-.17.13a5.85,5.85,0,0,1-2.51,2.22L35,8a.11.11,0,0,1-.08,0,1.76,1.76,0,0,0-.56-.37s-.08,0-.08-.07,0,0,.06,0a4.77,4.77,0,0,0,2.59-2l-.52,0a4.6,4.6,0,0,1-1.45,1.14.12.12,0,0,1-.09,0,1.72,1.72,0,0,0-.55-.33s-.08,0-.08-.06l.06,0a4.73,4.73,0,0,0,2.11-1.71c-.4,0-.84,0-1.33.06-.11,0-.14,0-.14-.37s0-.45.14-.45c1.17.08,2,.08,2.67.08s1.58,0,2.8-.08a.11.11,0,0,1,.1.08c0,.08,0,.24,0,.4a2.27,2.27,0,0,1,0,.29s-.07,0-.1,0c-1.3-.07-2-.08-2.8-.08H37.4s0,.06-.11.09-.13,0-.39.38h1.41c.5,0,1.23,0,1.73,0h0s0,0,0,0Zm-.84-1.49s0,.11-.48.11c-.3,0-.35,0-.35-.1V3.29l-.73,0-.9,0v.17c0,.1,0,.13-.42.13s-.41,0-.41-.12v0c0-.7.07-1.29.07-1.49s0-1.14,0-1.48a.35.35,0,0,0,0-.06s0,0,0,0h.08c.38,0,1.1,0,1.59,0s.83,0,1.41,0h0c.06,0,.08,0,.08.07v0c0,.36,0,1.21,0,1.43s0,.89.05,1.5ZM38.49,1H36.82s0,.25,0,.49H38.5C38.5,1.29,38.49,1,38.49,1Zm-.76,1.08-.92,0c0,.13,0,.32,0,.52l.9,0,.76,0c0-.2,0-.39,0-.52Zm1.39,3.34a.2.2,0,0,1-.12.08s-.09,0-.15.16a6.43,6.43,0,0,1-1,1.73,3.16,3.16,0,0,0,.52.06.45.45,0,0,0,.48-.3,4.64,4.64,0,0,0,.38-1.73Z"/><path class="cls-1" d="M45.62,3.1a.67.67,0,0,1,.67-.68.68.68,0,1,1,0,1.36A.67.67,0,0,1,45.62,3.1Zm0,2.63a.66.66,0,0,1,.67-.67.67.67,0,0,1,.69.67.69.69,0,0,1-.69.69A.68.68,0,0,1,45.62,5.73Z"/><path class="cls-1" d="M4.69,21.52a.09.09,0,0,1-.09.08l-.39,0c-.36,0-.48,0-.48-.11v0c0-.37.11-1.19.13-1.75A7.36,7.36,0,0,1,1,21.49a.2.2,0,0,1-.14-.06A2.82,2.82,0,0,0,.07,21S0,20.92,0,20.9s0,0,.06,0a7.72,7.72,0,0,0,3.49-1.63c-.69,0-1.49,0-2.87.07-.14,0-.15,0-.15-.38s0-.39.11-.39h0c1.58.08,2.41.1,3.18.1a2.65,2.65,0,0,0-.09-.54v0H2.47s0,.08,0,.11,0,.06-.09.07H1.6c-.06,0-.08,0-.08-.07v0A16.6,16.6,0,0,0,1.67,16c-.15.2-.65.83-.8.83l-.06,0a2.09,2.09,0,0,0-.7-.25s-.09,0-.09,0l0,0a6.11,6.11,0,0,0,2.2-3.11s0-.05,0-.05,1,.31,1,.5,0,.12-.17.15-.16,0-.21.13l-.23.43H3.87a6.52,6.52,0,0,0,.48-1.09c0-.07,0-.09.05-.09s.95.23.95.37-.07.09-.16.16-.18.15-.54.65c.62,0,1.71,0,2.51-.09.09,0,.11,0,.11.41a1.78,1.78,0,0,1,0,.25s-.07,0-.09,0c-.7-.07-1.66-.08-2.3-.08a.15.15,0,0,1-.07.07c-.08.05-.08.07-.08.16v.23c.5,0,1.21,0,1.86-.07,0,0,.07,0,.08.06a1.71,1.71,0,0,1,0,.26,2,2,0,0,1,0,.27s-.06,0-.09,0c-.63-.06-1.35-.07-1.85-.07v.47c.5,0,1.2,0,1.85-.08,0,0,.08,0,.09.06a1.86,1.86,0,0,1,0,.26,2,2,0,0,1,0,.27s-.06,0-.09,0C6,17,5.23,17,4.72,17c0,.16,0,.33,0,.47.66,0,1.84,0,2.65-.08.1,0,.12,0,.12.41a1.78,1.78,0,0,1,0,.26s-.08.05-.1.05c-.94-.07-2.49-.08-2.92-.08H4.23c.17,0,.55.09.55.17s-.07.12-.16.18a.34.34,0,0,0-.07.21c.76,0,1.72,0,3.29-.09a.11.11,0,0,1,.12.09A3.66,3.66,0,0,1,8,19a1.93,1.93,0,0,1,0,.26s-.06.05-.12.05c-1.32-.05-2.19-.07-2.92-.07a7.79,7.79,0,0,0,3.5,1.46c.08,0,.11,0,.11.05s0,.07-.11.11a3.82,3.82,0,0,0-.79.51.15.15,0,0,1-.12.06,9,9,0,0,1-3-1.72c0,.55.08,1.4.14,1.82ZM4,16.06H2.44c0,.14,0,.29,0,.45H4Zm0,1H2.43c0,.14,0,.29,0,.44l1.51,0C4,17.35,4,17.19,4,17ZM2.44,15.57H4c0-.17,0-.33,0-.46H2.46a1.58,1.58,0,0,0,0,.32Z"/><path class="cls-1" d="M17,21.36c0,.09-.1.1-.49.1s-.37,0-.37-.1v0c0-.09,0-.17,0-.25l-.89,0-.87,0c0,.1,0,.21,0,.33s0,.14-.45.14-.42,0-.42-.11V21.4c0-.48.06-1,.06-1.18s0-.56,0-.86q-.27.12-.54.21l-.07,0a.12.12,0,0,1-.09-.05,1.85,1.85,0,0,0-.63-.48c-.06,0-.08,0-.08-.07l.08,0a5.52,5.52,0,0,0,2.41-1.22,6.66,6.66,0,0,1-.55-.62,4.18,4.18,0,0,1-1.26.93.17.17,0,0,1-.1,0,3.15,3.15,0,0,0-.63-.36s-.05,0-.05-.06,0,0,0,0a5.47,5.47,0,0,0,2.52-2.26.05.05,0,0,1,0,0h0l0,0,0-.33H13.36c0,.19,0,.33,0,.53s-.11.09-.47.09-.48,0-.48-.11a4.79,4.79,0,0,0,.07-.51c-.59,0-1.25,0-2.24.08-.15,0-.16-.07-.16-.41s0-.42.11-.42h0c1,0,1.66.06,2.26.07v-.15a2.58,2.58,0,0,0-.12-.8v0s0,0,.07,0c1.06.05,1.08.19,1.08.23a1.11,1.11,0,0,1-.14.34,1.49,1.49,0,0,0-.07.47h1.38v-.15a2.88,2.88,0,0,0-.11-.81s0,0,0,0,0,0,.07,0c1.06.05,1.08.19,1.08.23a1.11,1.11,0,0,1-.14.34,1.43,1.43,0,0,0-.07.46c.64,0,1.37,0,2.39-.07.08,0,.09,0,.09.08a3.33,3.33,0,0,1,0,.35A3,3,0,0,1,18,15S18,15,18,15c-1,0-1.73-.08-2.38-.08,0,.12,0,.25,0,.4s-.23.09-.51.09c.07,0,.33.16.33.24s-.06.09-.16.12a.24.24,0,0,0-.15.09h.06l1,0c.18,0,.19-.12.28-.12h0s.62.3.62.43-.11.14-.13.17a1.66,1.66,0,0,0-.33.31,10.31,10.31,0,0,1-.9,1,4.53,4.53,0,0,0,2.41.68h.09s.06,0,.06,0a.15.15,0,0,1,0,.06,3.77,3.77,0,0,0-.57.7.14.14,0,0,1-.11.07h0c-.22,0-.42-.09-.61-.14-.05.6-.05.95-.05,1.17s0,.41.06,1Zm-5.38-3A6.27,6.27,0,0,0,10.33,18c-.06,0-.1,0-.1-.06s.15-.7.3-.7a7.91,7.91,0,0,1,1.31.29s.05,0,.05.08-.16.75-.24.75A.15.15,0,0,1,11.57,18.33Zm.71,1.19A6.81,6.81,0,0,1,11.47,21c-.15.26-.16.44-.3.44a3.21,3.21,0,0,1-.89-.43s0,0,0-.07a.07.07,0,0,1,0-.06A7.14,7.14,0,0,0,11.74,19s0-.05,0-.05,0,0,0,.05a3,3,0,0,0,.42.51A.07.07,0,0,1,12.28,19.52ZM12,16.8a6.52,6.52,0,0,0-1.11-.64s-.09,0-.09-.07a2.21,2.21,0,0,1,.41-.63,4.34,4.34,0,0,1,1.27.67c0,.14-.29.7-.39.7A.16.16,0,0,1,12,16.8ZM14.14,19h1.09l1.38,0a5.76,5.76,0,0,1-1.44-.77A8.79,8.79,0,0,1,14.14,19Zm2,1.19c0-.19,0-.54,0-.54H14.34s0,.3,0,.55v.2l.87,0,.91,0Zm-1.48-3.71-.11.13a6.83,6.83,0,0,0,.61.64,8,8,0,0,0,.69-.77Z"/><path class="cls-1" d="M25.89,16c0-.05,0-.1,0-.16l-1.93,0-2.19,0V16a9.24,9.24,0,0,1-1.23,5.26c0,.06-.07.08-.12.08l-.1,0a4,4,0,0,0-.83-.12c-.05,0-.08,0-.08,0s0,0,.06-.07C20.67,19.8,21,17.51,21,15.77a16.44,16.44,0,0,0-.12-2,.35.35,0,0,0,0-.06s0,0,.05,0h.07c.78,0,1.42.06,3,.06h1c.44,0,.94,0,1.72,0,.06,0,.11,0,.11.07v0c0,.3-.05.66-.05,1a6.66,6.66,0,0,0,.08,1.11.43.43,0,0,1,0,.05c0,.09-.09.1-.59.1-.27,0-.36,0-.36-.1Zm1.87,4.77c.06,0,.09,0,.09.05a.16.16,0,0,1-.07.1,2.56,2.56,0,0,0-.52.62.06.06,0,0,1-.07.06,3.77,3.77,0,0,1-2.42-1.24,1.93,1.93,0,0,0-.06.42c0,.06,0,.11-.11.14l-2.5.66c-.13,0-.2.15-.27.15s-.55-.77-.55-.87,0,0,.1,0a10.79,10.79,0,0,0,1.35-.2c0-.31,0-.6,0-.9s0-.43,0-.65l-.91.06c-.12,0-.12-.06-.12-.41s0-.41.12-.41l1.21.06v-.7c-.27,0-.58,0-.94.05-.11,0-.11-.11-.11-.4s0-.39.11-.39L23,17a7.67,7.67,0,0,0-.07-.87v0s0,0,0,0,1,.07,1,.23a.24.24,0,0,1-.09.16c-.13.13-.14.2-.16.57h.92a7.74,7.74,0,0,0-.08-.89v0s0,0,0,0,1,.09,1,.26a.21.21,0,0,1-.05.11c-.12.12-.13.18-.16.58l1.2-.06c.05,0,.09,0,.09.07s0,.23,0,.39a2,2,0,0,1,0,.27s-.05.06-.09.06l-1.22-.07c0,.28,0,.54,0,.74.43,0,.92,0,1.69-.08a.08.08,0,0,1,.09.09c0,.07,0,.24,0,.4a1.94,1.94,0,0,1,0,.27s-.05.06-.09.06l-.77-.05c0,.05.47.47.47.64s-.09.09-.22.1a.67.67,0,0,0-.31.1c-.11.07-.4.2-.65.32a3.08,3.08,0,0,0,1.85.54h.25Zm-1.84-6.26H21.77v.6c.44,0,1.39,0,2.17,0s1.57,0,2,0Zm-2.43,5.94c.49-.11.93-.2,1.15-.26A3.67,3.67,0,0,1,24.06,19h-.38s0,.08-.09.12-.09.1-.09.15c0,.26,0,.55,0,.82Zm1.21-2.05c0-.21,0-.47,0-.76h-.93c0,.28,0,.54,0,.74h.91Zm.5,1.39a5.5,5.5,0,0,0,1-.72c-.57,0-1,0-1.39,0A2.27,2.27,0,0,0,25.2,19.76Z"/><path class="cls-1" d="M30.45,20.6a3.13,3.13,0,0,0-.79-.33s-.08,0-.08,0,0,0,.05-.06a5.11,5.11,0,0,0,1.77-2.54s0-.07.06-.07,1,.36,1,.55c0,0,0,.1-.14.15s-.2.13-.34.39a5.52,5.52,0,0,1-1.44,1.95Zm3.79-.07c0,.53-.35,1-1.38,1-.09,0-.11,0-.14-.12a2.41,2.41,0,0,0-.55-.81s0-.05,0-.07,0,0,0,0h0a3.07,3.07,0,0,0,.66.07c.35,0,.47-.11.47-.35s0-1,0-1.79c0-.62,0-1.23,0-1.55-.88,0-1.7,0-3.18.08C30,17,30,17,30,16.55s0-.47.12-.47c1.73.09,2.74.09,3.64.09s1.94,0,3.64-.09c.08,0,.1,0,.1.48a3.32,3.32,0,0,1,0,.38s0,.06-.08.06c-1.33-.07-2.24-.08-3-.08a1.2,1.2,0,0,1-.11.1c-.06,0-.07.14-.07,1.13v1.78c0,.17,0,.43,0,.56Zm0-5.68c-1.84,0-2.31,0-3.09.08-.05,0-.09,0-.09-.08s0-.22,0-.37c0-.42,0-.44.1-.44,1.07.06,1.73.07,2.32.07,1.34,0,1.86,0,3-.08.06,0,.07,0,.07.08s0,.24,0,.38a3.78,3.78,0,0,1,0,.38.05.05,0,0,1-.06.06C35.45,14.86,34.8,14.85,34.2,14.85ZM35,18a.07.07,0,0,1,0-.06,5.63,5.63,0,0,1,.69-.33.08.08,0,0,1,.07,0,6.48,6.48,0,0,0,2,2.27s.06,0,.06.06,0,0-.07.06a3,3,0,0,0-.76.46.18.18,0,0,1-.09,0l-.1,0A9.66,9.66,0,0,1,35,18Z"/><path class="cls-1" d="M45.62,16.38a.67.67,0,0,1,.67-.68.68.68,0,1,1,0,1.36A.67.67,0,0,1,45.62,16.38Zm0,2.64a.67.67,0,0,1,.67-.68.68.68,0,1,1-.67.68Z"/><path class="cls-1" d="M53.36,7.82c.13-1.42.14-3.34.14-4.06A22.67,22.67,0,0,0,53.39.67V.62s0,0,0,0,1.11.08,1.11.24-.1.21-.14.43c-.08.47-.08,2.13-.08,2.5,0,.75,0,3,.12,4.08,0,0,0,.06-.08.07h-.47c-.49,0-.51,0-.51-.08Zm6.72-.16c0,.11,0,.13-.1.13h-.47c-.28,0-.43,0-.43-.13l0-.43-1.25,0-1.31,0c0,.16,0,.32,0,.5s0,.12-.51.12-.5,0-.5-.1v0a31.83,31.83,0,0,0,.15-3.23c0-1.86,0-2.15-.1-3.58h0s0-.05.1-.05c.76.06,1.32.06,2.15.06a17.78,17.78,0,0,0,2.1-.07h0c.05,0,.06,0,.06.1C60,2.68,60,3.49,60,4.13c0,1,0,2.08.11,3.5Zm-.95-6H56.52s0,.77,0,1.9l1.34,0,1.31,0C59.15,2.43,59.13,1.67,59.13,1.67ZM57.85,4.31l-1.35,0c0,.61,0,1.25,0,2.11l1.32,0,1.29,0c0-.11,0-.6,0-2.11Z"/><path class="cls-1" d="M63.59,3.86a8.43,8.43,0,0,0-1.44-.46c-.06,0-.1,0-.1-.06a3.09,3.09,0,0,1,.25-.7s0,0,.1,0a9.86,9.86,0,0,1,1.51.4S64,3,64,3.06s-.17.82-.28.82ZM62.2,7.57a.09.09,0,0,1,0-.06,11,11,0,0,0,1.51-2.69s0-.05,0-.05,0,0,0,0a2.67,2.67,0,0,0,.48.47.07.07,0,0,1,0,.07.11.11,0,0,1,0,.05,16.11,16.11,0,0,1-.87,2.11c-.14.29-.12.48-.3.48S62.2,7.71,62.2,7.57ZM64,1.85A9.16,9.16,0,0,0,62.73,1s-.07,0-.07-.08a1.91,1.91,0,0,1,.49-.63,5.32,5.32,0,0,1,1.39.89,1.58,1.58,0,0,1-.47.72A.14.14,0,0,1,64,1.85ZM66.6,6.69a.58.58,0,0,0-.25.15,6.55,6.55,0,0,1-1.91,1.33.08.08,0,0,1-.08,0,2.93,2.93,0,0,0-.8-.5s-.05,0-.05,0,0,0,.06,0a5.45,5.45,0,0,0,2.29-1.44S65.92,6,66,6a1.94,1.94,0,0,1,.81.51S66.71,6.64,66.6,6.69ZM70,5c.06,0,.09,0,.09.49s0,.36-.1.36c-1.22-.07-2.13-.08-2.85-.08s-1.31,0-2.6.08c-.12,0-.13,0-.13-.42s0-.42.07-.42h.06l.77,0V4.15A18.57,18.57,0,0,0,65.23.91s0,0,0-.06,0,0,0,0a5.53,5.53,0,0,1,.86.24,8.28,8.28,0,0,0,2.4-.76s0,0,.07,0a2.59,2.59,0,0,1,.64.84c0,.09-.07.13-.21.13h-.2a.87.87,0,0,0-.26,0c-.4.12-1.23.3-2.33.51v0a5.25,5.25,0,0,0,0,.74h1.09a22,22,0,0,0,2.36-.1c.09,0,.11,0,.11.52a2.73,2.73,0,0,1,0,.31s-.08.07-.1.07l-.87-.07a.9.9,0,0,1-.1.09c-.08,0-.11.06-.11.71,0,.3,0,.68,0,1,.42,0,.88,0,1.44-.07Zm-2.31.08c0-.19,0-.4,0-.61s0-1,0-1.25h-.41l-1.09,0V5.09Zm2.55,2.44a2.7,2.7,0,0,0-.86.49.08.08,0,0,1-.07,0,6.13,6.13,0,0,1-1.82-1.65c0-.1.61-.33.62-.33a.14.14,0,0,1,.11.05,6.13,6.13,0,0,0,2,1.31s.07,0,.07,0S70.33,7.51,70.28,7.53Z"/><path class="cls-1" d="M79.18,5.48c0,.1-.06.11-.56.11-.32,0-.4,0-.4-.11s0-.22,0-.34c-.38,0-1.34,0-2.07,0,0,1,0,2.26.07,3q0,.08-.09.09H75.7c-.49,0-.53,0-.53-.12.06-.91.09-2,.11-2.95l-2,0v.42c0,.1,0,.11-.49.11s-.48,0-.48-.1a14.69,14.69,0,0,0,.11-1.89c0-.67,0-.9-.08-1.72,0,0,0-.07.1-.07.61,0,1.93.06,2.81.06A11.22,11.22,0,0,0,75.17.2v0c0-.06,0-.08.08-.08s1.19.1,1.19.3-.11.22-.18.41a5.06,5.06,0,0,0-.1,1.14c1,0,2.25,0,2.88-.08h0a.09.09,0,0,1,.09.09c-.05.79-.06,1.13-.06,1.72s0,1,.09,1.79ZM75.29,3.36c0-.16,0-.4,0-.68l-2,0s0,.47,0,1c0,.16,0,.39,0,.67l2,0Zm.85,0c0,.23,0,.6,0,1,.74,0,1.73,0,2.1,0,0-.26,0-.48,0-.63,0-.54,0-1,0-1l-2.1,0Z"/><path class="cls-1" d="M85.19,5.75c-.63,0-2.73,0-4,.08-.09,0-.11,0-.11-.43s0-.44.11-.44C82.29,5,84.1,5,85,5a.9.9,0,0,0-.44-.35.06.06,0,0,1,0-.05s0,0,.57-.41l0,0a.77.77,0,0,1,.4.18A7.27,7.27,0,0,0,86,3.81l-.9,0c-.53,0-1.16,0-1.86,0,0,0-.1,0-.11-.06s0-.2,0-.34c0-.41,0-.42.12-.42.57,0,1.35.08,2,.08h1.35c.08,0,.14-.1.22-.1a2.09,2.09,0,0,1,.72.56s0,.07-.14.11a.61.61,0,0,0-.21.12c-.25.21-.76.71-1.21,1.1L86,5c1,0,2.5,0,3.32-.09.1,0,.11.09.11.46a3.9,3.9,0,0,1,0,.4s-.05,0-.08,0c-.75-.06-2.16-.08-3.15-.09a3.8,3.8,0,0,1,0,.46A2.75,2.75,0,0,1,86,7.3a1.52,1.52,0,0,1-1.63,1c-.09,0-.15,0-.18-.08a4,4,0,0,0-.6-.78l0,0a0,0,0,0,1,0,0h0a4.9,4.9,0,0,0,.76.06c.44,0,.59-.12.72-.39a2.18,2.18,0,0,0,.18-.92,2.31,2.31,0,0,0,0-.37Zm3.68-2.26s-.05.08-.6.08c-.38,0-.43,0-.43-.09v0a7.63,7.63,0,0,0,0-.9c-.55,0-1.14,0-1.74,0-.29,0-2.56,0-3.53,0a9.12,9.12,0,0,0,0,.95.09.09,0,0,1-.08.09l-.54,0c-.37,0-.44,0-.44-.1v0a6.5,6.5,0,0,0,.1-1c0-.22,0-.39,0-.64v0s0-.05.07-.05h0c1.46.07,2.15.08,3.47.08H86A8.09,8.09,0,0,0,87,.18c0-.07,0-.1.08-.1s.94.35.94.48-.1.11-.2.17a.78.78,0,0,0-.24.24c-.13.18-.4.56-.63.84l1.83-.07c.07,0,.09,0,.09.05v0c0,.32,0,.54,0,.69a7,7,0,0,0,.07,1ZM83.43,1.71a.09.09,0,0,1-.08-.05A4.21,4.21,0,0,0,82.56.58s0,0,0-.06.67-.33.71-.33a4.32,4.32,0,0,1,1,1.07C84.18,1.36,83.5,1.71,83.43,1.71Zm1.67-.12A.08.08,0,0,1,85,1.52a4.62,4.62,0,0,0-.6-1.21.17.17,0,0,1,0-.07c0-.08.7-.24.7-.24a3.9,3.9,0,0,1,.79,1.22C85.88,1.32,85.18,1.59,85.1,1.59Z"/><path class="cls-1" d="M95.59,1.23a5.07,5.07,0,0,0-.11-1v0s0,0,0,0a8.81,8.81,0,0,1,1.12.16c.08,0,.09.06.09.11a.76.76,0,0,1-.14.29c-.09.14-.11.19-.13.55,0,0,0,.14,0,.25.57,0,1.39,0,2.19-.1,0,0,.07,0,.08.07s0,.25,0,.42a2.45,2.45,0,0,1,0,.3s0,0-.07,0c-.81-.08-1.7-.09-2.28-.09a25.32,25.32,0,0,0-2.58.09,3.33,3.33,0,0,1,0,.34,2.27,2.27,0,0,1,0,.29c0,.05-.07.07-.09.07-.33,0-.65-.06-.91-.07v.48a5.19,5.19,0,0,0,1.17.94c.06,0,.08,0,.08.08a.14.14,0,0,1,0,.06,3.9,3.9,0,0,0-.46.41s0,.07-.08.07-.65-.69-.68-.72c0,1,.06,3,.13,3.9,0,.05,0,.08-.48.08s-.55,0-.55-.1C92,6.88,92,5.26,92,4.29a2.89,2.89,0,0,1-.94,1.28l-.06,0a2.2,2.2,0,0,0-.69-.33s-.07,0-.07,0,0,0,0,0A5.34,5.34,0,0,0,92,3V2.88c-.31,0-.68,0-1.08.07-.08,0-.11,0-.11-.43s0-.42.11-.42c.39,0,.77,0,1.08.06a16.93,16.93,0,0,0-.1-2s0,0,0,0,0,0,0,0S93,.18,93,.38s-.08.22-.13.43a7.64,7.64,0,0,0-.11,1.35c.25,0,.53,0,.86-.06V1.77c0-.3,0-.36.11-.36.75.07,1.39.1,1.85.1Zm.92,2.49s0,0,0,0,1,.27,1,.43-.1.14-.17.19-.12.22-.18.39a6.17,6.17,0,0,1-.6,1.48,4.22,4.22,0,0,0,2.56,1.14s.08,0,.08.05,0,0-.09.08a3,3,0,0,0-.81.62.19.19,0,0,1-.14.08,5,5,0,0,1-2.06-1.33,5,5,0,0,1-2.38,1.46.08.08,0,0,1-.08,0,2.64,2.64,0,0,0-.7-.55c-.06,0-.08-.06-.08-.08s.06,0,.11,0a4.06,4.06,0,0,0,2.67-1.33,4.46,4.46,0,0,1-.59-1.28,3.26,3.26,0,0,0-.25.4c0,.07,0,.14-.08.14A1.52,1.52,0,0,1,94.08,5a.08.08,0,0,1,0-.06,5.15,5.15,0,0,0,1.1-1.25c0-.07,0-.11.11-.11s.46.11.46.24a.27.27,0,0,1-.06.16.67.67,0,0,0-.13.31v0a4.35,4.35,0,0,0,.51,1.2,4.14,4.14,0,0,0,.43-1.62.91.91,0,0,0,0-.17Zm-1-.81a.53.53,0,0,0-.19.18c-.4.52-1,1.09-1.12,1.09a.11.11,0,0,1-.08,0,2.06,2.06,0,0,0-.63-.35s-.05,0-.05,0,0,0,.05,0a3.43,3.43,0,0,0,1.43-1.33c0-.05,0-.08.08-.08s.74.26.74.42S95.69,2.86,95.53,2.91Zm1.53-.62s0,0,.09.07A4.19,4.19,0,0,0,98.61,3.5s.06,0,.06,0,0,0-.08.06a3.24,3.24,0,0,0-.68.41.07.07,0,0,1-.06,0,5,5,0,0,1-1.44-1.5,2.58,2.58,0,0,1,.6-.25Z"/><path class="cls-1" d="M105.84,1.45a.51.51,0,0,1,.28.39.11.11,0,0,1-.07.1,3.4,3.4,0,0,0-1.4,2.87,3.43,3.43,0,0,0,1.4,2.94.09.09,0,0,1,0,.09c0,.08-.11.39-.28.39h0a3.83,3.83,0,0,1-1.85-3.42,3.8,3.8,0,0,1,1.85-3.35Z"/><path class="cls-1" d="M108.35,4.58a6.53,6.53,0,0,0-1.15-.36s-.08,0-.08,0a2.13,2.13,0,0,1,.2-.55s0,0,.08,0a7.61,7.61,0,0,1,1.21.32s0,0,0,.05-.13.66-.22.66Zm.77,1.21a.09.09,0,0,1,0,0,18.57,18.57,0,0,1-.87,1.71c-.13.22-.12.36-.25.36a1.89,1.89,0,0,1-.78-.38.11.11,0,0,1,0-.06,7.32,7.32,0,0,0,1.41-2.13s0,0,0,0,0,0,0,0a2.34,2.34,0,0,0,.37.4A0,0,0,0,1,109.12,5.79ZM108.66,3a8.1,8.1,0,0,0-1-.68s-.06,0-.06-.06a1.54,1.54,0,0,1,.39-.51,4.12,4.12,0,0,1,1.12.72,1.24,1.24,0,0,1-.38.57A.12.12,0,0,1,108.66,3ZM111,8c0-.49.06-1.5.07-2.39l-1,0c0,.1,0,.21,0,.32s0,.08-.37.08-.36,0-.36-.07a13.89,13.89,0,0,0,.09-1.48c0-.53,0-.7-.06-1.35a.07.07,0,0,1,.07-.06c.43,0,1,0,1.61,0a11.15,11.15,0,0,0-.09-1.38v0s0-.05,0-.05.89.07.89.23a2.07,2.07,0,0,1-.14.31,6.18,6.18,0,0,0-.06.91c.6,0,1.22,0,1.69-.06h0s.06,0,.06.07c0,.62,0,.88,0,1.35s0,.78.06,1.41a.1.1,0,0,1-.09.09h-.34c-.25,0-.29,0-.29-.09a2.53,2.53,0,0,0,0-.27l-1.08,0c0,.89,0,1.91,0,2.41,0,0,0,.05-.06.06h-.33c-.3,0-.39,0-.39-.07ZM111,3.72h-1s0,.37,0,.77c0,.13,0,.31,0,.53h1Zm.65.45V5h1.1c0-.21,0-.39,0-.5,0-.42,0-.8,0-.8l-1.09,0Z"/><path class="cls-1" d="M115.23,7.52a1.15,1.15,0,0,0-.39,0c-.18,0-.2,0-.2,0s0,0,0,0a4,4,0,0,0,.46-1.66c0-.08,0-.08,0-.08s.62.07.62.18,0,.08-.09.15a.65.65,0,0,0-.07.21,8.39,8.39,0,0,1-.31,1.25.06.06,0,0,1-.06.06Zm1.3-2.39v0s0,.06-.07.09,0,.06,0,.12c0,1,0,1.42.09,2.64,0,.08,0,.08-.38.08s-.34,0-.34-.1c.09-1.26.08-1.69.08-2.74l-.65.1c-.09,0-.15.09-.2.09s-.26-.55-.26-.67,0,0,.08,0h.61c.1-.14.21-.32.33-.52a6.68,6.68,0,0,0-.94-.77s0,0,0,0,.32-.38.34-.38.16.09.17.09a5.09,5.09,0,0,0,.51-1.38c0-.05,0-.08,0-.08s.72.2.72.36-.06.1-.14.17a.57.57,0,0,0-.13.2c-.1.24-.37.72-.54,1a2.13,2.13,0,0,1,.32.26,6,6,0,0,0,.5-1.14s0-.07,0-.07.69.25.69.38-.06.1-.14.16a.42.42,0,0,0-.14.18c-.16.28-.62,1-.94,1.51a5.86,5.86,0,0,0,.63-.06c-.07-.15-.15-.28-.19-.35a.43.43,0,0,0,0,0S116.88,4,117,4a5.1,5.1,0,0,1,.58,1.11c0,.07-.37.23-.45.26h0s0,0-.06-.06a2,2,0,0,0-.08-.27Zm2.39,2.36c0-.09,0-.31,0-.62l-.76,0c0,.09,0,.17,0,.25s0,.06-.33.06-.33,0-.33,0V7.09h0a1.92,1.92,0,0,0-.48.16h0a6,6,0,0,1-.42-1.48c0-.07.43-.14.44-.14s0,0,0,0A6.31,6.31,0,0,0,117.55,7c0-.42,0-.73,0-1.15s0-.67,0-1.18c0,0,0,0,.06,0,.39,0,.89,0,1.34,0V4.2h-.64v.15s0,.06-.33.06-.31,0-.31-.06a9.34,9.34,0,0,0,.06-1.15c0-.33,0-.65,0-1.14,0,0,0,0,.07,0,.47,0,1,0,1.54,0s1,0,1.5-.05h0a.06.06,0,0,1,.06.06c0,.47,0,.78,0,1.14s0,.6,0,1.07c0,0,0,.08-.06.08h-.27c-.3,0-.31,0-.31-.06V4.21h-.72v.47c.48,0,1,0,1.4-.06h0a.06.06,0,0,1,.06.06c0,.3,0,.82,0,1.18s0,.64,0,1a1.94,1.94,0,0,0,.52.34s0,0,0,.06c-.07.83-.75.83-1.47.83s-1.17-.12-1.17-.56Zm-.76-2H119V5.1h-.79ZM119,6h-.79c0,.11,0,.28,0,.46h.77C118.94,6.29,119,6.14,119,6Zm0-3.49h-.66s0,.19,0,.4H119C119,2.76,119,2.61,118.94,2.49Zm-.64,1.28.65,0c0-.17,0-.34,0-.46h-.68Zm2.08,1.34h-.86c0,.15,0,.29,0,.44h.87Zm0,.87h-.87v.46h.87ZM120.75,7c-.38,0-.39,0-.39-.07s0,0,0-.08l-.85,0v.45a.19.19,0,0,0,.2.17l.47,0c.56,0,.66,0,.7-.47Zm-1.22-3.71c0,.13,0,.29,0,.46l.74,0V3.34Zm.09-.8c-.1.06-.06.17-.07.3s0,0,0,.08h.72c0-.22,0-.4,0-.4h-.58Z"/><path class="cls-1" d="M123.12,8.08a.07.07,0,0,1-.07,0c-.11-.18-.45-.35-.56-.44a.08.08,0,0,1,0,0l0,0a3.66,3.66,0,0,0,1.84-1.09.05.05,0,0,1,0,0c.08,0,.61.39.61.49s-.08.06-.16.09a.31.31,0,0,0-.19.09,5.38,5.38,0,0,1-1.46,1Zm3-1.61c0,.45,0,1.1.06,1.63,0,.08,0,.08-.4.08s-.39,0-.39-.09c0-.4,0-.91,0-1.37,0-.22,0-.43,0-.61H123.8v.28s0,0-.06,0h-.35c-.34,0-.39,0-.39-.07a21.15,21.15,0,0,0,.11-2.32V3.5A7.28,7.28,0,0,0,123,2.28v0s0,0,0,0h0c.75.07.88.11.88.22a.68.68,0,0,1-.1.24,3.75,3.75,0,0,0-.11,1.39c0,.41,0,.92,0,1.47h1.17c.92,0,2.15,0,3.65-.07.08,0,.09,0,.09.36s0,.35-.08.35c-.85,0-1.67-.07-2.36-.07l0,0a.14.14,0,0,0-.06.12Zm1.57-1.28c0,.08,0,.08-.08.08h-.34c-.18,0-.3,0-.3-.09V5.08H125.1v.17c0,.06,0,.07-.39.07s-.38,0-.38-.06h0a13,13,0,0,0,.12-1.59,14.49,14.49,0,0,0-.08-1.79h0s0,0,.08,0c.6,0,.92,0,1.57,0h.59l1,0c.06,0,.08,0,.08,0v0c-.05.66-.06,1.05-.06,1.77,0,.39,0,.82.08,1.53ZM127,3.25l-1,0h-1v.39l1,0,1,0Zm0-.88h-1.91v.36l1,0,1,0C127,2.48,127,2.37,127,2.37Zm-.94,1.75h-1v.44H127c0-.14,0-.29,0-.44Zm1.11,2.26,0,0a3.94,3.94,0,0,0,1.59,1s0,0,0,0a.11.11,0,0,1,0,0,3.82,3.82,0,0,0-.64.4l0,0a4.34,4.34,0,0,1-1.5-1.3,2.23,2.23,0,0,1,.51-.27Z"/><path class="cls-1" d="M131.41,8.09a3.11,3.11,0,0,0-.46-.42l0,0s0,0,.05,0c1.17-.28,2.17-1,2.17-2.12a2.47,2.47,0,0,0-.11-.68.64.64,0,0,0-.68-.46,3.39,3.39,0,0,0-1.45.55h-.06c-.13,0-.58-.62-.58-.66a.05.05,0,0,1,.05,0,2.6,2.6,0,0,0,.57-.14,4.4,4.4,0,0,1,1.53-.38,1.25,1.25,0,0,1,1.32.89,3.12,3.12,0,0,1,.16,1c0,2.1-2.32,2.64-2.37,2.64A.11.11,0,0,1,131.41,8.09Zm1.64-4.93a6.08,6.08,0,0,0-1.79-.51s-.07,0-.07,0,.22-.59.31-.59a7,7,0,0,1,1.95.47c0,.08-.27.7-.36.7A.05.05,0,0,1,133.05,3.16Z"/><path class="cls-1" d="M138.14,4.39a3,3,0,0,1,.52,0,1.54,1.54,0,0,1,1.7,1.49,2.14,2.14,0,0,1-2.3,1.92c-.88,0-1.49-.44-1.49-1,0-.35.26-.79,1-.79a1.12,1.12,0,0,1,1.22,1,1.41,1.41,0,0,0,.88-1.18c0-.52-.44-.93-1.18-.93a2.15,2.15,0,0,0-1.34.46c-.43.37-.57.51-.83.75l0,0a2.14,2.14,0,0,1-.57-.48.08.08,0,0,1,0-.05,20.6,20.6,0,0,0,2.73-2.44h-.08a8.2,8.2,0,0,1-1.65.33c-.05,0-.06,0-.1-.07a3.38,3.38,0,0,1-.18-.6s0-.07.06-.07h.33a7.25,7.25,0,0,0,2-.3h.06c.11,0,.66.37.66.48s-.14.15-.18.2c-.22.2-.77.71-1.28,1.2a.05.05,0,0,0,0,0s0,0,0,0Zm-.06,2.75c0-.48-.3-.62-.52-.62s-.33.22-.33.23c0,.21.34.4.8.4h.05Z"/><path class="cls-1" d="M146.22,3.59h-1.48c0,.28,0,.58,0,.87.35-.06.74-.15,1.2-.25H146s.07,0,.07.13a4.22,4.22,0,0,1,0,.52c0,.07-.06.08-1.25.24,0,.26,0,.52.06.75s0,.24,0,.33a5.49,5.49,0,0,1,1.77.86,1.74,1.74,0,0,1-.44.65s0,0,0,0a6,6,0,0,0-1.25-.76,1.27,1.27,0,0,1-1.38,1c-.84,0-1.43-.53-1.43-1S142.83,6,143.6,6a4.3,4.3,0,0,1,.61,0,.86.86,0,0,0,0-.16c0-.21,0-.45,0-.7l-.56,0c-1,0-1.24-.45-1.24-.5a1.41,1.41,0,0,1,.4-.49s0,0,.07.06a.93.93,0,0,0,.83.31l.48,0c0-.31,0-.62,0-.94a16.38,16.38,0,0,0-1.88.21h-.07c-.2,0-.33-.63-.33-.65s0,0,.07,0h.26c.3,0,1.81-.12,1.93-.13s0-.25,0-.37a3.35,3.35,0,0,0,0-.54v0c0-.06,0-.08.18-.08s.71,0,.71.17-.12.2-.13.3,0,.33,0,.51l1.51-.07c.14,0,.15,0,.15.18,0,.49-.08.52-.17.52Zm-2.66,3c-.26,0-.77,0-.77.3s.26.36.69.36c.63,0,.71-.34.74-.58A3.13,3.13,0,0,0,143.56,6.6Z"/><path class="cls-1" d="M151.09,3.4c-.38,0-1.63,0-2.84.07-.07,0-.09,0-.09-.37s0-.36.06-.36h0c1,0,2.07.07,2.6.08a6.18,6.18,0,0,0-.07-1.15v0s0,0,0,0,.95.08.95.23-.12.22-.16.35a6.16,6.16,0,0,0,0,.64c.54,0,1.59,0,2.61-.08.09,0,.09,0,.09.42v.25s-.05.06-.09.06c-1.16-.06-2.44-.07-2.84-.07Zm2.43,3.35c0,.42-.23.74-1,.75,0,0-.09,0-.1-.1a2,2,0,0,0-.41-.62l0,0s0,0,0,0h0c.19,0,.34,0,.46,0s.28,0,.28-.23V4.8l-1.27,0v.39c0,1,0,2.12.07,2.92,0,.06,0,.08-.42.08s-.4,0-.4-.09c.05-.68.09-1.78.09-2.73,0-.19,0-.38,0-.56h-1.22s0,.33,0,.54c0,.51,0,1.72,0,2.1,0,.07-.13.08-.39.08s-.4,0-.4-.07v0c0-.43.06-1.61.06-2.12,0-.24,0-.43-.06-1v0s0-.06.08-.06h0c.46,0,1.31,0,1.85,0a3.12,3.12,0,0,0-.06-.62V3.53s0,0,0,0,.88,0,.88.19a.17.17,0,0,1-.06.11.18.18,0,0,0-.09.15v.28c.52,0,1.4,0,1.91,0h0c.05,0,.06,0,.06.06v0c0,.34,0,.49,0,.65,0,.33,0,1.35,0,1.79Z"/><path class="cls-1" d="M159.79,8s-.07,0-.09-.08a1.66,1.66,0,0,0-.37-.55l0,0a0,0,0,0,1,0,0h0a2.26,2.26,0,0,0,.49.07.39.39,0,0,0,.39-.22,3.09,3.09,0,0,0,.19-1h-.61a2.7,2.7,0,0,1-1.75,2H158l-.05,0a1.5,1.5,0,0,0-.45-.37.79.79,0,0,1-.7.27.12.12,0,0,1-.11-.1,2.08,2.08,0,0,0-.34-.6.07.07,0,0,1,0,0s0,0,0,0h0l.4,0c.16,0,.22,0,.22-.23,0-.42,0-1,0-1.38l-.3,0h-.27A8.81,8.81,0,0,1,156,8a.09.09,0,0,1-.08,0h0a1.69,1.69,0,0,0-.59-.09s0,0,0,0a.11.11,0,0,1,0-.05,7.77,7.77,0,0,0,.69-3.61c0-.24,0-1.56,0-2.18V2s0,0,.06,0h0c.39,0,.57,0,.85,0s.35,0,.78,0h0c.05,0,.06,0,.06.06v0c0,.53,0,1.48,0,2.17,0,.21,0,1.08,0,1.53a4.1,4.1,0,0,0,.92-1.08c-.21,0-.41,0-.66,0h0a.06.06,0,0,1-.06-.06c0-.05,0-.15,0-.25,0-.29,0-.32.06-.32h0c.39,0,.66,0,.93,0a3.43,3.43,0,0,0,.19-.48c-.3,0-.59,0-.87.05h0s-.05,0-.06-.05V3.41c0-.25,0-.31.06-.31h0l.32,0v0a3.3,3.3,0,0,0-.44-.74s0,0,0,0,.46-.27.47-.27a2.45,2.45,0,0,1,.58.78c0,.06-.29.23-.43.31l.56,0a6.25,6.25,0,0,0,.21-1.29s0-.08,0-.11v0s0,0,0,0,.79.12.79.25-.07.11-.11.18a.61.61,0,0,0-.11.27c0,.26-.11.52-.18.77h.38A3.83,3.83,0,0,0,160.68,2s0-.05,0-.05.71.29.71.41-.12.11-.2.18a4.19,4.19,0,0,0-.43.6q.3,0,.6-.06h0s.06,0,.06.32a1.44,1.44,0,0,1,0,.24s0,0-.06,0l-.94-.05a3.12,3.12,0,0,0,.23.49l1.16-.06c.06,0,.07,0,.07.33,0,.1,0,.2,0,.26s0,0-.06,0c-.3,0-.56,0-.81,0a3.35,3.35,0,0,0,1.29,1s.06,0,.06.06,0,0-.08,0a2.11,2.11,0,0,0-.62.31l-.07,0s-.21-.13-.48-.39a6.42,6.42,0,0,1-.29,1.73.93.93,0,0,1-1,.58ZM157,5c0-.07,0-.48,0-.94h-.51v.2c0,.25,0,.51,0,.78H157Zm0-2.48h-.51v.95H157Zm.64,4.65a.78.78,0,0,1-.07.38,2.07,2.07,0,0,0,1.62-1.43l-.72,0c-.06,0-.07,0-.07-.36-.08.08-.34.37-.4.37h0a1,1,0,0,0-.36-.16c0,.37,0,.77,0,1.1Zm1.56-2.57a5.83,5.83,0,0,1-.61,1l.7,0a4.6,4.6,0,0,0,0-.5,1.38,1.38,0,0,0,0-.25v0s0,0,.07,0,.74.11.74.22a.2.2,0,0,1-.07.11.26.26,0,0,0-.08.15c0,.11,0,.22,0,.34A9.75,9.75,0,0,0,161,5.6a4.85,4.85,0,0,1-.71-1Zm.86-.49c-.07-.17-.14-.34-.19-.5h-.26c0,.17-.12.34-.18.5Z"/><path class="cls-1" d="M164.21,5.17a4.9,4.9,0,0,0-.81.07h0c-.08,0-.1,0-.1-.4s0-.33.07-.33h0a6.15,6.15,0,0,0,.73.06c.18,0,.41,0,.77,0h0s.06,0,.06,0v0a12.35,12.35,0,0,0-.08,1.57c0,.14,0,.28,0,.43.24.69,1.27.81,2.29.82a15.19,15.19,0,0,0,2.62-.31h.06a.11.11,0,0,1,0,.06,3.44,3.44,0,0,0-.32.71.12.12,0,0,1-.11.08,19.83,19.83,0,0,1-2.28.15,3.25,3.25,0,0,1-2.55-.88c-.27.25-.72.62-.81.69s-.11.18-.17.18a1.87,1.87,0,0,1-.6-.62s0,0,.07,0a4.64,4.64,0,0,0,1.12-.69c0-.57,0-1,0-1.39Zm-.71-2.66c0-.07.22-.54.31-.54s1.27.31,1.27.53c0,.06-.25.65-.35.65s0,0-.07,0a3.9,3.9,0,0,0-1.11-.54S163.5,2.54,163.5,2.51Zm5.43,3.07c0,.08-.08.09-.37.09s-.28,0-.28-.09v-.1h-.75c0,.18,0,.37,0,.56.42,0,1.19,0,1.82-.07.06,0,.09.08.09.29a2.36,2.36,0,0,1,0,.3.09.09,0,0,1-.07,0c-.61,0-1.36-.07-1.8-.07,0,.21,0,.42,0,.65,0,0,0,.05-.05.05h-.29c-.32,0-.34,0-.34-.07,0-.22,0-.44,0-.64-.39,0-1,0-1.67.07-.07,0-.1,0-.1-.32s0-.32.1-.32c.65,0,1.3.07,1.68.07,0-.19,0-.38,0-.56h-.72v.15c0,.08,0,.11-.35.11s-.31,0-.31-.06V5.61a9.3,9.3,0,0,0,.06-1.11c0-.35,0-.71,0-1.08,0,0,0,0,0-.06s0,0,.07,0h.05c.25,0,.81,0,1.24,0,0-.14,0-.28,0-.43-.34,0-.89,0-1.52.07-.07,0-.1,0-.1-.32s0-.32.1-.32c.62.06,1.15.07,1.5.07a5.73,5.73,0,0,0-.08-.69s0,0,0,0,0,0,0,0,.9.08.9.21-.06.1-.12.17-.09.08-.1.37c.39,0,1,0,1.64-.07.06,0,.09.08.09.29a2.36,2.36,0,0,1,0,.3.09.09,0,0,1-.07,0c-.6,0-1.26-.07-1.65-.07,0,.14,0,.28,0,.43.38,0,.89,0,1.29,0h0c.05,0,.07,0,.07.06v0c0,.51,0,.92,0,1.11a9.43,9.43,0,0,0,.05,1Zm-2-1h-.72V5H167Zm0-.82h-.72s0,.2,0,.4H167C167,4.07,167,3.93,167,3.79Zm1.33,0h-.76c0,.14,0,.27,0,.4h.78C168.3,4,168.29,3.79,168.29,3.79Zm0,.82h-.78v.44h.78Z"/><path class="cls-1" d="M172,4.61a6.81,6.81,0,0,0-1.16-.36s-.08,0-.08,0a2.58,2.58,0,0,1,.2-.55s0,0,.08,0a7.61,7.61,0,0,1,1.21.32s0,0,0,0-.13.66-.22.66Zm-1.11,3s0,0,0,0a8.37,8.37,0,0,0,1.2-2.16s0,0,0,0,0,0,.05,0a2.22,2.22,0,0,0,.38.37.06.06,0,0,1,0,.06.06.06,0,0,1,0,0,15,15,0,0,1-.69,1.69c-.11.23-.1.38-.24.38S170.85,7.7,170.85,7.59ZM172.26,3a7.36,7.36,0,0,0-1-.68s-.06,0-.06-.06a1.54,1.54,0,0,1,.39-.51,4.12,4.12,0,0,1,1.12.72,1.24,1.24,0,0,1-.38.57A.12.12,0,0,1,172.26,3Zm2.1,3.87a.67.67,0,0,0-.2.12,5.31,5.31,0,0,1-1.52,1.07.08.08,0,0,1-.07,0,2.4,2.4,0,0,0-.64-.4s0,0,0,0,0,0,.05,0a4.36,4.36,0,0,0,1.84-1.15s0-.07.08-.07a1.69,1.69,0,0,1,.65.41S174.45,6.84,174.36,6.88Zm2.76-1.34s.07,0,.07.39,0,.29-.08.29c-1-.06-1.71-.07-2.28-.07s-1.05,0-2.08.07c-.1,0-.11,0-.11-.34s0-.33.06-.33h.05l.61,0V4.85a15.4,15.4,0,0,0-.09-2.6s0,0,0,0,0,0,0,0a4.32,4.32,0,0,1,.68.19,6.41,6.41,0,0,0,1.92-.61l.06,0a2.27,2.27,0,0,1,.51.67c0,.07-.06.11-.17.11h-.16a.75.75,0,0,0-.2,0c-.33.1-1,.25-1.87.41v0a3.39,3.39,0,0,0,0,.59l.88,0a17.42,17.42,0,0,0,1.88-.08c.08,0,.09,0,.09.41a1.78,1.78,0,0,1,0,.25s0,.06-.08.06l-.69-.06a.27.27,0,0,1-.08.07c-.06,0-.08,0-.08.57v.82c.34,0,.71,0,1.15,0Zm-1.85.07c0-.16,0-.33,0-.5a9.61,9.61,0,0,0,0-1h-.32l-.88,0V5.61Zm2,1.94a2.56,2.56,0,0,0-.69.39s0,0-.05,0a4.78,4.78,0,0,1-1.46-1.33c0-.08.49-.26.49-.26a.1.1,0,0,1,.09,0,4.87,4.87,0,0,0,1.62,1s.06,0,.06,0S177.35,7.54,177.31,7.55Z"/><path class="cls-1" d="M180.5,7.6c0,.08,0,.1-.08.1a3.85,3.85,0,0,0-.46,0,1.61,1.61,0,0,0-.33,0h0s-.07,0-.07-.08v0a29.32,29.32,0,0,0,.14-3.19c0-.36,0-.68,0-1a.1.1,0,0,0-.1-.11h0l-.79.08h0s-.07,0-.07-.06a.18.18,0,0,1,0-.06,1.76,1.76,0,0,0,.14-.49c0-.07,0-.1.09-.1a6.59,6.59,0,0,0,1.35-.27l.14,0c.05,0,.08,0,.08.11s0,.05,0,.08c-.08.71-.08,2.63-.08,2.76a20.39,20.39,0,0,0,.09,2.22Z"/><path class="cls-1" d="M184.68,5.31h0a1.59,1.59,0,0,1-.89.26,1.45,1.45,0,0,1-1.49-1.52A1.66,1.66,0,0,1,184,2.42c1.09,0,1.61.88,1.61,1.9a4.52,4.52,0,0,1-2.56,3.88l-.08,0-.06,0a3.1,3.1,0,0,0-.48-.28.07.07,0,0,1,0-.06s0,0,.08-.07a4.26,4.26,0,0,0,2.21-2.46Zm.11-1.15c0-.67-.33-1.1-.83-1.1a.91.91,0,0,0-.84,1,.81.81,0,0,0,.81.87.85.85,0,0,0,.86-.75Z"/><path class="cls-1" d="M186.58,1.84a.52.52,0,0,1,.27-.39h.05a3.78,3.78,0,0,1,1.85,3.35,3.81,3.81,0,0,1-1.85,3.42h0c-.11,0-.28-.22-.28-.39a.11.11,0,0,1,0-.09A3.43,3.43,0,0,0,188,4.81a3.4,3.4,0,0,0-1.4-2.87A.12.12,0,0,1,186.58,1.84Z"/><path class="cls-1" d="M53.49,21.35c.13-1.15.18-3,.22-4.44-.51.71-.6.75-.68.75H53a2.23,2.23,0,0,0-.75-.22c-.06,0-.08,0-.08,0a.08.08,0,0,1,0-.06,8,8,0,0,0,2.35-3.83s0-.06.07-.06,1,.36,1,.51-.05.11-.17.17-.15,0-.21.16a11.72,11.72,0,0,1-.73,1.39l.17.06a.12.12,0,0,1,.08.11.26.26,0,0,1-.08.18.52.52,0,0,0-.13.41c0,1.07-.07,2.44-.07,3.59,0,.5,0,1,0,1.33,0,.05,0,.07-.09.08H54c-.41,0-.49,0-.49-.1Zm6.56-2.62c0,.06,0,.12-.47.12s-.42-.07-.42-.14,0-.15,0-.24H57.88a3.71,3.71,0,0,1-2.3,3,.09.09,0,0,1-.07,0,1.93,1.93,0,0,0-.7-.5c-.05,0-.07-.06-.07-.09s0,0,0,0a3,3,0,0,0,2.27-2.37c-.38,0-.84,0-1.48.08h0c-.1,0-.1-.11-.1-.36s0-.32,0-.4.07-.08.11-.08c.72.06,1.18.07,1.57.07,0-.22,0-.41,0-.61v-.54c-.56,0-1.25,0-2,.07-.11,0-.13,0-.13-.4s0-.45.13-.45c.78.05,1.46.07,2,.08,0-.21,0-.37,0-.48a4.1,4.1,0,0,0-.06-.64c-.37,0-.78,0-1.31.07-.12,0-.13,0-.13-.41s0-.43.09-.43h0c.79.07,1.34.08,1.84.08,1.56,0,1.87,0,2.29,0h0c.06,0,.08,0,.08.09v0c0,.61,0,.81,0,1.34v.37c.26,0,.54,0,.81-.06.07,0,.11,0,.11.43a3.26,3.26,0,0,1,0,.37.09.09,0,0,1-.09.05l-.8,0c0,.73,0,1.61,0,2Zm-.86-2.87c0-.2,0-1,0-1l-.48,0h-.78l.14,0c.09,0,.11.07.11.11a.29.29,0,0,1-.09.17c-.07.09-.08.09-.09.35,0,.11,0,.28,0,.47h1.21ZM58,16.63v.6c0,.18,0,.37,0,.56h1.23c0-.38,0-.81,0-1.16Z"/><path class="cls-1" d="M62.19,14.87a18.46,18.46,0,0,0,1.87.09c.23,0,1.06,0,1.93-.09.08,0,.11,0,.11.41a3.57,3.57,0,0,1,0,.37s-.06.06-.09.06a19.32,19.32,0,0,0-1.93-.09,18.68,18.68,0,0,0-1.87.09c-.09,0-.11,0-.11-.41s0-.43.09-.43Zm3.43,3.74c0,.4,0,.82,0,1.12,0,.53,0,.78,0,1.37,0,0,0,.07,0,.09s-.09.09-.42.09-.43,0-.43-.12,0-.24,0-.34l-.68,0-.72,0c0,.18,0,.39,0,.6s0,.15-.45.15c-.3,0-.41,0-.41-.11V21.4A13.07,13.07,0,0,0,62.63,20c0-.29,0-.68,0-1.36,0,0,0-.06,0-.08s0,0,.08,0h.05c.38,0,1,0,1.43,0s.79,0,1.37,0h0c.07,0,.08,0,.08.08Zm-2.8-4.89c.46,0,.74,0,1,0,.53,0,.82,0,1.57-.05.08,0,.11.12.11.35s0,.41-.11.41c-.61-.05-.89-.06-1.29-.06s-.64,0-1.27.06c-.09,0-.1-.06-.1-.36s0-.38.1-.38Zm-.09,2.77c0-.37,0-.38.11-.38.63.05.92.05,1.23.05s.65,0,1.26-.06c.06,0,.11,0,.11.4a2.36,2.36,0,0,1,0,.3c0,.05-.07.06-.09.06-.59-.05-.87-.06-1.26-.06s-.62,0-1.24.06C62.75,16.86,62.73,16.8,62.73,16.49ZM64.07,18c-.35,0-.65,0-1.27.05,0,0-.06,0-.06-.08s0-.22,0-.34c0-.3,0-.32.11-.32.63,0,.92,0,1.23,0s.65,0,1.26,0c0,0,.09,0,.09.08s0,.23,0,.37,0,.3-.1.3A12.44,12.44,0,0,0,64.07,18Zm.75,2c0-.19,0-.75,0-.75l-.68,0-.72,0v.93l.72,0,.69,0Zm2.74-2.84c-.35,0-.7,0-1.54.07-.09,0-.11,0-.11-.43s0-.44.11-.44c.84.06,1.17.08,1.54.08a17.06,17.06,0,0,0-.12-2.77.15.15,0,0,1,0-.06s0,0,0,0,1.22.08,1.22.28-.12.2-.18.4a11.67,11.67,0,0,0-.1,2.17c.43,0,.93,0,1.72-.09.07,0,.09.07.09.3s0,.4,0,.52,0,.06-.08.06c-.78-.07-1.28-.07-1.72-.07,0,3.12,0,3.63.07,4.27,0,.09-.06.09-.52.09s-.51,0-.51-.11C67.52,20.31,67.55,18.23,67.56,17.1Z"/><path class="cls-1" d="M79.29,18.25s.06,0,.06,0a.13.13,0,0,1,0,.06,8.58,8.58,0,0,1-.63,2.29,1.63,1.63,0,0,1-1.6,1c-.33,0-.36,0-.37-.13a1.26,1.26,0,0,0-.34-.55h-.35a.08.08,0,0,1-.08-.07l0-.1H73.11l0,.35a.08.08,0,0,1-.07.06h-.81a.08.08,0,0,1-.08-.08,8.1,8.1,0,0,0,.12-1,3.55,3.55,0,0,0-.08-.76h0s0-.06.05-.06h0c1,.06,1.07.16,1.07.22s-.06.14-.15.2-.09.15-.1.41v.1h1.06c0-1,0-1.16,0-1.2H74c0,.1,0,.12-.49.12s-.46,0-.46-.11v0c.08-.69.08-2.35.08-2.6a17.81,17.81,0,0,0-.06-2.06v-.06s0,0,.06,0h.08c.26,0,.83,0,1.35,0a3.62,3.62,0,0,0,.32-1c0-.06,0-.09,0-.09s1.11.19,1.11.36-.09.14-.19.22a.66.66,0,0,0-.17.23c0,.1-.12.2-.18.3.52,0,1.49,0,2.11,0h0c.08,0,.1,0,.1.07v0a4.81,4.81,0,0,0,0,.71c0,.23,0,1.38.06,1.84,0,0,0,.05,0,.07s0,.09-.55.09-.42,0-.42-.09h0V16.8H74v.44h1.76c.67,0,2.73,0,3.77-.08,0,0,.07,0,.08.08a3.44,3.44,0,0,1,0,.36,1.93,1.93,0,0,1,0,.26s0,.05-.08.05c-1-.07-3.14-.07-3.77-.07H74v.44H76.4c.69,0,1.9,0,2.85-.06Zm-5.31-2,1.39,0,1.43,0c0-.15,0-.3,0-.44H74Zm0-1.46v.44H76.8c0-.21,0-.44,0-.44Zm2,5.15a2.35,2.35,0,0,0-.07-.68v0a.05.05,0,0,1,.06-.06c1,.06,1,.15,1,.21s-.07.12-.15.17-.1.14-.1.51c0,.21,0,.47,0,.69h.27a.75.75,0,0,0,.76-.41,3.61,3.61,0,0,0,.42-1.4H74.79c.17,0,.35,0,.35.1s0,.08-.1.1a.16.16,0,0,0,0,.12c0,.14,0,.62,0,.89h1Z"/><path class="cls-1" d="M82.05,21.35c.13-1.15.19-3,.22-4.44-.51.71-.6.75-.67.75h-.06a2.17,2.17,0,0,0-.75-.22c-.05,0-.08,0-.08,0s0,0,0-.06a8.13,8.13,0,0,0,2.35-3.83s0-.06.06-.06,1,.36,1,.51-.06.11-.18.17-.15,0-.2.16a13.53,13.53,0,0,1-.73,1.39l.17.06a.14.14,0,0,1,.08.11.31.31,0,0,1-.08.18.52.52,0,0,0-.13.41c0,1.07-.08,2.44-.08,3.59,0,.5,0,1,0,1.33,0,.05,0,.07-.08.08h-.42c-.41,0-.49,0-.49-.1Zm6.57-2.62c0,.06,0,.12-.48.12s-.41-.07-.41-.14,0-.15,0-.24h-1.3a3.68,3.68,0,0,1-2.3,3,.06.06,0,0,1-.06,0,2,2,0,0,0-.71-.5s-.06-.06-.06-.09,0,0,0,0a3,3,0,0,0,2.27-2.37c-.38,0-.83,0-1.47.08h0c-.09,0-.09-.11-.09-.36s0-.32,0-.4.06-.08.11-.08c.71.06,1.17.07,1.56.07,0-.22,0-.41,0-.61v-.54c-.55,0-1.25,0-2,.07-.11,0-.13,0-.13-.4s0-.45.13-.45c.78.05,1.47.07,2,.08,0-.21,0-.37,0-.48a6,6,0,0,0,0-.64c-.37,0-.79,0-1.32.07-.12,0-.13,0-.13-.41s0-.43.1-.43h0c.8.07,1.34.08,1.84.08,1.57,0,1.87,0,2.3,0h0c.07,0,.09,0,.09.09v0a12.74,12.74,0,0,0,0,1.34v.37c.27,0,.55,0,.81-.06.08,0,.12,0,.12.43a3.26,3.26,0,0,1,0,.37s-.06.05-.1.05l-.8,0c0,.73,0,1.61.06,2Zm-.86-2.87c0-.2,0-1,0-1l-.48,0h-.78l.14,0c.08,0,.11.07.11.11a.35.35,0,0,1-.09.17c-.08.09-.09.09-.1.35,0,.11,0,.28,0,.47h1.22Zm-1.22.77v.6c0,.18,0,.37,0,.56h1.23c0-.38,0-.81,0-1.16Z"/><path class="cls-1" d="M90.76,14.87a18.46,18.46,0,0,0,1.87.09c.23,0,1.05,0,1.93-.09.07,0,.1,0,.1.41a3.57,3.57,0,0,1,0,.37s0,.06-.08.06a19.32,19.32,0,0,0-1.93-.09,18.57,18.57,0,0,0-1.87.09c-.09,0-.11,0-.11-.41s0-.43.08-.43Zm3.43,3.74c0,.4,0,.82,0,1.12a13.24,13.24,0,0,0,.06,1.37s0,.07,0,.09-.1.09-.43.09-.42,0-.42-.12,0-.24,0-.34l-.69,0-.72,0c0,.18,0,.39,0,.6s0,.15-.45.15-.41,0-.41-.11V21.4c.06-.64.06-1.2.06-1.43s0-.68,0-1.36c0,0,0-.06,0-.08s0,0,.07,0h.06c.38,0,1,0,1.43,0s.79,0,1.37,0h0c.06,0,.08,0,.08.08Zm-2.8-4.89c.45,0,.74,0,1,0,.52,0,.81,0,1.56-.05.08,0,.11.12.11.35s0,.41-.11.41c-.61-.05-.89-.06-1.28-.06s-.64,0-1.27.06c-.09,0-.1-.06-.1-.36s0-.38.1-.38Zm-.1,2.77c0-.37,0-.38.12-.38.62.05.91.05,1.23.05s.64,0,1.25-.06c.07,0,.11,0,.11.4,0,.11,0,.23,0,.3s-.08.06-.1.06c-.59-.05-.87-.06-1.25-.06s-.62,0-1.24.06C91.31,16.86,91.29,16.8,91.29,16.49ZM92.64,18c-.36,0-.65,0-1.27.05a.07.07,0,0,1-.07-.08c0-.08,0-.22,0-.34,0-.3,0-.32.12-.32.62,0,.91,0,1.23,0s.64,0,1.25,0c0,0,.1,0,.1.08v.37c0,.25,0,.3-.1.3A12.36,12.36,0,0,0,92.64,18Zm.74,2v-.75l-.69,0-.71,0s0,.51,0,.77v.16l.72,0,.69,0Zm2.74-2.84c-.34,0-.69,0-1.53.07-.1,0-.11,0-.11-.43s0-.44.11-.44c.84.06,1.16.08,1.53.08A15.84,15.84,0,0,0,96,13.61a.15.15,0,0,1,0-.06s0,0,0,0,1.22.08,1.22.28-.11.2-.18.4a11.67,11.67,0,0,0-.1,2.17c.44,0,.94,0,1.72-.09.08,0,.1.07.1.3s0,.4,0,.52-.06.06-.09.06A17,17,0,0,0,97,17.1c0,3.12,0,3.63.08,4.27,0,.09-.07.09-.52.09s-.52,0-.52-.11C96.08,20.31,96.11,18.23,96.12,17.1Z"/><path class="cls-1" d="M101.87,21.34c0,.12-.05.12-.51.12s-.5-.06-.5-.12c.11-1.48.11-3.24.11-3.92s0-2-.08-3.35c0,0,0-.09.07-.09h0c.69,0,2.31.08,3.14.08,1.21,0,2.21,0,3.42-.1.08,0,.1,0,.1.46s0,.44-.1.44c-1.57-.08-2.48-.08-3.41-.08h-2.29s0,2.1,0,2.65c0,.28,0,1.45,0,2.67.66,0,1.23,0,2.06,0,1.13,0,2,0,3.83-.09.09,0,.11,0,.11.47s0,.44-.1.44c-1.81-.1-2.77-.1-3.83-.1s-1.45,0-2,0Zm1.07-1.6a.24.24,0,0,1-.11,0,.11.11,0,0,1-.08,0,2.12,2.12,0,0,0-.7-.5c-.07,0-.1-.06-.1-.08s0,0,.1-.05a5.8,5.8,0,0,0,2.22-1.7c-.69-.51-1.29-.88-1.43-1s-.08-.05-.08-.08a1.56,1.56,0,0,1,.47-.59,12.36,12.36,0,0,1,1.55,1,6.75,6.75,0,0,0,.93-1.72c0-.06,0-.08.05-.08s1,.48,1,.65-.09.12-.17.16a1.23,1.23,0,0,0-.45.5,8.83,8.83,0,0,1-.64,1c.65.49,1.32,1.05,1.32,1.21s-.48.61-.61.61-.08,0-.14-.1a9.21,9.21,0,0,0-1.11-1A10.11,10.11,0,0,1,102.94,19.74Z"/><path class="cls-1" d="M117.28,20.42c0,.61-.47,1.08-1.5,1.08,0,0-.1,0-.13-.13a3.91,3.91,0,0,0-.61-.81.39.39,0,0,1,0-.06s0,0,0,0h0a3.75,3.75,0,0,0,.68.09c.29,0,.55-.08.56-.37V18.37a2.12,2.12,0,0,0-.63.45.15.15,0,0,1-.11.06,4.58,4.58,0,0,1-1.8-2.18A3.51,3.51,0,0,1,112,19a.11.11,0,0,1-.09,0,1.76,1.76,0,0,0-.51-.39c0,.91,0,1.51.06,2.92,0,0-.06.08-.12.08h-.83s-.09,0-.09-.07c.09-1.86.11-2.24.11-4,0-.32,0-1.58-.11-2.44,0,0,0-.05,0-.07s0-.06.09-.06h0c.89.06,2.08.07,2.8.07,0-.16,0-.31,0-.45a4.88,4.88,0,0,0-.11-1.06v0s0,0,.08,0a7.08,7.08,0,0,1,1,.15c.1,0,.12.07.12.11s-.15.24-.19.37a.48.48,0,0,0-.06.25l0,.7c.69,0,2,0,3-.05.09,0,.12,0,.12.09v0c-.06.7-.07,1.18-.07,1.64s0,2.66.07,3.73Zm-5.93-2.19a3.09,3.09,0,0,0,1.87-2.57h-1.87v2.56Zm5-.82c0-.65,0-1.74,0-1.74h-2.17a4.18,4.18,0,0,0,2.18,2.5Z"/><path class="cls-1" d="M121,21.47a9.64,9.64,0,0,0-1.66-1.4s-.06,0-.06-.06.55-.62.59-.62a8,8,0,0,1,1.84,1.34,2.49,2.49,0,0,1-.66.77A.05.05,0,0,1,121,21.47Z"/><path class="cls-1" d="M131.9,16.31c0,.05-.05.09-.56.09s-.4-.06-.4-.09v0c0-.14,0-.32,0-1-.64,0-1.11,0-1.52,0h-2.51c-.41,0-.84,0-1.46,0,0,.38,0,.67,0,1q0,.07-.09.09l-.5,0c-.26,0-.41,0-.41-.1h0a9.75,9.75,0,0,0,.1-1.08c0-.22,0-.45,0-.71v0s0-.06.08-.06h0c1.56.08,2.29.09,3,.09a6.48,6.48,0,0,0-.11-1.13v-.05s0,0,0,0a6.51,6.51,0,0,1,1.09.19c.09,0,.13.08.13.13s-.15.29-.19.46a2.5,2.5,0,0,0-.07.44c.89,0,1.56,0,3.16-.09.06,0,.08,0,.08.06v0c0,.32,0,.59,0,.76a7.36,7.36,0,0,0,.07,1ZM130,21.42c0-.1,0-.2,0-.29l-1.81,0-1.84,0c0,.12,0,.24,0,.36s0,.13-.43.13-.51,0-.51-.1v-.05a11.5,11.5,0,0,0,.07-1.38c0-.53,0-.77,0-1.19,0,0,0,0,0-.07s0,0,.06,0h.08c.28,0,1.17,0,1.86,0a4.41,4.41,0,0,0,.16-.82h-.78s0,.12,0,.19,0,.13-.46.13-.43,0-.43-.1V18.2a8.54,8.54,0,0,0,.06-1c0-.07,0-1,0-1.3,0,0,0-.06,0-.08s0,0,.07,0h.06c.4,0,1.62,0,2.1,0l2,0h0c.06,0,.08,0,.08.08v0a8.78,8.78,0,0,0,0,.93c0,.59,0,.94,0,1.27,0,0,0,.05,0,.07s-.05.09-.51.09-.38,0-.38-.09v0c0-.05,0-.11,0-.15h-1c.17,0,.25.06.25.12s-.06.09-.17.16-.12.14-.17.24-.08.21-.13.3c.52,0,1.9,0,2.52-.05h0c.08,0,.09,0,.09.08v0c0,.46,0,.76,0,1,0,.57,0,.92.05,1.46,0,0,0,.06,0,.08s0,.1-.53.1-.4-.06-.4-.11Zm-3.63-1,1.83,0,1.83,0c0-.16,0-.28,0-.36,0-.24,0-.53,0-.53h-3.64s0,.24,0,.55ZM129.57,17c0-.23,0-.49,0-.49H126.9s0,.21,0,.51v.32h2.68Z"/><path class="cls-1" d="M136.28,18.6s0,.07-.1.12c-.56.3-1.49.81-1.85,1-.12.05-.2.17-.29.17s-.62-.8-.62-.84.05-.05.1-.06a6.51,6.51,0,0,0,1.06-.32c0-.67,0-1.76,0-2.28l-.83,0c-.08,0-.1-.07-.1-.36s0-.33,0-.4a.08.08,0,0,1,.09-.08l.83.06a14.15,14.15,0,0,0-.1-2.06s0,0,0,0,0,0,0,0,1.13.14,1.13.35-.11.22-.17.33,0,.08-.09,1.46l.78-.06a.09.09,0,0,1,.09.08c0,.07,0,.24,0,.4s0,.36-.1.36l-.79,0c0,.46,0,1.37,0,1.93a6.87,6.87,0,0,0,.77-.35l.06,0s0,0,0,.08a4.19,4.19,0,0,0,0,.58Zm1.21,1.33c-.11,0-.14-.05-.15-.11a2,2,0,0,0-.29-.66,3.48,3.48,0,0,1-1.52,2.17.14.14,0,0,1-.11-.08,1.79,1.79,0,0,0-.71-.32s-.05,0-.05-.05,0,0,.06-.06c1.53-.72,1.86-2.5,1.86-3.94a9.89,9.89,0,0,0-.14-1.69.35.35,0,0,0,0-.06s0-.05.06-.05h0c.66.07,1.61.09,2.32.09a8.46,8.46,0,0,0-.15-1.56.65.65,0,0,1,0-.11s0,0,.06,0h0c.95.1,1,.12,1,.26a1.62,1.62,0,0,1-.12.35,1.61,1.61,0,0,0-.06.49c0,.18,0,.39,0,.59.52,0,1.2,0,1.85-.08h0c.06,0,.1,0,.1.07v.18c0,.17,0,.36,0,.49s-.05.08-.11.08c-.63-.05-1.31-.06-1.84-.06a11.78,11.78,0,0,0,.31,2.6,5.09,5.09,0,0,0,.64-1.9c0-.06,0-.1,0-.1s1,.35,1,.53-.12.18-.21.24a.77.77,0,0,0-.25.4,8.63,8.63,0,0,1-.91,1.72c.33.7.73,1.06.89,1.06s.28-.35.36-.77c0-.05,0-.07,0-.07s0,0,.05.05a2.88,2.88,0,0,0,.48.61.13.13,0,0,1,.06.12,0,0,0,0,1,0,0c-.26.78-.57,1.1-.92,1.1-.55,0-1.22-1-1.48-1.47a6,6,0,0,1-2,1.45.07.07,0,0,1-.06,0,2.31,2.31,0,0,0-.71-.54c-.07,0-.09-.06-.09-.08s0,0,.09,0a4.65,4.65,0,0,0,2.41-1.51,12.4,12.4,0,0,1-.54-3.39h-1.5v1a8.72,8.72,0,0,0,1.14-.07h0c.06,0,.08,0,.08.07v0a2.27,2.27,0,0,0,0,.28c0,.16,0,.35,0,.56,0,1.07-.1,2.24-1.06,2.24Zm-.38-.88a1.41,1.41,0,0,0,.37.07c.18,0,.41-.1.41-1.16,0-.17,0-.32,0-.45h-.53a7.88,7.88,0,0,1-.25,1.53Zm3.66-4.14a3.45,3.45,0,0,0-.85-.58s-.06,0-.06-.07a2.1,2.1,0,0,1,.37-.49s0,0,.05,0a2.62,2.62,0,0,1,1,.59c0,.08-.3.63-.44.63Z"/><path class="cls-1" d="M150.84,18.25s.06,0,.06,0a.13.13,0,0,1,0,.06,8.58,8.58,0,0,1-.63,2.29,1.63,1.63,0,0,1-1.6,1c-.33,0-.37,0-.37-.13a1.26,1.26,0,0,0-.34-.55h-.35a.08.08,0,0,1-.08-.07l0-.1h-2.88l0,.35a.08.08,0,0,1-.07.06h-.81a.08.08,0,0,1-.08-.08,8.1,8.1,0,0,0,.12-1,3,3,0,0,0-.09-.76h0a.05.05,0,0,1,.06-.06h0c1,.06,1.07.16,1.07.22s-.06.14-.15.2-.09.15-.1.41v.1h1.06c0-1,0-1.16,0-1.2h-.15c0,.1,0,.12-.49.12s-.46,0-.46-.11v0c.08-.69.08-2.35.08-2.6a17.81,17.81,0,0,0-.06-2.06v-.06s0,0,.06,0h.08c.26,0,.83,0,1.35,0a3.62,3.62,0,0,0,.32-1c0-.06,0-.09,0-.09.19,0,1.11.19,1.11.36s-.09.14-.19.22a.66.66,0,0,0-.17.23c-.05.1-.12.2-.18.3.52,0,1.49,0,2.11,0h0c.08,0,.1,0,.1.07v0a4.81,4.81,0,0,0-.05.71c0,.23,0,1.38.06,1.84,0,0,0,.05,0,.07s0,.09-.55.09-.42,0-.42-.09h0V16.8h-2.8v.44h1.76c.67,0,2.73,0,3.77-.08.05,0,.07,0,.08.08a3.44,3.44,0,0,1,0,.36,1.93,1.93,0,0,1,0,.26s0,.05-.08.05c-1-.07-3.14-.07-3.77-.07h-1.76v.44H148c.69,0,1.9,0,2.85-.06Zm-5.31-2,1.39,0,1.43,0c0-.15,0-.3,0-.44h-2.83Zm0-1.46v.44h2.81c0-.21,0-.44,0-.44Zm2,5.15a2.35,2.35,0,0,0-.07-.68v0a.05.05,0,0,1,.06-.06c1,.06,1,.15,1,.21s-.07.12-.15.17-.1.14-.1.51c0,.21,0,.47,0,.69h.26a.76.76,0,0,0,.77-.41,3.61,3.61,0,0,0,.42-1.4h-3.53c.18,0,.36,0,.36.1s-.05.08-.1.1a.16.16,0,0,0,0,.12c0,.14,0,.62,0,.89h1Z"/><path class="cls-1" d="M160.46,16.31c0,.05,0,.09-.55.09s-.41-.06-.41-.09v0a6.9,6.9,0,0,0,0-1c-.65,0-1.11,0-1.53,0H155.5c-.4,0-.84,0-1.46,0,0,.38,0,.67.05,1a.09.09,0,0,1-.08.09l-.5,0c-.26,0-.42,0-.42-.1h0a7.81,7.81,0,0,0,.1-1.08c0-.22,0-.45,0-.71v0s0-.06.07-.06h0c1.55.08,2.28.09,3,.09a7.33,7.33,0,0,0-.1-1.13.11.11,0,0,1,0-.05s0,0,.05,0a6.51,6.51,0,0,1,1.09.19c.09,0,.13.08.13.13s-.15.29-.2.46a2.43,2.43,0,0,0-.06.44c.88,0,1.55,0,3.15-.09.07,0,.08,0,.08.06v0c0,.32,0,.59,0,.76a8.24,8.24,0,0,0,.06,1Zm-1.86,5.11c0-.1,0-.2,0-.29l-1.8,0-1.84,0c0,.12,0,.24,0,.36s0,.13-.44.13-.51,0-.51-.1v-.05a10.07,10.07,0,0,0,.08-1.38,10.78,10.78,0,0,0,0-1.19s0,0,0-.07,0,0,.07,0h.07c.29,0,1.17,0,1.87,0a5.41,5.41,0,0,0,.16-.82h-.78s0,.12,0,.19,0,.13-.47.13-.43,0-.43-.1V18.2a7.05,7.05,0,0,0,.07-1c0-.07,0-1,0-1.3,0,0,0-.06,0-.08s0,0,.06,0h.07c.39,0,1.62,0,2.1,0l2,0h0c.06,0,.08,0,.08.08v0c0,.41,0,.7,0,.93,0,.59,0,.94,0,1.27,0,0,0,.05,0,.07s0,.09-.51.09-.38,0-.38-.09v0c0-.05,0-.11,0-.15h-1c.16,0,.24.06.24.12s-.06.09-.17.16a.53.53,0,0,0-.17.24,2.23,2.23,0,0,1-.13.3c.52,0,1.9,0,2.53-.05h0c.07,0,.09,0,.09.08v0c0,.46-.05.76-.05,1a13.91,13.91,0,0,0,.06,1.46s0,.06,0,.08,0,.1-.54.1-.4-.06-.4-.11Zm-3.62-1,1.83,0,1.82,0c0-.16,0-.28,0-.36,0-.24,0-.53,0-.53H155s0,.24,0,.55ZM158.13,17c0-.23,0-.49,0-.49h-2.65s0,.21,0,.51v.32h2.67Z"/><path class="cls-1" d="M164.84,18.6s0,.07-.1.12c-.55.3-1.49.81-1.85,1-.11.05-.19.17-.29.17s-.62-.8-.62-.84.05-.05.11-.06a7.16,7.16,0,0,0,1.06-.32c0-.67,0-1.76,0-2.28l-.83,0c-.09,0-.11-.07-.11-.36s0-.33,0-.4a.09.09,0,0,1,.1-.08l.83.06a14.15,14.15,0,0,0-.1-2.06s0,0,0,0,0,0,0,0,1.13.14,1.13.35-.11.22-.16.33-.05.08-.1,1.46l.78-.06a.08.08,0,0,1,.09.08c0,.07,0,.24,0,.4s0,.36-.1.36l-.79,0c0,.46,0,1.37,0,1.93a7.2,7.2,0,0,0,.78-.35l.05,0s0,0,0,.08a4.19,4.19,0,0,0,0,.58Zm1.21,1.33c-.11,0-.14-.05-.14-.11a2,2,0,0,0-.29-.66,3.51,3.51,0,0,1-1.53,2.17s-.07,0-.11-.08a1.81,1.81,0,0,0-.7-.32s-.06,0-.06-.05,0,0,.07-.06c1.52-.72,1.86-2.5,1.86-3.94a11,11,0,0,0-.14-1.69.35.35,0,0,0,0-.06s0-.05.05-.05h.06c.66.07,1.6.09,2.31.09a7.66,7.66,0,0,0-.15-1.56.65.65,0,0,1,0-.11s0,0,.06,0h0c.94.1,1,.12,1,.26a1.62,1.62,0,0,1-.12.35,2,2,0,0,0,0,.49c0,.18,0,.39,0,.59.51,0,1.2,0,1.85-.08h0c.07,0,.11,0,.11.07v.18c0,.17,0,.36,0,.49s-.06.08-.11.08c-.63-.05-1.32-.06-1.84-.06a11.78,11.78,0,0,0,.3,2.6,5,5,0,0,0,.65-1.9c0-.06,0-.1,0-.1s1,.35,1,.53-.12.18-.21.24a.84.84,0,0,0-.25.4,8,8,0,0,1-.9,1.72c.33.7.73,1.06.88,1.06s.28-.35.36-.77c0-.05,0-.07,0-.07s0,0,.06.05a2.58,2.58,0,0,0,.48.61.15.15,0,0,1,.05.12,0,0,0,0,1,0,0c-.26.78-.57,1.1-.91,1.1-.56,0-1.22-1-1.49-1.47a6.13,6.13,0,0,1-2,1.45.08.08,0,0,1-.07,0,2.1,2.1,0,0,0-.71-.54c-.06,0-.09-.06-.09-.08s0,0,.09,0A4.72,4.72,0,0,0,168,19.23a12.4,12.4,0,0,1-.54-3.39h-1.51v1a9,9,0,0,0,1.15-.07h0s.07,0,.07.07v0a2.27,2.27,0,0,0,0,.28c0,.16,0,.35,0,.56,0,1.07-.09,2.24-1.05,2.24Zm-.38-.88a1.41,1.41,0,0,0,.37.07c.19,0,.41-.1.41-1.16,0-.17,0-.32,0-.45h-.52a8.72,8.72,0,0,1-.25,1.53Zm3.67-4.14a3.9,3.9,0,0,0-.85-.58s-.07,0-.07-.07a2.1,2.1,0,0,1,.37-.49.07.07,0,0,1,.06,0,2.65,2.65,0,0,1,1,.59c0,.08-.29.63-.43.63A.15.15,0,0,1,169.34,14.91Z"/><path class="cls-1" d="M173.42,21.34c0,.12,0,.12-.51.12s-.5-.06-.5-.12c.11-1.48.11-3.24.11-3.92s0-2-.08-3.35c0,0,0-.09.06-.09h0c.69,0,2.31.08,3.14.08,1.21,0,2.21,0,3.42-.1.08,0,.1,0,.1.46s0,.44-.1.44c-1.57-.08-2.48-.08-3.41-.08h-2.29s0,2.1,0,2.65c0,.28,0,1.45,0,2.67.66,0,1.23,0,2.06,0,1.13,0,2,0,3.83-.09.09,0,.11,0,.11.47s0,.44-.1.44c-1.81-.1-2.77-.1-3.83-.1s-1.45,0-2.05,0Zm1.07-1.6a.29.29,0,0,1-.11,0,.11.11,0,0,1-.08,0,2.12,2.12,0,0,0-.7-.5c-.07,0-.1-.06-.1-.08s.05,0,.1-.05a5.88,5.88,0,0,0,2.22-1.7c-.69-.51-1.29-.88-1.43-1s-.08-.05-.08-.08a1.56,1.56,0,0,1,.47-.59,12.36,12.36,0,0,1,1.55,1,6.75,6.75,0,0,0,.93-1.72c0-.06,0-.08.05-.08s1,.48,1,.65-.09.12-.17.16a1.23,1.23,0,0,0-.45.5,8.83,8.83,0,0,1-.64,1c.65.49,1.32,1.05,1.32,1.21s-.48.61-.61.61-.08,0-.14-.1a9.21,9.21,0,0,0-1.11-1A10.11,10.11,0,0,1,174.49,19.74Z"/><path class="cls-1" d="M188.83,20.42c0,.61-.47,1.08-1.5,1.08-.05,0-.1,0-.13-.13a3.91,3.91,0,0,0-.61-.81.39.39,0,0,1,0-.06s0,0,0,0h.05a3.75,3.75,0,0,0,.68.09c.29,0,.55-.08.56-.37V18.37a2.12,2.12,0,0,0-.63.45.15.15,0,0,1-.11.06,4.58,4.58,0,0,1-1.8-2.18A3.51,3.51,0,0,1,183.5,19a.11.11,0,0,1-.09,0,1.76,1.76,0,0,0-.51-.39c0,.91,0,1.51.06,2.92,0,0-.06.08-.12.08H182s-.09,0-.09-.07c.09-1.86.11-2.24.11-4,0-.32,0-1.58-.11-2.44,0,0,0-.05,0-.07s0-.06.09-.06h0c.9.06,2.09.07,2.81.07,0-.16,0-.31,0-.45a4.88,4.88,0,0,0-.11-1.06v0s0,0,.08,0a7.08,7.08,0,0,1,1,.15c.09,0,.12.07.12.11s-.15.24-.19.37a.48.48,0,0,0-.06.25l0,.7c.69,0,2,0,3-.05.09,0,.12,0,.12.09v0c-.06.7-.07,1.18-.07,1.64s0,2.66.07,3.73Zm-5.93-2.19a3.09,3.09,0,0,0,1.87-2.57H182.9v2.56Zm5-.82c0-.65,0-1.74,0-1.74h-2.17a4.18,4.18,0,0,0,2.18,2.5Z"/></g></g></svg>