<svg xmlns="http://www.w3.org/2000/svg" viewBox="0 0 125.51 14.76"><defs><style>.cls-1{fill:#231815;}</style></defs><title>アセット 4</title><g id="レイヤー_2" data-name="レイヤー 2"><g id="レイヤー_1-2" data-name="レイヤー 1"><path class="cls-1" d="M2.5,14.55a6.68,6.68,0,0,0-1-.9c-.05-.05-.08-.08-.08-.11s0-.08.09-.1c2.53-.61,4.71-2.14,4.71-4.6A5.06,5.06,0,0,0,6,7.37a1.4,1.4,0,0,0-1.47-1A7.29,7.29,0,0,0,1.38,7.56a.24.24,0,0,1-.13,0C1,7.59,0,6.25,0,6.17S0,6.06.11,6a4.71,4.71,0,0,0,1.24-.29,9.29,9.29,0,0,1,3.3-.83A2.73,2.73,0,0,1,7.51,6.84a6.76,6.76,0,0,1,.34,2.1c0,4.55-5,5.72-5.13,5.72A.26.26,0,0,1,2.5,14.55ZM6.06,3.89a12.42,12.42,0,0,0-3.88-1.1c-.08,0-.14,0-.14-.11s.48-1.29.65-1.29,4.23.65,4.23,1c0,.2-.59,1.53-.78,1.53C6.1,3.93,6.09,3.91,6.06,3.89Z"/><path class="cls-1" d="M17.08,6.55a7,7,0,0,1,1.12-.11c2.39,0,3.7,1.56,3.7,3.22,0,2.07-2,4.15-5,4.15-1.91,0-3.24-.94-3.24-2.16,0-.75.58-1.7,2.1-1.7a2.43,2.43,0,0,1,2.65,2.27,3.05,3.05,0,0,0,1.9-2.56c0-1.12-.94-2-2.56-2a4.63,4.63,0,0,0-2.9,1c-.93.8-1.22,1.09-1.78,1.62a.25.25,0,0,1-.11.05,4.48,4.48,0,0,1-1.23-1,.15.15,0,0,1,0-.12c2.12-1.58,5.9-5,5.9-5.28l0,0-.13,0A17.83,17.83,0,0,1,14,4.6c-.12,0-.15,0-.23-.16a6.14,6.14,0,0,1-.4-1.3c0-.1,0-.14.15-.14h.09c.18,0,.39,0,.61,0a16,16,0,0,0,4.44-.66.21.21,0,0,1,.13,0c.24,0,1.44.82,1.44,1.06s-.31.32-.4.41c-.47.45-1.67,1.54-2.77,2.6,0,0-.07.06-.07.09s0,0,.08,0Zm-.13,6c0-1-.64-1.35-1.12-1.35-.72,0-.72.48-.72.51,0,.45.74.87,1.73.87H17Z"/><path class="cls-1" d="M34.59,4.82c-.49,0-1.1,0-1.81,0-.43,0-.89,0-1.39,0,0,.62,0,1.26,0,1.89.75-.13,1.6-.32,2.59-.53a.26.26,0,0,1,.11,0c.08,0,.15,0,.15.29a7.87,7.87,0,0,1-.08,1.12c0,.15-.13.18-2.71.52,0,.57.1,1.13.14,1.63a6.71,6.71,0,0,1,.05.72c1.59.47,3.83,1.62,3.83,1.86a4,4,0,0,1-.94,1.41.18.18,0,0,1-.12,0A12.25,12.25,0,0,0,31.73,12a2.76,2.76,0,0,1-3,2.16c-1.83,0-3.1-1.15-3.1-2.26,0-1.26,1.59-1.92,3.27-1.92a9.93,9.93,0,0,1,1.32.11,2.18,2.18,0,0,0,0-.35c0-.45,0-1-.08-1.5-.45,0-.85.06-1.22.06-2.18,0-2.69-1-2.69-1.09a3.3,3.3,0,0,1,.87-1.06s.09,0,.16.13A2,2,0,0,0,29.05,7a7.87,7.87,0,0,0,1-.06c0-.66-.06-1.35-.08-2-1.26.09-2.64.21-4.07.45a.34.34,0,0,1-.14,0c-.43,0-.71-1.36-.71-1.41s0-.11.15-.11h.56c.64,0,3.92-.25,4.18-.27,0-.27,0-.54,0-.8a9.22,9.22,0,0,0-.09-1.17V1.51c0-.13.08-.18.4-.18.48,0,1.54.1,1.54.37s-.28.43-.29.66-.07.7-.08,1.08c1.49-.08,2.69-.12,3.25-.14.31,0,.34,0,.34.39,0,1.07-.18,1.13-.37,1.13Zm-5.75,6.51c-.57,0-1.66.09-1.66.65,0,.4.54.79,1.49.79,1.34,0,1.52-.75,1.58-1.27A6.38,6.38,0,0,0,28.84,11.33Z"/><path class="cls-1" d="M45.14,4.41c-.82,0-3.53,0-6.14.14-.16,0-.21,0-.21-.78s0-.79.13-.79H39c2.23.11,4.49.14,5.63.16A13.33,13.33,0,0,0,44.48.66a.24.24,0,0,1,0-.1c0-.05,0-.06.08-.06S46.6.67,46.6,1c0,.19-.26.46-.34.75a8.46,8.46,0,0,0-.11,1.38c1.15,0,3.44-.05,5.64-.16.19,0,.21.11.21.91a4,4,0,0,1,0,.53c0,.08-.1.13-.19.13-2.52-.13-5.29-.14-6.14-.14Zm5.27,7.24c0,.91-.5,1.62-2.16,1.63a.22.22,0,0,1-.23-.21,4,4,0,0,0-.88-1.34.16.16,0,0,1,0-.1s0-.05.12-.05h0a9.3,9.3,0,0,0,1,.1c.4,0,.61-.11.61-.5,0-.22,0-2.72,0-3V7.43s-1.7,0-2.74,0v.84c0,2.06,0,4.58.16,6.32,0,.13-.08.18-.91.18s-.87-.05-.87-.21c.11-1.46.18-3.84.18-5.89,0-.42,0-.84,0-1.22H42s0,.71,0,1.17c0,1.11.07,3.72.1,4.55,0,.15-.29.18-.85.18-.8,0-.87,0-.87-.16v-.05c.07-.93.13-3.47.13-4.58a20.94,20.94,0,0,0-.13-2.23V6.2c0-.1,0-.13.18-.13h.06c1,.08,2.84.08,4,.08a9.1,9.1,0,0,0-.13-1.33.32.32,0,0,1,0-.13c0-.08,0-.11.08-.11s1.91.1,1.91.42a.35.35,0,0,1-.14.22.41.41,0,0,0-.19.32v.61c1.13,0,3,0,4.13-.08h0c.11,0,.13,0,.13.13v.08c-.07.75-.09,1.06-.09,1.41,0,.72,0,2.92.07,3.88Z"/><path class="cls-1" d="M68.05,9c.08,0,.11,0,.11.06a.38.38,0,0,1,0,.1,15.48,15.48,0,0,1-1.09,4,2.88,2.88,0,0,1-2.79,1.67c-.56,0-.63-.08-.64-.23a2.12,2.12,0,0,0-.58-1,5.82,5.82,0,0,1-.61,0,.13.13,0,0,1-.14-.12l0-.18h-5l0,.61a.12.12,0,0,1-.13.11c-.17,0-.43,0-.69,0s-.53,0-.7,0a.14.14,0,0,1-.15-.14,12.16,12.16,0,0,0,.21-1.8,5.85,5.85,0,0,0-.14-1.31v0c0-.07,0-.1.09-.1h0c1.79.1,1.85.27,1.85.39a.48.48,0,0,1-.25.33c-.16.11-.16.27-.18.72v.18h1.83c0-1.81,0-2,0-2.08h-.25c0,.18-.07.21-.85.21s-.8,0-.8-.19v-.05c.14-1.2.14-4.07.14-4.5A32,32,0,0,0,57.28,2c0-.05,0-.08,0-.12s0,0,.11,0h.14c.45,0,1.43,0,2.34,0A6.5,6.5,0,0,0,60.41.16c0-.11,0-.16.08-.16.32,0,1.92.34,1.92.63,0,.11-.16.24-.34.38a.94.94,0,0,0-.28.4c-.1.18-.21.34-.32.51.89,0,2.57,0,3.65-.06h0c.12,0,.16,0,.16.13V2a8,8,0,0,0-.08,1.23c0,.38,0,2.39.09,3.19,0,0,0,.08,0,.11s-.07.16-1,.16c-.7,0-.72-.08-.72-.16v0l0-.09-2.44,0-2.42,0v.75c1,0,2.17,0,3,0,1.17,0,4.73,0,6.54-.15.08,0,.12,0,.14.15a5.18,5.18,0,0,1,0,.62,2.83,2.83,0,0,1,0,.45.15.15,0,0,1-.14.1c-1.73-.13-5.45-.13-6.54-.13h-3v.77l3.34,0h.86c1.19,0,3.29,0,4.94-.11Zm-9.2-3.51,2.41,0,2.48,0c0-.26,0-.53,0-.77l-2.49,0-2.42,0Zm0-2.53,0,.75,2.39,0,2.48,0c0-.35,0-.75,0-.75Zm3.54,8.92a3.94,3.94,0,0,0-.13-1.19v0s0-.09.11-.09c1.76.09,1.8.25,1.8.35s-.12.21-.26.3-.18.24-.18.88a11.87,11.87,0,0,0,.07,1.19l.46,0a1.31,1.31,0,0,0,1.33-.72,6.06,6.06,0,0,0,.72-2.42h-6.1c.3,0,.61,0,.61.18s-.08.13-.16.17a.22.22,0,0,0-.08.2c0,.25,0,1.07,0,1.55.52,0,1.19,0,1.8,0Z"/><path class="cls-1" d="M72.88,2c0-.07,0-.08.11-.08.33,0,2.08.3,2.08.64s-.32.48-.37.91c-.19,2.4-.32,5.8-.32,6.25,0,1.49.06,2.79,1.83,2.79A7.91,7.91,0,0,0,81,10.21a.52.52,0,0,1,.16-.13s0,.08.06.19a5.12,5.12,0,0,0,.14,1.12.66.66,0,0,1,0,.26.54.54,0,0,1-.27.43,7.77,7.77,0,0,1-4.9,2,3.09,3.09,0,0,1-3.38-3.17c0-.42,0-.8,0-1.19,0-1.18.09-2.27.12-3.56,0-.6,0-1.47,0-2.35a16.27,16.27,0,0,0-.08-1.76Z"/><path class="cls-1" d="M87.38,10.7A44.72,44.72,0,0,1,87.17,6v-1c0-.21,0-.22.21-.22h.19c.22,0,1.3,0,1.3.34a.54.54,0,0,1-.1.25c-.16.26-.23.51-.27,1.7l.16,0a8.83,8.83,0,0,0,2-.44l.18,0c.09,0,.21.05.21.85,0,.42-.07.51-.24.55a10.17,10.17,0,0,1-2,.33H88.5a18.22,18.22,0,0,0,.21,2.27c0,.16,0,.31.06.45a5.6,5.6,0,0,1,2.64,1.57,6.53,6.53,0,0,1-.59,1,.29.29,0,0,1-.21.14s-.09,0-.16-.1a7.31,7.31,0,0,0-1.68-1.2,2.42,2.42,0,0,1-4.63-.3c0-1.07,1.15-1.49,2.37-1.49a5.09,5.09,0,0,1,.87.06Zm-.92,1.17c-.45,0-1,.11-1,.39a1,1,0,0,0,1,.62,1,1,0,0,0,1-.86A3.72,3.72,0,0,0,86.46,11.87Z"/><path class="cls-1" d="M99.83,10.69c0,.06,0,.12-.18.19-.94.46-3.27,1.6-3.89,1.87-.18.08-.32.28-.47.28s-1.14-1.43-1.14-1.46.08-.08.18-.1a12.42,12.42,0,0,0,2.13-.64c0-1.43.05-3.76.05-4V6.5l-1.65.07c-.15,0-.18-.1-.18-.61a6.05,6.05,0,0,1,0-.67.16.16,0,0,1,.16-.15c.54.05,1.09.1,1.65.12a27.69,27.69,0,0,0-.18-3.85s0,0,0-.08a.1.1,0,0,1,.11-.1c.16,0,1.95.23,1.95.6,0,.16-.2.38-.3.59a12.2,12.2,0,0,0-.18,2.84c.48,0,.89,0,1.48-.12a.16.16,0,0,1,.16.15c0,.13,0,.4,0,.67,0,.51,0,.61-.17.61L97.89,6.5v.28c0,.21,0,2.26,0,3.49l1.75-.74.09,0s0,0,0,.13a6.46,6.46,0,0,0,0,1Zm9,1.66c-.2,2-1.93,2-4.4,2-2.63,0-4,0-4-1.78v-.24c0-.25,0-2.45.06-4.55a9.34,9.34,0,0,1-1,.42.15.15,0,0,1-.14-.08A7.94,7.94,0,0,1,99,7c0-.1.07-.13.15-.16.43-.13.92-.27,1.41-.45,0-3.12,0-3.25-.13-3.67a.26.26,0,0,1,0-.11c0-.08,0-.11.15-.11.28,0,1.87.32,1.87.59s-.24.37-.37.56a1.72,1.72,0,0,0-.06.64c0,.19,0,.79,0,1.59L103,5.42l.24-.1c0-3.38,0-3.67-.16-4.29a1.31,1.31,0,0,1,0-.15c0-.06,0-.09.16-.09.31,0,1.86.28,1.86.54a.74.74,0,0,1-.22.38c-.18.23-.24.5-.24,3.05,1-.43,2.16-.93,2.77-1.24l.11,0a.12.12,0,0,1,.11.13v0c-.08,1.11-.06,4.35-.17,5.11-.16,1.17-.52,1.91-1.85,2a.32.32,0,0,1-.28-.24,4.3,4.3,0,0,0-.68-1.2l.05,1.88c0,.13,0,.19-.85.19-.62,0-.7,0-.7-.21.06-.94.09-3.4.11-4.55l-1.33.58c0,2.24,0,5,0,5.08,0,.51.17.73,2.27.73a14.93,14.93,0,0,0,2.37-.14c.56-.11.69-.83.69-1.6,0-.23,0-.27.07-.27a.2.2,0,0,1,.11.06,3.39,3.39,0,0,0,1.2,1c.06,0,.22.14.22.29Zm-4.19-6.28c0,.58,0,1.89,0,3.08h.1a3.62,3.62,0,0,0,.7.12c.45,0,.69-.29.69-2.89,0-.38,0-.72,0-.93-.21.08-.85.36-1.47.6Z"/><path class="cls-1" d="M115.61,10.19c0,.06,0,.13-.18.19-1,.47-2.78,1.35-3.41,1.62-.18.08-.32.27-.48.27s-1.12-1.36-1.12-1.42.08-.08.18-.1a11.4,11.4,0,0,0,2-.54c0-1.21,0-3.11,0-3.67l-1.44.06c-.13,0-.16,0-.16-.62a6.79,6.79,0,0,1,0-.72c0-.1.06-.15.14-.15.53,0,1,.1,1.44.11a30.9,30.9,0,0,0-.17-4v0c0-.12,0-.15.14-.15.32,0,1.83.29,1.83.59s-.19.39-.29.6-.1.24-.16,3a12.43,12.43,0,0,0,1.33-.11.16.16,0,0,1,.16.15,6.79,6.79,0,0,1,0,.72c0,.6,0,.62-.18.62l-1.35-.06c0,.49,0,2.14,0,3.15.64-.25,1.18-.48,1.47-.61l.1,0s0,0,0,.13a4.48,4.48,0,0,0,0,1Zm4.31.69c0,.1,0,.18-.18.24s-3.47,1.28-4,1.46c-.22.08-.33.3-.46.3a3.08,3.08,0,0,1-.91-1.33c0-.06.06-.06.16-.08a46,46,0,0,0,5.33-1.58l.1,0s.06,0,.06.08,0,0,0,.07a3.29,3.29,0,0,0-.1.78Zm0-6.2c-.81,0-3,0-4.75.16-.19,0-.2-.18-.2-.9s0-.59.19-.59c1.81.16,3.92.16,4.74.16l0-1.2c-.05-.66-.08-1.22-.14-1.6a.65.65,0,0,1,0-.18c0-.07,0-.08.1-.08h0c1.47.13,1.69.22,1.69.43a4.39,4.39,0,0,1-.22.63,2.92,2.92,0,0,0-.06.85V3.49c1,0,2.14-.06,3.25-.14.14,0,.16,0,.16.86a3.87,3.87,0,0,1,0,.53c0,.08-.08.1-.13.1-1-.11-2.27-.15-3.25-.16a24.46,24.46,0,0,0,.5,4.45,10,10,0,0,0,.93-3.54c0-.09,0-.16.09-.16s1.75.47,1.75.82c0,.14-.19.3-.34.43a1.37,1.37,0,0,0-.36.72,12.68,12.68,0,0,1-1.51,3.46c.29.66,1.06,1.89,1.44,1.89s.4-.62.55-1.36c0-.08,0-.11.08-.11s.06,0,.08.06a4.93,4.93,0,0,0,.93,1.08.24.24,0,0,1,.09.21s0,0,0,.06c-.45,1.35-1,1.92-1.59,1.92-.88,0-2-1.46-2.48-2.51a8.91,8.91,0,0,1-3.75,2.64.12.12,0,0,1-.1-.06,3.87,3.87,0,0,0-1.17-1c-.09-.08-.14-.11-.14-.15s.06,0,.16-.06a7.22,7.22,0,0,0,4.42-2.82,23.34,23.34,0,0,1-.88-6Zm-.65,4.92c0,.09,0,.16-.6.16s-.56,0-.56-.18V9.32h-1c0,.19,0,.4,0,.58s-.05.2-.63.2-.64,0-.64-.17V9.87a23.7,23.7,0,0,0,.15-2.5c0-.42,0-.91,0-1.6,0,0,0-.08,0-.11s0-.07.1-.07h.08a13.92,13.92,0,0,0,1.48.08,11.42,11.42,0,0,0,1.48-.08h0c.08,0,.1,0,.1.11v0c0,.35,0,.64,0,.9s0,.59,0,.78,0,1.11.06,2.07Zm-1.15-2.26c0-.29,0-.66,0-.66h-1s0,.32,0,.69V8.3l.5,0,.51,0Zm5-4.34a7.28,7.28,0,0,0-1.48-1c-.06,0-.11-.05-.11-.11a3.63,3.63,0,0,1,.64-.85.12.12,0,0,1,.1-.05,4.24,4.24,0,0,1,1.75,1c0,.11-.53,1.11-.76,1.11A.42.42,0,0,1,123.19,3Z"/></g></g></svg>